M48
; DRILL file {KiCad (5.1.6)-1} date 08/20/20 16:43:40
; FORMAT={-:-/ absolute / metric / decimal}
; #@! TF.CreationDate,2020-08-20T16:43:40+07:00
; #@! TF.GenerationSoftware,Kicad,Pcbnew,(5.1.6)-1
; #@! TF.FileFunction,Plated,1,2,PTH
FMAT,2
METRIC
T1C0.300
T2C0.600
T3C0.762
T4C0.800
T5C0.850
T6C1.000
T7C3.000
%
G90
G05
T1
X105.9Y-89.6
X105.95Y-93.65
X106.2Y-95.25
X106.7Y-100.675
X106.75Y-121.95
X106.775Y-114.705
X106.85Y-123.6
X107.15Y-124.9
X107.4Y-96.425
X107.405Y-112.555
X107.5Y-97.925
X107.525Y-111.675
X107.6Y-122.75
X108.2Y-92.325
X108.2Y-117.925
X108.25Y-97.21
X108.3Y-95.3
X108.3Y-100.05
X108.325Y-102.3
X108.325Y-111.675
X108.325Y-121.625
X108.4Y-101.05
X108.65Y-122.425
X108.65Y-123.425
X108.65Y-124.425
X108.95Y-106.075
X108.975Y-117.925
X109.225Y-111.675
X109.35Y-89.3
X109.525Y-107.225
X109.675Y-117.925
X109.825Y-109.975
X110.1Y-111.675
X110.125Y-108.925
X110.225Y-128.95
X110.375Y-117.925
X110.45Y-90.925
X111.075Y-111.675
X111.175Y-117.925
X111.245Y-122.405
X111.275Y-89.125
X111.275Y-119.2
X111.3Y-109.95
X111.35Y-125.3
X111.45Y-107.975
X111.475Y-108.925
X111.525Y-98.2
X111.55Y-120.3
X111.575Y-91.0
X111.85Y-123.45
X111.9Y-117.925
X112.0Y-121.2
X112.125Y-111.675
X112.275Y-89.45
X112.55Y-88.15
X112.7Y-94.9
X112.7Y-119.55
X112.7Y-127.8
X112.75Y-109.975
X112.825Y-108.0
X112.85Y-126.4
X113.0Y-108.975
X113.15Y-84.4
X113.2Y-91.7
X113.45Y-116.45
X113.6Y-94.5
X113.6Y-121.7
X113.63Y-93.27
X113.65Y-120.5
X113.7Y-126.1
X113.8Y-111.85
X113.9Y-103.875
X113.9Y-123.2
X113.925Y-102.65
X113.925Y-105.425
X114.215Y-84.895
X114.25Y-90.125
X114.325Y-87.675
X114.33Y-114.79
X114.375Y-117.925
X114.4Y-108.975
X114.575Y-119.475
X114.675Y-108.1
X114.725Y-110.0
X114.825Y-97.4
X115.075Y-111.875
X115.23Y-114.77
X115.25Y-117.05
X115.3Y-127.6
X115.35Y-102.65
X115.35Y-105.425
X115.375Y-106.775
X115.4Y-104.35
X115.55Y-108.975
X115.6Y-84.45
X115.825Y-91.8
X115.975Y-93.325
X115.975Y-116.35
X116.075Y-111.875
X116.55Y-108.1
X116.6Y-105.125
X116.61Y-103.97
X116.625Y-101.9
X116.625Y-102.65
X116.65Y-109.975
X116.675Y-106.675
X116.9Y-111.85
X116.965Y-95.225
X116.975Y-84.4
X117.325Y-124.625
X117.4Y-123.15
X117.5Y-91.4
X117.575Y-104.375
X117.615Y-101.895
X118.05Y-124.625
X118.15Y-106.775
X118.215Y-111.125
X118.275Y-123.15
X118.475Y-108.1
X118.875Y-110.4
X119.0Y-93.2
X119.15Y-106.775
X119.155Y-121.355
X119.175Y-91.05
X119.25Y-124.325
X119.3Y-115.175
X120.025Y-110.035
X120.15Y-106.775
X120.225Y-113.4
X120.295Y-108.65
X120.3Y-115.2
X120.4Y-120.7
X120.9Y-83.275
X120.95Y-112.675
X121.0Y-106.8
X121.045Y-109.825
X121.05Y-117.8
X121.205Y-102.115
X121.35Y-116.775
X121.45Y-87.95
X121.45Y-89.025
X121.45Y-89.95
X121.45Y-115.35
X121.65Y-113.425
X121.85Y-105.62
X121.875Y-103.575
X122.045Y-112.025
X122.075Y-83.225
X122.2Y-108.4
X122.245Y-109.895
X122.275Y-97.875
X122.3Y-107.45
X122.575Y-87.975
X122.725Y-113.425
X122.895Y-114.905
X122.945Y-124.505
X123.15Y-91.3
X123.375Y-83.25
X123.615Y-98.385
X123.675Y-124.997
X123.775Y-96.675
X123.8Y-93.925
X123.825Y-113.425
X124.145Y-114.905
X124.15Y-121.4
X124.2Y-123.975
X124.55Y-100.125
X124.555Y-116.665
X124.625Y-89.175
X124.65Y-85.55
X124.65Y-90.375
X124.675Y-91.5
X124.7Y-87.225
X124.7Y-121.975
X124.775Y-83.3
X124.825Y-84.25
X125.1Y-124.325
X125.125Y-122.975
X125.15Y-98.075
X125.35Y-107.75
X125.65Y-94.125
X125.725Y-117.15
X126.045Y-98.115
X126.05Y-124.55
X126.15Y-105.15
X126.325Y-93.425
X126.365Y-115.885
X126.655Y-114.775
X126.85Y-105.725
X126.855Y-121.345
X126.865Y-113.335
X127.0Y-118.95
X127.35Y-93.425
X127.35Y-94.225
X127.35Y-95.025
X127.35Y-95.825
X127.375Y-92.45
X127.635Y-118.135
X127.725Y-110.375
X127.75Y-98.1
X127.85Y-99.05
X128.125Y-103.975
X128.125Y-104.975
X128.125Y-105.975
X128.125Y-106.975
X128.125Y-107.975
X128.25Y-114.825
X128.295Y-124.475
X128.95Y-110.375
X128.975Y-114.15
X129.125Y-103.975
X129.125Y-104.975
X129.125Y-105.975
X129.125Y-106.975
X129.125Y-107.975
X129.4Y-102.6
X129.45Y-98.45
X129.535Y-92.775
X129.575Y-125.4
X129.675Y-97.4
X129.925Y-103.25
X129.925Y-114.85
X129.935Y-85.875
X129.975Y-115.65
X130.005Y-110.395
X130.125Y-104.975
X130.125Y-105.975
X130.125Y-106.975
X130.125Y-107.975
X130.135Y-104.005
X130.25Y-96.55
X130.25Y-117.9
X130.375Y-124.8
X130.45Y-113.175
X130.85Y-97.85
X131.115Y-110.225
X131.125Y-103.975
X131.125Y-104.975
X131.125Y-105.975
X131.125Y-106.975
X131.125Y-107.975
X131.17Y-124.38
X131.275Y-118.075
X131.32Y-97.2
X131.4Y-91.2
X131.5Y-115.725
X132.125Y-103.975
X132.125Y-104.975
X132.125Y-105.975
X132.125Y-106.975
X132.125Y-107.975
X132.2Y-101.8
X132.2Y-123.35
X132.25Y-118.6
X132.6Y-116.25
X132.8Y-97.1
X132.975Y-102.5
X133.2Y-109.75
X133.312Y-115.462
X133.315Y-113.885
X133.45Y-118.6
X133.55Y-116.7
X133.8Y-93.2
X134.287Y-111.413
X134.45Y-98.375
X134.45Y-115.4
X134.655Y-114.655
X134.787Y-111.913
X134.862Y-112.887
X134.925Y-117.125
X135.15Y-97.675
X135.625Y-100.35
X135.7Y-116.7
X135.8Y-97.0
X136.25Y-115.25
X136.28Y-98.79
X136.8Y-93.2
X137.12Y-119.97
X137.2Y-120.76
X137.21Y-121.74
X137.35Y-123.65
X137.35Y-124.7
X137.385Y-101.675
X137.625Y-110.275
X137.625Y-125.875
X137.675Y-111.1
X137.735Y-112.885
X137.775Y-112.1
X137.9Y-103.05
X138.025Y-104.995
X138.315Y-89.425
X138.45Y-115.5
X138.5Y-123.575
X138.525Y-110.55
X138.565Y-105.705
X138.6Y-112.8
X138.65Y-111.425
X138.7Y-94.5
X138.9Y-99.3
X138.975Y-86.375
X139.025Y-87.35
X139.215Y-106.465
X139.375Y-102.65
X139.825Y-98.325
X139.91Y-94.6
X139.95Y-99.825
X139.975Y-101.375
X140.1Y-91.55
X140.475Y-104.275
X140.525Y-125.725
X140.85Y-90.625
X140.995Y-103.695
X141.65Y-127.575
X141.675Y-90.05
X141.945Y-101.305
X142.15Y-99.025
X142.45Y-86.325
X142.575Y-127.575
X142.645Y-114.825
X142.65Y-100.125
X142.675Y-109.075
X142.675Y-110.1
X142.725Y-116.05
X142.775Y-83.075
X142.8Y-95.1
X142.805Y-111.295
X142.9Y-97.225
X142.9Y-118.7
X142.9Y-120.925
X142.95Y-104.625
X143.0Y-122.4
X143.0Y-123.4
X143.0Y-124.425
X143.0Y-125.55
X143.05Y-93.9
X143.5Y-127.575
X143.625Y-103.0
X143.9Y-105.9
X144.375Y-108.85
X144.375Y-109.9
X144.395Y-107.385
X144.425Y-112.325
X144.45Y-111.525
X145.0Y-95.1
X145.0Y-127.525
X145.075Y-125.9
X145.325Y-101.5
X145.575Y-93.1
X145.7Y-125.35
X145.775Y-104.25
X145.8Y-95.1
X145.8Y-127.5
X146.175Y-86.325
X146.2Y-83.575
X146.2Y-85.0
X146.425Y-124.875
X146.6Y-104.25
X146.8Y-127.35
X147.0Y-98.26
X147.115Y-102.015
X147.45Y-93.15
X147.45Y-126.75
X148.0Y-126.15
X148.035Y-86.555
X148.25Y-100.575
X148.612Y-101.412
X149.3Y-125.25
T3
X139.17Y-117.32
X139.17Y-119.86
X139.17Y-122.4
X139.17Y-124.94
X141.71Y-117.32
X141.71Y-119.86
X141.71Y-122.4
X141.71Y-124.94
T4
X106.85Y-104.0
X106.85Y-106.54
T5
X147.287Y-94.45
X147.287Y-99.45
T6
X148.51Y-102.9
X151.05Y-102.9
X148.4Y-105.67
X148.4Y-108.21
X148.4Y-110.75
X148.4Y-113.29
X148.4Y-115.83
X148.4Y-118.37
X148.4Y-120.91
X148.4Y-123.45
X128.575Y-89.825
X131.115Y-89.825
X133.655Y-89.825
X136.195Y-89.825
X106.86Y-88.58
X106.86Y-91.12
X128.575Y-87.125
X131.115Y-87.125
X133.655Y-87.125
X136.195Y-87.125
X142.575Y-88.595
X145.115Y-88.595
X147.655Y-88.595
X150.195Y-88.595
X151.05Y-105.67
X151.05Y-108.21
X151.05Y-110.75
X151.05Y-113.29
X151.05Y-115.83
X151.05Y-118.37
X151.05Y-120.91
X151.05Y-123.45
X128.625Y-84.375
X131.165Y-84.375
X133.705Y-84.375
X145.045Y-91.075
X147.585Y-91.075
X150.125Y-91.075
X116.7Y-128.0
X119.24Y-128.0
X121.78Y-128.0
X124.32Y-128.0
X126.86Y-128.0
X129.4Y-128.0
X131.94Y-128.0
X134.48Y-128.0
X137.02Y-128.0
X139.56Y-128.0
X136.5Y-84.35
X139.04Y-84.35
X141.58Y-84.35
X144.12Y-84.35
X145.7Y-105.62
X145.7Y-108.16
X145.7Y-110.7
X145.7Y-113.24
X145.7Y-115.78
X145.7Y-118.32
X145.7Y-120.86
X145.7Y-123.4
T7
X107.7Y-127.6
X107.8Y-85.0
X149.6Y-127.7
X149.8Y-84.8
T2
G00X149.637Y-93.45
M15
G01X150.338Y-93.45
M16
G05
G00X150.338Y-100.45
M15
G01X149.637Y-100.45
M16
G05
T0
M30
