%TF.GenerationSoftware,KiCad,Pcbnew,(5.1.6)-1*%
%TF.CreationDate,2020-08-20T13:52:42+07:00*%
%TF.ProjectId,drone_v3,64726f6e-655f-4763-932e-6b696361645f,rev?*%
%TF.SameCoordinates,Original*%
%TF.FileFunction,Legend,Top*%
%TF.FilePolarity,Positive*%
%FSLAX46Y46*%
G04 Gerber Fmt 4.6, Leading zero omitted, Abs format (unit mm)*
G04 Created by KiCad (PCBNEW (5.1.6)-1) date 2020-08-20 13:52:42*
%MOMM*%
%LPD*%
G01*
G04 APERTURE LIST*
%ADD10C,0.120000*%
%ADD11C,0.200000*%
%ADD12C,0.127000*%
%ADD13C,0.150000*%
%ADD14C,0.015000*%
G04 APERTURE END LIST*
D10*
%TO.C,nRF24*%
X137900000Y-115796000D02*
X143234000Y-115796000D01*
X143234000Y-115796000D02*
X143234000Y-126464000D01*
X143234000Y-126464000D02*
X137900000Y-126464000D01*
X137900000Y-126464000D02*
X137900000Y-126464000D01*
X140440000Y-116304000D02*
X140440000Y-118590000D01*
X140440000Y-118590000D02*
X138154000Y-118590000D01*
X138154000Y-118590000D02*
X138154000Y-118590000D01*
X137570000Y-115220000D02*
X137570000Y-115220000D01*
X137900000Y-126464000D02*
X137900000Y-115796000D01*
X137900000Y-115796000D02*
X137900000Y-115796000D01*
%TO.C,x*%
X124515000Y-114485000D02*
X124515000Y-117885000D01*
X124515000Y-117885000D02*
X128015000Y-117885000D01*
X124515000Y-114085000D02*
X124915000Y-114485000D01*
X124115000Y-114485000D02*
X124515000Y-114085000D01*
X124515000Y-114585000D02*
X124515000Y-114085000D01*
X124515000Y-114485000D02*
X124515000Y-114585000D01*
X128015000Y-117885000D02*
X127715000Y-118185000D01*
X127715000Y-117585000D02*
X128015000Y-117885000D01*
X124615000Y-117885000D02*
G75*
G03*
X124615000Y-117885000I-100000J0D01*
G01*
X124915000Y-117885000D02*
G75*
G03*
X124915000Y-117885000I-400000J0D01*
G01*
%TO.C,3.3v RX1 TX1 GND*%
X136195000Y-88495000D02*
X137525000Y-88495000D01*
X137525000Y-88495000D02*
X137525000Y-89825000D01*
D11*
%TO.C,U7*%
X121175000Y-125425000D02*
G75*
G03*
X121175000Y-125425000I-100000J0D01*
G01*
D12*
X122405000Y-122895000D02*
X122005000Y-122895000D01*
X122405000Y-123075000D02*
X122405000Y-122895000D01*
X120345000Y-122895000D02*
X120745000Y-122895000D01*
X120345000Y-123075000D02*
X120345000Y-122895000D01*
X120345000Y-124955000D02*
X120345000Y-124775000D01*
X120745000Y-124955000D02*
X120345000Y-124955000D01*
X122405000Y-124955000D02*
X122005000Y-124955000D01*
X122405000Y-124775000D02*
X122405000Y-124955000D01*
D10*
%TO.C,C34*%
X123245000Y-120027064D02*
X123245000Y-118822936D01*
X121425000Y-120027064D02*
X121425000Y-118822936D01*
%TO.C,C33*%
X115596267Y-122225000D02*
X115253733Y-122225000D01*
X115596267Y-121205000D02*
X115253733Y-121205000D01*
%TO.C,MCP1804*%
X113820000Y-124660000D02*
X114750000Y-124660000D01*
X116980000Y-124660000D02*
X116050000Y-124660000D01*
X116980000Y-124660000D02*
X116980000Y-122500000D01*
X113820000Y-124660000D02*
X113820000Y-123200000D01*
D13*
%TO.C,ICM 20948*%
X116150000Y-120550000D02*
X116150000Y-120150000D01*
X116150000Y-120550000D02*
X116550000Y-120550000D01*
X119350000Y-120550000D02*
X119350000Y-120150000D01*
X119350000Y-120550000D02*
X118950000Y-120550000D01*
X119350000Y-117350000D02*
X119350000Y-117750000D01*
X119350000Y-117350000D02*
X118950000Y-117350000D01*
X116150000Y-117350000D02*
X116550000Y-117350000D01*
D10*
%TO.C,C32*%
X115446267Y-126660000D02*
X115103733Y-126660000D01*
X115446267Y-125640000D02*
X115103733Y-125640000D01*
X121690000Y-91887779D02*
X121690000Y-91562221D01*
X122710000Y-91887779D02*
X122710000Y-91562221D01*
%TO.C,C6*%
X138115000Y-99350000D02*
X138115000Y-102235000D01*
X138115000Y-102235000D02*
X139685000Y-102235000D01*
X139685000Y-102235000D02*
X139685000Y-99350000D01*
%TO.C,CAP*%
X132760000Y-115675000D02*
X132760000Y-112790000D01*
X132760000Y-112790000D02*
X131190000Y-112790000D01*
X131190000Y-112790000D02*
X131190000Y-115675000D01*
%TO.C,MCP1700*%
X134910000Y-125780000D02*
X133450000Y-125780000D01*
X134910000Y-122620000D02*
X132750000Y-122620000D01*
X134910000Y-122620000D02*
X134910000Y-123550000D01*
X134910000Y-125780000D02*
X134910000Y-124850000D01*
%TO.C,C30*%
X132560000Y-124271267D02*
X132560000Y-123928733D01*
X131540000Y-124271267D02*
X131540000Y-123928733D01*
%TO.C,C29*%
X136810000Y-124346267D02*
X136810000Y-124003733D01*
X135790000Y-124346267D02*
X135790000Y-124003733D01*
%TO.C,C28*%
X144372779Y-100310000D02*
X144047221Y-100310000D01*
X144372779Y-99290000D02*
X144047221Y-99290000D01*
%TO.C,C21*%
X135660000Y-120752064D02*
X135660000Y-119547936D01*
X133840000Y-120752064D02*
X133840000Y-119547936D01*
%TO.C,J7*%
X145450000Y-85680000D02*
X145450000Y-83020000D01*
X137770000Y-85680000D02*
X145450000Y-85680000D01*
X137770000Y-83020000D02*
X145450000Y-83020000D01*
X137770000Y-85680000D02*
X137770000Y-83020000D01*
X136500000Y-85680000D02*
X135170000Y-85680000D01*
X135170000Y-85680000D02*
X135170000Y-84350000D01*
%TO.C,I2C1*%
X111165000Y-87260000D02*
X111165000Y-88110000D01*
X111165000Y-88110000D02*
X113490000Y-88110000D01*
X113490000Y-88110000D02*
X113490000Y-90500000D01*
X123335000Y-87260000D02*
X123335000Y-88110000D01*
X123335000Y-88110000D02*
X121010000Y-88110000D01*
X111165000Y-83740000D02*
X111165000Y-82890000D01*
X111165000Y-82890000D02*
X123335000Y-82890000D01*
X123335000Y-82890000D02*
X123335000Y-83740000D01*
%TO.C,UART3*%
X109360000Y-120835000D02*
X110210000Y-120835000D01*
X110210000Y-120835000D02*
X110210000Y-118510000D01*
X110210000Y-118510000D02*
X112600000Y-118510000D01*
X109360000Y-108665000D02*
X110210000Y-108665000D01*
X110210000Y-108665000D02*
X110210000Y-110990000D01*
X105840000Y-120835000D02*
X104990000Y-120835000D01*
X104990000Y-120835000D02*
X104990000Y-108665000D01*
X104990000Y-108665000D02*
X105840000Y-108665000D01*
%TO.C,C26*%
X133660000Y-120462779D02*
X133660000Y-120137221D01*
X132640000Y-120462779D02*
X132640000Y-120137221D01*
%TO.C,C22*%
X119710000Y-123687779D02*
X119710000Y-123362221D01*
X118690000Y-123687779D02*
X118690000Y-123362221D01*
%TO.C,24LC512*%
X117625000Y-96465000D02*
X119575000Y-96465000D01*
X117625000Y-96465000D02*
X115675000Y-96465000D01*
X117625000Y-91345000D02*
X119575000Y-91345000D01*
X117625000Y-91345000D02*
X114175000Y-91345000D01*
%TO.C,C2*%
X132610000Y-120462779D02*
X132610000Y-120137221D01*
X131590000Y-120462779D02*
X131590000Y-120137221D01*
%TO.C,C1*%
X127160000Y-120712779D02*
X127160000Y-120387221D01*
X126140000Y-120712779D02*
X126140000Y-120387221D01*
%TO.C,Rc_sbus1*%
X133310000Y-95028733D02*
X133310000Y-95371267D01*
X132290000Y-95028733D02*
X132290000Y-95371267D01*
%TO.C,Rb_sbus1*%
X134710000Y-95028733D02*
X134710000Y-95371267D01*
X133690000Y-95028733D02*
X133690000Y-95371267D01*
%TO.C,UART4*%
X137525000Y-88455000D02*
X137525000Y-85795000D01*
X129845000Y-88455000D02*
X137525000Y-88455000D01*
X129845000Y-85795000D02*
X137525000Y-85795000D01*
X129845000Y-88455000D02*
X129845000Y-85795000D01*
X128575000Y-88455000D02*
X127245000Y-88455000D01*
X127245000Y-88455000D02*
X127245000Y-87125000D01*
%TO.C,SBUS*%
X135035000Y-85705000D02*
X135035000Y-83045000D01*
X129895000Y-85705000D02*
X135035000Y-85705000D01*
X129895000Y-83045000D02*
X135035000Y-83045000D01*
X129895000Y-85705000D02*
X129895000Y-83045000D01*
X128625000Y-85705000D02*
X127295000Y-85705000D01*
X127295000Y-85705000D02*
X127295000Y-84375000D01*
%TO.C,R11*%
X124335000Y-94487221D02*
X124335000Y-94812779D01*
X123315000Y-94487221D02*
X123315000Y-94812779D01*
%TO.C,1k*%
X122710000Y-94512221D02*
X122710000Y-94837779D01*
X121690000Y-94512221D02*
X121690000Y-94837779D01*
%TO.C,C3*%
X127999721Y-124385000D02*
X128325279Y-124385000D01*
X127999721Y-123365000D02*
X128325279Y-123365000D01*
D13*
%TO.C,U3*%
X127850000Y-118750000D02*
X128250000Y-118750000D01*
X131050000Y-118750000D02*
X130650000Y-118750000D01*
X131050000Y-118750000D02*
X131050000Y-119150000D01*
X131050000Y-121950000D02*
X130650000Y-121950000D01*
X131050000Y-121950000D02*
X131050000Y-121550000D01*
X127850000Y-121950000D02*
X128250000Y-121950000D01*
X127850000Y-121950000D02*
X127850000Y-121550000D01*
D10*
%TO.C,Y1*%
X121525000Y-102475000D02*
X118225000Y-102475000D01*
X118225000Y-102475000D02*
X118225000Y-106475000D01*
%TO.C,ESD*%
X143100000Y-98860000D02*
X145550000Y-98860000D01*
X144900000Y-95640000D02*
X143100000Y-95640000D01*
%TO.C,STM32F405*%
X133760000Y-111110000D02*
X134710000Y-111110000D01*
X134710000Y-111110000D02*
X134710000Y-110160000D01*
X125440000Y-111110000D02*
X124490000Y-111110000D01*
X124490000Y-111110000D02*
X124490000Y-110160000D01*
X133760000Y-100890000D02*
X134710000Y-100890000D01*
X134710000Y-100890000D02*
X134710000Y-101840000D01*
X125440000Y-100890000D02*
X124490000Y-100890000D01*
X124490000Y-100890000D02*
X124490000Y-101840000D01*
X124490000Y-101840000D02*
X123150000Y-101840000D01*
%TO.C,RST*%
X110850000Y-100850000D02*
X111300000Y-100850000D01*
X111300000Y-100850000D02*
X111300000Y-94550000D01*
X111300000Y-94550000D02*
X110900000Y-94550000D01*
X109550000Y-100850000D02*
X106850000Y-100850000D01*
X106850000Y-94550000D02*
X109550000Y-94550000D01*
X105100000Y-100850000D02*
X105100000Y-94550000D01*
X105100000Y-94550000D02*
X105550000Y-94550000D01*
X105550000Y-100850000D02*
X105100000Y-100850000D01*
%TO.C,Rc_sbus2*%
X131921267Y-93160000D02*
X131578733Y-93160000D01*
X131921267Y-92140000D02*
X131578733Y-92140000D01*
%TO.C,R9*%
X137996267Y-96435000D02*
X137653733Y-96435000D01*
X137996267Y-95415000D02*
X137653733Y-95415000D01*
%TO.C,R8*%
X119171267Y-99410000D02*
X118828733Y-99410000D01*
X119171267Y-98390000D02*
X118828733Y-98390000D01*
%TO.C,R7*%
X119171267Y-100910000D02*
X118828733Y-100910000D01*
X119171267Y-99890000D02*
X118828733Y-99890000D01*
%TO.C,R6*%
X119171267Y-97910000D02*
X118828733Y-97910000D01*
X119171267Y-96890000D02*
X118828733Y-96890000D01*
%TO.C,R5*%
X113610000Y-96537221D02*
X113610000Y-96862779D01*
X112590000Y-96537221D02*
X112590000Y-96862779D01*
%TO.C,R3*%
X111310000Y-105828733D02*
X111310000Y-106171267D01*
X110290000Y-105828733D02*
X110290000Y-106171267D01*
%TO.C,R2*%
X109753733Y-103090000D02*
X110096267Y-103090000D01*
X109753733Y-104110000D02*
X110096267Y-104110000D01*
%TO.C,Q1*%
X131780000Y-94440000D02*
X130850000Y-94440000D01*
X128620000Y-94440000D02*
X129550000Y-94440000D01*
X128620000Y-94440000D02*
X128620000Y-96600000D01*
X131780000Y-94440000D02*
X131780000Y-95900000D01*
%TO.C,BOOT*%
X151455000Y-92405000D02*
X151455000Y-89745000D01*
X146315000Y-92405000D02*
X151455000Y-92405000D01*
X146315000Y-89745000D02*
X151455000Y-89745000D01*
X146315000Y-92405000D02*
X146315000Y-89745000D01*
X145045000Y-92405000D02*
X143715000Y-92405000D01*
X143715000Y-92405000D02*
X143715000Y-91075000D01*
%TO.C,BUZZ*%
X108190000Y-87250000D02*
X105530000Y-87250000D01*
X108190000Y-89850000D02*
X108190000Y-87250000D01*
X105530000Y-89850000D02*
X105530000Y-87250000D01*
X108190000Y-89850000D02*
X105530000Y-89850000D01*
X108190000Y-91120000D02*
X108190000Y-92450000D01*
X108190000Y-92450000D02*
X106860000Y-92450000D01*
%TO.C,J14*%
X152380000Y-104230000D02*
X152380000Y-101570000D01*
X149780000Y-104230000D02*
X152380000Y-104230000D01*
X149780000Y-101570000D02*
X152380000Y-101570000D01*
X149780000Y-104230000D02*
X149780000Y-101570000D01*
X148510000Y-104230000D02*
X147180000Y-104230000D01*
X147180000Y-104230000D02*
X147180000Y-102900000D01*
%TO.C,5v*%
X149730000Y-104340000D02*
X147070000Y-104340000D01*
X149730000Y-122180000D02*
X149730000Y-104340000D01*
X147070000Y-122180000D02*
X147070000Y-104340000D01*
X149730000Y-122180000D02*
X147070000Y-122180000D01*
X149730000Y-123450000D02*
X149730000Y-124780000D01*
X149730000Y-124780000D02*
X148400000Y-124780000D01*
%TO.C,GND*%
X152380000Y-104340000D02*
X149720000Y-104340000D01*
X152380000Y-122180000D02*
X152380000Y-104340000D01*
X149720000Y-122180000D02*
X149720000Y-104340000D01*
X152380000Y-122180000D02*
X149720000Y-122180000D01*
X152380000Y-123450000D02*
X152380000Y-124780000D01*
X152380000Y-124780000D02*
X151050000Y-124780000D01*
%TO.C,PWM*%
X147030000Y-104290000D02*
X144370000Y-104290000D01*
X147030000Y-122130000D02*
X147030000Y-104290000D01*
X144370000Y-122130000D02*
X144370000Y-104290000D01*
X147030000Y-122130000D02*
X144370000Y-122130000D01*
X147030000Y-123400000D02*
X147030000Y-124730000D01*
X147030000Y-124730000D02*
X145700000Y-124730000D01*
%TO.C,BAT*%
X105520000Y-107870000D02*
X108180000Y-107870000D01*
X105520000Y-105270000D02*
X105520000Y-107870000D01*
X108180000Y-105270000D02*
X108180000Y-107870000D01*
X105520000Y-105270000D02*
X108180000Y-105270000D01*
X105520000Y-104000000D02*
X105520000Y-102670000D01*
X105520000Y-102670000D02*
X106850000Y-102670000D01*
%TO.C,J1*%
X146437500Y-98650000D02*
X146887500Y-98650000D01*
X146437500Y-98650000D02*
X146437500Y-98200000D01*
X146987500Y-93050000D02*
X146987500Y-93500000D01*
X148837500Y-93050000D02*
X146987500Y-93050000D01*
X151387500Y-100850000D02*
X151137500Y-100850000D01*
X151387500Y-93050000D02*
X151137500Y-93050000D01*
X148837500Y-100850000D02*
X146987500Y-100850000D01*
X146987500Y-100850000D02*
X146987500Y-100400000D01*
%TO.C,PWR*%
X137000000Y-95235000D02*
X139460000Y-95235000D01*
X139460000Y-95235000D02*
X139460000Y-93765000D01*
X139460000Y-93765000D02*
X137000000Y-93765000D01*
%TO.C,D4*%
X116500000Y-98165000D02*
X114040000Y-98165000D01*
X114040000Y-98165000D02*
X114040000Y-99635000D01*
X114040000Y-99635000D02*
X116500000Y-99635000D01*
%TO.C,D3*%
X116500000Y-99665000D02*
X114040000Y-99665000D01*
X114040000Y-99665000D02*
X114040000Y-101135000D01*
X114040000Y-101135000D02*
X116500000Y-101135000D01*
%TO.C,D2*%
X116500000Y-96665000D02*
X114040000Y-96665000D01*
X114040000Y-96665000D02*
X114040000Y-98135000D01*
X114040000Y-98135000D02*
X116500000Y-98135000D01*
%TO.C,C11*%
X112590000Y-99862779D02*
X112590000Y-99537221D01*
X113610000Y-99862779D02*
X113610000Y-99537221D01*
%TO.C,nRF24*%
D11*
X136510714Y-122330238D02*
X137177380Y-122330238D01*
X136605952Y-122330238D02*
X136558333Y-122282619D01*
X136510714Y-122187380D01*
X136510714Y-122044523D01*
X136558333Y-121949285D01*
X136653571Y-121901666D01*
X137177380Y-121901666D01*
X137177380Y-120854047D02*
X136701190Y-121187380D01*
X137177380Y-121425476D02*
X136177380Y-121425476D01*
X136177380Y-121044523D01*
X136225000Y-120949285D01*
X136272619Y-120901666D01*
X136367857Y-120854047D01*
X136510714Y-120854047D01*
X136605952Y-120901666D01*
X136653571Y-120949285D01*
X136701190Y-121044523D01*
X136701190Y-121425476D01*
X136653571Y-120092142D02*
X136653571Y-120425476D01*
X137177380Y-120425476D02*
X136177380Y-120425476D01*
X136177380Y-119949285D01*
X136272619Y-119615952D02*
X136225000Y-119568333D01*
X136177380Y-119473095D01*
X136177380Y-119235000D01*
X136225000Y-119139761D01*
X136272619Y-119092142D01*
X136367857Y-119044523D01*
X136463095Y-119044523D01*
X136605952Y-119092142D01*
X137177380Y-119663571D01*
X137177380Y-119044523D01*
X136510714Y-118187380D02*
X137177380Y-118187380D01*
X136129761Y-118425476D02*
X136844047Y-118663571D01*
X136844047Y-118044523D01*
%TO.C,3.3v CLK DIO GND*%
X141335476Y-86287380D02*
X141830714Y-86287380D01*
X141564047Y-86668333D01*
X141678333Y-86668333D01*
X141754523Y-86715952D01*
X141792619Y-86763571D01*
X141830714Y-86858809D01*
X141830714Y-87096904D01*
X141792619Y-87192142D01*
X141754523Y-87239761D01*
X141678333Y-87287380D01*
X141449761Y-87287380D01*
X141373571Y-87239761D01*
X141335476Y-87192142D01*
X142173571Y-87192142D02*
X142211666Y-87239761D01*
X142173571Y-87287380D01*
X142135476Y-87239761D01*
X142173571Y-87192142D01*
X142173571Y-87287380D01*
X142478333Y-86287380D02*
X142973571Y-86287380D01*
X142706904Y-86668333D01*
X142821190Y-86668333D01*
X142897380Y-86715952D01*
X142935476Y-86763571D01*
X142973571Y-86858809D01*
X142973571Y-87096904D01*
X142935476Y-87192142D01*
X142897380Y-87239761D01*
X142821190Y-87287380D01*
X142592619Y-87287380D01*
X142516428Y-87239761D01*
X142478333Y-87192142D01*
X143240238Y-86620714D02*
X143430714Y-87287380D01*
X143621190Y-86620714D01*
X144992619Y-87192142D02*
X144954523Y-87239761D01*
X144840238Y-87287380D01*
X144764047Y-87287380D01*
X144649761Y-87239761D01*
X144573571Y-87144523D01*
X144535476Y-87049285D01*
X144497380Y-86858809D01*
X144497380Y-86715952D01*
X144535476Y-86525476D01*
X144573571Y-86430238D01*
X144649761Y-86335000D01*
X144764047Y-86287380D01*
X144840238Y-86287380D01*
X144954523Y-86335000D01*
X144992619Y-86382619D01*
X145716428Y-87287380D02*
X145335476Y-87287380D01*
X145335476Y-86287380D01*
X145983095Y-87287380D02*
X145983095Y-86287380D01*
X146440238Y-87287380D02*
X146097380Y-86715952D01*
X146440238Y-86287380D02*
X145983095Y-86858809D01*
X147392619Y-87287380D02*
X147392619Y-86287380D01*
X147583095Y-86287380D01*
X147697380Y-86335000D01*
X147773571Y-86430238D01*
X147811666Y-86525476D01*
X147849761Y-86715952D01*
X147849761Y-86858809D01*
X147811666Y-87049285D01*
X147773571Y-87144523D01*
X147697380Y-87239761D01*
X147583095Y-87287380D01*
X147392619Y-87287380D01*
X148192619Y-87287380D02*
X148192619Y-86287380D01*
X148725952Y-86287380D02*
X148878333Y-86287380D01*
X148954523Y-86335000D01*
X149030714Y-86430238D01*
X149068809Y-86620714D01*
X149068809Y-86954047D01*
X149030714Y-87144523D01*
X148954523Y-87239761D01*
X148878333Y-87287380D01*
X148725952Y-87287380D01*
X148649761Y-87239761D01*
X148573571Y-87144523D01*
X148535476Y-86954047D01*
X148535476Y-86620714D01*
X148573571Y-86430238D01*
X148649761Y-86335000D01*
X148725952Y-86287380D01*
X150440238Y-86335000D02*
X150364047Y-86287380D01*
X150249761Y-86287380D01*
X150135476Y-86335000D01*
X150059285Y-86430238D01*
X150021190Y-86525476D01*
X149983095Y-86715952D01*
X149983095Y-86858809D01*
X150021190Y-87049285D01*
X150059285Y-87144523D01*
X150135476Y-87239761D01*
X150249761Y-87287380D01*
X150325952Y-87287380D01*
X150440238Y-87239761D01*
X150478333Y-87192142D01*
X150478333Y-86858809D01*
X150325952Y-86858809D01*
X150821190Y-87287380D02*
X150821190Y-86287380D01*
X151278333Y-87287380D01*
X151278333Y-86287380D01*
X151659285Y-87287380D02*
X151659285Y-86287380D01*
X151849761Y-86287380D01*
X151964047Y-86335000D01*
X152040238Y-86430238D01*
X152078333Y-86525476D01*
X152116428Y-86715952D01*
X152116428Y-86858809D01*
X152078333Y-87049285D01*
X152040238Y-87144523D01*
X151964047Y-87239761D01*
X151849761Y-87287380D01*
X151659285Y-87287380D01*
%TO.C,x*%
D13*
X126953095Y-117237380D02*
X127476904Y-116570714D01*
X126953095Y-116570714D02*
X127476904Y-117237380D01*
X124553095Y-118570714D02*
X125076904Y-118570714D01*
X124553095Y-119237380D01*
X125076904Y-119237380D01*
X123476904Y-115070714D02*
X123715000Y-115737380D01*
X123953095Y-115070714D02*
X123715000Y-115737380D01*
X123619761Y-115975476D01*
X123572142Y-116023095D01*
X123476904Y-116070714D01*
%TO.C,3.3v RX1 TX1 GND*%
D11*
X126440238Y-91077380D02*
X126935476Y-91077380D01*
X126668809Y-91458333D01*
X126783095Y-91458333D01*
X126859285Y-91505952D01*
X126897380Y-91553571D01*
X126935476Y-91648809D01*
X126935476Y-91886904D01*
X126897380Y-91982142D01*
X126859285Y-92029761D01*
X126783095Y-92077380D01*
X126554523Y-92077380D01*
X126478333Y-92029761D01*
X126440238Y-91982142D01*
X127278333Y-91982142D02*
X127316428Y-92029761D01*
X127278333Y-92077380D01*
X127240238Y-92029761D01*
X127278333Y-91982142D01*
X127278333Y-92077380D01*
X127583095Y-91077380D02*
X128078333Y-91077380D01*
X127811666Y-91458333D01*
X127925952Y-91458333D01*
X128002142Y-91505952D01*
X128040238Y-91553571D01*
X128078333Y-91648809D01*
X128078333Y-91886904D01*
X128040238Y-91982142D01*
X128002142Y-92029761D01*
X127925952Y-92077380D01*
X127697380Y-92077380D01*
X127621190Y-92029761D01*
X127583095Y-91982142D01*
X128345000Y-91410714D02*
X128535476Y-92077380D01*
X128725952Y-91410714D01*
X130097380Y-92077380D02*
X129830714Y-91601190D01*
X129640238Y-92077380D02*
X129640238Y-91077380D01*
X129945000Y-91077380D01*
X130021190Y-91125000D01*
X130059285Y-91172619D01*
X130097380Y-91267857D01*
X130097380Y-91410714D01*
X130059285Y-91505952D01*
X130021190Y-91553571D01*
X129945000Y-91601190D01*
X129640238Y-91601190D01*
X130364047Y-91077380D02*
X130897380Y-92077380D01*
X130897380Y-91077380D02*
X130364047Y-92077380D01*
X131621190Y-92077380D02*
X131164047Y-92077380D01*
X131392619Y-92077380D02*
X131392619Y-91077380D01*
X131316428Y-91220238D01*
X131240238Y-91315476D01*
X131164047Y-91363095D01*
X132459285Y-91077380D02*
X132916428Y-91077380D01*
X132687857Y-92077380D02*
X132687857Y-91077380D01*
X133106904Y-91077380D02*
X133640238Y-92077380D01*
X133640238Y-91077380D02*
X133106904Y-92077380D01*
X134364047Y-92077380D02*
X133906904Y-92077380D01*
X134135476Y-92077380D02*
X134135476Y-91077380D01*
X134059285Y-91220238D01*
X133983095Y-91315476D01*
X133906904Y-91363095D01*
X135735476Y-91125000D02*
X135659285Y-91077380D01*
X135545000Y-91077380D01*
X135430714Y-91125000D01*
X135354523Y-91220238D01*
X135316428Y-91315476D01*
X135278333Y-91505952D01*
X135278333Y-91648809D01*
X135316428Y-91839285D01*
X135354523Y-91934523D01*
X135430714Y-92029761D01*
X135545000Y-92077380D01*
X135621190Y-92077380D01*
X135735476Y-92029761D01*
X135773571Y-91982142D01*
X135773571Y-91648809D01*
X135621190Y-91648809D01*
X136116428Y-92077380D02*
X136116428Y-91077380D01*
X136573571Y-92077380D01*
X136573571Y-91077380D01*
X136954523Y-92077380D02*
X136954523Y-91077380D01*
X137145000Y-91077380D01*
X137259285Y-91125000D01*
X137335476Y-91220238D01*
X137373571Y-91315476D01*
X137411666Y-91505952D01*
X137411666Y-91648809D01*
X137373571Y-91839285D01*
X137335476Y-91934523D01*
X137259285Y-92029761D01*
X137145000Y-92077380D01*
X136954523Y-92077380D01*
%TO.C,U7*%
D14*
X119594148Y-124453523D02*
X119853547Y-124453523D01*
X119884064Y-124438264D01*
X119899323Y-124423005D01*
X119914582Y-124392488D01*
X119914582Y-124331453D01*
X119899323Y-124300935D01*
X119884064Y-124285676D01*
X119853547Y-124270418D01*
X119594148Y-124270418D01*
X119594148Y-124148347D02*
X119594148Y-123934725D01*
X119914582Y-124072054D01*
D11*
X119541428Y-125798571D02*
X119684285Y-125846190D01*
X119731904Y-125893809D01*
X119779523Y-125989047D01*
X119779523Y-126131904D01*
X119731904Y-126227142D01*
X119684285Y-126274761D01*
X119589047Y-126322380D01*
X119208095Y-126322380D01*
X119208095Y-125322380D01*
X119541428Y-125322380D01*
X119636666Y-125370000D01*
X119684285Y-125417619D01*
X119731904Y-125512857D01*
X119731904Y-125608095D01*
X119684285Y-125703333D01*
X119636666Y-125750952D01*
X119541428Y-125798571D01*
X119208095Y-125798571D01*
X120208095Y-126322380D02*
X120208095Y-125322380D01*
X120541428Y-126036666D01*
X120874761Y-125322380D01*
X120874761Y-126322380D01*
X121350952Y-126322380D02*
X121350952Y-125322380D01*
X121731904Y-125322380D01*
X121827142Y-125370000D01*
X121874761Y-125417619D01*
X121922380Y-125512857D01*
X121922380Y-125655714D01*
X121874761Y-125750952D01*
X121827142Y-125798571D01*
X121731904Y-125846190D01*
X121350952Y-125846190D01*
X122255714Y-125322380D02*
X122874761Y-125322380D01*
X122541428Y-125703333D01*
X122684285Y-125703333D01*
X122779523Y-125750952D01*
X122827142Y-125798571D01*
X122874761Y-125893809D01*
X122874761Y-126131904D01*
X122827142Y-126227142D01*
X122779523Y-126274761D01*
X122684285Y-126322380D01*
X122398571Y-126322380D01*
X122303333Y-126274761D01*
X122255714Y-126227142D01*
X123446190Y-125750952D02*
X123350952Y-125703333D01*
X123303333Y-125655714D01*
X123255714Y-125560476D01*
X123255714Y-125512857D01*
X123303333Y-125417619D01*
X123350952Y-125370000D01*
X123446190Y-125322380D01*
X123636666Y-125322380D01*
X123731904Y-125370000D01*
X123779523Y-125417619D01*
X123827142Y-125512857D01*
X123827142Y-125560476D01*
X123779523Y-125655714D01*
X123731904Y-125703333D01*
X123636666Y-125750952D01*
X123446190Y-125750952D01*
X123350952Y-125798571D01*
X123303333Y-125846190D01*
X123255714Y-125941428D01*
X123255714Y-126131904D01*
X123303333Y-126227142D01*
X123350952Y-126274761D01*
X123446190Y-126322380D01*
X123636666Y-126322380D01*
X123731904Y-126274761D01*
X123779523Y-126227142D01*
X123827142Y-126131904D01*
X123827142Y-125941428D01*
X123779523Y-125846190D01*
X123731904Y-125798571D01*
X123636666Y-125750952D01*
X124398571Y-125750952D02*
X124303333Y-125703333D01*
X124255714Y-125655714D01*
X124208095Y-125560476D01*
X124208095Y-125512857D01*
X124255714Y-125417619D01*
X124303333Y-125370000D01*
X124398571Y-125322380D01*
X124589047Y-125322380D01*
X124684285Y-125370000D01*
X124731904Y-125417619D01*
X124779523Y-125512857D01*
X124779523Y-125560476D01*
X124731904Y-125655714D01*
X124684285Y-125703333D01*
X124589047Y-125750952D01*
X124398571Y-125750952D01*
X124303333Y-125798571D01*
X124255714Y-125846190D01*
X124208095Y-125941428D01*
X124208095Y-126131904D01*
X124255714Y-126227142D01*
X124303333Y-126274761D01*
X124398571Y-126322380D01*
X124589047Y-126322380D01*
X124684285Y-126274761D01*
X124731904Y-126227142D01*
X124779523Y-126131904D01*
X124779523Y-125941428D01*
X124731904Y-125846190D01*
X124684285Y-125798571D01*
X124589047Y-125750952D01*
%TO.C,MCP1804*%
X113102380Y-127388095D02*
X112102380Y-127388095D01*
X112816666Y-127054761D01*
X112102380Y-126721428D01*
X113102380Y-126721428D01*
X113007142Y-125673809D02*
X113054761Y-125721428D01*
X113102380Y-125864285D01*
X113102380Y-125959523D01*
X113054761Y-126102380D01*
X112959523Y-126197619D01*
X112864285Y-126245238D01*
X112673809Y-126292857D01*
X112530952Y-126292857D01*
X112340476Y-126245238D01*
X112245238Y-126197619D01*
X112150000Y-126102380D01*
X112102380Y-125959523D01*
X112102380Y-125864285D01*
X112150000Y-125721428D01*
X112197619Y-125673809D01*
X113102380Y-125245238D02*
X112102380Y-125245238D01*
X112102380Y-124864285D01*
X112150000Y-124769047D01*
X112197619Y-124721428D01*
X112292857Y-124673809D01*
X112435714Y-124673809D01*
X112530952Y-124721428D01*
X112578571Y-124769047D01*
X112626190Y-124864285D01*
X112626190Y-125245238D01*
X113102380Y-123721428D02*
X113102380Y-124292857D01*
X113102380Y-124007142D02*
X112102380Y-124007142D01*
X112245238Y-124102380D01*
X112340476Y-124197619D01*
X112388095Y-124292857D01*
X112530952Y-123150000D02*
X112483333Y-123245238D01*
X112435714Y-123292857D01*
X112340476Y-123340476D01*
X112292857Y-123340476D01*
X112197619Y-123292857D01*
X112150000Y-123245238D01*
X112102380Y-123150000D01*
X112102380Y-122959523D01*
X112150000Y-122864285D01*
X112197619Y-122816666D01*
X112292857Y-122769047D01*
X112340476Y-122769047D01*
X112435714Y-122816666D01*
X112483333Y-122864285D01*
X112530952Y-122959523D01*
X112530952Y-123150000D01*
X112578571Y-123245238D01*
X112626190Y-123292857D01*
X112721428Y-123340476D01*
X112911904Y-123340476D01*
X113007142Y-123292857D01*
X113054761Y-123245238D01*
X113102380Y-123150000D01*
X113102380Y-122959523D01*
X113054761Y-122864285D01*
X113007142Y-122816666D01*
X112911904Y-122769047D01*
X112721428Y-122769047D01*
X112626190Y-122816666D01*
X112578571Y-122864285D01*
X112530952Y-122959523D01*
X112102380Y-122150000D02*
X112102380Y-122054761D01*
X112150000Y-121959523D01*
X112197619Y-121911904D01*
X112292857Y-121864285D01*
X112483333Y-121816666D01*
X112721428Y-121816666D01*
X112911904Y-121864285D01*
X113007142Y-121911904D01*
X113054761Y-121959523D01*
X113102380Y-122054761D01*
X113102380Y-122150000D01*
X113054761Y-122245238D01*
X113007142Y-122292857D01*
X112911904Y-122340476D01*
X112721428Y-122388095D01*
X112483333Y-122388095D01*
X112292857Y-122340476D01*
X112197619Y-122292857D01*
X112150000Y-122245238D01*
X112102380Y-122150000D01*
X112435714Y-120959523D02*
X113102380Y-120959523D01*
X112054761Y-121197619D02*
X112769047Y-121435714D01*
X112769047Y-120816666D01*
%TO.C,ICM 20948*%
X114001666Y-116687380D02*
X114001666Y-115687380D01*
X115049285Y-116592142D02*
X115001666Y-116639761D01*
X114858809Y-116687380D01*
X114763571Y-116687380D01*
X114620714Y-116639761D01*
X114525476Y-116544523D01*
X114477857Y-116449285D01*
X114430238Y-116258809D01*
X114430238Y-116115952D01*
X114477857Y-115925476D01*
X114525476Y-115830238D01*
X114620714Y-115735000D01*
X114763571Y-115687380D01*
X114858809Y-115687380D01*
X115001666Y-115735000D01*
X115049285Y-115782619D01*
X115477857Y-116687380D02*
X115477857Y-115687380D01*
X115811190Y-116401666D01*
X116144523Y-115687380D01*
X116144523Y-116687380D01*
X117335000Y-115782619D02*
X117382619Y-115735000D01*
X117477857Y-115687380D01*
X117715952Y-115687380D01*
X117811190Y-115735000D01*
X117858809Y-115782619D01*
X117906428Y-115877857D01*
X117906428Y-115973095D01*
X117858809Y-116115952D01*
X117287380Y-116687380D01*
X117906428Y-116687380D01*
X118525476Y-115687380D02*
X118620714Y-115687380D01*
X118715952Y-115735000D01*
X118763571Y-115782619D01*
X118811190Y-115877857D01*
X118858809Y-116068333D01*
X118858809Y-116306428D01*
X118811190Y-116496904D01*
X118763571Y-116592142D01*
X118715952Y-116639761D01*
X118620714Y-116687380D01*
X118525476Y-116687380D01*
X118430238Y-116639761D01*
X118382619Y-116592142D01*
X118335000Y-116496904D01*
X118287380Y-116306428D01*
X118287380Y-116068333D01*
X118335000Y-115877857D01*
X118382619Y-115782619D01*
X118430238Y-115735000D01*
X118525476Y-115687380D01*
X119335000Y-116687380D02*
X119525476Y-116687380D01*
X119620714Y-116639761D01*
X119668333Y-116592142D01*
X119763571Y-116449285D01*
X119811190Y-116258809D01*
X119811190Y-115877857D01*
X119763571Y-115782619D01*
X119715952Y-115735000D01*
X119620714Y-115687380D01*
X119430238Y-115687380D01*
X119335000Y-115735000D01*
X119287380Y-115782619D01*
X119239761Y-115877857D01*
X119239761Y-116115952D01*
X119287380Y-116211190D01*
X119335000Y-116258809D01*
X119430238Y-116306428D01*
X119620714Y-116306428D01*
X119715952Y-116258809D01*
X119763571Y-116211190D01*
X119811190Y-116115952D01*
X120668333Y-116020714D02*
X120668333Y-116687380D01*
X120430238Y-115639761D02*
X120192142Y-116354047D01*
X120811190Y-116354047D01*
X121335000Y-116115952D02*
X121239761Y-116068333D01*
X121192142Y-116020714D01*
X121144523Y-115925476D01*
X121144523Y-115877857D01*
X121192142Y-115782619D01*
X121239761Y-115735000D01*
X121335000Y-115687380D01*
X121525476Y-115687380D01*
X121620714Y-115735000D01*
X121668333Y-115782619D01*
X121715952Y-115877857D01*
X121715952Y-115925476D01*
X121668333Y-116020714D01*
X121620714Y-116068333D01*
X121525476Y-116115952D01*
X121335000Y-116115952D01*
X121239761Y-116163571D01*
X121192142Y-116211190D01*
X121144523Y-116306428D01*
X121144523Y-116496904D01*
X121192142Y-116592142D01*
X121239761Y-116639761D01*
X121335000Y-116687380D01*
X121525476Y-116687380D01*
X121620714Y-116639761D01*
X121668333Y-116592142D01*
X121715952Y-116496904D01*
X121715952Y-116306428D01*
X121668333Y-116211190D01*
X121620714Y-116163571D01*
X121525476Y-116115952D01*
%TO.C,C6*%
X139932380Y-102111904D02*
X140932380Y-101778571D01*
X139932380Y-101445238D01*
X140837142Y-100540476D02*
X140884761Y-100588095D01*
X140932380Y-100730952D01*
X140932380Y-100826190D01*
X140884761Y-100969047D01*
X140789523Y-101064285D01*
X140694285Y-101111904D01*
X140503809Y-101159523D01*
X140360952Y-101159523D01*
X140170476Y-101111904D01*
X140075238Y-101064285D01*
X139980000Y-100969047D01*
X139932380Y-100826190D01*
X139932380Y-100730952D01*
X139980000Y-100588095D01*
X140027619Y-100540476D01*
X140646666Y-100159523D02*
X140646666Y-99683333D01*
X140932380Y-100254761D02*
X139932380Y-99921428D01*
X140932380Y-99588095D01*
X140932380Y-99254761D02*
X139932380Y-99254761D01*
X139932380Y-98873809D01*
X139980000Y-98778571D01*
X140027619Y-98730952D01*
X140122857Y-98683333D01*
X140265714Y-98683333D01*
X140360952Y-98730952D01*
X140408571Y-98778571D01*
X140456190Y-98873809D01*
X140456190Y-99254761D01*
%TO.C,CAP*%
D13*
X133902142Y-115444047D02*
X133949761Y-115491666D01*
X133997380Y-115634523D01*
X133997380Y-115729761D01*
X133949761Y-115872619D01*
X133854523Y-115967857D01*
X133759285Y-116015476D01*
X133568809Y-116063095D01*
X133425952Y-116063095D01*
X133235476Y-116015476D01*
X133140238Y-115967857D01*
X133045000Y-115872619D01*
X132997380Y-115729761D01*
X132997380Y-115634523D01*
X133045000Y-115491666D01*
X133092619Y-115444047D01*
X133711666Y-115063095D02*
X133711666Y-114586904D01*
X133997380Y-115158333D02*
X132997380Y-114825000D01*
X133997380Y-114491666D01*
X133997380Y-114158333D02*
X132997380Y-114158333D01*
X132997380Y-113777380D01*
X133045000Y-113682142D01*
X133092619Y-113634523D01*
X133187857Y-113586904D01*
X133330714Y-113586904D01*
X133425952Y-113634523D01*
X133473571Y-113682142D01*
X133521190Y-113777380D01*
X133521190Y-114158333D01*
%TO.C,MCP1700*%
D11*
X125886904Y-126527380D02*
X125886904Y-125527380D01*
X126220238Y-126241666D01*
X126553571Y-125527380D01*
X126553571Y-126527380D01*
X127601190Y-126432142D02*
X127553571Y-126479761D01*
X127410714Y-126527380D01*
X127315476Y-126527380D01*
X127172619Y-126479761D01*
X127077380Y-126384523D01*
X127029761Y-126289285D01*
X126982142Y-126098809D01*
X126982142Y-125955952D01*
X127029761Y-125765476D01*
X127077380Y-125670238D01*
X127172619Y-125575000D01*
X127315476Y-125527380D01*
X127410714Y-125527380D01*
X127553571Y-125575000D01*
X127601190Y-125622619D01*
X128029761Y-126527380D02*
X128029761Y-125527380D01*
X128410714Y-125527380D01*
X128505952Y-125575000D01*
X128553571Y-125622619D01*
X128601190Y-125717857D01*
X128601190Y-125860714D01*
X128553571Y-125955952D01*
X128505952Y-126003571D01*
X128410714Y-126051190D01*
X128029761Y-126051190D01*
X129553571Y-126527380D02*
X128982142Y-126527380D01*
X129267857Y-126527380D02*
X129267857Y-125527380D01*
X129172619Y-125670238D01*
X129077380Y-125765476D01*
X128982142Y-125813095D01*
X129886904Y-125527380D02*
X130553571Y-125527380D01*
X130125000Y-126527380D01*
X131125000Y-125527380D02*
X131220238Y-125527380D01*
X131315476Y-125575000D01*
X131363095Y-125622619D01*
X131410714Y-125717857D01*
X131458333Y-125908333D01*
X131458333Y-126146428D01*
X131410714Y-126336904D01*
X131363095Y-126432142D01*
X131315476Y-126479761D01*
X131220238Y-126527380D01*
X131125000Y-126527380D01*
X131029761Y-126479761D01*
X130982142Y-126432142D01*
X130934523Y-126336904D01*
X130886904Y-126146428D01*
X130886904Y-125908333D01*
X130934523Y-125717857D01*
X130982142Y-125622619D01*
X131029761Y-125575000D01*
X131125000Y-125527380D01*
X132077380Y-125527380D02*
X132172619Y-125527380D01*
X132267857Y-125575000D01*
X132315476Y-125622619D01*
X132363095Y-125717857D01*
X132410714Y-125908333D01*
X132410714Y-126146428D01*
X132363095Y-126336904D01*
X132315476Y-126432142D01*
X132267857Y-126479761D01*
X132172619Y-126527380D01*
X132077380Y-126527380D01*
X131982142Y-126479761D01*
X131934523Y-126432142D01*
X131886904Y-126336904D01*
X131839285Y-126146428D01*
X131839285Y-125908333D01*
X131886904Y-125717857D01*
X131934523Y-125622619D01*
X131982142Y-125575000D01*
X132077380Y-125527380D01*
%TO.C,I2C1*%
X110627380Y-86777380D02*
X109627380Y-86777380D01*
X109722619Y-86348809D02*
X109675000Y-86301190D01*
X109627380Y-86205952D01*
X109627380Y-85967857D01*
X109675000Y-85872619D01*
X109722619Y-85825000D01*
X109817857Y-85777380D01*
X109913095Y-85777380D01*
X110055952Y-85825000D01*
X110627380Y-86396428D01*
X110627380Y-85777380D01*
X110532142Y-84777380D02*
X110579761Y-84825000D01*
X110627380Y-84967857D01*
X110627380Y-85063095D01*
X110579761Y-85205952D01*
X110484523Y-85301190D01*
X110389285Y-85348809D01*
X110198809Y-85396428D01*
X110055952Y-85396428D01*
X109865476Y-85348809D01*
X109770238Y-85301190D01*
X109675000Y-85205952D01*
X109627380Y-85063095D01*
X109627380Y-84967857D01*
X109675000Y-84825000D01*
X109722619Y-84777380D01*
X110627380Y-83825000D02*
X110627380Y-84396428D01*
X110627380Y-84110714D02*
X109627380Y-84110714D01*
X109770238Y-84205952D01*
X109865476Y-84301190D01*
X109913095Y-84396428D01*
%TO.C,UART3*%
X113137380Y-115206428D02*
X113946904Y-115206428D01*
X114042142Y-115158809D01*
X114089761Y-115111190D01*
X114137380Y-115015952D01*
X114137380Y-114825476D01*
X114089761Y-114730238D01*
X114042142Y-114682619D01*
X113946904Y-114635000D01*
X113137380Y-114635000D01*
X113851666Y-114206428D02*
X113851666Y-113730238D01*
X114137380Y-114301666D02*
X113137380Y-113968333D01*
X114137380Y-113635000D01*
X114137380Y-112730238D02*
X113661190Y-113063571D01*
X114137380Y-113301666D02*
X113137380Y-113301666D01*
X113137380Y-112920714D01*
X113185000Y-112825476D01*
X113232619Y-112777857D01*
X113327857Y-112730238D01*
X113470714Y-112730238D01*
X113565952Y-112777857D01*
X113613571Y-112825476D01*
X113661190Y-112920714D01*
X113661190Y-113301666D01*
X113137380Y-112444523D02*
X113137380Y-111873095D01*
X114137380Y-112158809D02*
X113137380Y-112158809D01*
X113137380Y-111635000D02*
X113137380Y-111015952D01*
X113518333Y-111349285D01*
X113518333Y-111206428D01*
X113565952Y-111111190D01*
X113613571Y-111063571D01*
X113708809Y-111015952D01*
X113946904Y-111015952D01*
X114042142Y-111063571D01*
X114089761Y-111111190D01*
X114137380Y-111206428D01*
X114137380Y-111492142D01*
X114089761Y-111587380D01*
X114042142Y-111635000D01*
%TO.C,24LC512*%
X112472619Y-95251190D02*
X112425000Y-95213095D01*
X112377380Y-95136904D01*
X112377380Y-94946428D01*
X112425000Y-94870238D01*
X112472619Y-94832142D01*
X112567857Y-94794047D01*
X112663095Y-94794047D01*
X112805952Y-94832142D01*
X113377380Y-95289285D01*
X113377380Y-94794047D01*
X112710714Y-94108333D02*
X113377380Y-94108333D01*
X112329761Y-94298809D02*
X113044047Y-94489285D01*
X113044047Y-93994047D01*
X113377380Y-93308333D02*
X113377380Y-93689285D01*
X112377380Y-93689285D01*
X113282142Y-92584523D02*
X113329761Y-92622619D01*
X113377380Y-92736904D01*
X113377380Y-92813095D01*
X113329761Y-92927380D01*
X113234523Y-93003571D01*
X113139285Y-93041666D01*
X112948809Y-93079761D01*
X112805952Y-93079761D01*
X112615476Y-93041666D01*
X112520238Y-93003571D01*
X112425000Y-92927380D01*
X112377380Y-92813095D01*
X112377380Y-92736904D01*
X112425000Y-92622619D01*
X112472619Y-92584523D01*
X112377380Y-91860714D02*
X112377380Y-92241666D01*
X112853571Y-92279761D01*
X112805952Y-92241666D01*
X112758333Y-92165476D01*
X112758333Y-91975000D01*
X112805952Y-91898809D01*
X112853571Y-91860714D01*
X112948809Y-91822619D01*
X113186904Y-91822619D01*
X113282142Y-91860714D01*
X113329761Y-91898809D01*
X113377380Y-91975000D01*
X113377380Y-92165476D01*
X113329761Y-92241666D01*
X113282142Y-92279761D01*
X113377380Y-91060714D02*
X113377380Y-91517857D01*
X113377380Y-91289285D02*
X112377380Y-91289285D01*
X112520238Y-91365476D01*
X112615476Y-91441666D01*
X112663095Y-91517857D01*
X112472619Y-90755952D02*
X112425000Y-90717857D01*
X112377380Y-90641666D01*
X112377380Y-90451190D01*
X112425000Y-90375000D01*
X112472619Y-90336904D01*
X112567857Y-90298809D01*
X112663095Y-90298809D01*
X112805952Y-90336904D01*
X113377380Y-90794047D01*
X113377380Y-90298809D01*
%TO.C,UART4*%
X138352380Y-89257142D02*
X139161904Y-89257142D01*
X139257142Y-89219047D01*
X139304761Y-89180952D01*
X139352380Y-89104761D01*
X139352380Y-88952380D01*
X139304761Y-88876190D01*
X139257142Y-88838095D01*
X139161904Y-88800000D01*
X138352380Y-88800000D01*
X139066666Y-88457142D02*
X139066666Y-88076190D01*
X139352380Y-88533333D02*
X138352380Y-88266666D01*
X139352380Y-88000000D01*
X139352380Y-87276190D02*
X138876190Y-87542857D01*
X139352380Y-87733333D02*
X138352380Y-87733333D01*
X138352380Y-87428571D01*
X138400000Y-87352380D01*
X138447619Y-87314285D01*
X138542857Y-87276190D01*
X138685714Y-87276190D01*
X138780952Y-87314285D01*
X138828571Y-87352380D01*
X138876190Y-87428571D01*
X138876190Y-87733333D01*
X138352380Y-87047619D02*
X138352380Y-86590476D01*
X139352380Y-86819047D02*
X138352380Y-86819047D01*
X138685714Y-85980952D02*
X139352380Y-85980952D01*
X138304761Y-86171428D02*
X139019047Y-86361904D01*
X139019047Y-85866666D01*
%TO.C,SBUS*%
X126229761Y-86483571D02*
X126277380Y-86369285D01*
X126277380Y-86178809D01*
X126229761Y-86102619D01*
X126182142Y-86064523D01*
X126086904Y-86026428D01*
X125991666Y-86026428D01*
X125896428Y-86064523D01*
X125848809Y-86102619D01*
X125801190Y-86178809D01*
X125753571Y-86331190D01*
X125705952Y-86407380D01*
X125658333Y-86445476D01*
X125563095Y-86483571D01*
X125467857Y-86483571D01*
X125372619Y-86445476D01*
X125325000Y-86407380D01*
X125277380Y-86331190D01*
X125277380Y-86140714D01*
X125325000Y-86026428D01*
X125753571Y-85416904D02*
X125801190Y-85302619D01*
X125848809Y-85264523D01*
X125944047Y-85226428D01*
X126086904Y-85226428D01*
X126182142Y-85264523D01*
X126229761Y-85302619D01*
X126277380Y-85378809D01*
X126277380Y-85683571D01*
X125277380Y-85683571D01*
X125277380Y-85416904D01*
X125325000Y-85340714D01*
X125372619Y-85302619D01*
X125467857Y-85264523D01*
X125563095Y-85264523D01*
X125658333Y-85302619D01*
X125705952Y-85340714D01*
X125753571Y-85416904D01*
X125753571Y-85683571D01*
X125277380Y-84883571D02*
X126086904Y-84883571D01*
X126182142Y-84845476D01*
X126229761Y-84807380D01*
X126277380Y-84731190D01*
X126277380Y-84578809D01*
X126229761Y-84502619D01*
X126182142Y-84464523D01*
X126086904Y-84426428D01*
X125277380Y-84426428D01*
X126229761Y-84083571D02*
X126277380Y-83969285D01*
X126277380Y-83778809D01*
X126229761Y-83702619D01*
X126182142Y-83664523D01*
X126086904Y-83626428D01*
X125991666Y-83626428D01*
X125896428Y-83664523D01*
X125848809Y-83702619D01*
X125801190Y-83778809D01*
X125753571Y-83931190D01*
X125705952Y-84007380D01*
X125658333Y-84045476D01*
X125563095Y-84083571D01*
X125467857Y-84083571D01*
X125372619Y-84045476D01*
X125325000Y-84007380D01*
X125277380Y-83931190D01*
X125277380Y-83740714D01*
X125325000Y-83626428D01*
%TO.C,1k*%
X125802380Y-94744047D02*
X125802380Y-95315476D01*
X125802380Y-95029761D02*
X124802380Y-95029761D01*
X124945238Y-95125000D01*
X125040476Y-95220238D01*
X125088095Y-95315476D01*
X125802380Y-94315476D02*
X124802380Y-94315476D01*
X125421428Y-94220238D02*
X125802380Y-93934523D01*
X125135714Y-93934523D02*
X125516666Y-94315476D01*
%TO.C,U3*%
X123842142Y-123217380D02*
X123842142Y-122217380D01*
X124175476Y-122931666D01*
X124508809Y-122217380D01*
X124508809Y-123217380D01*
X124985000Y-123217380D02*
X124985000Y-122217380D01*
X125365952Y-122217380D01*
X125461190Y-122265000D01*
X125508809Y-122312619D01*
X125556428Y-122407857D01*
X125556428Y-122550714D01*
X125508809Y-122645952D01*
X125461190Y-122693571D01*
X125365952Y-122741190D01*
X124985000Y-122741190D01*
X125985000Y-122217380D02*
X125985000Y-123026904D01*
X126032619Y-123122142D01*
X126080238Y-123169761D01*
X126175476Y-123217380D01*
X126365952Y-123217380D01*
X126461190Y-123169761D01*
X126508809Y-123122142D01*
X126556428Y-123026904D01*
X126556428Y-122217380D01*
X127842142Y-123217380D02*
X128032619Y-123217380D01*
X128127857Y-123169761D01*
X128175476Y-123122142D01*
X128270714Y-122979285D01*
X128318333Y-122788809D01*
X128318333Y-122407857D01*
X128270714Y-122312619D01*
X128223095Y-122265000D01*
X128127857Y-122217380D01*
X127937380Y-122217380D01*
X127842142Y-122265000D01*
X127794523Y-122312619D01*
X127746904Y-122407857D01*
X127746904Y-122645952D01*
X127794523Y-122741190D01*
X127842142Y-122788809D01*
X127937380Y-122836428D01*
X128127857Y-122836428D01*
X128223095Y-122788809D01*
X128270714Y-122741190D01*
X128318333Y-122645952D01*
X128699285Y-122312619D02*
X128746904Y-122265000D01*
X128842142Y-122217380D01*
X129080238Y-122217380D01*
X129175476Y-122265000D01*
X129223095Y-122312619D01*
X129270714Y-122407857D01*
X129270714Y-122503095D01*
X129223095Y-122645952D01*
X128651666Y-123217380D01*
X129270714Y-123217380D01*
X130175476Y-122217380D02*
X129699285Y-122217380D01*
X129651666Y-122693571D01*
X129699285Y-122645952D01*
X129794523Y-122598333D01*
X130032619Y-122598333D01*
X130127857Y-122645952D01*
X130175476Y-122693571D01*
X130223095Y-122788809D01*
X130223095Y-123026904D01*
X130175476Y-123122142D01*
X130127857Y-123169761D01*
X130032619Y-123217380D01*
X129794523Y-123217380D01*
X129699285Y-123169761D01*
X129651666Y-123122142D01*
X130842142Y-122217380D02*
X130937380Y-122217380D01*
X131032619Y-122265000D01*
X131080238Y-122312619D01*
X131127857Y-122407857D01*
X131175476Y-122598333D01*
X131175476Y-122836428D01*
X131127857Y-123026904D01*
X131080238Y-123122142D01*
X131032619Y-123169761D01*
X130937380Y-123217380D01*
X130842142Y-123217380D01*
X130746904Y-123169761D01*
X130699285Y-123122142D01*
X130651666Y-123026904D01*
X130604047Y-122836428D01*
X130604047Y-122598333D01*
X130651666Y-122407857D01*
X130699285Y-122312619D01*
X130746904Y-122265000D01*
X130842142Y-122217380D01*
%TO.C,ESD*%
X141353571Y-98390476D02*
X141353571Y-98057142D01*
X141877380Y-97914285D02*
X141877380Y-98390476D01*
X140877380Y-98390476D01*
X140877380Y-97914285D01*
X141829761Y-97533333D02*
X141877380Y-97390476D01*
X141877380Y-97152380D01*
X141829761Y-97057142D01*
X141782142Y-97009523D01*
X141686904Y-96961904D01*
X141591666Y-96961904D01*
X141496428Y-97009523D01*
X141448809Y-97057142D01*
X141401190Y-97152380D01*
X141353571Y-97342857D01*
X141305952Y-97438095D01*
X141258333Y-97485714D01*
X141163095Y-97533333D01*
X141067857Y-97533333D01*
X140972619Y-97485714D01*
X140925000Y-97438095D01*
X140877380Y-97342857D01*
X140877380Y-97104761D01*
X140925000Y-96961904D01*
X141877380Y-96533333D02*
X140877380Y-96533333D01*
X140877380Y-96295238D01*
X140925000Y-96152380D01*
X141020238Y-96057142D01*
X141115476Y-96009523D01*
X141305952Y-95961904D01*
X141448809Y-95961904D01*
X141639285Y-96009523D01*
X141734523Y-96057142D01*
X141829761Y-96152380D01*
X141877380Y-96295238D01*
X141877380Y-96533333D01*
%TO.C,STM32F405*%
X137729761Y-111022619D02*
X137777380Y-110879761D01*
X137777380Y-110641666D01*
X137729761Y-110546428D01*
X137682142Y-110498809D01*
X137586904Y-110451190D01*
X137491666Y-110451190D01*
X137396428Y-110498809D01*
X137348809Y-110546428D01*
X137301190Y-110641666D01*
X137253571Y-110832142D01*
X137205952Y-110927380D01*
X137158333Y-110975000D01*
X137063095Y-111022619D01*
X136967857Y-111022619D01*
X136872619Y-110975000D01*
X136825000Y-110927380D01*
X136777380Y-110832142D01*
X136777380Y-110594047D01*
X136825000Y-110451190D01*
X136777380Y-110165476D02*
X136777380Y-109594047D01*
X137777380Y-109879761D02*
X136777380Y-109879761D01*
X137777380Y-109260714D02*
X136777380Y-109260714D01*
X137491666Y-108927380D01*
X136777380Y-108594047D01*
X137777380Y-108594047D01*
X136777380Y-108213095D02*
X136777380Y-107594047D01*
X137158333Y-107927380D01*
X137158333Y-107784523D01*
X137205952Y-107689285D01*
X137253571Y-107641666D01*
X137348809Y-107594047D01*
X137586904Y-107594047D01*
X137682142Y-107641666D01*
X137729761Y-107689285D01*
X137777380Y-107784523D01*
X137777380Y-108070238D01*
X137729761Y-108165476D01*
X137682142Y-108213095D01*
X136872619Y-107213095D02*
X136825000Y-107165476D01*
X136777380Y-107070238D01*
X136777380Y-106832142D01*
X136825000Y-106736904D01*
X136872619Y-106689285D01*
X136967857Y-106641666D01*
X137063095Y-106641666D01*
X137205952Y-106689285D01*
X137777380Y-107260714D01*
X137777380Y-106641666D01*
X137253571Y-105879761D02*
X137253571Y-106213095D01*
X137777380Y-106213095D02*
X136777380Y-106213095D01*
X136777380Y-105736904D01*
X137110714Y-104927380D02*
X137777380Y-104927380D01*
X136729761Y-105165476D02*
X137444047Y-105403571D01*
X137444047Y-104784523D01*
X136777380Y-104213095D02*
X136777380Y-104117857D01*
X136825000Y-104022619D01*
X136872619Y-103975000D01*
X136967857Y-103927380D01*
X137158333Y-103879761D01*
X137396428Y-103879761D01*
X137586904Y-103927380D01*
X137682142Y-103975000D01*
X137729761Y-104022619D01*
X137777380Y-104117857D01*
X137777380Y-104213095D01*
X137729761Y-104308333D01*
X137682142Y-104355952D01*
X137586904Y-104403571D01*
X137396428Y-104451190D01*
X137158333Y-104451190D01*
X136967857Y-104403571D01*
X136872619Y-104355952D01*
X136825000Y-104308333D01*
X136777380Y-104213095D01*
X136777380Y-102975000D02*
X136777380Y-103451190D01*
X137253571Y-103498809D01*
X137205952Y-103451190D01*
X137158333Y-103355952D01*
X137158333Y-103117857D01*
X137205952Y-103022619D01*
X137253571Y-102975000D01*
X137348809Y-102927380D01*
X137586904Y-102927380D01*
X137682142Y-102975000D01*
X137729761Y-103022619D01*
X137777380Y-103117857D01*
X137777380Y-103355952D01*
X137729761Y-103451190D01*
X137682142Y-103498809D01*
%TO.C,RST*%
X107811904Y-94152380D02*
X107545238Y-93676190D01*
X107354761Y-94152380D02*
X107354761Y-93152380D01*
X107659523Y-93152380D01*
X107735714Y-93200000D01*
X107773809Y-93247619D01*
X107811904Y-93342857D01*
X107811904Y-93485714D01*
X107773809Y-93580952D01*
X107735714Y-93628571D01*
X107659523Y-93676190D01*
X107354761Y-93676190D01*
X108116666Y-94104761D02*
X108230952Y-94152380D01*
X108421428Y-94152380D01*
X108497619Y-94104761D01*
X108535714Y-94057142D01*
X108573809Y-93961904D01*
X108573809Y-93866666D01*
X108535714Y-93771428D01*
X108497619Y-93723809D01*
X108421428Y-93676190D01*
X108269047Y-93628571D01*
X108192857Y-93580952D01*
X108154761Y-93533333D01*
X108116666Y-93438095D01*
X108116666Y-93342857D01*
X108154761Y-93247619D01*
X108192857Y-93200000D01*
X108269047Y-93152380D01*
X108459523Y-93152380D01*
X108573809Y-93200000D01*
X108802380Y-93152380D02*
X109259523Y-93152380D01*
X109030952Y-94152380D02*
X109030952Y-93152380D01*
%TO.C,BOOT*%
X143562857Y-93203571D02*
X143705714Y-93251190D01*
X143753333Y-93298809D01*
X143800952Y-93394047D01*
X143800952Y-93536904D01*
X143753333Y-93632142D01*
X143705714Y-93679761D01*
X143610476Y-93727380D01*
X143229523Y-93727380D01*
X143229523Y-92727380D01*
X143562857Y-92727380D01*
X143658095Y-92775000D01*
X143705714Y-92822619D01*
X143753333Y-92917857D01*
X143753333Y-93013095D01*
X143705714Y-93108333D01*
X143658095Y-93155952D01*
X143562857Y-93203571D01*
X143229523Y-93203571D01*
X144420000Y-92727380D02*
X144610476Y-92727380D01*
X144705714Y-92775000D01*
X144800952Y-92870238D01*
X144848571Y-93060714D01*
X144848571Y-93394047D01*
X144800952Y-93584523D01*
X144705714Y-93679761D01*
X144610476Y-93727380D01*
X144420000Y-93727380D01*
X144324761Y-93679761D01*
X144229523Y-93584523D01*
X144181904Y-93394047D01*
X144181904Y-93060714D01*
X144229523Y-92870238D01*
X144324761Y-92775000D01*
X144420000Y-92727380D01*
X145467619Y-92727380D02*
X145658095Y-92727380D01*
X145753333Y-92775000D01*
X145848571Y-92870238D01*
X145896190Y-93060714D01*
X145896190Y-93394047D01*
X145848571Y-93584523D01*
X145753333Y-93679761D01*
X145658095Y-93727380D01*
X145467619Y-93727380D01*
X145372380Y-93679761D01*
X145277142Y-93584523D01*
X145229523Y-93394047D01*
X145229523Y-93060714D01*
X145277142Y-92870238D01*
X145372380Y-92775000D01*
X145467619Y-92727380D01*
X146181904Y-92727380D02*
X146753333Y-92727380D01*
X146467619Y-93727380D02*
X146467619Y-92727380D01*
%TO.C,BUZZ*%
X109433571Y-91469761D02*
X109481190Y-91326904D01*
X109528809Y-91279285D01*
X109624047Y-91231666D01*
X109766904Y-91231666D01*
X109862142Y-91279285D01*
X109909761Y-91326904D01*
X109957380Y-91422142D01*
X109957380Y-91803095D01*
X108957380Y-91803095D01*
X108957380Y-91469761D01*
X109005000Y-91374523D01*
X109052619Y-91326904D01*
X109147857Y-91279285D01*
X109243095Y-91279285D01*
X109338333Y-91326904D01*
X109385952Y-91374523D01*
X109433571Y-91469761D01*
X109433571Y-91803095D01*
X108957380Y-90803095D02*
X109766904Y-90803095D01*
X109862142Y-90755476D01*
X109909761Y-90707857D01*
X109957380Y-90612619D01*
X109957380Y-90422142D01*
X109909761Y-90326904D01*
X109862142Y-90279285D01*
X109766904Y-90231666D01*
X108957380Y-90231666D01*
X108957380Y-89850714D02*
X108957380Y-89184047D01*
X109957380Y-89850714D01*
X109957380Y-89184047D01*
X108957380Y-88898333D02*
X108957380Y-88231666D01*
X109957380Y-88898333D01*
X109957380Y-88231666D01*
%TO.C,5v*%
X148290714Y-125177380D02*
X147909761Y-125177380D01*
X147871666Y-125653571D01*
X147909761Y-125605952D01*
X147985952Y-125558333D01*
X148176428Y-125558333D01*
X148252619Y-125605952D01*
X148290714Y-125653571D01*
X148328809Y-125748809D01*
X148328809Y-125986904D01*
X148290714Y-126082142D01*
X148252619Y-126129761D01*
X148176428Y-126177380D01*
X147985952Y-126177380D01*
X147909761Y-126129761D01*
X147871666Y-126082142D01*
X148595476Y-125510714D02*
X148785952Y-126177380D01*
X148976428Y-125510714D01*
%TO.C,GND*%
X150635476Y-125285000D02*
X150559285Y-125237380D01*
X150445000Y-125237380D01*
X150330714Y-125285000D01*
X150254523Y-125380238D01*
X150216428Y-125475476D01*
X150178333Y-125665952D01*
X150178333Y-125808809D01*
X150216428Y-125999285D01*
X150254523Y-126094523D01*
X150330714Y-126189761D01*
X150445000Y-126237380D01*
X150521190Y-126237380D01*
X150635476Y-126189761D01*
X150673571Y-126142142D01*
X150673571Y-125808809D01*
X150521190Y-125808809D01*
X151016428Y-126237380D02*
X151016428Y-125237380D01*
X151473571Y-126237380D01*
X151473571Y-125237380D01*
X151854523Y-126237380D02*
X151854523Y-125237380D01*
X152045000Y-125237380D01*
X152159285Y-125285000D01*
X152235476Y-125380238D01*
X152273571Y-125475476D01*
X152311666Y-125665952D01*
X152311666Y-125808809D01*
X152273571Y-125999285D01*
X152235476Y-126094523D01*
X152159285Y-126189761D01*
X152045000Y-126237380D01*
X151854523Y-126237380D01*
%TO.C,PWM*%
X144211190Y-126137380D02*
X144211190Y-125137380D01*
X144515952Y-125137380D01*
X144592142Y-125185000D01*
X144630238Y-125232619D01*
X144668333Y-125327857D01*
X144668333Y-125470714D01*
X144630238Y-125565952D01*
X144592142Y-125613571D01*
X144515952Y-125661190D01*
X144211190Y-125661190D01*
X144935000Y-125137380D02*
X145125476Y-126137380D01*
X145277857Y-125423095D01*
X145430238Y-126137380D01*
X145620714Y-125137380D01*
X145925476Y-126137380D02*
X145925476Y-125137380D01*
X146192142Y-125851666D01*
X146458809Y-125137380D01*
X146458809Y-126137380D01*
%TO.C,BAT*%
X109333571Y-106553095D02*
X109381190Y-106410238D01*
X109428809Y-106362619D01*
X109524047Y-106315000D01*
X109666904Y-106315000D01*
X109762142Y-106362619D01*
X109809761Y-106410238D01*
X109857380Y-106505476D01*
X109857380Y-106886428D01*
X108857380Y-106886428D01*
X108857380Y-106553095D01*
X108905000Y-106457857D01*
X108952619Y-106410238D01*
X109047857Y-106362619D01*
X109143095Y-106362619D01*
X109238333Y-106410238D01*
X109285952Y-106457857D01*
X109333571Y-106553095D01*
X109333571Y-106886428D01*
X109571666Y-105934047D02*
X109571666Y-105457857D01*
X109857380Y-106029285D02*
X108857380Y-105695952D01*
X109857380Y-105362619D01*
X108857380Y-105172142D02*
X108857380Y-104600714D01*
X109857380Y-104886428D02*
X108857380Y-104886428D01*
%TO.C,J1*%
D13*
X148427380Y-97483333D02*
X149141666Y-97483333D01*
X149284523Y-97530952D01*
X149379761Y-97626190D01*
X149427380Y-97769047D01*
X149427380Y-97864285D01*
X149427380Y-96483333D02*
X149427380Y-97054761D01*
X149427380Y-96769047D02*
X148427380Y-96769047D01*
X148570238Y-96864285D01*
X148665476Y-96959523D01*
X148713095Y-97054761D01*
%TO.C,PWR*%
D11*
X136466666Y-93527380D02*
X136466666Y-92527380D01*
X136847619Y-92527380D01*
X136942857Y-92575000D01*
X136990476Y-92622619D01*
X137038095Y-92717857D01*
X137038095Y-92860714D01*
X136990476Y-92955952D01*
X136942857Y-93003571D01*
X136847619Y-93051190D01*
X136466666Y-93051190D01*
X137371428Y-92527380D02*
X137609523Y-93527380D01*
X137800000Y-92813095D01*
X137990476Y-93527380D01*
X138228571Y-92527380D01*
X139180952Y-93527380D02*
X138847619Y-93051190D01*
X138609523Y-93527380D02*
X138609523Y-92527380D01*
X138990476Y-92527380D01*
X139085714Y-92575000D01*
X139133333Y-92622619D01*
X139180952Y-92717857D01*
X139180952Y-92860714D01*
X139133333Y-92955952D01*
X139085714Y-93003571D01*
X138990476Y-93051190D01*
X138609523Y-93051190D01*
%TD*%
M02*
