%TF.GenerationSoftware,KiCad,Pcbnew,(5.1.6)-1*%
%TF.CreationDate,2020-08-20T13:52:42+07:00*%
%TF.ProjectId,drone_v3,64726f6e-655f-4763-932e-6b696361645f,rev?*%
%TF.SameCoordinates,Original*%
%TF.FileFunction,Soldermask,Top*%
%TF.FilePolarity,Negative*%
%FSLAX46Y46*%
G04 Gerber Fmt 4.6, Leading zero omitted, Abs format (unit mm)*
G04 Created by KiCad (PCBNEW (5.1.6)-1) date 2020-08-20 13:52:42*
%MOMM*%
%LPD*%
G01*
G04 APERTURE LIST*
%ADD10C,1.624000*%
%ADD11R,1.624000X1.624000*%
%ADD12O,1.800000X1.800000*%
%ADD13R,1.800000X1.800000*%
%ADD14R,0.480000X0.450000*%
%ADD15R,0.900000X1.000000*%
%ADD16R,1.000000X0.900000*%
%ADD17R,1.300000X1.500000*%
%ADD18R,1.160000X0.750000*%
%ADD19R,1.100000X2.850000*%
%ADD20R,2.000000X1.600000*%
%ADD21C,1.550000*%
%ADD22R,1.450000X0.500000*%
%ADD23O,2.000000X1.300000*%
%ADD24R,2.000000X1.300000*%
G04 APERTURE END LIST*
D10*
%TO.C,nRF24*%
X141710000Y-124940000D03*
X139170000Y-124940000D03*
X141710000Y-122400000D03*
X139170000Y-122400000D03*
X141710000Y-119860000D03*
X139170000Y-119860000D03*
X141710000Y-117320000D03*
D11*
X139170000Y-117320000D03*
%TD*%
D12*
%TO.C,3.3v CLK DIO GND*%
X142575000Y-88595000D03*
X145115000Y-88595000D03*
X147655000Y-88595000D03*
D13*
X150195000Y-88595000D03*
%TD*%
D12*
%TO.C,3.3v RX1 TX1 GND*%
X128575000Y-89825000D03*
X131115000Y-89825000D03*
X133655000Y-89825000D03*
D13*
X136195000Y-89825000D03*
%TD*%
D14*
%TO.C,U7*%
X121125000Y-124690000D03*
X121625000Y-124690000D03*
X122140000Y-124425000D03*
X122140000Y-123925000D03*
X122140000Y-123425000D03*
X121625000Y-123160000D03*
X121125000Y-123160000D03*
X120610000Y-123425000D03*
X120610000Y-123925000D03*
X120610000Y-124425000D03*
%TD*%
%TO.C,R1*%
G36*
G01*
X130335000Y-116867500D02*
X130335000Y-117262500D01*
G75*
G02*
X130162500Y-117435000I-172500J0D01*
G01*
X129817500Y-117435000D01*
G75*
G02*
X129645000Y-117262500I0J172500D01*
G01*
X129645000Y-116867500D01*
G75*
G02*
X129817500Y-116695000I172500J0D01*
G01*
X130162500Y-116695000D01*
G75*
G02*
X130335000Y-116867500I0J-172500D01*
G01*
G37*
G36*
G01*
X131305000Y-116867500D02*
X131305000Y-117262500D01*
G75*
G02*
X131132500Y-117435000I-172500J0D01*
G01*
X130787500Y-117435000D01*
G75*
G02*
X130615000Y-117262500I0J172500D01*
G01*
X130615000Y-116867500D01*
G75*
G02*
X130787500Y-116695000I172500J0D01*
G01*
X131132500Y-116695000D01*
G75*
G02*
X131305000Y-116867500I0J-172500D01*
G01*
G37*
%TD*%
%TO.C,C20*%
G36*
G01*
X137582500Y-101055000D02*
X137187500Y-101055000D01*
G75*
G02*
X137015000Y-100882500I0J172500D01*
G01*
X137015000Y-100537500D01*
G75*
G02*
X137187500Y-100365000I172500J0D01*
G01*
X137582500Y-100365000D01*
G75*
G02*
X137755000Y-100537500I0J-172500D01*
G01*
X137755000Y-100882500D01*
G75*
G02*
X137582500Y-101055000I-172500J0D01*
G01*
G37*
G36*
G01*
X137582500Y-102025000D02*
X137187500Y-102025000D01*
G75*
G02*
X137015000Y-101852500I0J172500D01*
G01*
X137015000Y-101507500D01*
G75*
G02*
X137187500Y-101335000I172500J0D01*
G01*
X137582500Y-101335000D01*
G75*
G02*
X137755000Y-101507500I0J-172500D01*
G01*
X137755000Y-101852500D01*
G75*
G02*
X137582500Y-102025000I-172500J0D01*
G01*
G37*
%TD*%
%TO.C,C34*%
G36*
G01*
X122990000Y-118700000D02*
X121680000Y-118700000D01*
G75*
G02*
X121410000Y-118430000I0J270000D01*
G01*
X121410000Y-117620000D01*
G75*
G02*
X121680000Y-117350000I270000J0D01*
G01*
X122990000Y-117350000D01*
G75*
G02*
X123260000Y-117620000I0J-270000D01*
G01*
X123260000Y-118430000D01*
G75*
G02*
X122990000Y-118700000I-270000J0D01*
G01*
G37*
G36*
G01*
X122990000Y-121500000D02*
X121680000Y-121500000D01*
G75*
G02*
X121410000Y-121230000I0J270000D01*
G01*
X121410000Y-120420000D01*
G75*
G02*
X121680000Y-120150000I270000J0D01*
G01*
X122990000Y-120150000D01*
G75*
G02*
X123260000Y-120420000I0J-270000D01*
G01*
X123260000Y-121230000D01*
G75*
G02*
X122990000Y-121500000I-270000J0D01*
G01*
G37*
%TD*%
%TO.C,C33*%
G36*
G01*
X115125000Y-121452500D02*
X115125000Y-121977500D01*
G75*
G02*
X114862500Y-122240000I-262500J0D01*
G01*
X114237500Y-122240000D01*
G75*
G02*
X113975000Y-121977500I0J262500D01*
G01*
X113975000Y-121452500D01*
G75*
G02*
X114237500Y-121190000I262500J0D01*
G01*
X114862500Y-121190000D01*
G75*
G02*
X115125000Y-121452500I0J-262500D01*
G01*
G37*
G36*
G01*
X116875000Y-121452500D02*
X116875000Y-121977500D01*
G75*
G02*
X116612500Y-122240000I-262500J0D01*
G01*
X115987500Y-122240000D01*
G75*
G02*
X115725000Y-121977500I0J262500D01*
G01*
X115725000Y-121452500D01*
G75*
G02*
X115987500Y-121190000I262500J0D01*
G01*
X116612500Y-121190000D01*
G75*
G02*
X116875000Y-121452500I0J-262500D01*
G01*
G37*
%TD*%
%TO.C,C23*%
G36*
G01*
X120397500Y-119095000D02*
X120002500Y-119095000D01*
G75*
G02*
X119830000Y-118922500I0J172500D01*
G01*
X119830000Y-118577500D01*
G75*
G02*
X120002500Y-118405000I172500J0D01*
G01*
X120397500Y-118405000D01*
G75*
G02*
X120570000Y-118577500I0J-172500D01*
G01*
X120570000Y-118922500D01*
G75*
G02*
X120397500Y-119095000I-172500J0D01*
G01*
G37*
G36*
G01*
X120397500Y-120065000D02*
X120002500Y-120065000D01*
G75*
G02*
X119830000Y-119892500I0J172500D01*
G01*
X119830000Y-119547500D01*
G75*
G02*
X120002500Y-119375000I172500J0D01*
G01*
X120397500Y-119375000D01*
G75*
G02*
X120570000Y-119547500I0J-172500D01*
G01*
X120570000Y-119892500D01*
G75*
G02*
X120397500Y-120065000I-172500J0D01*
G01*
G37*
%TD*%
%TO.C,C25*%
G36*
G01*
X118690000Y-121547500D02*
X118690000Y-121152500D01*
G75*
G02*
X118862500Y-120980000I172500J0D01*
G01*
X119207500Y-120980000D01*
G75*
G02*
X119380000Y-121152500I0J-172500D01*
G01*
X119380000Y-121547500D01*
G75*
G02*
X119207500Y-121720000I-172500J0D01*
G01*
X118862500Y-121720000D01*
G75*
G02*
X118690000Y-121547500I0J172500D01*
G01*
G37*
G36*
G01*
X117720000Y-121547500D02*
X117720000Y-121152500D01*
G75*
G02*
X117892500Y-120980000I172500J0D01*
G01*
X118237500Y-120980000D01*
G75*
G02*
X118410000Y-121152500I0J-172500D01*
G01*
X118410000Y-121547500D01*
G75*
G02*
X118237500Y-121720000I-172500J0D01*
G01*
X117892500Y-121720000D01*
G75*
G02*
X117720000Y-121547500I0J172500D01*
G01*
G37*
%TD*%
%TO.C,C24*%
G36*
G01*
X121247500Y-119075000D02*
X120852500Y-119075000D01*
G75*
G02*
X120680000Y-118902500I0J172500D01*
G01*
X120680000Y-118557500D01*
G75*
G02*
X120852500Y-118385000I172500J0D01*
G01*
X121247500Y-118385000D01*
G75*
G02*
X121420000Y-118557500I0J-172500D01*
G01*
X121420000Y-118902500D01*
G75*
G02*
X121247500Y-119075000I-172500J0D01*
G01*
G37*
G36*
G01*
X121247500Y-120045000D02*
X120852500Y-120045000D01*
G75*
G02*
X120680000Y-119872500I0J172500D01*
G01*
X120680000Y-119527500D01*
G75*
G02*
X120852500Y-119355000I172500J0D01*
G01*
X121247500Y-119355000D01*
G75*
G02*
X121420000Y-119527500I0J-172500D01*
G01*
X121420000Y-119872500D01*
G75*
G02*
X121247500Y-120045000I-172500J0D01*
G01*
G37*
%TD*%
%TO.C,R16*%
G36*
G01*
X122410000Y-116702500D02*
X122410000Y-117097500D01*
G75*
G02*
X122237500Y-117270000I-172500J0D01*
G01*
X121892500Y-117270000D01*
G75*
G02*
X121720000Y-117097500I0J172500D01*
G01*
X121720000Y-116702500D01*
G75*
G02*
X121892500Y-116530000I172500J0D01*
G01*
X122237500Y-116530000D01*
G75*
G02*
X122410000Y-116702500I0J-172500D01*
G01*
G37*
G36*
G01*
X123380000Y-116702500D02*
X123380000Y-117097500D01*
G75*
G02*
X123207500Y-117270000I-172500J0D01*
G01*
X122862500Y-117270000D01*
G75*
G02*
X122690000Y-117097500I0J172500D01*
G01*
X122690000Y-116702500D01*
G75*
G02*
X122862500Y-116530000I172500J0D01*
G01*
X123207500Y-116530000D01*
G75*
G02*
X123380000Y-116702500I0J-172500D01*
G01*
G37*
%TD*%
D15*
%TO.C,MCP1804*%
X115400000Y-124900000D03*
X114450000Y-122900000D03*
X116350000Y-122900000D03*
%TD*%
%TO.C,ICM 20948*%
G36*
G01*
X116825000Y-117775000D02*
X116675000Y-117775000D01*
G75*
G02*
X116600000Y-117700000I0J75000D01*
G01*
X116600000Y-117200000D01*
G75*
G02*
X116675000Y-117125000I75000J0D01*
G01*
X116825000Y-117125000D01*
G75*
G02*
X116900000Y-117200000I0J-75000D01*
G01*
X116900000Y-117700000D01*
G75*
G02*
X116825000Y-117775000I-75000J0D01*
G01*
G37*
G36*
G01*
X117225000Y-117775000D02*
X117075000Y-117775000D01*
G75*
G02*
X117000000Y-117700000I0J75000D01*
G01*
X117000000Y-117200000D01*
G75*
G02*
X117075000Y-117125000I75000J0D01*
G01*
X117225000Y-117125000D01*
G75*
G02*
X117300000Y-117200000I0J-75000D01*
G01*
X117300000Y-117700000D01*
G75*
G02*
X117225000Y-117775000I-75000J0D01*
G01*
G37*
G36*
G01*
X117625000Y-117775000D02*
X117475000Y-117775000D01*
G75*
G02*
X117400000Y-117700000I0J75000D01*
G01*
X117400000Y-117200000D01*
G75*
G02*
X117475000Y-117125000I75000J0D01*
G01*
X117625000Y-117125000D01*
G75*
G02*
X117700000Y-117200000I0J-75000D01*
G01*
X117700000Y-117700000D01*
G75*
G02*
X117625000Y-117775000I-75000J0D01*
G01*
G37*
G36*
G01*
X118025000Y-117775000D02*
X117875000Y-117775000D01*
G75*
G02*
X117800000Y-117700000I0J75000D01*
G01*
X117800000Y-117200000D01*
G75*
G02*
X117875000Y-117125000I75000J0D01*
G01*
X118025000Y-117125000D01*
G75*
G02*
X118100000Y-117200000I0J-75000D01*
G01*
X118100000Y-117700000D01*
G75*
G02*
X118025000Y-117775000I-75000J0D01*
G01*
G37*
G36*
G01*
X118425000Y-117775000D02*
X118275000Y-117775000D01*
G75*
G02*
X118200000Y-117700000I0J75000D01*
G01*
X118200000Y-117200000D01*
G75*
G02*
X118275000Y-117125000I75000J0D01*
G01*
X118425000Y-117125000D01*
G75*
G02*
X118500000Y-117200000I0J-75000D01*
G01*
X118500000Y-117700000D01*
G75*
G02*
X118425000Y-117775000I-75000J0D01*
G01*
G37*
G36*
G01*
X118825000Y-117775000D02*
X118675000Y-117775000D01*
G75*
G02*
X118600000Y-117700000I0J75000D01*
G01*
X118600000Y-117200000D01*
G75*
G02*
X118675000Y-117125000I75000J0D01*
G01*
X118825000Y-117125000D01*
G75*
G02*
X118900000Y-117200000I0J-75000D01*
G01*
X118900000Y-117700000D01*
G75*
G02*
X118825000Y-117775000I-75000J0D01*
G01*
G37*
G36*
G01*
X118925000Y-118025000D02*
X118925000Y-117875000D01*
G75*
G02*
X119000000Y-117800000I75000J0D01*
G01*
X119500000Y-117800000D01*
G75*
G02*
X119575000Y-117875000I0J-75000D01*
G01*
X119575000Y-118025000D01*
G75*
G02*
X119500000Y-118100000I-75000J0D01*
G01*
X119000000Y-118100000D01*
G75*
G02*
X118925000Y-118025000I0J75000D01*
G01*
G37*
G36*
G01*
X118925000Y-118425000D02*
X118925000Y-118275000D01*
G75*
G02*
X119000000Y-118200000I75000J0D01*
G01*
X119500000Y-118200000D01*
G75*
G02*
X119575000Y-118275000I0J-75000D01*
G01*
X119575000Y-118425000D01*
G75*
G02*
X119500000Y-118500000I-75000J0D01*
G01*
X119000000Y-118500000D01*
G75*
G02*
X118925000Y-118425000I0J75000D01*
G01*
G37*
G36*
G01*
X118925000Y-118825000D02*
X118925000Y-118675000D01*
G75*
G02*
X119000000Y-118600000I75000J0D01*
G01*
X119500000Y-118600000D01*
G75*
G02*
X119575000Y-118675000I0J-75000D01*
G01*
X119575000Y-118825000D01*
G75*
G02*
X119500000Y-118900000I-75000J0D01*
G01*
X119000000Y-118900000D01*
G75*
G02*
X118925000Y-118825000I0J75000D01*
G01*
G37*
G36*
G01*
X118925000Y-119225000D02*
X118925000Y-119075000D01*
G75*
G02*
X119000000Y-119000000I75000J0D01*
G01*
X119500000Y-119000000D01*
G75*
G02*
X119575000Y-119075000I0J-75000D01*
G01*
X119575000Y-119225000D01*
G75*
G02*
X119500000Y-119300000I-75000J0D01*
G01*
X119000000Y-119300000D01*
G75*
G02*
X118925000Y-119225000I0J75000D01*
G01*
G37*
G36*
G01*
X118925000Y-119625000D02*
X118925000Y-119475000D01*
G75*
G02*
X119000000Y-119400000I75000J0D01*
G01*
X119500000Y-119400000D01*
G75*
G02*
X119575000Y-119475000I0J-75000D01*
G01*
X119575000Y-119625000D01*
G75*
G02*
X119500000Y-119700000I-75000J0D01*
G01*
X119000000Y-119700000D01*
G75*
G02*
X118925000Y-119625000I0J75000D01*
G01*
G37*
G36*
G01*
X118925000Y-120025000D02*
X118925000Y-119875000D01*
G75*
G02*
X119000000Y-119800000I75000J0D01*
G01*
X119500000Y-119800000D01*
G75*
G02*
X119575000Y-119875000I0J-75000D01*
G01*
X119575000Y-120025000D01*
G75*
G02*
X119500000Y-120100000I-75000J0D01*
G01*
X119000000Y-120100000D01*
G75*
G02*
X118925000Y-120025000I0J75000D01*
G01*
G37*
G36*
G01*
X118825000Y-120775000D02*
X118675000Y-120775000D01*
G75*
G02*
X118600000Y-120700000I0J75000D01*
G01*
X118600000Y-120200000D01*
G75*
G02*
X118675000Y-120125000I75000J0D01*
G01*
X118825000Y-120125000D01*
G75*
G02*
X118900000Y-120200000I0J-75000D01*
G01*
X118900000Y-120700000D01*
G75*
G02*
X118825000Y-120775000I-75000J0D01*
G01*
G37*
G36*
G01*
X118425000Y-120775000D02*
X118275000Y-120775000D01*
G75*
G02*
X118200000Y-120700000I0J75000D01*
G01*
X118200000Y-120200000D01*
G75*
G02*
X118275000Y-120125000I75000J0D01*
G01*
X118425000Y-120125000D01*
G75*
G02*
X118500000Y-120200000I0J-75000D01*
G01*
X118500000Y-120700000D01*
G75*
G02*
X118425000Y-120775000I-75000J0D01*
G01*
G37*
G36*
G01*
X118025000Y-120775000D02*
X117875000Y-120775000D01*
G75*
G02*
X117800000Y-120700000I0J75000D01*
G01*
X117800000Y-120200000D01*
G75*
G02*
X117875000Y-120125000I75000J0D01*
G01*
X118025000Y-120125000D01*
G75*
G02*
X118100000Y-120200000I0J-75000D01*
G01*
X118100000Y-120700000D01*
G75*
G02*
X118025000Y-120775000I-75000J0D01*
G01*
G37*
G36*
G01*
X117625000Y-120775000D02*
X117475000Y-120775000D01*
G75*
G02*
X117400000Y-120700000I0J75000D01*
G01*
X117400000Y-120200000D01*
G75*
G02*
X117475000Y-120125000I75000J0D01*
G01*
X117625000Y-120125000D01*
G75*
G02*
X117700000Y-120200000I0J-75000D01*
G01*
X117700000Y-120700000D01*
G75*
G02*
X117625000Y-120775000I-75000J0D01*
G01*
G37*
G36*
G01*
X117225000Y-120775000D02*
X117075000Y-120775000D01*
G75*
G02*
X117000000Y-120700000I0J75000D01*
G01*
X117000000Y-120200000D01*
G75*
G02*
X117075000Y-120125000I75000J0D01*
G01*
X117225000Y-120125000D01*
G75*
G02*
X117300000Y-120200000I0J-75000D01*
G01*
X117300000Y-120700000D01*
G75*
G02*
X117225000Y-120775000I-75000J0D01*
G01*
G37*
G36*
G01*
X116825000Y-120775000D02*
X116675000Y-120775000D01*
G75*
G02*
X116600000Y-120700000I0J75000D01*
G01*
X116600000Y-120200000D01*
G75*
G02*
X116675000Y-120125000I75000J0D01*
G01*
X116825000Y-120125000D01*
G75*
G02*
X116900000Y-120200000I0J-75000D01*
G01*
X116900000Y-120700000D01*
G75*
G02*
X116825000Y-120775000I-75000J0D01*
G01*
G37*
G36*
G01*
X115925000Y-120025000D02*
X115925000Y-119875000D01*
G75*
G02*
X116000000Y-119800000I75000J0D01*
G01*
X116500000Y-119800000D01*
G75*
G02*
X116575000Y-119875000I0J-75000D01*
G01*
X116575000Y-120025000D01*
G75*
G02*
X116500000Y-120100000I-75000J0D01*
G01*
X116000000Y-120100000D01*
G75*
G02*
X115925000Y-120025000I0J75000D01*
G01*
G37*
G36*
G01*
X115925000Y-119625000D02*
X115925000Y-119475000D01*
G75*
G02*
X116000000Y-119400000I75000J0D01*
G01*
X116500000Y-119400000D01*
G75*
G02*
X116575000Y-119475000I0J-75000D01*
G01*
X116575000Y-119625000D01*
G75*
G02*
X116500000Y-119700000I-75000J0D01*
G01*
X116000000Y-119700000D01*
G75*
G02*
X115925000Y-119625000I0J75000D01*
G01*
G37*
G36*
G01*
X115925000Y-119225000D02*
X115925000Y-119075000D01*
G75*
G02*
X116000000Y-119000000I75000J0D01*
G01*
X116500000Y-119000000D01*
G75*
G02*
X116575000Y-119075000I0J-75000D01*
G01*
X116575000Y-119225000D01*
G75*
G02*
X116500000Y-119300000I-75000J0D01*
G01*
X116000000Y-119300000D01*
G75*
G02*
X115925000Y-119225000I0J75000D01*
G01*
G37*
G36*
G01*
X115925000Y-118825000D02*
X115925000Y-118675000D01*
G75*
G02*
X116000000Y-118600000I75000J0D01*
G01*
X116500000Y-118600000D01*
G75*
G02*
X116575000Y-118675000I0J-75000D01*
G01*
X116575000Y-118825000D01*
G75*
G02*
X116500000Y-118900000I-75000J0D01*
G01*
X116000000Y-118900000D01*
G75*
G02*
X115925000Y-118825000I0J75000D01*
G01*
G37*
G36*
G01*
X115925000Y-118425000D02*
X115925000Y-118275000D01*
G75*
G02*
X116000000Y-118200000I75000J0D01*
G01*
X116500000Y-118200000D01*
G75*
G02*
X116575000Y-118275000I0J-75000D01*
G01*
X116575000Y-118425000D01*
G75*
G02*
X116500000Y-118500000I-75000J0D01*
G01*
X116000000Y-118500000D01*
G75*
G02*
X115925000Y-118425000I0J75000D01*
G01*
G37*
G36*
G01*
X115925000Y-118025000D02*
X115925000Y-117875000D01*
G75*
G02*
X116000000Y-117800000I75000J0D01*
G01*
X116500000Y-117800000D01*
G75*
G02*
X116575000Y-117875000I0J-75000D01*
G01*
X116575000Y-118025000D01*
G75*
G02*
X116500000Y-118100000I-75000J0D01*
G01*
X116000000Y-118100000D01*
G75*
G02*
X115925000Y-118025000I0J75000D01*
G01*
G37*
%TD*%
%TO.C,C32*%
G36*
G01*
X114975000Y-125887500D02*
X114975000Y-126412500D01*
G75*
G02*
X114712500Y-126675000I-262500J0D01*
G01*
X114087500Y-126675000D01*
G75*
G02*
X113825000Y-126412500I0J262500D01*
G01*
X113825000Y-125887500D01*
G75*
G02*
X114087500Y-125625000I262500J0D01*
G01*
X114712500Y-125625000D01*
G75*
G02*
X114975000Y-125887500I0J-262500D01*
G01*
G37*
G36*
G01*
X116725000Y-125887500D02*
X116725000Y-126412500D01*
G75*
G02*
X116462500Y-126675000I-262500J0D01*
G01*
X115837500Y-126675000D01*
G75*
G02*
X115575000Y-126412500I0J262500D01*
G01*
X115575000Y-125887500D01*
G75*
G02*
X115837500Y-125625000I262500J0D01*
G01*
X116462500Y-125625000D01*
G75*
G02*
X116725000Y-125887500I0J-262500D01*
G01*
G37*
%TD*%
%TO.C,C32*%
G36*
G01*
X122481250Y-91425000D02*
X121918750Y-91425000D01*
G75*
G02*
X121675000Y-91181250I0J243750D01*
G01*
X121675000Y-90693750D01*
G75*
G02*
X121918750Y-90450000I243750J0D01*
G01*
X122481250Y-90450000D01*
G75*
G02*
X122725000Y-90693750I0J-243750D01*
G01*
X122725000Y-91181250D01*
G75*
G02*
X122481250Y-91425000I-243750J0D01*
G01*
G37*
G36*
G01*
X122481250Y-93000000D02*
X121918750Y-93000000D01*
G75*
G02*
X121675000Y-92756250I0J243750D01*
G01*
X121675000Y-92268750D01*
G75*
G02*
X121918750Y-92025000I243750J0D01*
G01*
X122481250Y-92025000D01*
G75*
G02*
X122725000Y-92268750I0J-243750D01*
G01*
X122725000Y-92756250D01*
G75*
G02*
X122481250Y-93000000I-243750J0D01*
G01*
G37*
%TD*%
%TO.C,C6*%
G36*
G01*
X139201191Y-100075000D02*
X138598809Y-100075000D01*
G75*
G02*
X138325000Y-99801191I0J273809D01*
G01*
X138325000Y-98948809D01*
G75*
G02*
X138598809Y-98675000I273809J0D01*
G01*
X139201191Y-98675000D01*
G75*
G02*
X139475000Y-98948809I0J-273809D01*
G01*
X139475000Y-99801191D01*
G75*
G02*
X139201191Y-100075000I-273809J0D01*
G01*
G37*
G36*
G01*
X139201191Y-102025000D02*
X138598809Y-102025000D01*
G75*
G02*
X138325000Y-101751191I0J273809D01*
G01*
X138325000Y-100898809D01*
G75*
G02*
X138598809Y-100625000I273809J0D01*
G01*
X139201191Y-100625000D01*
G75*
G02*
X139475000Y-100898809I0J-273809D01*
G01*
X139475000Y-101751191D01*
G75*
G02*
X139201191Y-102025000I-273809J0D01*
G01*
G37*
%TD*%
%TO.C,CAP*%
G36*
G01*
X131673809Y-114950000D02*
X132276191Y-114950000D01*
G75*
G02*
X132550000Y-115223809I0J-273809D01*
G01*
X132550000Y-116076191D01*
G75*
G02*
X132276191Y-116350000I-273809J0D01*
G01*
X131673809Y-116350000D01*
G75*
G02*
X131400000Y-116076191I0J273809D01*
G01*
X131400000Y-115223809D01*
G75*
G02*
X131673809Y-114950000I273809J0D01*
G01*
G37*
G36*
G01*
X131673809Y-113000000D02*
X132276191Y-113000000D01*
G75*
G02*
X132550000Y-113273809I0J-273809D01*
G01*
X132550000Y-114126191D01*
G75*
G02*
X132276191Y-114400000I-273809J0D01*
G01*
X131673809Y-114400000D01*
G75*
G02*
X131400000Y-114126191I0J273809D01*
G01*
X131400000Y-113273809D01*
G75*
G02*
X131673809Y-113000000I273809J0D01*
G01*
G37*
%TD*%
%TO.C,C13*%
G36*
G01*
X133940000Y-113347500D02*
X133940000Y-112952500D01*
G75*
G02*
X134112500Y-112780000I172500J0D01*
G01*
X134457500Y-112780000D01*
G75*
G02*
X134630000Y-112952500I0J-172500D01*
G01*
X134630000Y-113347500D01*
G75*
G02*
X134457500Y-113520000I-172500J0D01*
G01*
X134112500Y-113520000D01*
G75*
G02*
X133940000Y-113347500I0J172500D01*
G01*
G37*
G36*
G01*
X132970000Y-113347500D02*
X132970000Y-112952500D01*
G75*
G02*
X133142500Y-112780000I172500J0D01*
G01*
X133487500Y-112780000D01*
G75*
G02*
X133660000Y-112952500I0J-172500D01*
G01*
X133660000Y-113347500D01*
G75*
G02*
X133487500Y-113520000I-172500J0D01*
G01*
X133142500Y-113520000D01*
G75*
G02*
X132970000Y-113347500I0J172500D01*
G01*
G37*
%TD*%
%TO.C,C14*%
G36*
G01*
X122447500Y-107710000D02*
X122052500Y-107710000D01*
G75*
G02*
X121880000Y-107537500I0J172500D01*
G01*
X121880000Y-107192500D01*
G75*
G02*
X122052500Y-107020000I172500J0D01*
G01*
X122447500Y-107020000D01*
G75*
G02*
X122620000Y-107192500I0J-172500D01*
G01*
X122620000Y-107537500D01*
G75*
G02*
X122447500Y-107710000I-172500J0D01*
G01*
G37*
G36*
G01*
X122447500Y-108680000D02*
X122052500Y-108680000D01*
G75*
G02*
X121880000Y-108507500I0J172500D01*
G01*
X121880000Y-108162500D01*
G75*
G02*
X122052500Y-107990000I172500J0D01*
G01*
X122447500Y-107990000D01*
G75*
G02*
X122620000Y-108162500I0J-172500D01*
G01*
X122620000Y-108507500D01*
G75*
G02*
X122447500Y-108680000I-172500J0D01*
G01*
G37*
%TD*%
%TO.C,C9*%
G36*
G01*
X125140000Y-99097500D02*
X125140000Y-98702500D01*
G75*
G02*
X125312500Y-98530000I172500J0D01*
G01*
X125657500Y-98530000D01*
G75*
G02*
X125830000Y-98702500I0J-172500D01*
G01*
X125830000Y-99097500D01*
G75*
G02*
X125657500Y-99270000I-172500J0D01*
G01*
X125312500Y-99270000D01*
G75*
G02*
X125140000Y-99097500I0J172500D01*
G01*
G37*
G36*
G01*
X124170000Y-99097500D02*
X124170000Y-98702500D01*
G75*
G02*
X124342500Y-98530000I172500J0D01*
G01*
X124687500Y-98530000D01*
G75*
G02*
X124860000Y-98702500I0J-172500D01*
G01*
X124860000Y-99097500D01*
G75*
G02*
X124687500Y-99270000I-172500J0D01*
G01*
X124342500Y-99270000D01*
G75*
G02*
X124170000Y-99097500I0J172500D01*
G01*
G37*
%TD*%
%TO.C,C8*%
G36*
G01*
X125110000Y-113202500D02*
X125110000Y-113597500D01*
G75*
G02*
X124937500Y-113770000I-172500J0D01*
G01*
X124592500Y-113770000D01*
G75*
G02*
X124420000Y-113597500I0J172500D01*
G01*
X124420000Y-113202500D01*
G75*
G02*
X124592500Y-113030000I172500J0D01*
G01*
X124937500Y-113030000D01*
G75*
G02*
X125110000Y-113202500I0J-172500D01*
G01*
G37*
G36*
G01*
X126080000Y-113202500D02*
X126080000Y-113597500D01*
G75*
G02*
X125907500Y-113770000I-172500J0D01*
G01*
X125562500Y-113770000D01*
G75*
G02*
X125390000Y-113597500I0J172500D01*
G01*
X125390000Y-113202500D01*
G75*
G02*
X125562500Y-113030000I172500J0D01*
G01*
X125907500Y-113030000D01*
G75*
G02*
X126080000Y-113202500I0J-172500D01*
G01*
G37*
%TD*%
%TO.C,C31*%
G36*
G01*
X117497500Y-125560000D02*
X117102500Y-125560000D01*
G75*
G02*
X116930000Y-125387500I0J172500D01*
G01*
X116930000Y-125042500D01*
G75*
G02*
X117102500Y-124870000I172500J0D01*
G01*
X117497500Y-124870000D01*
G75*
G02*
X117670000Y-125042500I0J-172500D01*
G01*
X117670000Y-125387500D01*
G75*
G02*
X117497500Y-125560000I-172500J0D01*
G01*
G37*
G36*
G01*
X117497500Y-126530000D02*
X117102500Y-126530000D01*
G75*
G02*
X116930000Y-126357500I0J172500D01*
G01*
X116930000Y-126012500D01*
G75*
G02*
X117102500Y-125840000I172500J0D01*
G01*
X117497500Y-125840000D01*
G75*
G02*
X117670000Y-126012500I0J-172500D01*
G01*
X117670000Y-126357500D01*
G75*
G02*
X117497500Y-126530000I-172500J0D01*
G01*
G37*
%TD*%
%TO.C,C27*%
G36*
G01*
X118497500Y-125560000D02*
X118102500Y-125560000D01*
G75*
G02*
X117930000Y-125387500I0J172500D01*
G01*
X117930000Y-125042500D01*
G75*
G02*
X118102500Y-124870000I172500J0D01*
G01*
X118497500Y-124870000D01*
G75*
G02*
X118670000Y-125042500I0J-172500D01*
G01*
X118670000Y-125387500D01*
G75*
G02*
X118497500Y-125560000I-172500J0D01*
G01*
G37*
G36*
G01*
X118497500Y-126530000D02*
X118102500Y-126530000D01*
G75*
G02*
X117930000Y-126357500I0J172500D01*
G01*
X117930000Y-126012500D01*
G75*
G02*
X118102500Y-125840000I172500J0D01*
G01*
X118497500Y-125840000D01*
G75*
G02*
X118670000Y-126012500I0J-172500D01*
G01*
X118670000Y-126357500D01*
G75*
G02*
X118497500Y-126530000I-172500J0D01*
G01*
G37*
%TD*%
D16*
%TO.C,MCP1700*%
X135150000Y-124200000D03*
X133150000Y-125150000D03*
X133150000Y-123250000D03*
%TD*%
%TO.C,C30*%
G36*
G01*
X132312500Y-123800000D02*
X131787500Y-123800000D01*
G75*
G02*
X131525000Y-123537500I0J262500D01*
G01*
X131525000Y-122912500D01*
G75*
G02*
X131787500Y-122650000I262500J0D01*
G01*
X132312500Y-122650000D01*
G75*
G02*
X132575000Y-122912500I0J-262500D01*
G01*
X132575000Y-123537500D01*
G75*
G02*
X132312500Y-123800000I-262500J0D01*
G01*
G37*
G36*
G01*
X132312500Y-125550000D02*
X131787500Y-125550000D01*
G75*
G02*
X131525000Y-125287500I0J262500D01*
G01*
X131525000Y-124662500D01*
G75*
G02*
X131787500Y-124400000I262500J0D01*
G01*
X132312500Y-124400000D01*
G75*
G02*
X132575000Y-124662500I0J-262500D01*
G01*
X132575000Y-125287500D01*
G75*
G02*
X132312500Y-125550000I-262500J0D01*
G01*
G37*
%TD*%
%TO.C,C29*%
G36*
G01*
X136562500Y-123875000D02*
X136037500Y-123875000D01*
G75*
G02*
X135775000Y-123612500I0J262500D01*
G01*
X135775000Y-122987500D01*
G75*
G02*
X136037500Y-122725000I262500J0D01*
G01*
X136562500Y-122725000D01*
G75*
G02*
X136825000Y-122987500I0J-262500D01*
G01*
X136825000Y-123612500D01*
G75*
G02*
X136562500Y-123875000I-262500J0D01*
G01*
G37*
G36*
G01*
X136562500Y-125625000D02*
X136037500Y-125625000D01*
G75*
G02*
X135775000Y-125362500I0J262500D01*
G01*
X135775000Y-124737500D01*
G75*
G02*
X136037500Y-124475000I262500J0D01*
G01*
X136562500Y-124475000D01*
G75*
G02*
X136825000Y-124737500I0J-262500D01*
G01*
X136825000Y-125362500D01*
G75*
G02*
X136562500Y-125625000I-262500J0D01*
G01*
G37*
%TD*%
%TO.C,C28*%
G36*
G01*
X145485000Y-99518750D02*
X145485000Y-100081250D01*
G75*
G02*
X145241250Y-100325000I-243750J0D01*
G01*
X144753750Y-100325000D01*
G75*
G02*
X144510000Y-100081250I0J243750D01*
G01*
X144510000Y-99518750D01*
G75*
G02*
X144753750Y-99275000I243750J0D01*
G01*
X145241250Y-99275000D01*
G75*
G02*
X145485000Y-99518750I0J-243750D01*
G01*
G37*
G36*
G01*
X143910000Y-99518750D02*
X143910000Y-100081250D01*
G75*
G02*
X143666250Y-100325000I-243750J0D01*
G01*
X143178750Y-100325000D01*
G75*
G02*
X142935000Y-100081250I0J243750D01*
G01*
X142935000Y-99518750D01*
G75*
G02*
X143178750Y-99275000I243750J0D01*
G01*
X143666250Y-99275000D01*
G75*
G02*
X143910000Y-99518750I0J-243750D01*
G01*
G37*
%TD*%
%TO.C,C21*%
G36*
G01*
X135405000Y-119425000D02*
X134095000Y-119425000D01*
G75*
G02*
X133825000Y-119155000I0J270000D01*
G01*
X133825000Y-118345000D01*
G75*
G02*
X134095000Y-118075000I270000J0D01*
G01*
X135405000Y-118075000D01*
G75*
G02*
X135675000Y-118345000I0J-270000D01*
G01*
X135675000Y-119155000D01*
G75*
G02*
X135405000Y-119425000I-270000J0D01*
G01*
G37*
G36*
G01*
X135405000Y-122225000D02*
X134095000Y-122225000D01*
G75*
G02*
X133825000Y-121955000I0J270000D01*
G01*
X133825000Y-121145000D01*
G75*
G02*
X134095000Y-120875000I270000J0D01*
G01*
X135405000Y-120875000D01*
G75*
G02*
X135675000Y-121145000I0J-270000D01*
G01*
X135675000Y-121955000D01*
G75*
G02*
X135405000Y-122225000I-270000J0D01*
G01*
G37*
%TD*%
D12*
%TO.C,J7*%
X144120000Y-84350000D03*
X141580000Y-84350000D03*
X139040000Y-84350000D03*
D13*
X136500000Y-84350000D03*
%TD*%
%TO.C,I2C1*%
G36*
G01*
X113700000Y-90275000D02*
X113700000Y-85225000D01*
G75*
G02*
X113975000Y-84950000I275000J0D01*
G01*
X114525000Y-84950000D01*
G75*
G02*
X114800000Y-85225000I0J-275000D01*
G01*
X114800000Y-90275000D01*
G75*
G02*
X114525000Y-90550000I-275000J0D01*
G01*
X113975000Y-90550000D01*
G75*
G02*
X113700000Y-90275000I0J275000D01*
G01*
G37*
G36*
G01*
X115700000Y-90275000D02*
X115700000Y-85225000D01*
G75*
G02*
X115975000Y-84950000I275000J0D01*
G01*
X116525000Y-84950000D01*
G75*
G02*
X116800000Y-85225000I0J-275000D01*
G01*
X116800000Y-90275000D01*
G75*
G02*
X116525000Y-90550000I-275000J0D01*
G01*
X115975000Y-90550000D01*
G75*
G02*
X115700000Y-90275000I0J275000D01*
G01*
G37*
G36*
G01*
X117700000Y-90275000D02*
X117700000Y-85225000D01*
G75*
G02*
X117975000Y-84950000I275000J0D01*
G01*
X118525000Y-84950000D01*
G75*
G02*
X118800000Y-85225000I0J-275000D01*
G01*
X118800000Y-90275000D01*
G75*
G02*
X118525000Y-90550000I-275000J0D01*
G01*
X117975000Y-90550000D01*
G75*
G02*
X117700000Y-90275000I0J275000D01*
G01*
G37*
G36*
G01*
X119700000Y-90275000D02*
X119700000Y-85225000D01*
G75*
G02*
X119975000Y-84950000I275000J0D01*
G01*
X120525000Y-84950000D01*
G75*
G02*
X120800000Y-85225000I0J-275000D01*
G01*
X120800000Y-90275000D01*
G75*
G02*
X120525000Y-90550000I-275000J0D01*
G01*
X119975000Y-90550000D01*
G75*
G02*
X119700000Y-90275000I0J275000D01*
G01*
G37*
G36*
G01*
X111000000Y-86784375D02*
X111000000Y-84215625D01*
G75*
G02*
X111265625Y-83950000I265625J0D01*
G01*
X112434375Y-83950000D01*
G75*
G02*
X112700000Y-84215625I0J-265625D01*
G01*
X112700000Y-86784375D01*
G75*
G02*
X112434375Y-87050000I-265625J0D01*
G01*
X111265625Y-87050000D01*
G75*
G02*
X111000000Y-86784375I0J265625D01*
G01*
G37*
G36*
G01*
X121800000Y-86784375D02*
X121800000Y-84215625D01*
G75*
G02*
X122065625Y-83950000I265625J0D01*
G01*
X123234375Y-83950000D01*
G75*
G02*
X123500000Y-84215625I0J-265625D01*
G01*
X123500000Y-86784375D01*
G75*
G02*
X123234375Y-87050000I-265625J0D01*
G01*
X122065625Y-87050000D01*
G75*
G02*
X121800000Y-86784375I0J265625D01*
G01*
G37*
%TD*%
%TO.C,UART3*%
G36*
G01*
X112375000Y-118300000D02*
X107325000Y-118300000D01*
G75*
G02*
X107050000Y-118025000I0J275000D01*
G01*
X107050000Y-117475000D01*
G75*
G02*
X107325000Y-117200000I275000J0D01*
G01*
X112375000Y-117200000D01*
G75*
G02*
X112650000Y-117475000I0J-275000D01*
G01*
X112650000Y-118025000D01*
G75*
G02*
X112375000Y-118300000I-275000J0D01*
G01*
G37*
G36*
G01*
X112375000Y-116300000D02*
X107325000Y-116300000D01*
G75*
G02*
X107050000Y-116025000I0J275000D01*
G01*
X107050000Y-115475000D01*
G75*
G02*
X107325000Y-115200000I275000J0D01*
G01*
X112375000Y-115200000D01*
G75*
G02*
X112650000Y-115475000I0J-275000D01*
G01*
X112650000Y-116025000D01*
G75*
G02*
X112375000Y-116300000I-275000J0D01*
G01*
G37*
G36*
G01*
X112375000Y-114300000D02*
X107325000Y-114300000D01*
G75*
G02*
X107050000Y-114025000I0J275000D01*
G01*
X107050000Y-113475000D01*
G75*
G02*
X107325000Y-113200000I275000J0D01*
G01*
X112375000Y-113200000D01*
G75*
G02*
X112650000Y-113475000I0J-275000D01*
G01*
X112650000Y-114025000D01*
G75*
G02*
X112375000Y-114300000I-275000J0D01*
G01*
G37*
G36*
G01*
X112375000Y-112300000D02*
X107325000Y-112300000D01*
G75*
G02*
X107050000Y-112025000I0J275000D01*
G01*
X107050000Y-111475000D01*
G75*
G02*
X107325000Y-111200000I275000J0D01*
G01*
X112375000Y-111200000D01*
G75*
G02*
X112650000Y-111475000I0J-275000D01*
G01*
X112650000Y-112025000D01*
G75*
G02*
X112375000Y-112300000I-275000J0D01*
G01*
G37*
G36*
G01*
X108884375Y-121000000D02*
X106315625Y-121000000D01*
G75*
G02*
X106050000Y-120734375I0J265625D01*
G01*
X106050000Y-119565625D01*
G75*
G02*
X106315625Y-119300000I265625J0D01*
G01*
X108884375Y-119300000D01*
G75*
G02*
X109150000Y-119565625I0J-265625D01*
G01*
X109150000Y-120734375D01*
G75*
G02*
X108884375Y-121000000I-265625J0D01*
G01*
G37*
G36*
G01*
X108884375Y-110200000D02*
X106315625Y-110200000D01*
G75*
G02*
X106050000Y-109934375I0J265625D01*
G01*
X106050000Y-108765625D01*
G75*
G02*
X106315625Y-108500000I265625J0D01*
G01*
X108884375Y-108500000D01*
G75*
G02*
X109150000Y-108765625I0J-265625D01*
G01*
X109150000Y-109934375D01*
G75*
G02*
X108884375Y-110200000I-265625J0D01*
G01*
G37*
%TD*%
%TO.C,C26*%
G36*
G01*
X133431250Y-120000000D02*
X132868750Y-120000000D01*
G75*
G02*
X132625000Y-119756250I0J243750D01*
G01*
X132625000Y-119268750D01*
G75*
G02*
X132868750Y-119025000I243750J0D01*
G01*
X133431250Y-119025000D01*
G75*
G02*
X133675000Y-119268750I0J-243750D01*
G01*
X133675000Y-119756250D01*
G75*
G02*
X133431250Y-120000000I-243750J0D01*
G01*
G37*
G36*
G01*
X133431250Y-121575000D02*
X132868750Y-121575000D01*
G75*
G02*
X132625000Y-121331250I0J243750D01*
G01*
X132625000Y-120843750D01*
G75*
G02*
X132868750Y-120600000I243750J0D01*
G01*
X133431250Y-120600000D01*
G75*
G02*
X133675000Y-120843750I0J-243750D01*
G01*
X133675000Y-121331250D01*
G75*
G02*
X133431250Y-121575000I-243750J0D01*
G01*
G37*
%TD*%
%TO.C,C22*%
G36*
G01*
X119481250Y-123225000D02*
X118918750Y-123225000D01*
G75*
G02*
X118675000Y-122981250I0J243750D01*
G01*
X118675000Y-122493750D01*
G75*
G02*
X118918750Y-122250000I243750J0D01*
G01*
X119481250Y-122250000D01*
G75*
G02*
X119725000Y-122493750I0J-243750D01*
G01*
X119725000Y-122981250D01*
G75*
G02*
X119481250Y-123225000I-243750J0D01*
G01*
G37*
G36*
G01*
X119481250Y-124800000D02*
X118918750Y-124800000D01*
G75*
G02*
X118675000Y-124556250I0J243750D01*
G01*
X118675000Y-124068750D01*
G75*
G02*
X118918750Y-123825000I243750J0D01*
G01*
X119481250Y-123825000D01*
G75*
G02*
X119725000Y-124068750I0J-243750D01*
G01*
X119725000Y-124556250D01*
G75*
G02*
X119481250Y-124800000I-243750J0D01*
G01*
G37*
%TD*%
%TO.C,24LC512*%
G36*
G01*
X119075000Y-92175000D02*
X119075000Y-91825000D01*
G75*
G02*
X119250000Y-91650000I175000J0D01*
G01*
X120950000Y-91650000D01*
G75*
G02*
X121125000Y-91825000I0J-175000D01*
G01*
X121125000Y-92175000D01*
G75*
G02*
X120950000Y-92350000I-175000J0D01*
G01*
X119250000Y-92350000D01*
G75*
G02*
X119075000Y-92175000I0J175000D01*
G01*
G37*
G36*
G01*
X119075000Y-93445000D02*
X119075000Y-93095000D01*
G75*
G02*
X119250000Y-92920000I175000J0D01*
G01*
X120950000Y-92920000D01*
G75*
G02*
X121125000Y-93095000I0J-175000D01*
G01*
X121125000Y-93445000D01*
G75*
G02*
X120950000Y-93620000I-175000J0D01*
G01*
X119250000Y-93620000D01*
G75*
G02*
X119075000Y-93445000I0J175000D01*
G01*
G37*
G36*
G01*
X119075000Y-94715000D02*
X119075000Y-94365000D01*
G75*
G02*
X119250000Y-94190000I175000J0D01*
G01*
X120950000Y-94190000D01*
G75*
G02*
X121125000Y-94365000I0J-175000D01*
G01*
X121125000Y-94715000D01*
G75*
G02*
X120950000Y-94890000I-175000J0D01*
G01*
X119250000Y-94890000D01*
G75*
G02*
X119075000Y-94715000I0J175000D01*
G01*
G37*
G36*
G01*
X119075000Y-95985000D02*
X119075000Y-95635000D01*
G75*
G02*
X119250000Y-95460000I175000J0D01*
G01*
X120950000Y-95460000D01*
G75*
G02*
X121125000Y-95635000I0J-175000D01*
G01*
X121125000Y-95985000D01*
G75*
G02*
X120950000Y-96160000I-175000J0D01*
G01*
X119250000Y-96160000D01*
G75*
G02*
X119075000Y-95985000I0J175000D01*
G01*
G37*
G36*
G01*
X114125000Y-95985000D02*
X114125000Y-95635000D01*
G75*
G02*
X114300000Y-95460000I175000J0D01*
G01*
X116000000Y-95460000D01*
G75*
G02*
X116175000Y-95635000I0J-175000D01*
G01*
X116175000Y-95985000D01*
G75*
G02*
X116000000Y-96160000I-175000J0D01*
G01*
X114300000Y-96160000D01*
G75*
G02*
X114125000Y-95985000I0J175000D01*
G01*
G37*
G36*
G01*
X114125000Y-94715000D02*
X114125000Y-94365000D01*
G75*
G02*
X114300000Y-94190000I175000J0D01*
G01*
X116000000Y-94190000D01*
G75*
G02*
X116175000Y-94365000I0J-175000D01*
G01*
X116175000Y-94715000D01*
G75*
G02*
X116000000Y-94890000I-175000J0D01*
G01*
X114300000Y-94890000D01*
G75*
G02*
X114125000Y-94715000I0J175000D01*
G01*
G37*
G36*
G01*
X114125000Y-93445000D02*
X114125000Y-93095000D01*
G75*
G02*
X114300000Y-92920000I175000J0D01*
G01*
X116000000Y-92920000D01*
G75*
G02*
X116175000Y-93095000I0J-175000D01*
G01*
X116175000Y-93445000D01*
G75*
G02*
X116000000Y-93620000I-175000J0D01*
G01*
X114300000Y-93620000D01*
G75*
G02*
X114125000Y-93445000I0J175000D01*
G01*
G37*
G36*
G01*
X114125000Y-92175000D02*
X114125000Y-91825000D01*
G75*
G02*
X114300000Y-91650000I175000J0D01*
G01*
X116000000Y-91650000D01*
G75*
G02*
X116175000Y-91825000I0J-175000D01*
G01*
X116175000Y-92175000D01*
G75*
G02*
X116000000Y-92350000I-175000J0D01*
G01*
X114300000Y-92350000D01*
G75*
G02*
X114125000Y-92175000I0J175000D01*
G01*
G37*
%TD*%
%TO.C,C2*%
G36*
G01*
X132381250Y-120000000D02*
X131818750Y-120000000D01*
G75*
G02*
X131575000Y-119756250I0J243750D01*
G01*
X131575000Y-119268750D01*
G75*
G02*
X131818750Y-119025000I243750J0D01*
G01*
X132381250Y-119025000D01*
G75*
G02*
X132625000Y-119268750I0J-243750D01*
G01*
X132625000Y-119756250D01*
G75*
G02*
X132381250Y-120000000I-243750J0D01*
G01*
G37*
G36*
G01*
X132381250Y-121575000D02*
X131818750Y-121575000D01*
G75*
G02*
X131575000Y-121331250I0J243750D01*
G01*
X131575000Y-120843750D01*
G75*
G02*
X131818750Y-120600000I243750J0D01*
G01*
X132381250Y-120600000D01*
G75*
G02*
X132625000Y-120843750I0J-243750D01*
G01*
X132625000Y-121331250D01*
G75*
G02*
X132381250Y-121575000I-243750J0D01*
G01*
G37*
%TD*%
%TO.C,C1*%
G36*
G01*
X126931250Y-120250000D02*
X126368750Y-120250000D01*
G75*
G02*
X126125000Y-120006250I0J243750D01*
G01*
X126125000Y-119518750D01*
G75*
G02*
X126368750Y-119275000I243750J0D01*
G01*
X126931250Y-119275000D01*
G75*
G02*
X127175000Y-119518750I0J-243750D01*
G01*
X127175000Y-120006250D01*
G75*
G02*
X126931250Y-120250000I-243750J0D01*
G01*
G37*
G36*
G01*
X126931250Y-121825000D02*
X126368750Y-121825000D01*
G75*
G02*
X126125000Y-121581250I0J243750D01*
G01*
X126125000Y-121093750D01*
G75*
G02*
X126368750Y-120850000I243750J0D01*
G01*
X126931250Y-120850000D01*
G75*
G02*
X127175000Y-121093750I0J-243750D01*
G01*
X127175000Y-121581250D01*
G75*
G02*
X126931250Y-121825000I-243750J0D01*
G01*
G37*
%TD*%
%TO.C,C7*%
G36*
G01*
X117772500Y-105350000D02*
X117377500Y-105350000D01*
G75*
G02*
X117205000Y-105177500I0J172500D01*
G01*
X117205000Y-104832500D01*
G75*
G02*
X117377500Y-104660000I172500J0D01*
G01*
X117772500Y-104660000D01*
G75*
G02*
X117945000Y-104832500I0J-172500D01*
G01*
X117945000Y-105177500D01*
G75*
G02*
X117772500Y-105350000I-172500J0D01*
G01*
G37*
G36*
G01*
X117772500Y-106320000D02*
X117377500Y-106320000D01*
G75*
G02*
X117205000Y-106147500I0J172500D01*
G01*
X117205000Y-105802500D01*
G75*
G02*
X117377500Y-105630000I172500J0D01*
G01*
X117772500Y-105630000D01*
G75*
G02*
X117945000Y-105802500I0J-172500D01*
G01*
X117945000Y-106147500D01*
G75*
G02*
X117772500Y-106320000I-172500J0D01*
G01*
G37*
%TD*%
%TO.C,C4*%
G36*
G01*
X117377500Y-103400000D02*
X117772500Y-103400000D01*
G75*
G02*
X117945000Y-103572500I0J-172500D01*
G01*
X117945000Y-103917500D01*
G75*
G02*
X117772500Y-104090000I-172500J0D01*
G01*
X117377500Y-104090000D01*
G75*
G02*
X117205000Y-103917500I0J172500D01*
G01*
X117205000Y-103572500D01*
G75*
G02*
X117377500Y-103400000I172500J0D01*
G01*
G37*
G36*
G01*
X117377500Y-102430000D02*
X117772500Y-102430000D01*
G75*
G02*
X117945000Y-102602500I0J-172500D01*
G01*
X117945000Y-102947500D01*
G75*
G02*
X117772500Y-103120000I-172500J0D01*
G01*
X117377500Y-103120000D01*
G75*
G02*
X117205000Y-102947500I0J172500D01*
G01*
X117205000Y-102602500D01*
G75*
G02*
X117377500Y-102430000I172500J0D01*
G01*
G37*
%TD*%
%TO.C,Rc_sbus1*%
G36*
G01*
X132537500Y-95500000D02*
X133062500Y-95500000D01*
G75*
G02*
X133325000Y-95762500I0J-262500D01*
G01*
X133325000Y-96387500D01*
G75*
G02*
X133062500Y-96650000I-262500J0D01*
G01*
X132537500Y-96650000D01*
G75*
G02*
X132275000Y-96387500I0J262500D01*
G01*
X132275000Y-95762500D01*
G75*
G02*
X132537500Y-95500000I262500J0D01*
G01*
G37*
G36*
G01*
X132537500Y-93750000D02*
X133062500Y-93750000D01*
G75*
G02*
X133325000Y-94012500I0J-262500D01*
G01*
X133325000Y-94637500D01*
G75*
G02*
X133062500Y-94900000I-262500J0D01*
G01*
X132537500Y-94900000D01*
G75*
G02*
X132275000Y-94637500I0J262500D01*
G01*
X132275000Y-94012500D01*
G75*
G02*
X132537500Y-93750000I262500J0D01*
G01*
G37*
%TD*%
%TO.C,Rb_sbus1*%
G36*
G01*
X133937500Y-95500000D02*
X134462500Y-95500000D01*
G75*
G02*
X134725000Y-95762500I0J-262500D01*
G01*
X134725000Y-96387500D01*
G75*
G02*
X134462500Y-96650000I-262500J0D01*
G01*
X133937500Y-96650000D01*
G75*
G02*
X133675000Y-96387500I0J262500D01*
G01*
X133675000Y-95762500D01*
G75*
G02*
X133937500Y-95500000I262500J0D01*
G01*
G37*
G36*
G01*
X133937500Y-93750000D02*
X134462500Y-93750000D01*
G75*
G02*
X134725000Y-94012500I0J-262500D01*
G01*
X134725000Y-94637500D01*
G75*
G02*
X134462500Y-94900000I-262500J0D01*
G01*
X133937500Y-94900000D01*
G75*
G02*
X133675000Y-94637500I0J262500D01*
G01*
X133675000Y-94012500D01*
G75*
G02*
X133937500Y-93750000I262500J0D01*
G01*
G37*
%TD*%
D12*
%TO.C,UART4*%
X136195000Y-87125000D03*
X133655000Y-87125000D03*
X131115000Y-87125000D03*
D13*
X128575000Y-87125000D03*
%TD*%
D12*
%TO.C,SBUS*%
X133705000Y-84375000D03*
X131165000Y-84375000D03*
D13*
X128625000Y-84375000D03*
%TD*%
%TO.C,R11*%
G36*
G01*
X123543750Y-94950000D02*
X124106250Y-94950000D01*
G75*
G02*
X124350000Y-95193750I0J-243750D01*
G01*
X124350000Y-95681250D01*
G75*
G02*
X124106250Y-95925000I-243750J0D01*
G01*
X123543750Y-95925000D01*
G75*
G02*
X123300000Y-95681250I0J243750D01*
G01*
X123300000Y-95193750D01*
G75*
G02*
X123543750Y-94950000I243750J0D01*
G01*
G37*
G36*
G01*
X123543750Y-93375000D02*
X124106250Y-93375000D01*
G75*
G02*
X124350000Y-93618750I0J-243750D01*
G01*
X124350000Y-94106250D01*
G75*
G02*
X124106250Y-94350000I-243750J0D01*
G01*
X123543750Y-94350000D01*
G75*
G02*
X123300000Y-94106250I0J243750D01*
G01*
X123300000Y-93618750D01*
G75*
G02*
X123543750Y-93375000I243750J0D01*
G01*
G37*
%TD*%
%TO.C,1k*%
G36*
G01*
X121918750Y-94975000D02*
X122481250Y-94975000D01*
G75*
G02*
X122725000Y-95218750I0J-243750D01*
G01*
X122725000Y-95706250D01*
G75*
G02*
X122481250Y-95950000I-243750J0D01*
G01*
X121918750Y-95950000D01*
G75*
G02*
X121675000Y-95706250I0J243750D01*
G01*
X121675000Y-95218750D01*
G75*
G02*
X121918750Y-94975000I243750J0D01*
G01*
G37*
G36*
G01*
X121918750Y-93400000D02*
X122481250Y-93400000D01*
G75*
G02*
X122725000Y-93643750I0J-243750D01*
G01*
X122725000Y-94131250D01*
G75*
G02*
X122481250Y-94375000I-243750J0D01*
G01*
X121918750Y-94375000D01*
G75*
G02*
X121675000Y-94131250I0J243750D01*
G01*
X121675000Y-93643750D01*
G75*
G02*
X121918750Y-93400000I243750J0D01*
G01*
G37*
%TD*%
%TO.C,C3*%
G36*
G01*
X128462500Y-124156250D02*
X128462500Y-123593750D01*
G75*
G02*
X128706250Y-123350000I243750J0D01*
G01*
X129193750Y-123350000D01*
G75*
G02*
X129437500Y-123593750I0J-243750D01*
G01*
X129437500Y-124156250D01*
G75*
G02*
X129193750Y-124400000I-243750J0D01*
G01*
X128706250Y-124400000D01*
G75*
G02*
X128462500Y-124156250I0J243750D01*
G01*
G37*
G36*
G01*
X126887500Y-124156250D02*
X126887500Y-123593750D01*
G75*
G02*
X127131250Y-123350000I243750J0D01*
G01*
X127618750Y-123350000D01*
G75*
G02*
X127862500Y-123593750I0J-243750D01*
G01*
X127862500Y-124156250D01*
G75*
G02*
X127618750Y-124400000I-243750J0D01*
G01*
X127131250Y-124400000D01*
G75*
G02*
X126887500Y-124156250I0J243750D01*
G01*
G37*
%TD*%
%TO.C,U3*%
G36*
G01*
X127625000Y-119425000D02*
X127625000Y-119275000D01*
G75*
G02*
X127700000Y-119200000I75000J0D01*
G01*
X128200000Y-119200000D01*
G75*
G02*
X128275000Y-119275000I0J-75000D01*
G01*
X128275000Y-119425000D01*
G75*
G02*
X128200000Y-119500000I-75000J0D01*
G01*
X127700000Y-119500000D01*
G75*
G02*
X127625000Y-119425000I0J75000D01*
G01*
G37*
G36*
G01*
X127625000Y-119825000D02*
X127625000Y-119675000D01*
G75*
G02*
X127700000Y-119600000I75000J0D01*
G01*
X128200000Y-119600000D01*
G75*
G02*
X128275000Y-119675000I0J-75000D01*
G01*
X128275000Y-119825000D01*
G75*
G02*
X128200000Y-119900000I-75000J0D01*
G01*
X127700000Y-119900000D01*
G75*
G02*
X127625000Y-119825000I0J75000D01*
G01*
G37*
G36*
G01*
X127625000Y-120225000D02*
X127625000Y-120075000D01*
G75*
G02*
X127700000Y-120000000I75000J0D01*
G01*
X128200000Y-120000000D01*
G75*
G02*
X128275000Y-120075000I0J-75000D01*
G01*
X128275000Y-120225000D01*
G75*
G02*
X128200000Y-120300000I-75000J0D01*
G01*
X127700000Y-120300000D01*
G75*
G02*
X127625000Y-120225000I0J75000D01*
G01*
G37*
G36*
G01*
X127625000Y-120625000D02*
X127625000Y-120475000D01*
G75*
G02*
X127700000Y-120400000I75000J0D01*
G01*
X128200000Y-120400000D01*
G75*
G02*
X128275000Y-120475000I0J-75000D01*
G01*
X128275000Y-120625000D01*
G75*
G02*
X128200000Y-120700000I-75000J0D01*
G01*
X127700000Y-120700000D01*
G75*
G02*
X127625000Y-120625000I0J75000D01*
G01*
G37*
G36*
G01*
X127625000Y-121025000D02*
X127625000Y-120875000D01*
G75*
G02*
X127700000Y-120800000I75000J0D01*
G01*
X128200000Y-120800000D01*
G75*
G02*
X128275000Y-120875000I0J-75000D01*
G01*
X128275000Y-121025000D01*
G75*
G02*
X128200000Y-121100000I-75000J0D01*
G01*
X127700000Y-121100000D01*
G75*
G02*
X127625000Y-121025000I0J75000D01*
G01*
G37*
G36*
G01*
X127625000Y-121425000D02*
X127625000Y-121275000D01*
G75*
G02*
X127700000Y-121200000I75000J0D01*
G01*
X128200000Y-121200000D01*
G75*
G02*
X128275000Y-121275000I0J-75000D01*
G01*
X128275000Y-121425000D01*
G75*
G02*
X128200000Y-121500000I-75000J0D01*
G01*
X127700000Y-121500000D01*
G75*
G02*
X127625000Y-121425000I0J75000D01*
G01*
G37*
G36*
G01*
X128525000Y-122175000D02*
X128375000Y-122175000D01*
G75*
G02*
X128300000Y-122100000I0J75000D01*
G01*
X128300000Y-121600000D01*
G75*
G02*
X128375000Y-121525000I75000J0D01*
G01*
X128525000Y-121525000D01*
G75*
G02*
X128600000Y-121600000I0J-75000D01*
G01*
X128600000Y-122100000D01*
G75*
G02*
X128525000Y-122175000I-75000J0D01*
G01*
G37*
G36*
G01*
X128925000Y-122175000D02*
X128775000Y-122175000D01*
G75*
G02*
X128700000Y-122100000I0J75000D01*
G01*
X128700000Y-121600000D01*
G75*
G02*
X128775000Y-121525000I75000J0D01*
G01*
X128925000Y-121525000D01*
G75*
G02*
X129000000Y-121600000I0J-75000D01*
G01*
X129000000Y-122100000D01*
G75*
G02*
X128925000Y-122175000I-75000J0D01*
G01*
G37*
G36*
G01*
X129325000Y-122175000D02*
X129175000Y-122175000D01*
G75*
G02*
X129100000Y-122100000I0J75000D01*
G01*
X129100000Y-121600000D01*
G75*
G02*
X129175000Y-121525000I75000J0D01*
G01*
X129325000Y-121525000D01*
G75*
G02*
X129400000Y-121600000I0J-75000D01*
G01*
X129400000Y-122100000D01*
G75*
G02*
X129325000Y-122175000I-75000J0D01*
G01*
G37*
G36*
G01*
X129725000Y-122175000D02*
X129575000Y-122175000D01*
G75*
G02*
X129500000Y-122100000I0J75000D01*
G01*
X129500000Y-121600000D01*
G75*
G02*
X129575000Y-121525000I75000J0D01*
G01*
X129725000Y-121525000D01*
G75*
G02*
X129800000Y-121600000I0J-75000D01*
G01*
X129800000Y-122100000D01*
G75*
G02*
X129725000Y-122175000I-75000J0D01*
G01*
G37*
G36*
G01*
X130125000Y-122175000D02*
X129975000Y-122175000D01*
G75*
G02*
X129900000Y-122100000I0J75000D01*
G01*
X129900000Y-121600000D01*
G75*
G02*
X129975000Y-121525000I75000J0D01*
G01*
X130125000Y-121525000D01*
G75*
G02*
X130200000Y-121600000I0J-75000D01*
G01*
X130200000Y-122100000D01*
G75*
G02*
X130125000Y-122175000I-75000J0D01*
G01*
G37*
G36*
G01*
X130525000Y-122175000D02*
X130375000Y-122175000D01*
G75*
G02*
X130300000Y-122100000I0J75000D01*
G01*
X130300000Y-121600000D01*
G75*
G02*
X130375000Y-121525000I75000J0D01*
G01*
X130525000Y-121525000D01*
G75*
G02*
X130600000Y-121600000I0J-75000D01*
G01*
X130600000Y-122100000D01*
G75*
G02*
X130525000Y-122175000I-75000J0D01*
G01*
G37*
G36*
G01*
X130625000Y-121425000D02*
X130625000Y-121275000D01*
G75*
G02*
X130700000Y-121200000I75000J0D01*
G01*
X131200000Y-121200000D01*
G75*
G02*
X131275000Y-121275000I0J-75000D01*
G01*
X131275000Y-121425000D01*
G75*
G02*
X131200000Y-121500000I-75000J0D01*
G01*
X130700000Y-121500000D01*
G75*
G02*
X130625000Y-121425000I0J75000D01*
G01*
G37*
G36*
G01*
X130625000Y-121025000D02*
X130625000Y-120875000D01*
G75*
G02*
X130700000Y-120800000I75000J0D01*
G01*
X131200000Y-120800000D01*
G75*
G02*
X131275000Y-120875000I0J-75000D01*
G01*
X131275000Y-121025000D01*
G75*
G02*
X131200000Y-121100000I-75000J0D01*
G01*
X130700000Y-121100000D01*
G75*
G02*
X130625000Y-121025000I0J75000D01*
G01*
G37*
G36*
G01*
X130625000Y-120625000D02*
X130625000Y-120475000D01*
G75*
G02*
X130700000Y-120400000I75000J0D01*
G01*
X131200000Y-120400000D01*
G75*
G02*
X131275000Y-120475000I0J-75000D01*
G01*
X131275000Y-120625000D01*
G75*
G02*
X131200000Y-120700000I-75000J0D01*
G01*
X130700000Y-120700000D01*
G75*
G02*
X130625000Y-120625000I0J75000D01*
G01*
G37*
G36*
G01*
X130625000Y-120225000D02*
X130625000Y-120075000D01*
G75*
G02*
X130700000Y-120000000I75000J0D01*
G01*
X131200000Y-120000000D01*
G75*
G02*
X131275000Y-120075000I0J-75000D01*
G01*
X131275000Y-120225000D01*
G75*
G02*
X131200000Y-120300000I-75000J0D01*
G01*
X130700000Y-120300000D01*
G75*
G02*
X130625000Y-120225000I0J75000D01*
G01*
G37*
G36*
G01*
X130625000Y-119825000D02*
X130625000Y-119675000D01*
G75*
G02*
X130700000Y-119600000I75000J0D01*
G01*
X131200000Y-119600000D01*
G75*
G02*
X131275000Y-119675000I0J-75000D01*
G01*
X131275000Y-119825000D01*
G75*
G02*
X131200000Y-119900000I-75000J0D01*
G01*
X130700000Y-119900000D01*
G75*
G02*
X130625000Y-119825000I0J75000D01*
G01*
G37*
G36*
G01*
X130625000Y-119425000D02*
X130625000Y-119275000D01*
G75*
G02*
X130700000Y-119200000I75000J0D01*
G01*
X131200000Y-119200000D01*
G75*
G02*
X131275000Y-119275000I0J-75000D01*
G01*
X131275000Y-119425000D01*
G75*
G02*
X131200000Y-119500000I-75000J0D01*
G01*
X130700000Y-119500000D01*
G75*
G02*
X130625000Y-119425000I0J75000D01*
G01*
G37*
G36*
G01*
X130525000Y-119175000D02*
X130375000Y-119175000D01*
G75*
G02*
X130300000Y-119100000I0J75000D01*
G01*
X130300000Y-118600000D01*
G75*
G02*
X130375000Y-118525000I75000J0D01*
G01*
X130525000Y-118525000D01*
G75*
G02*
X130600000Y-118600000I0J-75000D01*
G01*
X130600000Y-119100000D01*
G75*
G02*
X130525000Y-119175000I-75000J0D01*
G01*
G37*
G36*
G01*
X130125000Y-119175000D02*
X129975000Y-119175000D01*
G75*
G02*
X129900000Y-119100000I0J75000D01*
G01*
X129900000Y-118600000D01*
G75*
G02*
X129975000Y-118525000I75000J0D01*
G01*
X130125000Y-118525000D01*
G75*
G02*
X130200000Y-118600000I0J-75000D01*
G01*
X130200000Y-119100000D01*
G75*
G02*
X130125000Y-119175000I-75000J0D01*
G01*
G37*
G36*
G01*
X129725000Y-119175000D02*
X129575000Y-119175000D01*
G75*
G02*
X129500000Y-119100000I0J75000D01*
G01*
X129500000Y-118600000D01*
G75*
G02*
X129575000Y-118525000I75000J0D01*
G01*
X129725000Y-118525000D01*
G75*
G02*
X129800000Y-118600000I0J-75000D01*
G01*
X129800000Y-119100000D01*
G75*
G02*
X129725000Y-119175000I-75000J0D01*
G01*
G37*
G36*
G01*
X129325000Y-119175000D02*
X129175000Y-119175000D01*
G75*
G02*
X129100000Y-119100000I0J75000D01*
G01*
X129100000Y-118600000D01*
G75*
G02*
X129175000Y-118525000I75000J0D01*
G01*
X129325000Y-118525000D01*
G75*
G02*
X129400000Y-118600000I0J-75000D01*
G01*
X129400000Y-119100000D01*
G75*
G02*
X129325000Y-119175000I-75000J0D01*
G01*
G37*
G36*
G01*
X128925000Y-119175000D02*
X128775000Y-119175000D01*
G75*
G02*
X128700000Y-119100000I0J75000D01*
G01*
X128700000Y-118600000D01*
G75*
G02*
X128775000Y-118525000I75000J0D01*
G01*
X128925000Y-118525000D01*
G75*
G02*
X129000000Y-118600000I0J-75000D01*
G01*
X129000000Y-119100000D01*
G75*
G02*
X128925000Y-119175000I-75000J0D01*
G01*
G37*
G36*
G01*
X128525000Y-119175000D02*
X128375000Y-119175000D01*
G75*
G02*
X128300000Y-119100000I0J75000D01*
G01*
X128300000Y-118600000D01*
G75*
G02*
X128375000Y-118525000I75000J0D01*
G01*
X128525000Y-118525000D01*
G75*
G02*
X128600000Y-118600000I0J-75000D01*
G01*
X128600000Y-119100000D01*
G75*
G02*
X128525000Y-119175000I-75000J0D01*
G01*
G37*
%TD*%
D17*
%TO.C,Y1*%
X120725000Y-103375000D03*
X120725000Y-105575000D03*
X119025000Y-105575000D03*
X119025000Y-103375000D03*
%TD*%
D18*
%TO.C,ESD*%
X145100000Y-98200000D03*
X145100000Y-97250000D03*
X145100000Y-96300000D03*
X142900000Y-96300000D03*
X142900000Y-98200000D03*
X142900000Y-97250000D03*
%TD*%
%TO.C,STM32F405*%
G36*
G01*
X125650000Y-101050000D02*
X125650000Y-99600000D01*
G75*
G02*
X125750000Y-99500000I100000J0D01*
G01*
X125950000Y-99500000D01*
G75*
G02*
X126050000Y-99600000I0J-100000D01*
G01*
X126050000Y-101050000D01*
G75*
G02*
X125950000Y-101150000I-100000J0D01*
G01*
X125750000Y-101150000D01*
G75*
G02*
X125650000Y-101050000I0J100000D01*
G01*
G37*
G36*
G01*
X126150000Y-101050000D02*
X126150000Y-99600000D01*
G75*
G02*
X126250000Y-99500000I100000J0D01*
G01*
X126450000Y-99500000D01*
G75*
G02*
X126550000Y-99600000I0J-100000D01*
G01*
X126550000Y-101050000D01*
G75*
G02*
X126450000Y-101150000I-100000J0D01*
G01*
X126250000Y-101150000D01*
G75*
G02*
X126150000Y-101050000I0J100000D01*
G01*
G37*
G36*
G01*
X126650000Y-101050000D02*
X126650000Y-99600000D01*
G75*
G02*
X126750000Y-99500000I100000J0D01*
G01*
X126950000Y-99500000D01*
G75*
G02*
X127050000Y-99600000I0J-100000D01*
G01*
X127050000Y-101050000D01*
G75*
G02*
X126950000Y-101150000I-100000J0D01*
G01*
X126750000Y-101150000D01*
G75*
G02*
X126650000Y-101050000I0J100000D01*
G01*
G37*
G36*
G01*
X127150000Y-101050000D02*
X127150000Y-99600000D01*
G75*
G02*
X127250000Y-99500000I100000J0D01*
G01*
X127450000Y-99500000D01*
G75*
G02*
X127550000Y-99600000I0J-100000D01*
G01*
X127550000Y-101050000D01*
G75*
G02*
X127450000Y-101150000I-100000J0D01*
G01*
X127250000Y-101150000D01*
G75*
G02*
X127150000Y-101050000I0J100000D01*
G01*
G37*
G36*
G01*
X127650000Y-101050000D02*
X127650000Y-99600000D01*
G75*
G02*
X127750000Y-99500000I100000J0D01*
G01*
X127950000Y-99500000D01*
G75*
G02*
X128050000Y-99600000I0J-100000D01*
G01*
X128050000Y-101050000D01*
G75*
G02*
X127950000Y-101150000I-100000J0D01*
G01*
X127750000Y-101150000D01*
G75*
G02*
X127650000Y-101050000I0J100000D01*
G01*
G37*
G36*
G01*
X128150000Y-101050000D02*
X128150000Y-99600000D01*
G75*
G02*
X128250000Y-99500000I100000J0D01*
G01*
X128450000Y-99500000D01*
G75*
G02*
X128550000Y-99600000I0J-100000D01*
G01*
X128550000Y-101050000D01*
G75*
G02*
X128450000Y-101150000I-100000J0D01*
G01*
X128250000Y-101150000D01*
G75*
G02*
X128150000Y-101050000I0J100000D01*
G01*
G37*
G36*
G01*
X128650000Y-101050000D02*
X128650000Y-99600000D01*
G75*
G02*
X128750000Y-99500000I100000J0D01*
G01*
X128950000Y-99500000D01*
G75*
G02*
X129050000Y-99600000I0J-100000D01*
G01*
X129050000Y-101050000D01*
G75*
G02*
X128950000Y-101150000I-100000J0D01*
G01*
X128750000Y-101150000D01*
G75*
G02*
X128650000Y-101050000I0J100000D01*
G01*
G37*
G36*
G01*
X129150000Y-101050000D02*
X129150000Y-99600000D01*
G75*
G02*
X129250000Y-99500000I100000J0D01*
G01*
X129450000Y-99500000D01*
G75*
G02*
X129550000Y-99600000I0J-100000D01*
G01*
X129550000Y-101050000D01*
G75*
G02*
X129450000Y-101150000I-100000J0D01*
G01*
X129250000Y-101150000D01*
G75*
G02*
X129150000Y-101050000I0J100000D01*
G01*
G37*
G36*
G01*
X129650000Y-101050000D02*
X129650000Y-99600000D01*
G75*
G02*
X129750000Y-99500000I100000J0D01*
G01*
X129950000Y-99500000D01*
G75*
G02*
X130050000Y-99600000I0J-100000D01*
G01*
X130050000Y-101050000D01*
G75*
G02*
X129950000Y-101150000I-100000J0D01*
G01*
X129750000Y-101150000D01*
G75*
G02*
X129650000Y-101050000I0J100000D01*
G01*
G37*
G36*
G01*
X130150000Y-101050000D02*
X130150000Y-99600000D01*
G75*
G02*
X130250000Y-99500000I100000J0D01*
G01*
X130450000Y-99500000D01*
G75*
G02*
X130550000Y-99600000I0J-100000D01*
G01*
X130550000Y-101050000D01*
G75*
G02*
X130450000Y-101150000I-100000J0D01*
G01*
X130250000Y-101150000D01*
G75*
G02*
X130150000Y-101050000I0J100000D01*
G01*
G37*
G36*
G01*
X130650000Y-101050000D02*
X130650000Y-99600000D01*
G75*
G02*
X130750000Y-99500000I100000J0D01*
G01*
X130950000Y-99500000D01*
G75*
G02*
X131050000Y-99600000I0J-100000D01*
G01*
X131050000Y-101050000D01*
G75*
G02*
X130950000Y-101150000I-100000J0D01*
G01*
X130750000Y-101150000D01*
G75*
G02*
X130650000Y-101050000I0J100000D01*
G01*
G37*
G36*
G01*
X131150000Y-101050000D02*
X131150000Y-99600000D01*
G75*
G02*
X131250000Y-99500000I100000J0D01*
G01*
X131450000Y-99500000D01*
G75*
G02*
X131550000Y-99600000I0J-100000D01*
G01*
X131550000Y-101050000D01*
G75*
G02*
X131450000Y-101150000I-100000J0D01*
G01*
X131250000Y-101150000D01*
G75*
G02*
X131150000Y-101050000I0J100000D01*
G01*
G37*
G36*
G01*
X131650000Y-101050000D02*
X131650000Y-99600000D01*
G75*
G02*
X131750000Y-99500000I100000J0D01*
G01*
X131950000Y-99500000D01*
G75*
G02*
X132050000Y-99600000I0J-100000D01*
G01*
X132050000Y-101050000D01*
G75*
G02*
X131950000Y-101150000I-100000J0D01*
G01*
X131750000Y-101150000D01*
G75*
G02*
X131650000Y-101050000I0J100000D01*
G01*
G37*
G36*
G01*
X132150000Y-101050000D02*
X132150000Y-99600000D01*
G75*
G02*
X132250000Y-99500000I100000J0D01*
G01*
X132450000Y-99500000D01*
G75*
G02*
X132550000Y-99600000I0J-100000D01*
G01*
X132550000Y-101050000D01*
G75*
G02*
X132450000Y-101150000I-100000J0D01*
G01*
X132250000Y-101150000D01*
G75*
G02*
X132150000Y-101050000I0J100000D01*
G01*
G37*
G36*
G01*
X132650000Y-101050000D02*
X132650000Y-99600000D01*
G75*
G02*
X132750000Y-99500000I100000J0D01*
G01*
X132950000Y-99500000D01*
G75*
G02*
X133050000Y-99600000I0J-100000D01*
G01*
X133050000Y-101050000D01*
G75*
G02*
X132950000Y-101150000I-100000J0D01*
G01*
X132750000Y-101150000D01*
G75*
G02*
X132650000Y-101050000I0J100000D01*
G01*
G37*
G36*
G01*
X133150000Y-101050000D02*
X133150000Y-99600000D01*
G75*
G02*
X133250000Y-99500000I100000J0D01*
G01*
X133450000Y-99500000D01*
G75*
G02*
X133550000Y-99600000I0J-100000D01*
G01*
X133550000Y-101050000D01*
G75*
G02*
X133450000Y-101150000I-100000J0D01*
G01*
X133250000Y-101150000D01*
G75*
G02*
X133150000Y-101050000I0J100000D01*
G01*
G37*
G36*
G01*
X134450000Y-102350000D02*
X134450000Y-102150000D01*
G75*
G02*
X134550000Y-102050000I100000J0D01*
G01*
X136000000Y-102050000D01*
G75*
G02*
X136100000Y-102150000I0J-100000D01*
G01*
X136100000Y-102350000D01*
G75*
G02*
X136000000Y-102450000I-100000J0D01*
G01*
X134550000Y-102450000D01*
G75*
G02*
X134450000Y-102350000I0J100000D01*
G01*
G37*
G36*
G01*
X134450000Y-102850000D02*
X134450000Y-102650000D01*
G75*
G02*
X134550000Y-102550000I100000J0D01*
G01*
X136000000Y-102550000D01*
G75*
G02*
X136100000Y-102650000I0J-100000D01*
G01*
X136100000Y-102850000D01*
G75*
G02*
X136000000Y-102950000I-100000J0D01*
G01*
X134550000Y-102950000D01*
G75*
G02*
X134450000Y-102850000I0J100000D01*
G01*
G37*
G36*
G01*
X134450000Y-103350000D02*
X134450000Y-103150000D01*
G75*
G02*
X134550000Y-103050000I100000J0D01*
G01*
X136000000Y-103050000D01*
G75*
G02*
X136100000Y-103150000I0J-100000D01*
G01*
X136100000Y-103350000D01*
G75*
G02*
X136000000Y-103450000I-100000J0D01*
G01*
X134550000Y-103450000D01*
G75*
G02*
X134450000Y-103350000I0J100000D01*
G01*
G37*
G36*
G01*
X134450000Y-103850000D02*
X134450000Y-103650000D01*
G75*
G02*
X134550000Y-103550000I100000J0D01*
G01*
X136000000Y-103550000D01*
G75*
G02*
X136100000Y-103650000I0J-100000D01*
G01*
X136100000Y-103850000D01*
G75*
G02*
X136000000Y-103950000I-100000J0D01*
G01*
X134550000Y-103950000D01*
G75*
G02*
X134450000Y-103850000I0J100000D01*
G01*
G37*
G36*
G01*
X134450000Y-104350000D02*
X134450000Y-104150000D01*
G75*
G02*
X134550000Y-104050000I100000J0D01*
G01*
X136000000Y-104050000D01*
G75*
G02*
X136100000Y-104150000I0J-100000D01*
G01*
X136100000Y-104350000D01*
G75*
G02*
X136000000Y-104450000I-100000J0D01*
G01*
X134550000Y-104450000D01*
G75*
G02*
X134450000Y-104350000I0J100000D01*
G01*
G37*
G36*
G01*
X134450000Y-104850000D02*
X134450000Y-104650000D01*
G75*
G02*
X134550000Y-104550000I100000J0D01*
G01*
X136000000Y-104550000D01*
G75*
G02*
X136100000Y-104650000I0J-100000D01*
G01*
X136100000Y-104850000D01*
G75*
G02*
X136000000Y-104950000I-100000J0D01*
G01*
X134550000Y-104950000D01*
G75*
G02*
X134450000Y-104850000I0J100000D01*
G01*
G37*
G36*
G01*
X134450000Y-105350000D02*
X134450000Y-105150000D01*
G75*
G02*
X134550000Y-105050000I100000J0D01*
G01*
X136000000Y-105050000D01*
G75*
G02*
X136100000Y-105150000I0J-100000D01*
G01*
X136100000Y-105350000D01*
G75*
G02*
X136000000Y-105450000I-100000J0D01*
G01*
X134550000Y-105450000D01*
G75*
G02*
X134450000Y-105350000I0J100000D01*
G01*
G37*
G36*
G01*
X134450000Y-105850000D02*
X134450000Y-105650000D01*
G75*
G02*
X134550000Y-105550000I100000J0D01*
G01*
X136000000Y-105550000D01*
G75*
G02*
X136100000Y-105650000I0J-100000D01*
G01*
X136100000Y-105850000D01*
G75*
G02*
X136000000Y-105950000I-100000J0D01*
G01*
X134550000Y-105950000D01*
G75*
G02*
X134450000Y-105850000I0J100000D01*
G01*
G37*
G36*
G01*
X134450000Y-106350000D02*
X134450000Y-106150000D01*
G75*
G02*
X134550000Y-106050000I100000J0D01*
G01*
X136000000Y-106050000D01*
G75*
G02*
X136100000Y-106150000I0J-100000D01*
G01*
X136100000Y-106350000D01*
G75*
G02*
X136000000Y-106450000I-100000J0D01*
G01*
X134550000Y-106450000D01*
G75*
G02*
X134450000Y-106350000I0J100000D01*
G01*
G37*
G36*
G01*
X134450000Y-106850000D02*
X134450000Y-106650000D01*
G75*
G02*
X134550000Y-106550000I100000J0D01*
G01*
X136000000Y-106550000D01*
G75*
G02*
X136100000Y-106650000I0J-100000D01*
G01*
X136100000Y-106850000D01*
G75*
G02*
X136000000Y-106950000I-100000J0D01*
G01*
X134550000Y-106950000D01*
G75*
G02*
X134450000Y-106850000I0J100000D01*
G01*
G37*
G36*
G01*
X134450000Y-107350000D02*
X134450000Y-107150000D01*
G75*
G02*
X134550000Y-107050000I100000J0D01*
G01*
X136000000Y-107050000D01*
G75*
G02*
X136100000Y-107150000I0J-100000D01*
G01*
X136100000Y-107350000D01*
G75*
G02*
X136000000Y-107450000I-100000J0D01*
G01*
X134550000Y-107450000D01*
G75*
G02*
X134450000Y-107350000I0J100000D01*
G01*
G37*
G36*
G01*
X134450000Y-107850000D02*
X134450000Y-107650000D01*
G75*
G02*
X134550000Y-107550000I100000J0D01*
G01*
X136000000Y-107550000D01*
G75*
G02*
X136100000Y-107650000I0J-100000D01*
G01*
X136100000Y-107850000D01*
G75*
G02*
X136000000Y-107950000I-100000J0D01*
G01*
X134550000Y-107950000D01*
G75*
G02*
X134450000Y-107850000I0J100000D01*
G01*
G37*
G36*
G01*
X134450000Y-108350000D02*
X134450000Y-108150000D01*
G75*
G02*
X134550000Y-108050000I100000J0D01*
G01*
X136000000Y-108050000D01*
G75*
G02*
X136100000Y-108150000I0J-100000D01*
G01*
X136100000Y-108350000D01*
G75*
G02*
X136000000Y-108450000I-100000J0D01*
G01*
X134550000Y-108450000D01*
G75*
G02*
X134450000Y-108350000I0J100000D01*
G01*
G37*
G36*
G01*
X134450000Y-108850000D02*
X134450000Y-108650000D01*
G75*
G02*
X134550000Y-108550000I100000J0D01*
G01*
X136000000Y-108550000D01*
G75*
G02*
X136100000Y-108650000I0J-100000D01*
G01*
X136100000Y-108850000D01*
G75*
G02*
X136000000Y-108950000I-100000J0D01*
G01*
X134550000Y-108950000D01*
G75*
G02*
X134450000Y-108850000I0J100000D01*
G01*
G37*
G36*
G01*
X134450000Y-109350000D02*
X134450000Y-109150000D01*
G75*
G02*
X134550000Y-109050000I100000J0D01*
G01*
X136000000Y-109050000D01*
G75*
G02*
X136100000Y-109150000I0J-100000D01*
G01*
X136100000Y-109350000D01*
G75*
G02*
X136000000Y-109450000I-100000J0D01*
G01*
X134550000Y-109450000D01*
G75*
G02*
X134450000Y-109350000I0J100000D01*
G01*
G37*
G36*
G01*
X134450000Y-109850000D02*
X134450000Y-109650000D01*
G75*
G02*
X134550000Y-109550000I100000J0D01*
G01*
X136000000Y-109550000D01*
G75*
G02*
X136100000Y-109650000I0J-100000D01*
G01*
X136100000Y-109850000D01*
G75*
G02*
X136000000Y-109950000I-100000J0D01*
G01*
X134550000Y-109950000D01*
G75*
G02*
X134450000Y-109850000I0J100000D01*
G01*
G37*
G36*
G01*
X133150000Y-112400000D02*
X133150000Y-110950000D01*
G75*
G02*
X133250000Y-110850000I100000J0D01*
G01*
X133450000Y-110850000D01*
G75*
G02*
X133550000Y-110950000I0J-100000D01*
G01*
X133550000Y-112400000D01*
G75*
G02*
X133450000Y-112500000I-100000J0D01*
G01*
X133250000Y-112500000D01*
G75*
G02*
X133150000Y-112400000I0J100000D01*
G01*
G37*
G36*
G01*
X132650000Y-112400000D02*
X132650000Y-110950000D01*
G75*
G02*
X132750000Y-110850000I100000J0D01*
G01*
X132950000Y-110850000D01*
G75*
G02*
X133050000Y-110950000I0J-100000D01*
G01*
X133050000Y-112400000D01*
G75*
G02*
X132950000Y-112500000I-100000J0D01*
G01*
X132750000Y-112500000D01*
G75*
G02*
X132650000Y-112400000I0J100000D01*
G01*
G37*
G36*
G01*
X132150000Y-112400000D02*
X132150000Y-110950000D01*
G75*
G02*
X132250000Y-110850000I100000J0D01*
G01*
X132450000Y-110850000D01*
G75*
G02*
X132550000Y-110950000I0J-100000D01*
G01*
X132550000Y-112400000D01*
G75*
G02*
X132450000Y-112500000I-100000J0D01*
G01*
X132250000Y-112500000D01*
G75*
G02*
X132150000Y-112400000I0J100000D01*
G01*
G37*
G36*
G01*
X131650000Y-112400000D02*
X131650000Y-110950000D01*
G75*
G02*
X131750000Y-110850000I100000J0D01*
G01*
X131950000Y-110850000D01*
G75*
G02*
X132050000Y-110950000I0J-100000D01*
G01*
X132050000Y-112400000D01*
G75*
G02*
X131950000Y-112500000I-100000J0D01*
G01*
X131750000Y-112500000D01*
G75*
G02*
X131650000Y-112400000I0J100000D01*
G01*
G37*
G36*
G01*
X131150000Y-112400000D02*
X131150000Y-110950000D01*
G75*
G02*
X131250000Y-110850000I100000J0D01*
G01*
X131450000Y-110850000D01*
G75*
G02*
X131550000Y-110950000I0J-100000D01*
G01*
X131550000Y-112400000D01*
G75*
G02*
X131450000Y-112500000I-100000J0D01*
G01*
X131250000Y-112500000D01*
G75*
G02*
X131150000Y-112400000I0J100000D01*
G01*
G37*
G36*
G01*
X130650000Y-112400000D02*
X130650000Y-110950000D01*
G75*
G02*
X130750000Y-110850000I100000J0D01*
G01*
X130950000Y-110850000D01*
G75*
G02*
X131050000Y-110950000I0J-100000D01*
G01*
X131050000Y-112400000D01*
G75*
G02*
X130950000Y-112500000I-100000J0D01*
G01*
X130750000Y-112500000D01*
G75*
G02*
X130650000Y-112400000I0J100000D01*
G01*
G37*
G36*
G01*
X130150000Y-112400000D02*
X130150000Y-110950000D01*
G75*
G02*
X130250000Y-110850000I100000J0D01*
G01*
X130450000Y-110850000D01*
G75*
G02*
X130550000Y-110950000I0J-100000D01*
G01*
X130550000Y-112400000D01*
G75*
G02*
X130450000Y-112500000I-100000J0D01*
G01*
X130250000Y-112500000D01*
G75*
G02*
X130150000Y-112400000I0J100000D01*
G01*
G37*
G36*
G01*
X129650000Y-112400000D02*
X129650000Y-110950000D01*
G75*
G02*
X129750000Y-110850000I100000J0D01*
G01*
X129950000Y-110850000D01*
G75*
G02*
X130050000Y-110950000I0J-100000D01*
G01*
X130050000Y-112400000D01*
G75*
G02*
X129950000Y-112500000I-100000J0D01*
G01*
X129750000Y-112500000D01*
G75*
G02*
X129650000Y-112400000I0J100000D01*
G01*
G37*
G36*
G01*
X129150000Y-112400000D02*
X129150000Y-110950000D01*
G75*
G02*
X129250000Y-110850000I100000J0D01*
G01*
X129450000Y-110850000D01*
G75*
G02*
X129550000Y-110950000I0J-100000D01*
G01*
X129550000Y-112400000D01*
G75*
G02*
X129450000Y-112500000I-100000J0D01*
G01*
X129250000Y-112500000D01*
G75*
G02*
X129150000Y-112400000I0J100000D01*
G01*
G37*
G36*
G01*
X128650000Y-112400000D02*
X128650000Y-110950000D01*
G75*
G02*
X128750000Y-110850000I100000J0D01*
G01*
X128950000Y-110850000D01*
G75*
G02*
X129050000Y-110950000I0J-100000D01*
G01*
X129050000Y-112400000D01*
G75*
G02*
X128950000Y-112500000I-100000J0D01*
G01*
X128750000Y-112500000D01*
G75*
G02*
X128650000Y-112400000I0J100000D01*
G01*
G37*
G36*
G01*
X128150000Y-112400000D02*
X128150000Y-110950000D01*
G75*
G02*
X128250000Y-110850000I100000J0D01*
G01*
X128450000Y-110850000D01*
G75*
G02*
X128550000Y-110950000I0J-100000D01*
G01*
X128550000Y-112400000D01*
G75*
G02*
X128450000Y-112500000I-100000J0D01*
G01*
X128250000Y-112500000D01*
G75*
G02*
X128150000Y-112400000I0J100000D01*
G01*
G37*
G36*
G01*
X127650000Y-112400000D02*
X127650000Y-110950000D01*
G75*
G02*
X127750000Y-110850000I100000J0D01*
G01*
X127950000Y-110850000D01*
G75*
G02*
X128050000Y-110950000I0J-100000D01*
G01*
X128050000Y-112400000D01*
G75*
G02*
X127950000Y-112500000I-100000J0D01*
G01*
X127750000Y-112500000D01*
G75*
G02*
X127650000Y-112400000I0J100000D01*
G01*
G37*
G36*
G01*
X127150000Y-112400000D02*
X127150000Y-110950000D01*
G75*
G02*
X127250000Y-110850000I100000J0D01*
G01*
X127450000Y-110850000D01*
G75*
G02*
X127550000Y-110950000I0J-100000D01*
G01*
X127550000Y-112400000D01*
G75*
G02*
X127450000Y-112500000I-100000J0D01*
G01*
X127250000Y-112500000D01*
G75*
G02*
X127150000Y-112400000I0J100000D01*
G01*
G37*
G36*
G01*
X126650000Y-112400000D02*
X126650000Y-110950000D01*
G75*
G02*
X126750000Y-110850000I100000J0D01*
G01*
X126950000Y-110850000D01*
G75*
G02*
X127050000Y-110950000I0J-100000D01*
G01*
X127050000Y-112400000D01*
G75*
G02*
X126950000Y-112500000I-100000J0D01*
G01*
X126750000Y-112500000D01*
G75*
G02*
X126650000Y-112400000I0J100000D01*
G01*
G37*
G36*
G01*
X126150000Y-112400000D02*
X126150000Y-110950000D01*
G75*
G02*
X126250000Y-110850000I100000J0D01*
G01*
X126450000Y-110850000D01*
G75*
G02*
X126550000Y-110950000I0J-100000D01*
G01*
X126550000Y-112400000D01*
G75*
G02*
X126450000Y-112500000I-100000J0D01*
G01*
X126250000Y-112500000D01*
G75*
G02*
X126150000Y-112400000I0J100000D01*
G01*
G37*
G36*
G01*
X125650000Y-112400000D02*
X125650000Y-110950000D01*
G75*
G02*
X125750000Y-110850000I100000J0D01*
G01*
X125950000Y-110850000D01*
G75*
G02*
X126050000Y-110950000I0J-100000D01*
G01*
X126050000Y-112400000D01*
G75*
G02*
X125950000Y-112500000I-100000J0D01*
G01*
X125750000Y-112500000D01*
G75*
G02*
X125650000Y-112400000I0J100000D01*
G01*
G37*
G36*
G01*
X123100000Y-109850000D02*
X123100000Y-109650000D01*
G75*
G02*
X123200000Y-109550000I100000J0D01*
G01*
X124650000Y-109550000D01*
G75*
G02*
X124750000Y-109650000I0J-100000D01*
G01*
X124750000Y-109850000D01*
G75*
G02*
X124650000Y-109950000I-100000J0D01*
G01*
X123200000Y-109950000D01*
G75*
G02*
X123100000Y-109850000I0J100000D01*
G01*
G37*
G36*
G01*
X123100000Y-109350000D02*
X123100000Y-109150000D01*
G75*
G02*
X123200000Y-109050000I100000J0D01*
G01*
X124650000Y-109050000D01*
G75*
G02*
X124750000Y-109150000I0J-100000D01*
G01*
X124750000Y-109350000D01*
G75*
G02*
X124650000Y-109450000I-100000J0D01*
G01*
X123200000Y-109450000D01*
G75*
G02*
X123100000Y-109350000I0J100000D01*
G01*
G37*
G36*
G01*
X123100000Y-108850000D02*
X123100000Y-108650000D01*
G75*
G02*
X123200000Y-108550000I100000J0D01*
G01*
X124650000Y-108550000D01*
G75*
G02*
X124750000Y-108650000I0J-100000D01*
G01*
X124750000Y-108850000D01*
G75*
G02*
X124650000Y-108950000I-100000J0D01*
G01*
X123200000Y-108950000D01*
G75*
G02*
X123100000Y-108850000I0J100000D01*
G01*
G37*
G36*
G01*
X123100000Y-108350000D02*
X123100000Y-108150000D01*
G75*
G02*
X123200000Y-108050000I100000J0D01*
G01*
X124650000Y-108050000D01*
G75*
G02*
X124750000Y-108150000I0J-100000D01*
G01*
X124750000Y-108350000D01*
G75*
G02*
X124650000Y-108450000I-100000J0D01*
G01*
X123200000Y-108450000D01*
G75*
G02*
X123100000Y-108350000I0J100000D01*
G01*
G37*
G36*
G01*
X123100000Y-107850000D02*
X123100000Y-107650000D01*
G75*
G02*
X123200000Y-107550000I100000J0D01*
G01*
X124650000Y-107550000D01*
G75*
G02*
X124750000Y-107650000I0J-100000D01*
G01*
X124750000Y-107850000D01*
G75*
G02*
X124650000Y-107950000I-100000J0D01*
G01*
X123200000Y-107950000D01*
G75*
G02*
X123100000Y-107850000I0J100000D01*
G01*
G37*
G36*
G01*
X123100000Y-107350000D02*
X123100000Y-107150000D01*
G75*
G02*
X123200000Y-107050000I100000J0D01*
G01*
X124650000Y-107050000D01*
G75*
G02*
X124750000Y-107150000I0J-100000D01*
G01*
X124750000Y-107350000D01*
G75*
G02*
X124650000Y-107450000I-100000J0D01*
G01*
X123200000Y-107450000D01*
G75*
G02*
X123100000Y-107350000I0J100000D01*
G01*
G37*
G36*
G01*
X123100000Y-106850000D02*
X123100000Y-106650000D01*
G75*
G02*
X123200000Y-106550000I100000J0D01*
G01*
X124650000Y-106550000D01*
G75*
G02*
X124750000Y-106650000I0J-100000D01*
G01*
X124750000Y-106850000D01*
G75*
G02*
X124650000Y-106950000I-100000J0D01*
G01*
X123200000Y-106950000D01*
G75*
G02*
X123100000Y-106850000I0J100000D01*
G01*
G37*
G36*
G01*
X123100000Y-106350000D02*
X123100000Y-106150000D01*
G75*
G02*
X123200000Y-106050000I100000J0D01*
G01*
X124650000Y-106050000D01*
G75*
G02*
X124750000Y-106150000I0J-100000D01*
G01*
X124750000Y-106350000D01*
G75*
G02*
X124650000Y-106450000I-100000J0D01*
G01*
X123200000Y-106450000D01*
G75*
G02*
X123100000Y-106350000I0J100000D01*
G01*
G37*
G36*
G01*
X123100000Y-105850000D02*
X123100000Y-105650000D01*
G75*
G02*
X123200000Y-105550000I100000J0D01*
G01*
X124650000Y-105550000D01*
G75*
G02*
X124750000Y-105650000I0J-100000D01*
G01*
X124750000Y-105850000D01*
G75*
G02*
X124650000Y-105950000I-100000J0D01*
G01*
X123200000Y-105950000D01*
G75*
G02*
X123100000Y-105850000I0J100000D01*
G01*
G37*
G36*
G01*
X123100000Y-105350000D02*
X123100000Y-105150000D01*
G75*
G02*
X123200000Y-105050000I100000J0D01*
G01*
X124650000Y-105050000D01*
G75*
G02*
X124750000Y-105150000I0J-100000D01*
G01*
X124750000Y-105350000D01*
G75*
G02*
X124650000Y-105450000I-100000J0D01*
G01*
X123200000Y-105450000D01*
G75*
G02*
X123100000Y-105350000I0J100000D01*
G01*
G37*
G36*
G01*
X123100000Y-104850000D02*
X123100000Y-104650000D01*
G75*
G02*
X123200000Y-104550000I100000J0D01*
G01*
X124650000Y-104550000D01*
G75*
G02*
X124750000Y-104650000I0J-100000D01*
G01*
X124750000Y-104850000D01*
G75*
G02*
X124650000Y-104950000I-100000J0D01*
G01*
X123200000Y-104950000D01*
G75*
G02*
X123100000Y-104850000I0J100000D01*
G01*
G37*
G36*
G01*
X123100000Y-104350000D02*
X123100000Y-104150000D01*
G75*
G02*
X123200000Y-104050000I100000J0D01*
G01*
X124650000Y-104050000D01*
G75*
G02*
X124750000Y-104150000I0J-100000D01*
G01*
X124750000Y-104350000D01*
G75*
G02*
X124650000Y-104450000I-100000J0D01*
G01*
X123200000Y-104450000D01*
G75*
G02*
X123100000Y-104350000I0J100000D01*
G01*
G37*
G36*
G01*
X123100000Y-103850000D02*
X123100000Y-103650000D01*
G75*
G02*
X123200000Y-103550000I100000J0D01*
G01*
X124650000Y-103550000D01*
G75*
G02*
X124750000Y-103650000I0J-100000D01*
G01*
X124750000Y-103850000D01*
G75*
G02*
X124650000Y-103950000I-100000J0D01*
G01*
X123200000Y-103950000D01*
G75*
G02*
X123100000Y-103850000I0J100000D01*
G01*
G37*
G36*
G01*
X123100000Y-103350000D02*
X123100000Y-103150000D01*
G75*
G02*
X123200000Y-103050000I100000J0D01*
G01*
X124650000Y-103050000D01*
G75*
G02*
X124750000Y-103150000I0J-100000D01*
G01*
X124750000Y-103350000D01*
G75*
G02*
X124650000Y-103450000I-100000J0D01*
G01*
X123200000Y-103450000D01*
G75*
G02*
X123100000Y-103350000I0J100000D01*
G01*
G37*
G36*
G01*
X123100000Y-102850000D02*
X123100000Y-102650000D01*
G75*
G02*
X123200000Y-102550000I100000J0D01*
G01*
X124650000Y-102550000D01*
G75*
G02*
X124750000Y-102650000I0J-100000D01*
G01*
X124750000Y-102850000D01*
G75*
G02*
X124650000Y-102950000I-100000J0D01*
G01*
X123200000Y-102950000D01*
G75*
G02*
X123100000Y-102850000I0J100000D01*
G01*
G37*
G36*
G01*
X123100000Y-102350000D02*
X123100000Y-102150000D01*
G75*
G02*
X123200000Y-102050000I100000J0D01*
G01*
X124650000Y-102050000D01*
G75*
G02*
X124750000Y-102150000I0J-100000D01*
G01*
X124750000Y-102350000D01*
G75*
G02*
X124650000Y-102450000I-100000J0D01*
G01*
X123200000Y-102450000D01*
G75*
G02*
X123100000Y-102350000I0J100000D01*
G01*
G37*
%TD*%
D19*
%TO.C,RST*%
X110200000Y-94820000D03*
X110200000Y-100580000D03*
X106200000Y-100580000D03*
X106200000Y-94820000D03*
%TD*%
%TO.C,Rc_sbus2*%
G36*
G01*
X131450000Y-92387500D02*
X131450000Y-92912500D01*
G75*
G02*
X131187500Y-93175000I-262500J0D01*
G01*
X130562500Y-93175000D01*
G75*
G02*
X130300000Y-92912500I0J262500D01*
G01*
X130300000Y-92387500D01*
G75*
G02*
X130562500Y-92125000I262500J0D01*
G01*
X131187500Y-92125000D01*
G75*
G02*
X131450000Y-92387500I0J-262500D01*
G01*
G37*
G36*
G01*
X133200000Y-92387500D02*
X133200000Y-92912500D01*
G75*
G02*
X132937500Y-93175000I-262500J0D01*
G01*
X132312500Y-93175000D01*
G75*
G02*
X132050000Y-92912500I0J262500D01*
G01*
X132050000Y-92387500D01*
G75*
G02*
X132312500Y-92125000I262500J0D01*
G01*
X132937500Y-92125000D01*
G75*
G02*
X133200000Y-92387500I0J-262500D01*
G01*
G37*
%TD*%
%TO.C,R9*%
G36*
G01*
X137525000Y-95662500D02*
X137525000Y-96187500D01*
G75*
G02*
X137262500Y-96450000I-262500J0D01*
G01*
X136637500Y-96450000D01*
G75*
G02*
X136375000Y-96187500I0J262500D01*
G01*
X136375000Y-95662500D01*
G75*
G02*
X136637500Y-95400000I262500J0D01*
G01*
X137262500Y-95400000D01*
G75*
G02*
X137525000Y-95662500I0J-262500D01*
G01*
G37*
G36*
G01*
X139275000Y-95662500D02*
X139275000Y-96187500D01*
G75*
G02*
X139012500Y-96450000I-262500J0D01*
G01*
X138387500Y-96450000D01*
G75*
G02*
X138125000Y-96187500I0J262500D01*
G01*
X138125000Y-95662500D01*
G75*
G02*
X138387500Y-95400000I262500J0D01*
G01*
X139012500Y-95400000D01*
G75*
G02*
X139275000Y-95662500I0J-262500D01*
G01*
G37*
%TD*%
%TO.C,R8*%
G36*
G01*
X118700000Y-98637500D02*
X118700000Y-99162500D01*
G75*
G02*
X118437500Y-99425000I-262500J0D01*
G01*
X117812500Y-99425000D01*
G75*
G02*
X117550000Y-99162500I0J262500D01*
G01*
X117550000Y-98637500D01*
G75*
G02*
X117812500Y-98375000I262500J0D01*
G01*
X118437500Y-98375000D01*
G75*
G02*
X118700000Y-98637500I0J-262500D01*
G01*
G37*
G36*
G01*
X120450000Y-98637500D02*
X120450000Y-99162500D01*
G75*
G02*
X120187500Y-99425000I-262500J0D01*
G01*
X119562500Y-99425000D01*
G75*
G02*
X119300000Y-99162500I0J262500D01*
G01*
X119300000Y-98637500D01*
G75*
G02*
X119562500Y-98375000I262500J0D01*
G01*
X120187500Y-98375000D01*
G75*
G02*
X120450000Y-98637500I0J-262500D01*
G01*
G37*
%TD*%
%TO.C,R7*%
G36*
G01*
X118700000Y-100137500D02*
X118700000Y-100662500D01*
G75*
G02*
X118437500Y-100925000I-262500J0D01*
G01*
X117812500Y-100925000D01*
G75*
G02*
X117550000Y-100662500I0J262500D01*
G01*
X117550000Y-100137500D01*
G75*
G02*
X117812500Y-99875000I262500J0D01*
G01*
X118437500Y-99875000D01*
G75*
G02*
X118700000Y-100137500I0J-262500D01*
G01*
G37*
G36*
G01*
X120450000Y-100137500D02*
X120450000Y-100662500D01*
G75*
G02*
X120187500Y-100925000I-262500J0D01*
G01*
X119562500Y-100925000D01*
G75*
G02*
X119300000Y-100662500I0J262500D01*
G01*
X119300000Y-100137500D01*
G75*
G02*
X119562500Y-99875000I262500J0D01*
G01*
X120187500Y-99875000D01*
G75*
G02*
X120450000Y-100137500I0J-262500D01*
G01*
G37*
%TD*%
%TO.C,R6*%
G36*
G01*
X118700000Y-97137500D02*
X118700000Y-97662500D01*
G75*
G02*
X118437500Y-97925000I-262500J0D01*
G01*
X117812500Y-97925000D01*
G75*
G02*
X117550000Y-97662500I0J262500D01*
G01*
X117550000Y-97137500D01*
G75*
G02*
X117812500Y-96875000I262500J0D01*
G01*
X118437500Y-96875000D01*
G75*
G02*
X118700000Y-97137500I0J-262500D01*
G01*
G37*
G36*
G01*
X120450000Y-97137500D02*
X120450000Y-97662500D01*
G75*
G02*
X120187500Y-97925000I-262500J0D01*
G01*
X119562500Y-97925000D01*
G75*
G02*
X119300000Y-97662500I0J262500D01*
G01*
X119300000Y-97137500D01*
G75*
G02*
X119562500Y-96875000I262500J0D01*
G01*
X120187500Y-96875000D01*
G75*
G02*
X120450000Y-97137500I0J-262500D01*
G01*
G37*
%TD*%
%TO.C,R5*%
G36*
G01*
X112818750Y-97000000D02*
X113381250Y-97000000D01*
G75*
G02*
X113625000Y-97243750I0J-243750D01*
G01*
X113625000Y-97731250D01*
G75*
G02*
X113381250Y-97975000I-243750J0D01*
G01*
X112818750Y-97975000D01*
G75*
G02*
X112575000Y-97731250I0J243750D01*
G01*
X112575000Y-97243750D01*
G75*
G02*
X112818750Y-97000000I243750J0D01*
G01*
G37*
G36*
G01*
X112818750Y-95425000D02*
X113381250Y-95425000D01*
G75*
G02*
X113625000Y-95668750I0J-243750D01*
G01*
X113625000Y-96156250D01*
G75*
G02*
X113381250Y-96400000I-243750J0D01*
G01*
X112818750Y-96400000D01*
G75*
G02*
X112575000Y-96156250I0J243750D01*
G01*
X112575000Y-95668750D01*
G75*
G02*
X112818750Y-95425000I243750J0D01*
G01*
G37*
%TD*%
%TO.C,R3*%
G36*
G01*
X110537500Y-106300000D02*
X111062500Y-106300000D01*
G75*
G02*
X111325000Y-106562500I0J-262500D01*
G01*
X111325000Y-107187500D01*
G75*
G02*
X111062500Y-107450000I-262500J0D01*
G01*
X110537500Y-107450000D01*
G75*
G02*
X110275000Y-107187500I0J262500D01*
G01*
X110275000Y-106562500D01*
G75*
G02*
X110537500Y-106300000I262500J0D01*
G01*
G37*
G36*
G01*
X110537500Y-104550000D02*
X111062500Y-104550000D01*
G75*
G02*
X111325000Y-104812500I0J-262500D01*
G01*
X111325000Y-105437500D01*
G75*
G02*
X111062500Y-105700000I-262500J0D01*
G01*
X110537500Y-105700000D01*
G75*
G02*
X110275000Y-105437500I0J262500D01*
G01*
X110275000Y-104812500D01*
G75*
G02*
X110537500Y-104550000I262500J0D01*
G01*
G37*
%TD*%
%TO.C,R2*%
G36*
G01*
X110225000Y-103862500D02*
X110225000Y-103337500D01*
G75*
G02*
X110487500Y-103075000I262500J0D01*
G01*
X111112500Y-103075000D01*
G75*
G02*
X111375000Y-103337500I0J-262500D01*
G01*
X111375000Y-103862500D01*
G75*
G02*
X111112500Y-104125000I-262500J0D01*
G01*
X110487500Y-104125000D01*
G75*
G02*
X110225000Y-103862500I0J262500D01*
G01*
G37*
G36*
G01*
X108475000Y-103862500D02*
X108475000Y-103337500D01*
G75*
G02*
X108737500Y-103075000I262500J0D01*
G01*
X109362500Y-103075000D01*
G75*
G02*
X109625000Y-103337500I0J-262500D01*
G01*
X109625000Y-103862500D01*
G75*
G02*
X109362500Y-104125000I-262500J0D01*
G01*
X108737500Y-104125000D01*
G75*
G02*
X108475000Y-103862500I0J262500D01*
G01*
G37*
%TD*%
D15*
%TO.C,Q1*%
X130200000Y-94200000D03*
X131150000Y-96200000D03*
X129250000Y-96200000D03*
%TD*%
D12*
%TO.C,BOOT*%
X150125000Y-91075000D03*
X147585000Y-91075000D03*
D13*
X145045000Y-91075000D03*
%TD*%
D12*
%TO.C,BUZZ*%
X106860000Y-88580000D03*
D13*
X106860000Y-91120000D03*
%TD*%
D12*
%TO.C,J14*%
X151050000Y-102900000D03*
D13*
X148510000Y-102900000D03*
%TD*%
D12*
%TO.C,5v*%
X148400000Y-105670000D03*
X148400000Y-108210000D03*
X148400000Y-110750000D03*
X148400000Y-113290000D03*
X148400000Y-115830000D03*
X148400000Y-118370000D03*
X148400000Y-120910000D03*
D13*
X148400000Y-123450000D03*
%TD*%
D12*
%TO.C,GND*%
X151050000Y-105670000D03*
X151050000Y-108210000D03*
X151050000Y-110750000D03*
X151050000Y-113290000D03*
X151050000Y-115830000D03*
X151050000Y-118370000D03*
X151050000Y-120910000D03*
D13*
X151050000Y-123450000D03*
%TD*%
D12*
%TO.C,PWM*%
X145700000Y-105620000D03*
X145700000Y-108160000D03*
X145700000Y-110700000D03*
X145700000Y-113240000D03*
X145700000Y-115780000D03*
X145700000Y-118320000D03*
X145700000Y-120860000D03*
D13*
X145700000Y-123400000D03*
%TD*%
D12*
%TO.C,BAT*%
X106850000Y-106540000D03*
D13*
X106850000Y-104000000D03*
%TD*%
D12*
%TO.C,J2*%
X139560000Y-128000000D03*
X137020000Y-128000000D03*
X134480000Y-128000000D03*
X131940000Y-128000000D03*
X129400000Y-128000000D03*
X126860000Y-128000000D03*
X124320000Y-128000000D03*
X121780000Y-128000000D03*
X119240000Y-128000000D03*
D13*
X116700000Y-128000000D03*
%TD*%
D20*
%TO.C,J1*%
X149987500Y-95950000D03*
D21*
X147287500Y-99450000D03*
D22*
X147287500Y-97600000D03*
X147287500Y-98250000D03*
X147287500Y-95650000D03*
X147287500Y-96300000D03*
X147287500Y-96950000D03*
D21*
X147287500Y-94450000D03*
D20*
X149987500Y-97950000D03*
D23*
X149987500Y-100450000D03*
X149987500Y-93450000D03*
D24*
X149987500Y-94050000D03*
X149987500Y-99850000D03*
%TD*%
%TO.C,PWR*%
G36*
G01*
X137500000Y-94237500D02*
X137500000Y-94762500D01*
G75*
G02*
X137237500Y-95025000I-262500J0D01*
G01*
X136612500Y-95025000D01*
G75*
G02*
X136350000Y-94762500I0J262500D01*
G01*
X136350000Y-94237500D01*
G75*
G02*
X136612500Y-93975000I262500J0D01*
G01*
X137237500Y-93975000D01*
G75*
G02*
X137500000Y-94237500I0J-262500D01*
G01*
G37*
G36*
G01*
X139250000Y-94237500D02*
X139250000Y-94762500D01*
G75*
G02*
X138987500Y-95025000I-262500J0D01*
G01*
X138362500Y-95025000D01*
G75*
G02*
X138100000Y-94762500I0J262500D01*
G01*
X138100000Y-94237500D01*
G75*
G02*
X138362500Y-93975000I262500J0D01*
G01*
X138987500Y-93975000D01*
G75*
G02*
X139250000Y-94237500I0J-262500D01*
G01*
G37*
%TD*%
%TO.C,D4*%
G36*
G01*
X116000000Y-99162500D02*
X116000000Y-98637500D01*
G75*
G02*
X116262500Y-98375000I262500J0D01*
G01*
X116887500Y-98375000D01*
G75*
G02*
X117150000Y-98637500I0J-262500D01*
G01*
X117150000Y-99162500D01*
G75*
G02*
X116887500Y-99425000I-262500J0D01*
G01*
X116262500Y-99425000D01*
G75*
G02*
X116000000Y-99162500I0J262500D01*
G01*
G37*
G36*
G01*
X114250000Y-99162500D02*
X114250000Y-98637500D01*
G75*
G02*
X114512500Y-98375000I262500J0D01*
G01*
X115137500Y-98375000D01*
G75*
G02*
X115400000Y-98637500I0J-262500D01*
G01*
X115400000Y-99162500D01*
G75*
G02*
X115137500Y-99425000I-262500J0D01*
G01*
X114512500Y-99425000D01*
G75*
G02*
X114250000Y-99162500I0J262500D01*
G01*
G37*
%TD*%
%TO.C,D3*%
G36*
G01*
X116000000Y-100662500D02*
X116000000Y-100137500D01*
G75*
G02*
X116262500Y-99875000I262500J0D01*
G01*
X116887500Y-99875000D01*
G75*
G02*
X117150000Y-100137500I0J-262500D01*
G01*
X117150000Y-100662500D01*
G75*
G02*
X116887500Y-100925000I-262500J0D01*
G01*
X116262500Y-100925000D01*
G75*
G02*
X116000000Y-100662500I0J262500D01*
G01*
G37*
G36*
G01*
X114250000Y-100662500D02*
X114250000Y-100137500D01*
G75*
G02*
X114512500Y-99875000I262500J0D01*
G01*
X115137500Y-99875000D01*
G75*
G02*
X115400000Y-100137500I0J-262500D01*
G01*
X115400000Y-100662500D01*
G75*
G02*
X115137500Y-100925000I-262500J0D01*
G01*
X114512500Y-100925000D01*
G75*
G02*
X114250000Y-100662500I0J262500D01*
G01*
G37*
%TD*%
%TO.C,D2*%
G36*
G01*
X116000000Y-97662500D02*
X116000000Y-97137500D01*
G75*
G02*
X116262500Y-96875000I262500J0D01*
G01*
X116887500Y-96875000D01*
G75*
G02*
X117150000Y-97137500I0J-262500D01*
G01*
X117150000Y-97662500D01*
G75*
G02*
X116887500Y-97925000I-262500J0D01*
G01*
X116262500Y-97925000D01*
G75*
G02*
X116000000Y-97662500I0J262500D01*
G01*
G37*
G36*
G01*
X114250000Y-97662500D02*
X114250000Y-97137500D01*
G75*
G02*
X114512500Y-96875000I262500J0D01*
G01*
X115137500Y-96875000D01*
G75*
G02*
X115400000Y-97137500I0J-262500D01*
G01*
X115400000Y-97662500D01*
G75*
G02*
X115137500Y-97925000I-262500J0D01*
G01*
X114512500Y-97925000D01*
G75*
G02*
X114250000Y-97662500I0J262500D01*
G01*
G37*
%TD*%
%TO.C,C11*%
G36*
G01*
X113381250Y-99400000D02*
X112818750Y-99400000D01*
G75*
G02*
X112575000Y-99156250I0J243750D01*
G01*
X112575000Y-98668750D01*
G75*
G02*
X112818750Y-98425000I243750J0D01*
G01*
X113381250Y-98425000D01*
G75*
G02*
X113625000Y-98668750I0J-243750D01*
G01*
X113625000Y-99156250D01*
G75*
G02*
X113381250Y-99400000I-243750J0D01*
G01*
G37*
G36*
G01*
X113381250Y-100975000D02*
X112818750Y-100975000D01*
G75*
G02*
X112575000Y-100731250I0J243750D01*
G01*
X112575000Y-100243750D01*
G75*
G02*
X112818750Y-100000000I243750J0D01*
G01*
X113381250Y-100000000D01*
G75*
G02*
X113625000Y-100243750I0J-243750D01*
G01*
X113625000Y-100731250D01*
G75*
G02*
X113381250Y-100975000I-243750J0D01*
G01*
G37*
%TD*%
M02*
