%TF.GenerationSoftware,KiCad,Pcbnew,(5.1.6)-1*%
%TF.CreationDate,2020-08-20T13:52:42+07:00*%
%TF.ProjectId,drone_v3,64726f6e-655f-4763-932e-6b696361645f,rev?*%
%TF.SameCoordinates,Original*%
%TF.FileFunction,Soldermask,Bot*%
%TF.FilePolarity,Negative*%
%FSLAX46Y46*%
G04 Gerber Fmt 4.6, Leading zero omitted, Abs format (unit mm)*
G04 Created by KiCad (PCBNEW (5.1.6)-1) date 2020-08-20 13:52:42*
%MOMM*%
%LPD*%
G01*
G04 APERTURE LIST*
%ADD10C,1.624000*%
%ADD11R,1.624000X1.624000*%
%ADD12O,1.800000X1.800000*%
%ADD13R,1.800000X1.800000*%
%ADD14R,1.300000X2.300000*%
%ADD15R,0.800000X1.700000*%
%ADD16R,1.300000X1.500000*%
%ADD17R,1.700000X1.500000*%
%ADD18R,0.900000X1.000000*%
%ADD19R,0.900000X1.900000*%
%ADD20C,1.550000*%
%ADD21O,2.000000X1.300000*%
G04 APERTURE END LIST*
D10*
%TO.C,nRF24*%
X141710000Y-124940000D03*
X139170000Y-124940000D03*
X141710000Y-122400000D03*
X139170000Y-122400000D03*
X141710000Y-119860000D03*
X139170000Y-119860000D03*
X141710000Y-117320000D03*
D11*
X139170000Y-117320000D03*
%TD*%
D12*
%TO.C,3.3v CLK DIO GND*%
X142575000Y-88595000D03*
X145115000Y-88595000D03*
X147655000Y-88595000D03*
D13*
X150195000Y-88595000D03*
%TD*%
D14*
%TO.C,MicroSD*%
X126230000Y-86635000D03*
D15*
X111630000Y-96835000D03*
D16*
X110430000Y-96235000D03*
D14*
X110430000Y-86735000D03*
D17*
X125630000Y-96035000D03*
D15*
X120430000Y-96835000D03*
X119330000Y-96835000D03*
X118230000Y-96835000D03*
X117130000Y-96835000D03*
X116030000Y-96835000D03*
X114930000Y-96835000D03*
X113830000Y-96835000D03*
X112730000Y-96835000D03*
%TD*%
D12*
%TO.C,3.3v RX1 TX1 GND*%
X128575000Y-89825000D03*
X131115000Y-89825000D03*
X133655000Y-89825000D03*
D13*
X136195000Y-89825000D03*
%TD*%
%TO.C,D6*%
G36*
G01*
X144095000Y-96675000D02*
X145405000Y-96675000D01*
G75*
G02*
X145675000Y-96945000I0J-270000D01*
G01*
X145675000Y-97755000D01*
G75*
G02*
X145405000Y-98025000I-270000J0D01*
G01*
X144095000Y-98025000D01*
G75*
G02*
X143825000Y-97755000I0J270000D01*
G01*
X143825000Y-96945000D01*
G75*
G02*
X144095000Y-96675000I270000J0D01*
G01*
G37*
G36*
G01*
X144095000Y-99475000D02*
X145405000Y-99475000D01*
G75*
G02*
X145675000Y-99745000I0J-270000D01*
G01*
X145675000Y-100555000D01*
G75*
G02*
X145405000Y-100825000I-270000J0D01*
G01*
X144095000Y-100825000D01*
G75*
G02*
X143825000Y-100555000I0J270000D01*
G01*
X143825000Y-99745000D01*
G75*
G02*
X144095000Y-99475000I270000J0D01*
G01*
G37*
%TD*%
%TO.C,D1*%
G36*
G01*
X142775000Y-102345000D02*
X142775000Y-103655000D01*
G75*
G02*
X142505000Y-103925000I-270000J0D01*
G01*
X141695000Y-103925000D01*
G75*
G02*
X141425000Y-103655000I0J270000D01*
G01*
X141425000Y-102345000D01*
G75*
G02*
X141695000Y-102075000I270000J0D01*
G01*
X142505000Y-102075000D01*
G75*
G02*
X142775000Y-102345000I0J-270000D01*
G01*
G37*
G36*
G01*
X145575000Y-102345000D02*
X145575000Y-103655000D01*
G75*
G02*
X145305000Y-103925000I-270000J0D01*
G01*
X144495000Y-103925000D01*
G75*
G02*
X144225000Y-103655000I0J270000D01*
G01*
X144225000Y-102345000D01*
G75*
G02*
X144495000Y-102075000I270000J0D01*
G01*
X145305000Y-102075000D01*
G75*
G02*
X145575000Y-102345000I0J-270000D01*
G01*
G37*
%TD*%
%TO.C,C10*%
G36*
G01*
X121697500Y-107810000D02*
X121302500Y-107810000D01*
G75*
G02*
X121130000Y-107637500I0J172500D01*
G01*
X121130000Y-107292500D01*
G75*
G02*
X121302500Y-107120000I172500J0D01*
G01*
X121697500Y-107120000D01*
G75*
G02*
X121870000Y-107292500I0J-172500D01*
G01*
X121870000Y-107637500D01*
G75*
G02*
X121697500Y-107810000I-172500J0D01*
G01*
G37*
G36*
G01*
X121697500Y-108780000D02*
X121302500Y-108780000D01*
G75*
G02*
X121130000Y-108607500I0J172500D01*
G01*
X121130000Y-108262500D01*
G75*
G02*
X121302500Y-108090000I172500J0D01*
G01*
X121697500Y-108090000D01*
G75*
G02*
X121870000Y-108262500I0J-172500D01*
G01*
X121870000Y-108607500D01*
G75*
G02*
X121697500Y-108780000I-172500J0D01*
G01*
G37*
%TD*%
%TO.C,C15*%
G36*
G01*
X139700000Y-104745000D02*
X139700000Y-106055000D01*
G75*
G02*
X139430000Y-106325000I-270000J0D01*
G01*
X138620000Y-106325000D01*
G75*
G02*
X138350000Y-106055000I0J270000D01*
G01*
X138350000Y-104745000D01*
G75*
G02*
X138620000Y-104475000I270000J0D01*
G01*
X139430000Y-104475000D01*
G75*
G02*
X139700000Y-104745000I0J-270000D01*
G01*
G37*
G36*
G01*
X142500000Y-104745000D02*
X142500000Y-106055000D01*
G75*
G02*
X142230000Y-106325000I-270000J0D01*
G01*
X141420000Y-106325000D01*
G75*
G02*
X141150000Y-106055000I0J270000D01*
G01*
X141150000Y-104745000D01*
G75*
G02*
X141420000Y-104475000I270000J0D01*
G01*
X142230000Y-104475000D01*
G75*
G02*
X142500000Y-104745000I0J-270000D01*
G01*
G37*
%TD*%
D18*
%TO.C,MCP1700*%
X140600000Y-110175000D03*
X139650000Y-112175000D03*
X141550000Y-112175000D03*
%TD*%
D12*
%TO.C,J7*%
X144120000Y-84350000D03*
X141580000Y-84350000D03*
X139040000Y-84350000D03*
D13*
X136500000Y-84350000D03*
%TD*%
%TO.C,Telemetry*%
G36*
G01*
X110825000Y-118275000D02*
X109375000Y-118275000D01*
G75*
G02*
X109200000Y-118100000I0J175000D01*
G01*
X109200000Y-117750000D01*
G75*
G02*
X109375000Y-117575000I175000J0D01*
G01*
X110825000Y-117575000D01*
G75*
G02*
X111000000Y-117750000I0J-175000D01*
G01*
X111000000Y-118100000D01*
G75*
G02*
X110825000Y-118275000I-175000J0D01*
G01*
G37*
G36*
G01*
X110825000Y-117025000D02*
X109375000Y-117025000D01*
G75*
G02*
X109200000Y-116850000I0J175000D01*
G01*
X109200000Y-116500000D01*
G75*
G02*
X109375000Y-116325000I175000J0D01*
G01*
X110825000Y-116325000D01*
G75*
G02*
X111000000Y-116500000I0J-175000D01*
G01*
X111000000Y-116850000D01*
G75*
G02*
X110825000Y-117025000I-175000J0D01*
G01*
G37*
G36*
G01*
X110825000Y-115775000D02*
X109375000Y-115775000D01*
G75*
G02*
X109200000Y-115600000I0J175000D01*
G01*
X109200000Y-115250000D01*
G75*
G02*
X109375000Y-115075000I175000J0D01*
G01*
X110825000Y-115075000D01*
G75*
G02*
X111000000Y-115250000I0J-175000D01*
G01*
X111000000Y-115600000D01*
G75*
G02*
X110825000Y-115775000I-175000J0D01*
G01*
G37*
G36*
G01*
X110825000Y-114525000D02*
X109375000Y-114525000D01*
G75*
G02*
X109200000Y-114350000I0J175000D01*
G01*
X109200000Y-114000000D01*
G75*
G02*
X109375000Y-113825000I175000J0D01*
G01*
X110825000Y-113825000D01*
G75*
G02*
X111000000Y-114000000I0J-175000D01*
G01*
X111000000Y-114350000D01*
G75*
G02*
X110825000Y-114525000I-175000J0D01*
G01*
G37*
G36*
G01*
X110825000Y-113275000D02*
X109375000Y-113275000D01*
G75*
G02*
X109200000Y-113100000I0J175000D01*
G01*
X109200000Y-112750000D01*
G75*
G02*
X109375000Y-112575000I175000J0D01*
G01*
X110825000Y-112575000D01*
G75*
G02*
X111000000Y-112750000I0J-175000D01*
G01*
X111000000Y-113100000D01*
G75*
G02*
X110825000Y-113275000I-175000J0D01*
G01*
G37*
G36*
G01*
X110825000Y-112025000D02*
X109375000Y-112025000D01*
G75*
G02*
X109200000Y-111850000I0J175000D01*
G01*
X109200000Y-111500000D01*
G75*
G02*
X109375000Y-111325000I175000J0D01*
G01*
X110825000Y-111325000D01*
G75*
G02*
X111000000Y-111500000I0J-175000D01*
G01*
X111000000Y-111850000D01*
G75*
G02*
X110825000Y-112025000I-175000J0D01*
G01*
G37*
G36*
G01*
X108025000Y-120325000D02*
X105775000Y-120325000D01*
G75*
G02*
X105500000Y-120050000I0J275000D01*
G01*
X105500000Y-119500000D01*
G75*
G02*
X105775000Y-119225000I275000J0D01*
G01*
X108025000Y-119225000D01*
G75*
G02*
X108300000Y-119500000I0J-275000D01*
G01*
X108300000Y-120050000D01*
G75*
G02*
X108025000Y-120325000I-275000J0D01*
G01*
G37*
G36*
G01*
X108025000Y-110375000D02*
X105775000Y-110375000D01*
G75*
G02*
X105500000Y-110100000I0J275000D01*
G01*
X105500000Y-109550000D01*
G75*
G02*
X105775000Y-109275000I275000J0D01*
G01*
X108025000Y-109275000D01*
G75*
G02*
X108300000Y-109550000I0J-275000D01*
G01*
X108300000Y-110100000D01*
G75*
G02*
X108025000Y-110375000I-275000J0D01*
G01*
G37*
%TD*%
D12*
%TO.C,UART4*%
X136195000Y-87125000D03*
X133655000Y-87125000D03*
X131115000Y-87125000D03*
D13*
X128575000Y-87125000D03*
%TD*%
D12*
%TO.C,SBUS*%
X133705000Y-84375000D03*
X131165000Y-84375000D03*
D13*
X128625000Y-84375000D03*
%TD*%
%TO.C,R15*%
G36*
G01*
X120597500Y-98460000D02*
X120202500Y-98460000D01*
G75*
G02*
X120030000Y-98287500I0J172500D01*
G01*
X120030000Y-97942500D01*
G75*
G02*
X120202500Y-97770000I172500J0D01*
G01*
X120597500Y-97770000D01*
G75*
G02*
X120770000Y-97942500I0J-172500D01*
G01*
X120770000Y-98287500D01*
G75*
G02*
X120597500Y-98460000I-172500J0D01*
G01*
G37*
G36*
G01*
X120597500Y-99430000D02*
X120202500Y-99430000D01*
G75*
G02*
X120030000Y-99257500I0J172500D01*
G01*
X120030000Y-98912500D01*
G75*
G02*
X120202500Y-98740000I172500J0D01*
G01*
X120597500Y-98740000D01*
G75*
G02*
X120770000Y-98912500I0J-172500D01*
G01*
X120770000Y-99257500D01*
G75*
G02*
X120597500Y-99430000I-172500J0D01*
G01*
G37*
%TD*%
%TO.C,R14*%
G36*
G01*
X113797500Y-98660000D02*
X113402500Y-98660000D01*
G75*
G02*
X113230000Y-98487500I0J172500D01*
G01*
X113230000Y-98142500D01*
G75*
G02*
X113402500Y-97970000I172500J0D01*
G01*
X113797500Y-97970000D01*
G75*
G02*
X113970000Y-98142500I0J-172500D01*
G01*
X113970000Y-98487500D01*
G75*
G02*
X113797500Y-98660000I-172500J0D01*
G01*
G37*
G36*
G01*
X113797500Y-99630000D02*
X113402500Y-99630000D01*
G75*
G02*
X113230000Y-99457500I0J172500D01*
G01*
X113230000Y-99112500D01*
G75*
G02*
X113402500Y-98940000I172500J0D01*
G01*
X113797500Y-98940000D01*
G75*
G02*
X113970000Y-99112500I0J-172500D01*
G01*
X113970000Y-99457500D01*
G75*
G02*
X113797500Y-99630000I-172500J0D01*
G01*
G37*
%TD*%
%TO.C,R13*%
G36*
G01*
X112697500Y-98670000D02*
X112302500Y-98670000D01*
G75*
G02*
X112130000Y-98497500I0J172500D01*
G01*
X112130000Y-98152500D01*
G75*
G02*
X112302500Y-97980000I172500J0D01*
G01*
X112697500Y-97980000D01*
G75*
G02*
X112870000Y-98152500I0J-172500D01*
G01*
X112870000Y-98497500D01*
G75*
G02*
X112697500Y-98670000I-172500J0D01*
G01*
G37*
G36*
G01*
X112697500Y-99640000D02*
X112302500Y-99640000D01*
G75*
G02*
X112130000Y-99467500I0J172500D01*
G01*
X112130000Y-99122500D01*
G75*
G02*
X112302500Y-98950000I172500J0D01*
G01*
X112697500Y-98950000D01*
G75*
G02*
X112870000Y-99122500I0J-172500D01*
G01*
X112870000Y-99467500D01*
G75*
G02*
X112697500Y-99640000I-172500J0D01*
G01*
G37*
%TD*%
%TO.C,R12*%
G36*
G01*
X116597500Y-98660000D02*
X116202500Y-98660000D01*
G75*
G02*
X116030000Y-98487500I0J172500D01*
G01*
X116030000Y-98142500D01*
G75*
G02*
X116202500Y-97970000I172500J0D01*
G01*
X116597500Y-97970000D01*
G75*
G02*
X116770000Y-98142500I0J-172500D01*
G01*
X116770000Y-98487500D01*
G75*
G02*
X116597500Y-98660000I-172500J0D01*
G01*
G37*
G36*
G01*
X116597500Y-99630000D02*
X116202500Y-99630000D01*
G75*
G02*
X116030000Y-99457500I0J172500D01*
G01*
X116030000Y-99112500D01*
G75*
G02*
X116202500Y-98940000I172500J0D01*
G01*
X116597500Y-98940000D01*
G75*
G02*
X116770000Y-99112500I0J-172500D01*
G01*
X116770000Y-99457500D01*
G75*
G02*
X116597500Y-99630000I-172500J0D01*
G01*
G37*
%TD*%
%TO.C,R4*%
G36*
G01*
X107080000Y-98807500D02*
X107080000Y-99332500D01*
G75*
G02*
X106817500Y-99595000I-262500J0D01*
G01*
X106192500Y-99595000D01*
G75*
G02*
X105930000Y-99332500I0J262500D01*
G01*
X105930000Y-98807500D01*
G75*
G02*
X106192500Y-98545000I262500J0D01*
G01*
X106817500Y-98545000D01*
G75*
G02*
X107080000Y-98807500I0J-262500D01*
G01*
G37*
G36*
G01*
X108830000Y-98807500D02*
X108830000Y-99332500D01*
G75*
G02*
X108567500Y-99595000I-262500J0D01*
G01*
X107942500Y-99595000D01*
G75*
G02*
X107680000Y-99332500I0J262500D01*
G01*
X107680000Y-98807500D01*
G75*
G02*
X107942500Y-98545000I262500J0D01*
G01*
X108567500Y-98545000D01*
G75*
G02*
X108830000Y-98807500I0J-262500D01*
G01*
G37*
%TD*%
D19*
%TO.C,Q2*%
X107300000Y-93910000D03*
X106350000Y-97210000D03*
X108250000Y-97210000D03*
%TD*%
D12*
%TO.C,BOOT*%
X150125000Y-91075000D03*
X147585000Y-91075000D03*
D13*
X145045000Y-91075000D03*
%TD*%
D12*
%TO.C,BUZZ*%
X106860000Y-88580000D03*
D13*
X106860000Y-91120000D03*
%TD*%
D12*
%TO.C,J14*%
X151050000Y-102900000D03*
D13*
X148510000Y-102900000D03*
%TD*%
D12*
%TO.C,5v*%
X148400000Y-105670000D03*
X148400000Y-108210000D03*
X148400000Y-110750000D03*
X148400000Y-113290000D03*
X148400000Y-115830000D03*
X148400000Y-118370000D03*
X148400000Y-120910000D03*
D13*
X148400000Y-123450000D03*
%TD*%
D12*
%TO.C,GND*%
X151050000Y-105670000D03*
X151050000Y-108210000D03*
X151050000Y-110750000D03*
X151050000Y-113290000D03*
X151050000Y-115830000D03*
X151050000Y-118370000D03*
X151050000Y-120910000D03*
D13*
X151050000Y-123450000D03*
%TD*%
D12*
%TO.C,PWM*%
X145700000Y-105620000D03*
X145700000Y-108160000D03*
X145700000Y-110700000D03*
X145700000Y-113240000D03*
X145700000Y-115780000D03*
X145700000Y-118320000D03*
X145700000Y-120860000D03*
D13*
X145700000Y-123400000D03*
%TD*%
D12*
%TO.C,BAT*%
X106850000Y-106540000D03*
D13*
X106850000Y-104000000D03*
%TD*%
D12*
%TO.C,J2*%
X139560000Y-128000000D03*
X137020000Y-128000000D03*
X134480000Y-128000000D03*
X131940000Y-128000000D03*
X129400000Y-128000000D03*
X126860000Y-128000000D03*
X124320000Y-128000000D03*
X121780000Y-128000000D03*
X119240000Y-128000000D03*
D13*
X116700000Y-128000000D03*
%TD*%
D20*
%TO.C,J1*%
X147287500Y-99450000D03*
X147287500Y-94450000D03*
D21*
X149987500Y-100450000D03*
X149987500Y-93450000D03*
%TD*%
%TO.C,C19*%
G36*
G01*
X140875000Y-113712500D02*
X140875000Y-113187500D01*
G75*
G02*
X141137500Y-112925000I262500J0D01*
G01*
X141762500Y-112925000D01*
G75*
G02*
X142025000Y-113187500I0J-262500D01*
G01*
X142025000Y-113712500D01*
G75*
G02*
X141762500Y-113975000I-262500J0D01*
G01*
X141137500Y-113975000D01*
G75*
G02*
X140875000Y-113712500I0J262500D01*
G01*
G37*
G36*
G01*
X139125000Y-113712500D02*
X139125000Y-113187500D01*
G75*
G02*
X139387500Y-112925000I262500J0D01*
G01*
X140012500Y-112925000D01*
G75*
G02*
X140275000Y-113187500I0J-262500D01*
G01*
X140275000Y-113712500D01*
G75*
G02*
X140012500Y-113975000I-262500J0D01*
G01*
X139387500Y-113975000D01*
G75*
G02*
X139125000Y-113712500I0J262500D01*
G01*
G37*
%TD*%
%TO.C,C18*%
G36*
G01*
X140750000Y-115162500D02*
X140750000Y-114637500D01*
G75*
G02*
X141012500Y-114375000I262500J0D01*
G01*
X141637500Y-114375000D01*
G75*
G02*
X141900000Y-114637500I0J-262500D01*
G01*
X141900000Y-115162500D01*
G75*
G02*
X141637500Y-115425000I-262500J0D01*
G01*
X141012500Y-115425000D01*
G75*
G02*
X140750000Y-115162500I0J262500D01*
G01*
G37*
G36*
G01*
X139000000Y-115162500D02*
X139000000Y-114637500D01*
G75*
G02*
X139262500Y-114375000I262500J0D01*
G01*
X139887500Y-114375000D01*
G75*
G02*
X140150000Y-114637500I0J-262500D01*
G01*
X140150000Y-115162500D01*
G75*
G02*
X139887500Y-115425000I-262500J0D01*
G01*
X139262500Y-115425000D01*
G75*
G02*
X139000000Y-115162500I0J262500D01*
G01*
G37*
%TD*%
%TO.C,C17*%
G36*
G01*
X140150000Y-106912500D02*
X140150000Y-107437500D01*
G75*
G02*
X139887500Y-107700000I-262500J0D01*
G01*
X139262500Y-107700000D01*
G75*
G02*
X139000000Y-107437500I0J262500D01*
G01*
X139000000Y-106912500D01*
G75*
G02*
X139262500Y-106650000I262500J0D01*
G01*
X139887500Y-106650000D01*
G75*
G02*
X140150000Y-106912500I0J-262500D01*
G01*
G37*
G36*
G01*
X141900000Y-106912500D02*
X141900000Y-107437500D01*
G75*
G02*
X141637500Y-107700000I-262500J0D01*
G01*
X141012500Y-107700000D01*
G75*
G02*
X140750000Y-107437500I0J262500D01*
G01*
X140750000Y-106912500D01*
G75*
G02*
X141012500Y-106650000I262500J0D01*
G01*
X141637500Y-106650000D01*
G75*
G02*
X141900000Y-106912500I0J-262500D01*
G01*
G37*
%TD*%
%TO.C,C16*%
G36*
G01*
X140150000Y-108437500D02*
X140150000Y-108962500D01*
G75*
G02*
X139887500Y-109225000I-262500J0D01*
G01*
X139262500Y-109225000D01*
G75*
G02*
X139000000Y-108962500I0J262500D01*
G01*
X139000000Y-108437500D01*
G75*
G02*
X139262500Y-108175000I262500J0D01*
G01*
X139887500Y-108175000D01*
G75*
G02*
X140150000Y-108437500I0J-262500D01*
G01*
G37*
G36*
G01*
X141900000Y-108437500D02*
X141900000Y-108962500D01*
G75*
G02*
X141637500Y-109225000I-262500J0D01*
G01*
X141012500Y-109225000D01*
G75*
G02*
X140750000Y-108962500I0J262500D01*
G01*
X140750000Y-108437500D01*
G75*
G02*
X141012500Y-108175000I262500J0D01*
G01*
X141637500Y-108175000D01*
G75*
G02*
X141900000Y-108437500I0J-262500D01*
G01*
G37*
%TD*%
%TO.C,C12*%
G36*
G01*
X134400000Y-91837500D02*
X134400000Y-92362500D01*
G75*
G02*
X134137500Y-92625000I-262500J0D01*
G01*
X133512500Y-92625000D01*
G75*
G02*
X133250000Y-92362500I0J262500D01*
G01*
X133250000Y-91837500D01*
G75*
G02*
X133512500Y-91575000I262500J0D01*
G01*
X134137500Y-91575000D01*
G75*
G02*
X134400000Y-91837500I0J-262500D01*
G01*
G37*
G36*
G01*
X136150000Y-91837500D02*
X136150000Y-92362500D01*
G75*
G02*
X135887500Y-92625000I-262500J0D01*
G01*
X135262500Y-92625000D01*
G75*
G02*
X135000000Y-92362500I0J262500D01*
G01*
X135000000Y-91837500D01*
G75*
G02*
X135262500Y-91575000I262500J0D01*
G01*
X135887500Y-91575000D01*
G75*
G02*
X136150000Y-91837500I0J-262500D01*
G01*
G37*
%TD*%
M02*
