%TF.GenerationSoftware,KiCad,Pcbnew,(5.1.6)-1*%
%TF.CreationDate,2020-08-20T16:43:32+07:00*%
%TF.ProjectId,drone_v3,64726f6e-655f-4763-932e-6b696361645f,rev?*%
%TF.SameCoordinates,Original*%
%TF.FileFunction,Legend,Bot*%
%TF.FilePolarity,Positive*%
%FSLAX46Y46*%
G04 Gerber Fmt 4.6, Leading zero omitted, Abs format (unit mm)*
G04 Created by KiCad (PCBNEW (5.1.6)-1) date 2020-08-20 16:43:32*
%MOMM*%
%LPD*%
G01*
G04 APERTURE LIST*
%ADD10C,0.120000*%
%ADD11C,0.010000*%
%ADD12C,0.150000*%
%ADD13C,0.200000*%
G04 APERTURE END LIST*
D10*
%TO.C,J19*%
X125874000Y-97675000D02*
X125874000Y-96405000D01*
X118254000Y-97675000D02*
X125874000Y-97675000D01*
X110380000Y-96405000D02*
X110380000Y-97675000D01*
X118254000Y-97675000D02*
X110380000Y-97675000D01*
X110380000Y-84975000D02*
X110380000Y-82435000D01*
X110380000Y-82435000D02*
X118254000Y-82435000D01*
X110380000Y-96405000D02*
X110380000Y-84975000D01*
X125874000Y-93865000D02*
X125874000Y-96405000D01*
X125874000Y-82435000D02*
X125874000Y-93865000D01*
X118000000Y-82435000D02*
X125874000Y-82435000D01*
%TO.C,D6*%
X145885000Y-96465000D02*
X145885000Y-100350000D01*
X143615000Y-96465000D02*
X145885000Y-96465000D01*
X143615000Y-100350000D02*
X143615000Y-96465000D01*
%TO.C,D1*%
X141900000Y-101865000D02*
X145785000Y-101865000D01*
X145785000Y-101865000D02*
X145785000Y-104135000D01*
X145785000Y-104135000D02*
X141900000Y-104135000D01*
%TO.C,C15*%
X141027064Y-104490000D02*
X139822936Y-104490000D01*
X141027064Y-106310000D02*
X139822936Y-106310000D01*
%TO.C,U9*%
X139020000Y-110415000D02*
X139950000Y-110415000D01*
X142180000Y-110415000D02*
X141250000Y-110415000D01*
X142180000Y-110415000D02*
X142180000Y-112575000D01*
X139020000Y-110415000D02*
X139020000Y-111875000D01*
D11*
%TO.C,G\u002A\u002A\u002A*%
G36*
X125452238Y-96525081D02*
G01*
X125314901Y-96555710D01*
X125245125Y-96559916D01*
X125199078Y-96597161D01*
X125197500Y-96612999D01*
X125148256Y-96673470D01*
X125126690Y-96676500D01*
X125044831Y-96720070D01*
X124919332Y-96830291D01*
X124856815Y-96895528D01*
X124752202Y-97012345D01*
X124661581Y-97119845D01*
X124563298Y-97245840D01*
X124435696Y-97418143D01*
X124257119Y-97664564D01*
X124245979Y-97680001D01*
X124094918Y-97858446D01*
X123977931Y-97924340D01*
X123940531Y-97921309D01*
X123808948Y-97891995D01*
X123620262Y-97859846D01*
X123575708Y-97853355D01*
X123367398Y-97821953D01*
X123186329Y-97791220D01*
X123162958Y-97786776D01*
X123001031Y-97759940D01*
X122787463Y-97730253D01*
X122721000Y-97722008D01*
X122508669Y-97693393D01*
X122326130Y-97663550D01*
X122285550Y-97655480D01*
X122160641Y-97642876D01*
X121937561Y-97633644D01*
X121645094Y-97627755D01*
X121312022Y-97625177D01*
X120967129Y-97625880D01*
X120639199Y-97629834D01*
X120357015Y-97637006D01*
X120149360Y-97647366D01*
X120056543Y-97657866D01*
X119888660Y-97689000D01*
X119679802Y-97723166D01*
X119647558Y-97728044D01*
X119458557Y-97767395D01*
X119207879Y-97834477D01*
X118927948Y-97918772D01*
X118651187Y-98009760D01*
X118410018Y-98096920D01*
X118236862Y-98169733D01*
X118173902Y-98206183D01*
X118100742Y-98248926D01*
X118085500Y-98238734D01*
X118036273Y-98236922D01*
X117904202Y-98292232D01*
X117712704Y-98392234D01*
X117485198Y-98524497D01*
X117245099Y-98676590D01*
X117185561Y-98716452D01*
X116990703Y-98863023D01*
X116757505Y-99060505D01*
X116506522Y-99288780D01*
X116258310Y-99527732D01*
X116033423Y-99757243D01*
X115852418Y-99957194D01*
X115735849Y-100107470D01*
X115705530Y-100164969D01*
X115652933Y-100269565D01*
X115615378Y-100296000D01*
X115571465Y-100348718D01*
X115487165Y-100488603D01*
X115376878Y-100688246D01*
X115255009Y-100920239D01*
X115135959Y-101157177D01*
X115034131Y-101371650D01*
X114964689Y-101534250D01*
X114909342Y-101676646D01*
X114835332Y-101864188D01*
X114821337Y-101899374D01*
X114768940Y-102047420D01*
X114752196Y-102130775D01*
X114756621Y-102137499D01*
X114751881Y-102186210D01*
X114700052Y-102304983D01*
X114692414Y-102319949D01*
X114638537Y-102456255D01*
X114635749Y-102539633D01*
X114637866Y-102542199D01*
X114660838Y-102583726D01*
X114595799Y-102566303D01*
X114462724Y-102497826D01*
X114342355Y-102425367D01*
X113915374Y-102089885D01*
X113843686Y-102010650D01*
X113134402Y-102010650D01*
X112831826Y-102318012D01*
X112672818Y-102474360D01*
X112547170Y-102588430D01*
X112482242Y-102635437D01*
X112422825Y-102593672D01*
X112317095Y-102475140D01*
X112217009Y-102344789D01*
X112093161Y-102158379D01*
X112046646Y-102038959D01*
X112067757Y-101961036D01*
X112069864Y-101958430D01*
X112167532Y-101867881D01*
X112321012Y-101751064D01*
X112492215Y-101633945D01*
X112643049Y-101542495D01*
X112735422Y-101502682D01*
X112738628Y-101502500D01*
X112805708Y-101551128D01*
X112908862Y-101674659D01*
X112966263Y-101756575D01*
X113134402Y-102010650D01*
X113843686Y-102010650D01*
X113499471Y-101630200D01*
X113177367Y-101176374D01*
X112934291Y-100820580D01*
X112726350Y-100568029D01*
X112538374Y-100405355D01*
X112355190Y-100319190D01*
X112178116Y-100296000D01*
X111819711Y-100346574D01*
X111541214Y-100493249D01*
X111349182Y-100728451D01*
X111250167Y-101044609D01*
X111244348Y-101374821D01*
X111334640Y-101785865D01*
X111534967Y-102222373D01*
X111848310Y-102689306D01*
X112277650Y-103191625D01*
X112434000Y-103354527D01*
X112707174Y-103625916D01*
X112928971Y-103826318D01*
X113131742Y-103980234D01*
X113347842Y-104112166D01*
X113609622Y-104246617D01*
X113616088Y-104249763D01*
X113875246Y-104372974D01*
X114103161Y-104476252D01*
X114268297Y-104545562D01*
X114324971Y-104565230D01*
X114403078Y-104608686D01*
X114452403Y-104708900D01*
X114485715Y-104896541D01*
X114494210Y-104971744D01*
X114532695Y-105275347D01*
X114585681Y-105614501D01*
X114643783Y-105933154D01*
X114692137Y-106153875D01*
X114749501Y-106383902D01*
X114801469Y-106594309D01*
X114814104Y-106646000D01*
X114841873Y-106739849D01*
X114850080Y-106757125D01*
X114875314Y-106823467D01*
X114878750Y-106836500D01*
X114904539Y-106911410D01*
X114907421Y-106915875D01*
X114929012Y-106983089D01*
X114940308Y-107034821D01*
X114980918Y-107167073D01*
X115059496Y-107367085D01*
X115163459Y-107608012D01*
X115280223Y-107863010D01*
X115397204Y-108105233D01*
X115501820Y-108307839D01*
X115581485Y-108443981D01*
X115621268Y-108487500D01*
X115669740Y-108537324D01*
X115672500Y-108561104D01*
X115716005Y-108674044D01*
X115834872Y-108852936D01*
X116011629Y-109077067D01*
X116228806Y-109325723D01*
X116468930Y-109578190D01*
X116714532Y-109813756D01*
X116773699Y-109866663D01*
X116947427Y-110060784D01*
X117006000Y-110230786D01*
X117047375Y-110378493D01*
X117150337Y-110548756D01*
X117186760Y-110592800D01*
X117353585Y-110739425D01*
X117542009Y-110801349D01*
X117629849Y-110809424D01*
X117798879Y-110804846D01*
X117938944Y-110755547D01*
X118098226Y-110640862D01*
X118173209Y-110576371D01*
X118454239Y-110329000D01*
X120568481Y-110329000D01*
X120656283Y-110539140D01*
X120804485Y-110747746D01*
X121039588Y-110867283D01*
X121321722Y-110900500D01*
X121487172Y-110884291D01*
X121616211Y-110817735D01*
X121757689Y-110673937D01*
X121779109Y-110648683D01*
X121990750Y-110396866D01*
X123747111Y-110387372D01*
X124208961Y-110386407D01*
X124630430Y-110388448D01*
X124994478Y-110393179D01*
X125284070Y-110400284D01*
X125482169Y-110409445D01*
X125571736Y-110420347D01*
X125573772Y-110421327D01*
X125615052Y-110499067D01*
X125605648Y-110526947D01*
X125625649Y-110602040D01*
X125718976Y-110725680D01*
X125799633Y-110808309D01*
X126061186Y-110982722D01*
X126337059Y-111035071D01*
X126611986Y-110964392D01*
X126761996Y-110869022D01*
X126901905Y-110728979D01*
X126991356Y-110585116D01*
X126999032Y-110561386D01*
X127035654Y-110475765D01*
X127113108Y-110423286D01*
X127263289Y-110389718D01*
X127428226Y-110369909D01*
X127668704Y-110351855D01*
X127983883Y-110337873D01*
X128321480Y-110330005D01*
X128475435Y-110329000D01*
X129131239Y-110329000D01*
X129226851Y-110513893D01*
X129421717Y-110774029D01*
X129679275Y-110924100D01*
X129943164Y-110964000D01*
X130143915Y-110946941D01*
X130295848Y-110877406D01*
X130442601Y-110748099D01*
X130603109Y-110545212D01*
X130658197Y-110353963D01*
X130658500Y-110337849D01*
X130671891Y-110233214D01*
X130725216Y-110135331D01*
X130838203Y-110021230D01*
X131030580Y-109867944D01*
X131118875Y-109801856D01*
X131600991Y-109405993D01*
X132000379Y-108986176D01*
X132359510Y-108497138D01*
X132396586Y-108439972D01*
X132743560Y-107850019D01*
X132996174Y-107302300D01*
X133166182Y-106769275D01*
X133223366Y-106502510D01*
X133252123Y-106345358D01*
X133293719Y-106119218D01*
X133328445Y-105931010D01*
X133382188Y-105501267D01*
X133406775Y-104975038D01*
X133405689Y-104758261D01*
X132909233Y-104758261D01*
X132854026Y-105616896D01*
X132726990Y-106396401D01*
X132684668Y-106573587D01*
X132475343Y-107207719D01*
X132183990Y-107818961D01*
X131825778Y-108385661D01*
X131415878Y-108886168D01*
X130969462Y-109298831D01*
X130599702Y-109549197D01*
X130367491Y-109694534D01*
X130230578Y-109824393D01*
X130165937Y-109969440D01*
X130150500Y-110147481D01*
X130117958Y-110355574D01*
X130041015Y-110447460D01*
X129888573Y-110475989D01*
X129767274Y-110399863D01*
X129707785Y-110241424D01*
X129706000Y-110203366D01*
X129698521Y-110087673D01*
X129666578Y-109998719D01*
X129595912Y-109933560D01*
X129472262Y-109889254D01*
X129281371Y-109862859D01*
X129008978Y-109851431D01*
X128640825Y-109852028D01*
X128162652Y-109861707D01*
X128062593Y-109864218D01*
X127583330Y-109877434D01*
X127216130Y-109892175D01*
X126946083Y-109912436D01*
X126758276Y-109942210D01*
X126637798Y-109985493D01*
X126569736Y-110046278D01*
X126539179Y-110128561D01*
X126531214Y-110236335D01*
X126531000Y-110274481D01*
X126492824Y-110430890D01*
X126421515Y-110510960D01*
X126269318Y-110538699D01*
X126146980Y-110462945D01*
X126087864Y-110307157D01*
X126086500Y-110275402D01*
X126086175Y-110173488D01*
X126077172Y-110090918D01*
X126047449Y-110025766D01*
X125984965Y-109976103D01*
X125877680Y-109940004D01*
X125713551Y-109915541D01*
X125480537Y-109900788D01*
X125166598Y-109893818D01*
X124759691Y-109892704D01*
X124247776Y-109895520D01*
X123737000Y-109899441D01*
X121546250Y-109916250D01*
X121479528Y-110122672D01*
X121388581Y-110338274D01*
X121292036Y-110431619D01*
X121184463Y-110407449D01*
X121167942Y-110394733D01*
X121089058Y-110268981D01*
X121070000Y-110166075D01*
X121058968Y-110059237D01*
X121016379Y-109976761D01*
X120927994Y-109915569D01*
X120779576Y-109872584D01*
X120556885Y-109844727D01*
X120245685Y-109828922D01*
X119831735Y-109822090D01*
X119473565Y-109821000D01*
X119072476Y-109822843D01*
X118710683Y-109827991D01*
X118408872Y-109835867D01*
X118187728Y-109845895D01*
X118067937Y-109857500D01*
X118056578Y-109860451D01*
X117965362Y-109941940D01*
X117874633Y-110090991D01*
X117862083Y-110119338D01*
X117760348Y-110281755D01*
X117655399Y-110322189D01*
X117566307Y-110243687D01*
X117514000Y-110063732D01*
X117483976Y-109944548D01*
X117416856Y-109821971D01*
X117295953Y-109674485D01*
X117104580Y-109480578D01*
X116942500Y-109326935D01*
X116415275Y-108756047D01*
X115970104Y-108103741D01*
X115604836Y-107365091D01*
X115317322Y-106535173D01*
X115105409Y-105609061D01*
X114997691Y-104873523D01*
X114944975Y-104253080D01*
X114945772Y-103705949D01*
X115004376Y-103188367D01*
X115046740Y-103001718D01*
X114200447Y-103001718D01*
X114170824Y-103152350D01*
X114119569Y-103348014D01*
X114057627Y-103551610D01*
X113995945Y-103726039D01*
X113945469Y-103834199D01*
X113926406Y-103852000D01*
X113837167Y-103820078D01*
X113681893Y-103737854D01*
X113554369Y-103660797D01*
X113369363Y-103525038D01*
X113294307Y-103423895D01*
X113298355Y-103390922D01*
X113355687Y-103298421D01*
X113458562Y-103137797D01*
X113561810Y-102978924D01*
X113779784Y-102645598D01*
X113980017Y-102783735D01*
X114112775Y-102875193D01*
X114191075Y-102928890D01*
X114197491Y-102933218D01*
X114200447Y-103001718D01*
X115046740Y-103001718D01*
X115125079Y-102656569D01*
X115257344Y-102226842D01*
X115589380Y-101386546D01*
X115989947Y-100650109D01*
X116463301Y-100011859D01*
X117013699Y-99466119D01*
X117645398Y-99007215D01*
X117695738Y-98976402D01*
X117909226Y-98847282D01*
X118098502Y-99062856D01*
X118358600Y-99270422D01*
X118671395Y-99381056D01*
X118997953Y-99380996D01*
X118998256Y-99380939D01*
X119289769Y-99265951D01*
X119536588Y-99055881D01*
X119713894Y-98781079D01*
X119796868Y-98471897D01*
X119800001Y-98400445D01*
X119829626Y-98250459D01*
X119934381Y-98179402D01*
X119942875Y-98177023D01*
X120149306Y-98137639D01*
X120263453Y-98163384D01*
X120306063Y-98261478D01*
X120308000Y-98304129D01*
X120362588Y-98534868D01*
X120507294Y-98767607D01*
X120713536Y-98959195D01*
X120762710Y-98990586D01*
X121022942Y-99088321D01*
X121315073Y-99113606D01*
X121589327Y-99066734D01*
X121752876Y-98984747D01*
X121940739Y-98809088D01*
X122097079Y-98597986D01*
X122194384Y-98393103D01*
X122213000Y-98287946D01*
X122210968Y-98233054D01*
X122216014Y-98193940D01*
X122244859Y-98171269D01*
X122314219Y-98165704D01*
X122440813Y-98177910D01*
X122641360Y-98208551D01*
X122932577Y-98258290D01*
X123331183Y-98327792D01*
X123365258Y-98333713D01*
X123676011Y-98383801D01*
X123946122Y-98420117D01*
X124148562Y-98439534D01*
X124256305Y-98438921D01*
X124261364Y-98437441D01*
X124333092Y-98373798D01*
X124458535Y-98227451D01*
X124619707Y-98020518D01*
X124789791Y-97787597D01*
X124979410Y-97533916D01*
X125162214Y-97313561D01*
X125316192Y-97151714D01*
X125410331Y-97077702D01*
X125550026Y-97018952D01*
X125654051Y-97033753D01*
X125761646Y-97103605D01*
X125868566Y-97207807D01*
X126020480Y-97388672D01*
X126193176Y-97616373D01*
X126294946Y-97760516D01*
X126454500Y-97986755D01*
X126591998Y-98170101D01*
X126689401Y-98287139D01*
X126723571Y-98316916D01*
X126765279Y-98388100D01*
X126784802Y-98533322D01*
X126785000Y-98550505D01*
X126826009Y-98760484D01*
X126930741Y-98901246D01*
X127071756Y-98958928D01*
X127221615Y-98919668D01*
X127321150Y-98821370D01*
X127397635Y-98658909D01*
X127420000Y-98535620D01*
X127450079Y-98424445D01*
X127562536Y-98391206D01*
X127578750Y-98391000D01*
X127693178Y-98412191D01*
X127734216Y-98501434D01*
X127737500Y-98576964D01*
X127787095Y-98784295D01*
X127919501Y-98921596D01*
X128078586Y-98962499D01*
X128255160Y-98914991D01*
X128351538Y-98770689D01*
X128372500Y-98600550D01*
X128386131Y-98455805D01*
X128446180Y-98398891D01*
X128531250Y-98391000D01*
X128645678Y-98412191D01*
X128686716Y-98501434D01*
X128690000Y-98576964D01*
X128739595Y-98784295D01*
X128872001Y-98921596D01*
X129031086Y-98962499D01*
X129207382Y-98915195D01*
X129303722Y-98771229D01*
X129325001Y-98598731D01*
X129343285Y-98477160D01*
X129406559Y-98332949D01*
X129527448Y-98144158D01*
X129718582Y-97888843D01*
X129774890Y-97817030D01*
X130003675Y-97533461D01*
X130177669Y-97337824D01*
X130315700Y-97214569D01*
X130436600Y-97148143D01*
X130559198Y-97122995D01*
X130617628Y-97121000D01*
X130798474Y-97182621D01*
X130995216Y-97362885D01*
X131204570Y-97654891D01*
X131423255Y-98051736D01*
X131647987Y-98546521D01*
X131875486Y-99132343D01*
X132102467Y-99802302D01*
X132325649Y-100549496D01*
X132429785Y-100931000D01*
X132652888Y-101906864D01*
X132807764Y-102883315D01*
X132893513Y-103840424D01*
X132909233Y-104758261D01*
X133405689Y-104758261D01*
X133403787Y-104379061D01*
X133374804Y-103740077D01*
X133321403Y-103084824D01*
X133245166Y-102440040D01*
X133147671Y-101832465D01*
X133061910Y-101418838D01*
X133008360Y-101167874D01*
X132974182Y-100966233D01*
X132964017Y-100843735D01*
X132968982Y-100821852D01*
X133047339Y-100805367D01*
X133219694Y-100796453D01*
X133453303Y-100794591D01*
X133715422Y-100799260D01*
X133973307Y-100809941D01*
X134194214Y-100826115D01*
X134326322Y-100843393D01*
X134540232Y-100840980D01*
X134676541Y-100747080D01*
X134722500Y-100577722D01*
X134716931Y-100484255D01*
X134684006Y-100423785D01*
X134599402Y-100385974D01*
X134438795Y-100360481D01*
X134177860Y-100336966D01*
X134151000Y-100334786D01*
X133674122Y-100295986D01*
X133310258Y-100264665D01*
X133045863Y-100237724D01*
X132867394Y-100212063D01*
X132761305Y-100184584D01*
X132714053Y-100152187D01*
X132712093Y-100111774D01*
X132741881Y-100060246D01*
X132771910Y-100019244D01*
X132847303Y-99965089D01*
X132996963Y-99920264D01*
X133239121Y-99880712D01*
X133547750Y-99846607D01*
X133927922Y-99807648D01*
X134200027Y-99772227D01*
X134382655Y-99734524D01*
X134494394Y-99688719D01*
X134553833Y-99628993D01*
X134579560Y-99549527D01*
X134583317Y-99522407D01*
X134568821Y-99381976D01*
X134467089Y-99311302D01*
X134466235Y-99311031D01*
X134319329Y-99293693D01*
X134071904Y-99296582D01*
X133748503Y-99317817D01*
X133373669Y-99355519D01*
X132971945Y-99407806D01*
X132742010Y-99443143D01*
X132573082Y-99426643D01*
X132474062Y-99305374D01*
X132456719Y-99248250D01*
X132375995Y-98987363D01*
X132242858Y-98647623D01*
X132070027Y-98259204D01*
X131870221Y-97852278D01*
X131859573Y-97831642D01*
X131594355Y-97365315D01*
X131340687Y-97018028D01*
X131092028Y-96783116D01*
X130841836Y-96653916D01*
X130673613Y-96623369D01*
X130366967Y-96652087D01*
X130075509Y-96780199D01*
X129787460Y-97015608D01*
X129491041Y-97366216D01*
X129420250Y-97464254D01*
X129312541Y-97614451D01*
X129218274Y-97723614D01*
X129115442Y-97798287D01*
X128982035Y-97845016D01*
X128796043Y-97870347D01*
X128535457Y-97880823D01*
X128178267Y-97882992D01*
X128012178Y-97882999D01*
X126977302Y-97882999D01*
X126802371Y-97613124D01*
X126695224Y-97452018D01*
X126615421Y-97339602D01*
X126592035Y-97311500D01*
X126536702Y-97243452D01*
X126440781Y-97111295D01*
X126403273Y-97057500D01*
X126242652Y-96847893D01*
X126083990Y-96708705D01*
X125874736Y-96595649D01*
X125833238Y-96577109D01*
X125605714Y-96515510D01*
X125452238Y-96525081D01*
G37*
X125452238Y-96525081D02*
X125314901Y-96555710D01*
X125245125Y-96559916D01*
X125199078Y-96597161D01*
X125197500Y-96612999D01*
X125148256Y-96673470D01*
X125126690Y-96676500D01*
X125044831Y-96720070D01*
X124919332Y-96830291D01*
X124856815Y-96895528D01*
X124752202Y-97012345D01*
X124661581Y-97119845D01*
X124563298Y-97245840D01*
X124435696Y-97418143D01*
X124257119Y-97664564D01*
X124245979Y-97680001D01*
X124094918Y-97858446D01*
X123977931Y-97924340D01*
X123940531Y-97921309D01*
X123808948Y-97891995D01*
X123620262Y-97859846D01*
X123575708Y-97853355D01*
X123367398Y-97821953D01*
X123186329Y-97791220D01*
X123162958Y-97786776D01*
X123001031Y-97759940D01*
X122787463Y-97730253D01*
X122721000Y-97722008D01*
X122508669Y-97693393D01*
X122326130Y-97663550D01*
X122285550Y-97655480D01*
X122160641Y-97642876D01*
X121937561Y-97633644D01*
X121645094Y-97627755D01*
X121312022Y-97625177D01*
X120967129Y-97625880D01*
X120639199Y-97629834D01*
X120357015Y-97637006D01*
X120149360Y-97647366D01*
X120056543Y-97657866D01*
X119888660Y-97689000D01*
X119679802Y-97723166D01*
X119647558Y-97728044D01*
X119458557Y-97767395D01*
X119207879Y-97834477D01*
X118927948Y-97918772D01*
X118651187Y-98009760D01*
X118410018Y-98096920D01*
X118236862Y-98169733D01*
X118173902Y-98206183D01*
X118100742Y-98248926D01*
X118085500Y-98238734D01*
X118036273Y-98236922D01*
X117904202Y-98292232D01*
X117712704Y-98392234D01*
X117485198Y-98524497D01*
X117245099Y-98676590D01*
X117185561Y-98716452D01*
X116990703Y-98863023D01*
X116757505Y-99060505D01*
X116506522Y-99288780D01*
X116258310Y-99527732D01*
X116033423Y-99757243D01*
X115852418Y-99957194D01*
X115735849Y-100107470D01*
X115705530Y-100164969D01*
X115652933Y-100269565D01*
X115615378Y-100296000D01*
X115571465Y-100348718D01*
X115487165Y-100488603D01*
X115376878Y-100688246D01*
X115255009Y-100920239D01*
X115135959Y-101157177D01*
X115034131Y-101371650D01*
X114964689Y-101534250D01*
X114909342Y-101676646D01*
X114835332Y-101864188D01*
X114821337Y-101899374D01*
X114768940Y-102047420D01*
X114752196Y-102130775D01*
X114756621Y-102137499D01*
X114751881Y-102186210D01*
X114700052Y-102304983D01*
X114692414Y-102319949D01*
X114638537Y-102456255D01*
X114635749Y-102539633D01*
X114637866Y-102542199D01*
X114660838Y-102583726D01*
X114595799Y-102566303D01*
X114462724Y-102497826D01*
X114342355Y-102425367D01*
X113915374Y-102089885D01*
X113843686Y-102010650D01*
X113134402Y-102010650D01*
X112831826Y-102318012D01*
X112672818Y-102474360D01*
X112547170Y-102588430D01*
X112482242Y-102635437D01*
X112422825Y-102593672D01*
X112317095Y-102475140D01*
X112217009Y-102344789D01*
X112093161Y-102158379D01*
X112046646Y-102038959D01*
X112067757Y-101961036D01*
X112069864Y-101958430D01*
X112167532Y-101867881D01*
X112321012Y-101751064D01*
X112492215Y-101633945D01*
X112643049Y-101542495D01*
X112735422Y-101502682D01*
X112738628Y-101502500D01*
X112805708Y-101551128D01*
X112908862Y-101674659D01*
X112966263Y-101756575D01*
X113134402Y-102010650D01*
X113843686Y-102010650D01*
X113499471Y-101630200D01*
X113177367Y-101176374D01*
X112934291Y-100820580D01*
X112726350Y-100568029D01*
X112538374Y-100405355D01*
X112355190Y-100319190D01*
X112178116Y-100296000D01*
X111819711Y-100346574D01*
X111541214Y-100493249D01*
X111349182Y-100728451D01*
X111250167Y-101044609D01*
X111244348Y-101374821D01*
X111334640Y-101785865D01*
X111534967Y-102222373D01*
X111848310Y-102689306D01*
X112277650Y-103191625D01*
X112434000Y-103354527D01*
X112707174Y-103625916D01*
X112928971Y-103826318D01*
X113131742Y-103980234D01*
X113347842Y-104112166D01*
X113609622Y-104246617D01*
X113616088Y-104249763D01*
X113875246Y-104372974D01*
X114103161Y-104476252D01*
X114268297Y-104545562D01*
X114324971Y-104565230D01*
X114403078Y-104608686D01*
X114452403Y-104708900D01*
X114485715Y-104896541D01*
X114494210Y-104971744D01*
X114532695Y-105275347D01*
X114585681Y-105614501D01*
X114643783Y-105933154D01*
X114692137Y-106153875D01*
X114749501Y-106383902D01*
X114801469Y-106594309D01*
X114814104Y-106646000D01*
X114841873Y-106739849D01*
X114850080Y-106757125D01*
X114875314Y-106823467D01*
X114878750Y-106836500D01*
X114904539Y-106911410D01*
X114907421Y-106915875D01*
X114929012Y-106983089D01*
X114940308Y-107034821D01*
X114980918Y-107167073D01*
X115059496Y-107367085D01*
X115163459Y-107608012D01*
X115280223Y-107863010D01*
X115397204Y-108105233D01*
X115501820Y-108307839D01*
X115581485Y-108443981D01*
X115621268Y-108487500D01*
X115669740Y-108537324D01*
X115672500Y-108561104D01*
X115716005Y-108674044D01*
X115834872Y-108852936D01*
X116011629Y-109077067D01*
X116228806Y-109325723D01*
X116468930Y-109578190D01*
X116714532Y-109813756D01*
X116773699Y-109866663D01*
X116947427Y-110060784D01*
X117006000Y-110230786D01*
X117047375Y-110378493D01*
X117150337Y-110548756D01*
X117186760Y-110592800D01*
X117353585Y-110739425D01*
X117542009Y-110801349D01*
X117629849Y-110809424D01*
X117798879Y-110804846D01*
X117938944Y-110755547D01*
X118098226Y-110640862D01*
X118173209Y-110576371D01*
X118454239Y-110329000D01*
X120568481Y-110329000D01*
X120656283Y-110539140D01*
X120804485Y-110747746D01*
X121039588Y-110867283D01*
X121321722Y-110900500D01*
X121487172Y-110884291D01*
X121616211Y-110817735D01*
X121757689Y-110673937D01*
X121779109Y-110648683D01*
X121990750Y-110396866D01*
X123747111Y-110387372D01*
X124208961Y-110386407D01*
X124630430Y-110388448D01*
X124994478Y-110393179D01*
X125284070Y-110400284D01*
X125482169Y-110409445D01*
X125571736Y-110420347D01*
X125573772Y-110421327D01*
X125615052Y-110499067D01*
X125605648Y-110526947D01*
X125625649Y-110602040D01*
X125718976Y-110725680D01*
X125799633Y-110808309D01*
X126061186Y-110982722D01*
X126337059Y-111035071D01*
X126611986Y-110964392D01*
X126761996Y-110869022D01*
X126901905Y-110728979D01*
X126991356Y-110585116D01*
X126999032Y-110561386D01*
X127035654Y-110475765D01*
X127113108Y-110423286D01*
X127263289Y-110389718D01*
X127428226Y-110369909D01*
X127668704Y-110351855D01*
X127983883Y-110337873D01*
X128321480Y-110330005D01*
X128475435Y-110329000D01*
X129131239Y-110329000D01*
X129226851Y-110513893D01*
X129421717Y-110774029D01*
X129679275Y-110924100D01*
X129943164Y-110964000D01*
X130143915Y-110946941D01*
X130295848Y-110877406D01*
X130442601Y-110748099D01*
X130603109Y-110545212D01*
X130658197Y-110353963D01*
X130658500Y-110337849D01*
X130671891Y-110233214D01*
X130725216Y-110135331D01*
X130838203Y-110021230D01*
X131030580Y-109867944D01*
X131118875Y-109801856D01*
X131600991Y-109405993D01*
X132000379Y-108986176D01*
X132359510Y-108497138D01*
X132396586Y-108439972D01*
X132743560Y-107850019D01*
X132996174Y-107302300D01*
X133166182Y-106769275D01*
X133223366Y-106502510D01*
X133252123Y-106345358D01*
X133293719Y-106119218D01*
X133328445Y-105931010D01*
X133382188Y-105501267D01*
X133406775Y-104975038D01*
X133405689Y-104758261D01*
X132909233Y-104758261D01*
X132854026Y-105616896D01*
X132726990Y-106396401D01*
X132684668Y-106573587D01*
X132475343Y-107207719D01*
X132183990Y-107818961D01*
X131825778Y-108385661D01*
X131415878Y-108886168D01*
X130969462Y-109298831D01*
X130599702Y-109549197D01*
X130367491Y-109694534D01*
X130230578Y-109824393D01*
X130165937Y-109969440D01*
X130150500Y-110147481D01*
X130117958Y-110355574D01*
X130041015Y-110447460D01*
X129888573Y-110475989D01*
X129767274Y-110399863D01*
X129707785Y-110241424D01*
X129706000Y-110203366D01*
X129698521Y-110087673D01*
X129666578Y-109998719D01*
X129595912Y-109933560D01*
X129472262Y-109889254D01*
X129281371Y-109862859D01*
X129008978Y-109851431D01*
X128640825Y-109852028D01*
X128162652Y-109861707D01*
X128062593Y-109864218D01*
X127583330Y-109877434D01*
X127216130Y-109892175D01*
X126946083Y-109912436D01*
X126758276Y-109942210D01*
X126637798Y-109985493D01*
X126569736Y-110046278D01*
X126539179Y-110128561D01*
X126531214Y-110236335D01*
X126531000Y-110274481D01*
X126492824Y-110430890D01*
X126421515Y-110510960D01*
X126269318Y-110538699D01*
X126146980Y-110462945D01*
X126087864Y-110307157D01*
X126086500Y-110275402D01*
X126086175Y-110173488D01*
X126077172Y-110090918D01*
X126047449Y-110025766D01*
X125984965Y-109976103D01*
X125877680Y-109940004D01*
X125713551Y-109915541D01*
X125480537Y-109900788D01*
X125166598Y-109893818D01*
X124759691Y-109892704D01*
X124247776Y-109895520D01*
X123737000Y-109899441D01*
X121546250Y-109916250D01*
X121479528Y-110122672D01*
X121388581Y-110338274D01*
X121292036Y-110431619D01*
X121184463Y-110407449D01*
X121167942Y-110394733D01*
X121089058Y-110268981D01*
X121070000Y-110166075D01*
X121058968Y-110059237D01*
X121016379Y-109976761D01*
X120927994Y-109915569D01*
X120779576Y-109872584D01*
X120556885Y-109844727D01*
X120245685Y-109828922D01*
X119831735Y-109822090D01*
X119473565Y-109821000D01*
X119072476Y-109822843D01*
X118710683Y-109827991D01*
X118408872Y-109835867D01*
X118187728Y-109845895D01*
X118067937Y-109857500D01*
X118056578Y-109860451D01*
X117965362Y-109941940D01*
X117874633Y-110090991D01*
X117862083Y-110119338D01*
X117760348Y-110281755D01*
X117655399Y-110322189D01*
X117566307Y-110243687D01*
X117514000Y-110063732D01*
X117483976Y-109944548D01*
X117416856Y-109821971D01*
X117295953Y-109674485D01*
X117104580Y-109480578D01*
X116942500Y-109326935D01*
X116415275Y-108756047D01*
X115970104Y-108103741D01*
X115604836Y-107365091D01*
X115317322Y-106535173D01*
X115105409Y-105609061D01*
X114997691Y-104873523D01*
X114944975Y-104253080D01*
X114945772Y-103705949D01*
X115004376Y-103188367D01*
X115046740Y-103001718D01*
X114200447Y-103001718D01*
X114170824Y-103152350D01*
X114119569Y-103348014D01*
X114057627Y-103551610D01*
X113995945Y-103726039D01*
X113945469Y-103834199D01*
X113926406Y-103852000D01*
X113837167Y-103820078D01*
X113681893Y-103737854D01*
X113554369Y-103660797D01*
X113369363Y-103525038D01*
X113294307Y-103423895D01*
X113298355Y-103390922D01*
X113355687Y-103298421D01*
X113458562Y-103137797D01*
X113561810Y-102978924D01*
X113779784Y-102645598D01*
X113980017Y-102783735D01*
X114112775Y-102875193D01*
X114191075Y-102928890D01*
X114197491Y-102933218D01*
X114200447Y-103001718D01*
X115046740Y-103001718D01*
X115125079Y-102656569D01*
X115257344Y-102226842D01*
X115589380Y-101386546D01*
X115989947Y-100650109D01*
X116463301Y-100011859D01*
X117013699Y-99466119D01*
X117645398Y-99007215D01*
X117695738Y-98976402D01*
X117909226Y-98847282D01*
X118098502Y-99062856D01*
X118358600Y-99270422D01*
X118671395Y-99381056D01*
X118997953Y-99380996D01*
X118998256Y-99380939D01*
X119289769Y-99265951D01*
X119536588Y-99055881D01*
X119713894Y-98781079D01*
X119796868Y-98471897D01*
X119800001Y-98400445D01*
X119829626Y-98250459D01*
X119934381Y-98179402D01*
X119942875Y-98177023D01*
X120149306Y-98137639D01*
X120263453Y-98163384D01*
X120306063Y-98261478D01*
X120308000Y-98304129D01*
X120362588Y-98534868D01*
X120507294Y-98767607D01*
X120713536Y-98959195D01*
X120762710Y-98990586D01*
X121022942Y-99088321D01*
X121315073Y-99113606D01*
X121589327Y-99066734D01*
X121752876Y-98984747D01*
X121940739Y-98809088D01*
X122097079Y-98597986D01*
X122194384Y-98393103D01*
X122213000Y-98287946D01*
X122210968Y-98233054D01*
X122216014Y-98193940D01*
X122244859Y-98171269D01*
X122314219Y-98165704D01*
X122440813Y-98177910D01*
X122641360Y-98208551D01*
X122932577Y-98258290D01*
X123331183Y-98327792D01*
X123365258Y-98333713D01*
X123676011Y-98383801D01*
X123946122Y-98420117D01*
X124148562Y-98439534D01*
X124256305Y-98438921D01*
X124261364Y-98437441D01*
X124333092Y-98373798D01*
X124458535Y-98227451D01*
X124619707Y-98020518D01*
X124789791Y-97787597D01*
X124979410Y-97533916D01*
X125162214Y-97313561D01*
X125316192Y-97151714D01*
X125410331Y-97077702D01*
X125550026Y-97018952D01*
X125654051Y-97033753D01*
X125761646Y-97103605D01*
X125868566Y-97207807D01*
X126020480Y-97388672D01*
X126193176Y-97616373D01*
X126294946Y-97760516D01*
X126454500Y-97986755D01*
X126591998Y-98170101D01*
X126689401Y-98287139D01*
X126723571Y-98316916D01*
X126765279Y-98388100D01*
X126784802Y-98533322D01*
X126785000Y-98550505D01*
X126826009Y-98760484D01*
X126930741Y-98901246D01*
X127071756Y-98958928D01*
X127221615Y-98919668D01*
X127321150Y-98821370D01*
X127397635Y-98658909D01*
X127420000Y-98535620D01*
X127450079Y-98424445D01*
X127562536Y-98391206D01*
X127578750Y-98391000D01*
X127693178Y-98412191D01*
X127734216Y-98501434D01*
X127737500Y-98576964D01*
X127787095Y-98784295D01*
X127919501Y-98921596D01*
X128078586Y-98962499D01*
X128255160Y-98914991D01*
X128351538Y-98770689D01*
X128372500Y-98600550D01*
X128386131Y-98455805D01*
X128446180Y-98398891D01*
X128531250Y-98391000D01*
X128645678Y-98412191D01*
X128686716Y-98501434D01*
X128690000Y-98576964D01*
X128739595Y-98784295D01*
X128872001Y-98921596D01*
X129031086Y-98962499D01*
X129207382Y-98915195D01*
X129303722Y-98771229D01*
X129325001Y-98598731D01*
X129343285Y-98477160D01*
X129406559Y-98332949D01*
X129527448Y-98144158D01*
X129718582Y-97888843D01*
X129774890Y-97817030D01*
X130003675Y-97533461D01*
X130177669Y-97337824D01*
X130315700Y-97214569D01*
X130436600Y-97148143D01*
X130559198Y-97122995D01*
X130617628Y-97121000D01*
X130798474Y-97182621D01*
X130995216Y-97362885D01*
X131204570Y-97654891D01*
X131423255Y-98051736D01*
X131647987Y-98546521D01*
X131875486Y-99132343D01*
X132102467Y-99802302D01*
X132325649Y-100549496D01*
X132429785Y-100931000D01*
X132652888Y-101906864D01*
X132807764Y-102883315D01*
X132893513Y-103840424D01*
X132909233Y-104758261D01*
X133405689Y-104758261D01*
X133403787Y-104379061D01*
X133374804Y-103740077D01*
X133321403Y-103084824D01*
X133245166Y-102440040D01*
X133147671Y-101832465D01*
X133061910Y-101418838D01*
X133008360Y-101167874D01*
X132974182Y-100966233D01*
X132964017Y-100843735D01*
X132968982Y-100821852D01*
X133047339Y-100805367D01*
X133219694Y-100796453D01*
X133453303Y-100794591D01*
X133715422Y-100799260D01*
X133973307Y-100809941D01*
X134194214Y-100826115D01*
X134326322Y-100843393D01*
X134540232Y-100840980D01*
X134676541Y-100747080D01*
X134722500Y-100577722D01*
X134716931Y-100484255D01*
X134684006Y-100423785D01*
X134599402Y-100385974D01*
X134438795Y-100360481D01*
X134177860Y-100336966D01*
X134151000Y-100334786D01*
X133674122Y-100295986D01*
X133310258Y-100264665D01*
X133045863Y-100237724D01*
X132867394Y-100212063D01*
X132761305Y-100184584D01*
X132714053Y-100152187D01*
X132712093Y-100111774D01*
X132741881Y-100060246D01*
X132771910Y-100019244D01*
X132847303Y-99965089D01*
X132996963Y-99920264D01*
X133239121Y-99880712D01*
X133547750Y-99846607D01*
X133927922Y-99807648D01*
X134200027Y-99772227D01*
X134382655Y-99734524D01*
X134494394Y-99688719D01*
X134553833Y-99628993D01*
X134579560Y-99549527D01*
X134583317Y-99522407D01*
X134568821Y-99381976D01*
X134467089Y-99311302D01*
X134466235Y-99311031D01*
X134319329Y-99293693D01*
X134071904Y-99296582D01*
X133748503Y-99317817D01*
X133373669Y-99355519D01*
X132971945Y-99407806D01*
X132742010Y-99443143D01*
X132573082Y-99426643D01*
X132474062Y-99305374D01*
X132456719Y-99248250D01*
X132375995Y-98987363D01*
X132242858Y-98647623D01*
X132070027Y-98259204D01*
X131870221Y-97852278D01*
X131859573Y-97831642D01*
X131594355Y-97365315D01*
X131340687Y-97018028D01*
X131092028Y-96783116D01*
X130841836Y-96653916D01*
X130673613Y-96623369D01*
X130366967Y-96652087D01*
X130075509Y-96780199D01*
X129787460Y-97015608D01*
X129491041Y-97366216D01*
X129420250Y-97464254D01*
X129312541Y-97614451D01*
X129218274Y-97723614D01*
X129115442Y-97798287D01*
X128982035Y-97845016D01*
X128796043Y-97870347D01*
X128535457Y-97880823D01*
X128178267Y-97882992D01*
X128012178Y-97882999D01*
X126977302Y-97882999D01*
X126802371Y-97613124D01*
X126695224Y-97452018D01*
X126615421Y-97339602D01*
X126592035Y-97311500D01*
X126536702Y-97243452D01*
X126440781Y-97111295D01*
X126403273Y-97057500D01*
X126242652Y-96847893D01*
X126083990Y-96708705D01*
X125874736Y-96595649D01*
X125833238Y-96577109D01*
X125605714Y-96515510D01*
X125452238Y-96525081D01*
G36*
X127931822Y-99912954D02*
G01*
X127827149Y-100039999D01*
X127788947Y-100216813D01*
X127767046Y-100371849D01*
X127715858Y-100433949D01*
X127604294Y-100437164D01*
X127589181Y-100435618D01*
X127382775Y-100454925D01*
X127261823Y-100544804D01*
X127234957Y-100674695D01*
X127310806Y-100814039D01*
X127454280Y-100913244D01*
X127632638Y-100979946D01*
X127780483Y-100976436D01*
X127875521Y-100946277D01*
X128090826Y-100906675D01*
X128186318Y-100933310D01*
X128419610Y-100991575D01*
X128658947Y-100941626D01*
X128739371Y-100895649D01*
X128859693Y-100757857D01*
X128872167Y-100615282D01*
X128791074Y-100497980D01*
X128630694Y-100436009D01*
X128520820Y-100435618D01*
X128401783Y-100436284D01*
X128346123Y-100381353D01*
X128322751Y-100236772D01*
X128321054Y-100216813D01*
X128264992Y-100009558D01*
X128150093Y-99894860D01*
X127994492Y-99886879D01*
X127931822Y-99912954D01*
G37*
X127931822Y-99912954D02*
X127827149Y-100039999D01*
X127788947Y-100216813D01*
X127767046Y-100371849D01*
X127715858Y-100433949D01*
X127604294Y-100437164D01*
X127589181Y-100435618D01*
X127382775Y-100454925D01*
X127261823Y-100544804D01*
X127234957Y-100674695D01*
X127310806Y-100814039D01*
X127454280Y-100913244D01*
X127632638Y-100979946D01*
X127780483Y-100976436D01*
X127875521Y-100946277D01*
X128090826Y-100906675D01*
X128186318Y-100933310D01*
X128419610Y-100991575D01*
X128658947Y-100941626D01*
X128739371Y-100895649D01*
X128859693Y-100757857D01*
X128872167Y-100615282D01*
X128791074Y-100497980D01*
X128630694Y-100436009D01*
X128520820Y-100435618D01*
X128401783Y-100436284D01*
X128346123Y-100381353D01*
X128322751Y-100236772D01*
X128321054Y-100216813D01*
X128264992Y-100009558D01*
X128150093Y-99894860D01*
X127994492Y-99886879D01*
X127931822Y-99912954D01*
G36*
X130053192Y-99880100D02*
G01*
X129861864Y-100007363D01*
X129729866Y-100213965D01*
X129713878Y-100432506D01*
X129809035Y-100635964D01*
X130003451Y-100793627D01*
X130144438Y-100853709D01*
X130264001Y-100847779D01*
X130341000Y-100822450D01*
X130534073Y-100694412D01*
X130644059Y-100505269D01*
X130664511Y-100291051D01*
X130588982Y-100087784D01*
X130491187Y-99983108D01*
X130267946Y-99868574D01*
X130053192Y-99880100D01*
G37*
X130053192Y-99880100D02*
X129861864Y-100007363D01*
X129729866Y-100213965D01*
X129713878Y-100432506D01*
X129809035Y-100635964D01*
X130003451Y-100793627D01*
X130144438Y-100853709D01*
X130264001Y-100847779D01*
X130341000Y-100822450D01*
X130534073Y-100694412D01*
X130644059Y-100505269D01*
X130664511Y-100291051D01*
X130588982Y-100087784D01*
X130491187Y-99983108D01*
X130267946Y-99868574D01*
X130053192Y-99880100D01*
G36*
X125618814Y-99983108D02*
G01*
X125487822Y-100149425D01*
X125452091Y-100341645D01*
X125495635Y-100533760D01*
X125602471Y-100699762D01*
X125756612Y-100813642D01*
X125942074Y-100849393D01*
X126118250Y-100795709D01*
X126313518Y-100628291D01*
X126400979Y-100420949D01*
X126376193Y-100200638D01*
X126248137Y-100007363D01*
X126046054Y-99876436D01*
X125830742Y-99871387D01*
X125618814Y-99983108D01*
G37*
X125618814Y-99983108D02*
X125487822Y-100149425D01*
X125452091Y-100341645D01*
X125495635Y-100533760D01*
X125602471Y-100699762D01*
X125756612Y-100813642D01*
X125942074Y-100849393D01*
X126118250Y-100795709D01*
X126313518Y-100628291D01*
X126400979Y-100420949D01*
X126376193Y-100200638D01*
X126248137Y-100007363D01*
X126046054Y-99876436D01*
X125830742Y-99871387D01*
X125618814Y-99983108D01*
G36*
X123256138Y-100180829D02*
G01*
X123138193Y-100185937D01*
X122647679Y-100224758D01*
X122278341Y-100288252D01*
X122030994Y-100376055D01*
X121906450Y-100487806D01*
X121905522Y-100623140D01*
X121961532Y-100711800D01*
X122045578Y-100773513D01*
X122177809Y-100792638D01*
X122385998Y-100770332D01*
X122562250Y-100736857D01*
X122746787Y-100711717D01*
X123008680Y-100692104D01*
X123298305Y-100681486D01*
X123366682Y-100680659D01*
X123688857Y-100674251D01*
X123904604Y-100655928D01*
X124034371Y-100619418D01*
X124098605Y-100558448D01*
X124117753Y-100466746D01*
X124118000Y-100450190D01*
X124093966Y-100329418D01*
X124011423Y-100246320D01*
X123854711Y-100196671D01*
X123608170Y-100176249D01*
X123256138Y-100180829D01*
G37*
X123256138Y-100180829D02*
X123138193Y-100185937D01*
X122647679Y-100224758D01*
X122278341Y-100288252D01*
X122030994Y-100376055D01*
X121906450Y-100487806D01*
X121905522Y-100623140D01*
X121961532Y-100711800D01*
X122045578Y-100773513D01*
X122177809Y-100792638D01*
X122385998Y-100770332D01*
X122562250Y-100736857D01*
X122746787Y-100711717D01*
X123008680Y-100692104D01*
X123298305Y-100681486D01*
X123366682Y-100680659D01*
X123688857Y-100674251D01*
X123904604Y-100655928D01*
X124034371Y-100619418D01*
X124098605Y-100558448D01*
X124117753Y-100466746D01*
X124118000Y-100450190D01*
X124093966Y-100329418D01*
X124011423Y-100246320D01*
X123854711Y-100196671D01*
X123608170Y-100176249D01*
X123256138Y-100180829D01*
G36*
X122106587Y-99193560D02*
G01*
X122040000Y-99262419D01*
X122022500Y-99371022D01*
X122046870Y-99492523D01*
X122133540Y-99577539D01*
X122302852Y-99636543D01*
X122575148Y-99680006D01*
X122636184Y-99686935D01*
X122911134Y-99728358D01*
X123230246Y-99792930D01*
X123476755Y-99854037D01*
X123754319Y-99927968D01*
X123937469Y-99965616D01*
X124053120Y-99968217D01*
X124128188Y-99937008D01*
X124178972Y-99886297D01*
X124233328Y-99747929D01*
X124165317Y-99616396D01*
X123979490Y-99493921D01*
X123680395Y-99382728D01*
X123272584Y-99285038D01*
X122788298Y-99206726D01*
X122461999Y-99169733D01*
X122241008Y-99164004D01*
X122106587Y-99193560D01*
G37*
X122106587Y-99193560D02*
X122040000Y-99262419D01*
X122022500Y-99371022D01*
X122046870Y-99492523D01*
X122133540Y-99577539D01*
X122302852Y-99636543D01*
X122575148Y-99680006D01*
X122636184Y-99686935D01*
X122911134Y-99728358D01*
X123230246Y-99792930D01*
X123476755Y-99854037D01*
X123754319Y-99927968D01*
X123937469Y-99965616D01*
X124053120Y-99968217D01*
X124128188Y-99937008D01*
X124178972Y-99886297D01*
X124233328Y-99747929D01*
X124165317Y-99616396D01*
X123979490Y-99493921D01*
X123680395Y-99382728D01*
X123272584Y-99285038D01*
X122788298Y-99206726D01*
X122461999Y-99169733D01*
X122241008Y-99164004D01*
X122106587Y-99193560D01*
D10*
%TO.C,J9*%
X105690000Y-119015000D02*
X105690000Y-110585000D01*
X109960000Y-109315000D02*
X109960000Y-111115000D01*
X108510000Y-109315000D02*
X109960000Y-109315000D01*
X109960000Y-118485000D02*
X110950000Y-118485000D01*
X109960000Y-120285000D02*
X109960000Y-118485000D01*
X108510000Y-120285000D02*
X109960000Y-120285000D01*
%TO.C,R4*%
X107551267Y-99580000D02*
X107208733Y-99580000D01*
X107551267Y-98560000D02*
X107208733Y-98560000D01*
%TO.C,Q2*%
X105650000Y-94610000D02*
X106700000Y-94610000D01*
X105650000Y-96410000D02*
X105650000Y-94610000D01*
X108950000Y-94610000D02*
X107900000Y-94610000D01*
X108950000Y-97010000D02*
X108950000Y-94610000D01*
%TO.C,J2*%
X115370000Y-128000000D02*
X115370000Y-129330000D01*
X115370000Y-129330000D02*
X116700000Y-129330000D01*
X117970000Y-129330000D02*
X140890000Y-129330000D01*
X140890000Y-126670000D02*
X140890000Y-129330000D01*
X117970000Y-126670000D02*
X140890000Y-126670000D01*
X117970000Y-126670000D02*
X117970000Y-129330000D01*
%TO.C,C19*%
X140403733Y-112940000D02*
X140746267Y-112940000D01*
X140403733Y-113960000D02*
X140746267Y-113960000D01*
%TO.C,C18*%
X140278733Y-114390000D02*
X140621267Y-114390000D01*
X140278733Y-115410000D02*
X140621267Y-115410000D01*
%TO.C,C17*%
X140621267Y-107685000D02*
X140278733Y-107685000D01*
X140621267Y-106665000D02*
X140278733Y-106665000D01*
%TO.C,C16*%
X140621267Y-109210000D02*
X140278733Y-109210000D01*
X140621267Y-108190000D02*
X140278733Y-108190000D01*
%TO.C,J19*%
D12*
X125957380Y-90025476D02*
X126671666Y-90025476D01*
X126814523Y-89977857D01*
X126909761Y-89882619D01*
X126957380Y-89739761D01*
X126957380Y-89644523D01*
X126957380Y-91025476D02*
X126957380Y-90454047D01*
X126957380Y-90739761D02*
X125957380Y-90739761D01*
X126100238Y-90644523D01*
X126195476Y-90549285D01*
X126243095Y-90454047D01*
X126957380Y-91501666D02*
X126957380Y-91692142D01*
X126909761Y-91787380D01*
X126862142Y-91835000D01*
X126719285Y-91930238D01*
X126528809Y-91977857D01*
X126147857Y-91977857D01*
X126052619Y-91930238D01*
X126005000Y-91882619D01*
X125957380Y-91787380D01*
X125957380Y-91596904D01*
X126005000Y-91501666D01*
X126052619Y-91454047D01*
X126147857Y-91406428D01*
X126385952Y-91406428D01*
X126481190Y-91454047D01*
X126528809Y-91501666D01*
X126576428Y-91596904D01*
X126576428Y-91787380D01*
X126528809Y-91882619D01*
X126481190Y-91930238D01*
X126385952Y-91977857D01*
%TO.C,D6*%
X143382380Y-98011904D02*
X142382380Y-98011904D01*
X142382380Y-98250000D01*
X142430000Y-98392857D01*
X142525238Y-98488095D01*
X142620476Y-98535714D01*
X142810952Y-98583333D01*
X142953809Y-98583333D01*
X143144285Y-98535714D01*
X143239523Y-98488095D01*
X143334761Y-98392857D01*
X143382380Y-98250000D01*
X143382380Y-98011904D01*
X142382380Y-99440476D02*
X142382380Y-99250000D01*
X142430000Y-99154761D01*
X142477619Y-99107142D01*
X142620476Y-99011904D01*
X142810952Y-98964285D01*
X143191904Y-98964285D01*
X143287142Y-99011904D01*
X143334761Y-99059523D01*
X143382380Y-99154761D01*
X143382380Y-99345238D01*
X143334761Y-99440476D01*
X143287142Y-99488095D01*
X143191904Y-99535714D01*
X142953809Y-99535714D01*
X142858571Y-99488095D01*
X142810952Y-99440476D01*
X142763333Y-99345238D01*
X142763333Y-99154761D01*
X142810952Y-99059523D01*
X142858571Y-99011904D01*
X142953809Y-98964285D01*
%TO.C,D1*%
X144238095Y-101632380D02*
X144238095Y-100632380D01*
X144000000Y-100632380D01*
X143857142Y-100680000D01*
X143761904Y-100775238D01*
X143714285Y-100870476D01*
X143666666Y-101060952D01*
X143666666Y-101203809D01*
X143714285Y-101394285D01*
X143761904Y-101489523D01*
X143857142Y-101584761D01*
X144000000Y-101632380D01*
X144238095Y-101632380D01*
X142714285Y-101632380D02*
X143285714Y-101632380D01*
X143000000Y-101632380D02*
X143000000Y-100632380D01*
X143095238Y-100775238D01*
X143190476Y-100870476D01*
X143285714Y-100918095D01*
%TO.C,C10*%
X123027142Y-107307142D02*
X123074761Y-107259523D01*
X123122380Y-107116666D01*
X123122380Y-107021428D01*
X123074761Y-106878571D01*
X122979523Y-106783333D01*
X122884285Y-106735714D01*
X122693809Y-106688095D01*
X122550952Y-106688095D01*
X122360476Y-106735714D01*
X122265238Y-106783333D01*
X122170000Y-106878571D01*
X122122380Y-107021428D01*
X122122380Y-107116666D01*
X122170000Y-107259523D01*
X122217619Y-107307142D01*
X123122380Y-108259523D02*
X123122380Y-107688095D01*
X123122380Y-107973809D02*
X122122380Y-107973809D01*
X122265238Y-107878571D01*
X122360476Y-107783333D01*
X122408095Y-107688095D01*
X122122380Y-108878571D02*
X122122380Y-108973809D01*
X122170000Y-109069047D01*
X122217619Y-109116666D01*
X122312857Y-109164285D01*
X122503333Y-109211904D01*
X122741428Y-109211904D01*
X122931904Y-109164285D01*
X123027142Y-109116666D01*
X123074761Y-109069047D01*
X123122380Y-108973809D01*
X123122380Y-108878571D01*
X123074761Y-108783333D01*
X123027142Y-108735714D01*
X122931904Y-108688095D01*
X122741428Y-108640476D01*
X122503333Y-108640476D01*
X122312857Y-108688095D01*
X122217619Y-108735714D01*
X122170000Y-108783333D01*
X122122380Y-108878571D01*
%TO.C,C15*%
X144517857Y-105807142D02*
X144565476Y-105854761D01*
X144708333Y-105902380D01*
X144803571Y-105902380D01*
X144946428Y-105854761D01*
X145041666Y-105759523D01*
X145089285Y-105664285D01*
X145136904Y-105473809D01*
X145136904Y-105330952D01*
X145089285Y-105140476D01*
X145041666Y-105045238D01*
X144946428Y-104950000D01*
X144803571Y-104902380D01*
X144708333Y-104902380D01*
X144565476Y-104950000D01*
X144517857Y-104997619D01*
X143565476Y-105902380D02*
X144136904Y-105902380D01*
X143851190Y-105902380D02*
X143851190Y-104902380D01*
X143946428Y-105045238D01*
X144041666Y-105140476D01*
X144136904Y-105188095D01*
X142660714Y-104902380D02*
X143136904Y-104902380D01*
X143184523Y-105378571D01*
X143136904Y-105330952D01*
X143041666Y-105283333D01*
X142803571Y-105283333D01*
X142708333Y-105330952D01*
X142660714Y-105378571D01*
X142613095Y-105473809D01*
X142613095Y-105711904D01*
X142660714Y-105807142D01*
X142708333Y-105854761D01*
X142803571Y-105902380D01*
X143041666Y-105902380D01*
X143136904Y-105854761D01*
X143184523Y-105807142D01*
%TO.C,U9*%
D13*
X137527380Y-110933095D02*
X138336904Y-110933095D01*
X138432142Y-110980714D01*
X138479761Y-111028333D01*
X138527380Y-111123571D01*
X138527380Y-111314047D01*
X138479761Y-111409285D01*
X138432142Y-111456904D01*
X138336904Y-111504523D01*
X137527380Y-111504523D01*
X138527380Y-112028333D02*
X138527380Y-112218809D01*
X138479761Y-112314047D01*
X138432142Y-112361666D01*
X138289285Y-112456904D01*
X138098809Y-112504523D01*
X137717857Y-112504523D01*
X137622619Y-112456904D01*
X137575000Y-112409285D01*
X137527380Y-112314047D01*
X137527380Y-112123571D01*
X137575000Y-112028333D01*
X137622619Y-111980714D01*
X137717857Y-111933095D01*
X137955952Y-111933095D01*
X138051190Y-111980714D01*
X138098809Y-112028333D01*
X138146428Y-112123571D01*
X138146428Y-112314047D01*
X138098809Y-112409285D01*
X138051190Y-112456904D01*
X137955952Y-112504523D01*
%TO.C,J9*%
X111502380Y-114191666D02*
X112216666Y-114191666D01*
X112359523Y-114144047D01*
X112454761Y-114048809D01*
X112502380Y-113905952D01*
X112502380Y-113810714D01*
X112502380Y-114715476D02*
X112502380Y-114905952D01*
X112454761Y-115001190D01*
X112407142Y-115048809D01*
X112264285Y-115144047D01*
X112073809Y-115191666D01*
X111692857Y-115191666D01*
X111597619Y-115144047D01*
X111550000Y-115096428D01*
X111502380Y-115001190D01*
X111502380Y-114810714D01*
X111550000Y-114715476D01*
X111597619Y-114667857D01*
X111692857Y-114620238D01*
X111930952Y-114620238D01*
X112026190Y-114667857D01*
X112073809Y-114715476D01*
X112121428Y-114810714D01*
X112121428Y-115001190D01*
X112073809Y-115096428D01*
X112026190Y-115144047D01*
X111930952Y-115191666D01*
%TO.C,R4*%
D12*
X107266666Y-100877380D02*
X107600000Y-100401190D01*
X107838095Y-100877380D02*
X107838095Y-99877380D01*
X107457142Y-99877380D01*
X107361904Y-99925000D01*
X107314285Y-99972619D01*
X107266666Y-100067857D01*
X107266666Y-100210714D01*
X107314285Y-100305952D01*
X107361904Y-100353571D01*
X107457142Y-100401190D01*
X107838095Y-100401190D01*
X106409523Y-100210714D02*
X106409523Y-100877380D01*
X106647619Y-99829761D02*
X106885714Y-100544047D01*
X106266666Y-100544047D01*
%TO.C,J2*%
X128933333Y-125277380D02*
X128933333Y-125991666D01*
X128980952Y-126134523D01*
X129076190Y-126229761D01*
X129219047Y-126277380D01*
X129314285Y-126277380D01*
X128504761Y-125372619D02*
X128457142Y-125325000D01*
X128361904Y-125277380D01*
X128123809Y-125277380D01*
X128028571Y-125325000D01*
X127980952Y-125372619D01*
X127933333Y-125467857D01*
X127933333Y-125563095D01*
X127980952Y-125705952D01*
X128552380Y-126277380D01*
X127933333Y-126277380D01*
%TO.C,C19*%
X144217857Y-113657142D02*
X144265476Y-113704761D01*
X144408333Y-113752380D01*
X144503571Y-113752380D01*
X144646428Y-113704761D01*
X144741666Y-113609523D01*
X144789285Y-113514285D01*
X144836904Y-113323809D01*
X144836904Y-113180952D01*
X144789285Y-112990476D01*
X144741666Y-112895238D01*
X144646428Y-112800000D01*
X144503571Y-112752380D01*
X144408333Y-112752380D01*
X144265476Y-112800000D01*
X144217857Y-112847619D01*
X143265476Y-113752380D02*
X143836904Y-113752380D01*
X143551190Y-113752380D02*
X143551190Y-112752380D01*
X143646428Y-112895238D01*
X143741666Y-112990476D01*
X143836904Y-113038095D01*
X142789285Y-113752380D02*
X142598809Y-113752380D01*
X142503571Y-113704761D01*
X142455952Y-113657142D01*
X142360714Y-113514285D01*
X142313095Y-113323809D01*
X142313095Y-112942857D01*
X142360714Y-112847619D01*
X142408333Y-112800000D01*
X142503571Y-112752380D01*
X142694047Y-112752380D01*
X142789285Y-112800000D01*
X142836904Y-112847619D01*
X142884523Y-112942857D01*
X142884523Y-113180952D01*
X142836904Y-113276190D01*
X142789285Y-113323809D01*
X142694047Y-113371428D01*
X142503571Y-113371428D01*
X142408333Y-113323809D01*
X142360714Y-113276190D01*
X142313095Y-113180952D01*
%TO.C,C18*%
X144067857Y-115282142D02*
X144115476Y-115329761D01*
X144258333Y-115377380D01*
X144353571Y-115377380D01*
X144496428Y-115329761D01*
X144591666Y-115234523D01*
X144639285Y-115139285D01*
X144686904Y-114948809D01*
X144686904Y-114805952D01*
X144639285Y-114615476D01*
X144591666Y-114520238D01*
X144496428Y-114425000D01*
X144353571Y-114377380D01*
X144258333Y-114377380D01*
X144115476Y-114425000D01*
X144067857Y-114472619D01*
X143115476Y-115377380D02*
X143686904Y-115377380D01*
X143401190Y-115377380D02*
X143401190Y-114377380D01*
X143496428Y-114520238D01*
X143591666Y-114615476D01*
X143686904Y-114663095D01*
X142544047Y-114805952D02*
X142639285Y-114758333D01*
X142686904Y-114710714D01*
X142734523Y-114615476D01*
X142734523Y-114567857D01*
X142686904Y-114472619D01*
X142639285Y-114425000D01*
X142544047Y-114377380D01*
X142353571Y-114377380D01*
X142258333Y-114425000D01*
X142210714Y-114472619D01*
X142163095Y-114567857D01*
X142163095Y-114615476D01*
X142210714Y-114710714D01*
X142258333Y-114758333D01*
X142353571Y-114805952D01*
X142544047Y-114805952D01*
X142639285Y-114853571D01*
X142686904Y-114901190D01*
X142734523Y-114996428D01*
X142734523Y-115186904D01*
X142686904Y-115282142D01*
X142639285Y-115329761D01*
X142544047Y-115377380D01*
X142353571Y-115377380D01*
X142258333Y-115329761D01*
X142210714Y-115282142D01*
X142163095Y-115186904D01*
X142163095Y-114996428D01*
X142210714Y-114901190D01*
X142258333Y-114853571D01*
X142353571Y-114805952D01*
%TO.C,C17*%
X144092857Y-107657142D02*
X144140476Y-107704761D01*
X144283333Y-107752380D01*
X144378571Y-107752380D01*
X144521428Y-107704761D01*
X144616666Y-107609523D01*
X144664285Y-107514285D01*
X144711904Y-107323809D01*
X144711904Y-107180952D01*
X144664285Y-106990476D01*
X144616666Y-106895238D01*
X144521428Y-106800000D01*
X144378571Y-106752380D01*
X144283333Y-106752380D01*
X144140476Y-106800000D01*
X144092857Y-106847619D01*
X143140476Y-107752380D02*
X143711904Y-107752380D01*
X143426190Y-107752380D02*
X143426190Y-106752380D01*
X143521428Y-106895238D01*
X143616666Y-106990476D01*
X143711904Y-107038095D01*
X142807142Y-106752380D02*
X142140476Y-106752380D01*
X142569047Y-107752380D01*
%TO.C,C16*%
X144142857Y-109182142D02*
X144190476Y-109229761D01*
X144333333Y-109277380D01*
X144428571Y-109277380D01*
X144571428Y-109229761D01*
X144666666Y-109134523D01*
X144714285Y-109039285D01*
X144761904Y-108848809D01*
X144761904Y-108705952D01*
X144714285Y-108515476D01*
X144666666Y-108420238D01*
X144571428Y-108325000D01*
X144428571Y-108277380D01*
X144333333Y-108277380D01*
X144190476Y-108325000D01*
X144142857Y-108372619D01*
X143190476Y-109277380D02*
X143761904Y-109277380D01*
X143476190Y-109277380D02*
X143476190Y-108277380D01*
X143571428Y-108420238D01*
X143666666Y-108515476D01*
X143761904Y-108563095D01*
X142333333Y-108277380D02*
X142523809Y-108277380D01*
X142619047Y-108325000D01*
X142666666Y-108372619D01*
X142761904Y-108515476D01*
X142809523Y-108705952D01*
X142809523Y-109086904D01*
X142761904Y-109182142D01*
X142714285Y-109229761D01*
X142619047Y-109277380D01*
X142428571Y-109277380D01*
X142333333Y-109229761D01*
X142285714Y-109182142D01*
X142238095Y-109086904D01*
X142238095Y-108848809D01*
X142285714Y-108753571D01*
X142333333Y-108705952D01*
X142428571Y-108658333D01*
X142619047Y-108658333D01*
X142714285Y-108705952D01*
X142761904Y-108753571D01*
X142809523Y-108848809D01*
%TD*%
M02*
