%TF.GenerationSoftware,KiCad,Pcbnew,(5.1.6)-1*%
%TF.CreationDate,2020-08-20T16:43:32+07:00*%
%TF.ProjectId,drone_v3,64726f6e-655f-4763-932e-6b696361645f,rev?*%
%TF.SameCoordinates,Original*%
%TF.FileFunction,Paste,Bot*%
%TF.FilePolarity,Positive*%
%FSLAX46Y46*%
G04 Gerber Fmt 4.6, Leading zero omitted, Abs format (unit mm)*
G04 Created by KiCad (PCBNEW (5.1.6)-1) date 2020-08-20 16:43:32*
%MOMM*%
%LPD*%
G01*
G04 APERTURE LIST*
%ADD10R,1.200000X2.200000*%
%ADD11R,0.700000X1.600000*%
%ADD12R,1.200000X1.400000*%
%ADD13R,1.600000X1.400000*%
%ADD14R,0.800000X0.900000*%
%ADD15R,0.800000X1.800000*%
G04 APERTURE END LIST*
D10*
%TO.C,J19*%
X126230000Y-86635000D03*
D11*
X111630000Y-96835000D03*
D12*
X110430000Y-96235000D03*
D10*
X110430000Y-86735000D03*
D13*
X125630000Y-96035000D03*
D11*
X120430000Y-96835000D03*
X119330000Y-96835000D03*
X118230000Y-96835000D03*
X117130000Y-96835000D03*
X116030000Y-96835000D03*
X114930000Y-96835000D03*
X113830000Y-96835000D03*
X112730000Y-96835000D03*
%TD*%
%TO.C,D6*%
G36*
G01*
X144125000Y-96725000D02*
X145375000Y-96725000D01*
G75*
G02*
X145625000Y-96975000I0J-250000D01*
G01*
X145625000Y-97725000D01*
G75*
G02*
X145375000Y-97975000I-250000J0D01*
G01*
X144125000Y-97975000D01*
G75*
G02*
X143875000Y-97725000I0J250000D01*
G01*
X143875000Y-96975000D01*
G75*
G02*
X144125000Y-96725000I250000J0D01*
G01*
G37*
G36*
G01*
X144125000Y-99525000D02*
X145375000Y-99525000D01*
G75*
G02*
X145625000Y-99775000I0J-250000D01*
G01*
X145625000Y-100525000D01*
G75*
G02*
X145375000Y-100775000I-250000J0D01*
G01*
X144125000Y-100775000D01*
G75*
G02*
X143875000Y-100525000I0J250000D01*
G01*
X143875000Y-99775000D01*
G75*
G02*
X144125000Y-99525000I250000J0D01*
G01*
G37*
%TD*%
%TO.C,D1*%
G36*
G01*
X142725000Y-102375000D02*
X142725000Y-103625000D01*
G75*
G02*
X142475000Y-103875000I-250000J0D01*
G01*
X141725000Y-103875000D01*
G75*
G02*
X141475000Y-103625000I0J250000D01*
G01*
X141475000Y-102375000D01*
G75*
G02*
X141725000Y-102125000I250000J0D01*
G01*
X142475000Y-102125000D01*
G75*
G02*
X142725000Y-102375000I0J-250000D01*
G01*
G37*
G36*
G01*
X145525000Y-102375000D02*
X145525000Y-103625000D01*
G75*
G02*
X145275000Y-103875000I-250000J0D01*
G01*
X144525000Y-103875000D01*
G75*
G02*
X144275000Y-103625000I0J250000D01*
G01*
X144275000Y-102375000D01*
G75*
G02*
X144525000Y-102125000I250000J0D01*
G01*
X145275000Y-102125000D01*
G75*
G02*
X145525000Y-102375000I0J-250000D01*
G01*
G37*
%TD*%
%TO.C,C10*%
G36*
G01*
X121672500Y-107760000D02*
X121327500Y-107760000D01*
G75*
G02*
X121180000Y-107612500I0J147500D01*
G01*
X121180000Y-107317500D01*
G75*
G02*
X121327500Y-107170000I147500J0D01*
G01*
X121672500Y-107170000D01*
G75*
G02*
X121820000Y-107317500I0J-147500D01*
G01*
X121820000Y-107612500D01*
G75*
G02*
X121672500Y-107760000I-147500J0D01*
G01*
G37*
G36*
G01*
X121672500Y-108730000D02*
X121327500Y-108730000D01*
G75*
G02*
X121180000Y-108582500I0J147500D01*
G01*
X121180000Y-108287500D01*
G75*
G02*
X121327500Y-108140000I147500J0D01*
G01*
X121672500Y-108140000D01*
G75*
G02*
X121820000Y-108287500I0J-147500D01*
G01*
X121820000Y-108582500D01*
G75*
G02*
X121672500Y-108730000I-147500J0D01*
G01*
G37*
%TD*%
%TO.C,C15*%
G36*
G01*
X139650000Y-104775000D02*
X139650000Y-106025000D01*
G75*
G02*
X139400000Y-106275000I-250000J0D01*
G01*
X138650000Y-106275000D01*
G75*
G02*
X138400000Y-106025000I0J250000D01*
G01*
X138400000Y-104775000D01*
G75*
G02*
X138650000Y-104525000I250000J0D01*
G01*
X139400000Y-104525000D01*
G75*
G02*
X139650000Y-104775000I0J-250000D01*
G01*
G37*
G36*
G01*
X142450000Y-104775000D02*
X142450000Y-106025000D01*
G75*
G02*
X142200000Y-106275000I-250000J0D01*
G01*
X141450000Y-106275000D01*
G75*
G02*
X141200000Y-106025000I0J250000D01*
G01*
X141200000Y-104775000D01*
G75*
G02*
X141450000Y-104525000I250000J0D01*
G01*
X142200000Y-104525000D01*
G75*
G02*
X142450000Y-104775000I0J-250000D01*
G01*
G37*
%TD*%
D14*
%TO.C,U9*%
X140600000Y-110175000D03*
X139650000Y-112175000D03*
X141550000Y-112175000D03*
%TD*%
%TO.C,J9*%
G36*
G01*
X110800000Y-118225000D02*
X109400000Y-118225000D01*
G75*
G02*
X109250000Y-118075000I0J150000D01*
G01*
X109250000Y-117775000D01*
G75*
G02*
X109400000Y-117625000I150000J0D01*
G01*
X110800000Y-117625000D01*
G75*
G02*
X110950000Y-117775000I0J-150000D01*
G01*
X110950000Y-118075000D01*
G75*
G02*
X110800000Y-118225000I-150000J0D01*
G01*
G37*
G36*
G01*
X110800000Y-116975000D02*
X109400000Y-116975000D01*
G75*
G02*
X109250000Y-116825000I0J150000D01*
G01*
X109250000Y-116525000D01*
G75*
G02*
X109400000Y-116375000I150000J0D01*
G01*
X110800000Y-116375000D01*
G75*
G02*
X110950000Y-116525000I0J-150000D01*
G01*
X110950000Y-116825000D01*
G75*
G02*
X110800000Y-116975000I-150000J0D01*
G01*
G37*
G36*
G01*
X110800000Y-115725000D02*
X109400000Y-115725000D01*
G75*
G02*
X109250000Y-115575000I0J150000D01*
G01*
X109250000Y-115275000D01*
G75*
G02*
X109400000Y-115125000I150000J0D01*
G01*
X110800000Y-115125000D01*
G75*
G02*
X110950000Y-115275000I0J-150000D01*
G01*
X110950000Y-115575000D01*
G75*
G02*
X110800000Y-115725000I-150000J0D01*
G01*
G37*
G36*
G01*
X110800000Y-114475000D02*
X109400000Y-114475000D01*
G75*
G02*
X109250000Y-114325000I0J150000D01*
G01*
X109250000Y-114025000D01*
G75*
G02*
X109400000Y-113875000I150000J0D01*
G01*
X110800000Y-113875000D01*
G75*
G02*
X110950000Y-114025000I0J-150000D01*
G01*
X110950000Y-114325000D01*
G75*
G02*
X110800000Y-114475000I-150000J0D01*
G01*
G37*
G36*
G01*
X110800000Y-113225000D02*
X109400000Y-113225000D01*
G75*
G02*
X109250000Y-113075000I0J150000D01*
G01*
X109250000Y-112775000D01*
G75*
G02*
X109400000Y-112625000I150000J0D01*
G01*
X110800000Y-112625000D01*
G75*
G02*
X110950000Y-112775000I0J-150000D01*
G01*
X110950000Y-113075000D01*
G75*
G02*
X110800000Y-113225000I-150000J0D01*
G01*
G37*
G36*
G01*
X110800000Y-111975000D02*
X109400000Y-111975000D01*
G75*
G02*
X109250000Y-111825000I0J150000D01*
G01*
X109250000Y-111525000D01*
G75*
G02*
X109400000Y-111375000I150000J0D01*
G01*
X110800000Y-111375000D01*
G75*
G02*
X110950000Y-111525000I0J-150000D01*
G01*
X110950000Y-111825000D01*
G75*
G02*
X110800000Y-111975000I-150000J0D01*
G01*
G37*
G36*
G01*
X108000000Y-120275000D02*
X105800000Y-120275000D01*
G75*
G02*
X105550000Y-120025000I0J250000D01*
G01*
X105550000Y-119525000D01*
G75*
G02*
X105800000Y-119275000I250000J0D01*
G01*
X108000000Y-119275000D01*
G75*
G02*
X108250000Y-119525000I0J-250000D01*
G01*
X108250000Y-120025000D01*
G75*
G02*
X108000000Y-120275000I-250000J0D01*
G01*
G37*
G36*
G01*
X108000000Y-110325000D02*
X105800000Y-110325000D01*
G75*
G02*
X105550000Y-110075000I0J250000D01*
G01*
X105550000Y-109575000D01*
G75*
G02*
X105800000Y-109325000I250000J0D01*
G01*
X108000000Y-109325000D01*
G75*
G02*
X108250000Y-109575000I0J-250000D01*
G01*
X108250000Y-110075000D01*
G75*
G02*
X108000000Y-110325000I-250000J0D01*
G01*
G37*
%TD*%
%TO.C,R15*%
G36*
G01*
X120572500Y-98410000D02*
X120227500Y-98410000D01*
G75*
G02*
X120080000Y-98262500I0J147500D01*
G01*
X120080000Y-97967500D01*
G75*
G02*
X120227500Y-97820000I147500J0D01*
G01*
X120572500Y-97820000D01*
G75*
G02*
X120720000Y-97967500I0J-147500D01*
G01*
X120720000Y-98262500D01*
G75*
G02*
X120572500Y-98410000I-147500J0D01*
G01*
G37*
G36*
G01*
X120572500Y-99380000D02*
X120227500Y-99380000D01*
G75*
G02*
X120080000Y-99232500I0J147500D01*
G01*
X120080000Y-98937500D01*
G75*
G02*
X120227500Y-98790000I147500J0D01*
G01*
X120572500Y-98790000D01*
G75*
G02*
X120720000Y-98937500I0J-147500D01*
G01*
X120720000Y-99232500D01*
G75*
G02*
X120572500Y-99380000I-147500J0D01*
G01*
G37*
%TD*%
%TO.C,R14*%
G36*
G01*
X113772500Y-98610000D02*
X113427500Y-98610000D01*
G75*
G02*
X113280000Y-98462500I0J147500D01*
G01*
X113280000Y-98167500D01*
G75*
G02*
X113427500Y-98020000I147500J0D01*
G01*
X113772500Y-98020000D01*
G75*
G02*
X113920000Y-98167500I0J-147500D01*
G01*
X113920000Y-98462500D01*
G75*
G02*
X113772500Y-98610000I-147500J0D01*
G01*
G37*
G36*
G01*
X113772500Y-99580000D02*
X113427500Y-99580000D01*
G75*
G02*
X113280000Y-99432500I0J147500D01*
G01*
X113280000Y-99137500D01*
G75*
G02*
X113427500Y-98990000I147500J0D01*
G01*
X113772500Y-98990000D01*
G75*
G02*
X113920000Y-99137500I0J-147500D01*
G01*
X113920000Y-99432500D01*
G75*
G02*
X113772500Y-99580000I-147500J0D01*
G01*
G37*
%TD*%
%TO.C,R13*%
G36*
G01*
X112672500Y-98620000D02*
X112327500Y-98620000D01*
G75*
G02*
X112180000Y-98472500I0J147500D01*
G01*
X112180000Y-98177500D01*
G75*
G02*
X112327500Y-98030000I147500J0D01*
G01*
X112672500Y-98030000D01*
G75*
G02*
X112820000Y-98177500I0J-147500D01*
G01*
X112820000Y-98472500D01*
G75*
G02*
X112672500Y-98620000I-147500J0D01*
G01*
G37*
G36*
G01*
X112672500Y-99590000D02*
X112327500Y-99590000D01*
G75*
G02*
X112180000Y-99442500I0J147500D01*
G01*
X112180000Y-99147500D01*
G75*
G02*
X112327500Y-99000000I147500J0D01*
G01*
X112672500Y-99000000D01*
G75*
G02*
X112820000Y-99147500I0J-147500D01*
G01*
X112820000Y-99442500D01*
G75*
G02*
X112672500Y-99590000I-147500J0D01*
G01*
G37*
%TD*%
%TO.C,R12*%
G36*
G01*
X116572500Y-98610000D02*
X116227500Y-98610000D01*
G75*
G02*
X116080000Y-98462500I0J147500D01*
G01*
X116080000Y-98167500D01*
G75*
G02*
X116227500Y-98020000I147500J0D01*
G01*
X116572500Y-98020000D01*
G75*
G02*
X116720000Y-98167500I0J-147500D01*
G01*
X116720000Y-98462500D01*
G75*
G02*
X116572500Y-98610000I-147500J0D01*
G01*
G37*
G36*
G01*
X116572500Y-99580000D02*
X116227500Y-99580000D01*
G75*
G02*
X116080000Y-99432500I0J147500D01*
G01*
X116080000Y-99137500D01*
G75*
G02*
X116227500Y-98990000I147500J0D01*
G01*
X116572500Y-98990000D01*
G75*
G02*
X116720000Y-99137500I0J-147500D01*
G01*
X116720000Y-99432500D01*
G75*
G02*
X116572500Y-99580000I-147500J0D01*
G01*
G37*
%TD*%
%TO.C,R4*%
G36*
G01*
X107030000Y-98832500D02*
X107030000Y-99307500D01*
G75*
G02*
X106792500Y-99545000I-237500J0D01*
G01*
X106217500Y-99545000D01*
G75*
G02*
X105980000Y-99307500I0J237500D01*
G01*
X105980000Y-98832500D01*
G75*
G02*
X106217500Y-98595000I237500J0D01*
G01*
X106792500Y-98595000D01*
G75*
G02*
X107030000Y-98832500I0J-237500D01*
G01*
G37*
G36*
G01*
X108780000Y-98832500D02*
X108780000Y-99307500D01*
G75*
G02*
X108542500Y-99545000I-237500J0D01*
G01*
X107967500Y-99545000D01*
G75*
G02*
X107730000Y-99307500I0J237500D01*
G01*
X107730000Y-98832500D01*
G75*
G02*
X107967500Y-98595000I237500J0D01*
G01*
X108542500Y-98595000D01*
G75*
G02*
X108780000Y-98832500I0J-237500D01*
G01*
G37*
%TD*%
D15*
%TO.C,Q2*%
X107300000Y-93910000D03*
X106350000Y-97210000D03*
X108250000Y-97210000D03*
%TD*%
%TO.C,C19*%
G36*
G01*
X140925000Y-113687500D02*
X140925000Y-113212500D01*
G75*
G02*
X141162500Y-112975000I237500J0D01*
G01*
X141737500Y-112975000D01*
G75*
G02*
X141975000Y-113212500I0J-237500D01*
G01*
X141975000Y-113687500D01*
G75*
G02*
X141737500Y-113925000I-237500J0D01*
G01*
X141162500Y-113925000D01*
G75*
G02*
X140925000Y-113687500I0J237500D01*
G01*
G37*
G36*
G01*
X139175000Y-113687500D02*
X139175000Y-113212500D01*
G75*
G02*
X139412500Y-112975000I237500J0D01*
G01*
X139987500Y-112975000D01*
G75*
G02*
X140225000Y-113212500I0J-237500D01*
G01*
X140225000Y-113687500D01*
G75*
G02*
X139987500Y-113925000I-237500J0D01*
G01*
X139412500Y-113925000D01*
G75*
G02*
X139175000Y-113687500I0J237500D01*
G01*
G37*
%TD*%
%TO.C,C18*%
G36*
G01*
X140800000Y-115137500D02*
X140800000Y-114662500D01*
G75*
G02*
X141037500Y-114425000I237500J0D01*
G01*
X141612500Y-114425000D01*
G75*
G02*
X141850000Y-114662500I0J-237500D01*
G01*
X141850000Y-115137500D01*
G75*
G02*
X141612500Y-115375000I-237500J0D01*
G01*
X141037500Y-115375000D01*
G75*
G02*
X140800000Y-115137500I0J237500D01*
G01*
G37*
G36*
G01*
X139050000Y-115137500D02*
X139050000Y-114662500D01*
G75*
G02*
X139287500Y-114425000I237500J0D01*
G01*
X139862500Y-114425000D01*
G75*
G02*
X140100000Y-114662500I0J-237500D01*
G01*
X140100000Y-115137500D01*
G75*
G02*
X139862500Y-115375000I-237500J0D01*
G01*
X139287500Y-115375000D01*
G75*
G02*
X139050000Y-115137500I0J237500D01*
G01*
G37*
%TD*%
%TO.C,C17*%
G36*
G01*
X140100000Y-106937500D02*
X140100000Y-107412500D01*
G75*
G02*
X139862500Y-107650000I-237500J0D01*
G01*
X139287500Y-107650000D01*
G75*
G02*
X139050000Y-107412500I0J237500D01*
G01*
X139050000Y-106937500D01*
G75*
G02*
X139287500Y-106700000I237500J0D01*
G01*
X139862500Y-106700000D01*
G75*
G02*
X140100000Y-106937500I0J-237500D01*
G01*
G37*
G36*
G01*
X141850000Y-106937500D02*
X141850000Y-107412500D01*
G75*
G02*
X141612500Y-107650000I-237500J0D01*
G01*
X141037500Y-107650000D01*
G75*
G02*
X140800000Y-107412500I0J237500D01*
G01*
X140800000Y-106937500D01*
G75*
G02*
X141037500Y-106700000I237500J0D01*
G01*
X141612500Y-106700000D01*
G75*
G02*
X141850000Y-106937500I0J-237500D01*
G01*
G37*
%TD*%
%TO.C,C16*%
G36*
G01*
X140100000Y-108462500D02*
X140100000Y-108937500D01*
G75*
G02*
X139862500Y-109175000I-237500J0D01*
G01*
X139287500Y-109175000D01*
G75*
G02*
X139050000Y-108937500I0J237500D01*
G01*
X139050000Y-108462500D01*
G75*
G02*
X139287500Y-108225000I237500J0D01*
G01*
X139862500Y-108225000D01*
G75*
G02*
X140100000Y-108462500I0J-237500D01*
G01*
G37*
G36*
G01*
X141850000Y-108462500D02*
X141850000Y-108937500D01*
G75*
G02*
X141612500Y-109175000I-237500J0D01*
G01*
X141037500Y-109175000D01*
G75*
G02*
X140800000Y-108937500I0J237500D01*
G01*
X140800000Y-108462500D01*
G75*
G02*
X141037500Y-108225000I237500J0D01*
G01*
X141612500Y-108225000D01*
G75*
G02*
X141850000Y-108462500I0J-237500D01*
G01*
G37*
%TD*%
M02*
