%TF.GenerationSoftware,KiCad,Pcbnew,(5.1.6)-1*%
%TF.CreationDate,2020-08-20T16:43:32+07:00*%
%TF.ProjectId,drone_v3,64726f6e-655f-4763-932e-6b696361645f,rev?*%
%TF.SameCoordinates,Original*%
%TF.FileFunction,Paste,Top*%
%TF.FilePolarity,Positive*%
%FSLAX46Y46*%
G04 Gerber Fmt 4.6, Leading zero omitted, Abs format (unit mm)*
G04 Created by KiCad (PCBNEW (5.1.6)-1) date 2020-08-20 16:43:32*
%MOMM*%
%LPD*%
G01*
G04 APERTURE LIST*
%ADD10R,0.380000X0.350000*%
%ADD11R,0.800000X0.900000*%
%ADD12R,0.900000X0.800000*%
%ADD13R,1.200000X1.400000*%
%ADD14R,1.060000X0.650000*%
%ADD15R,1.000000X2.750000*%
%ADD16R,1.900000X1.500000*%
%ADD17R,1.350000X0.400000*%
G04 APERTURE END LIST*
D10*
%TO.C,U7*%
X121125000Y-124690000D03*
X121625000Y-124690000D03*
X122140000Y-124425000D03*
X122140000Y-123925000D03*
X122140000Y-123425000D03*
X121625000Y-123160000D03*
X121125000Y-123160000D03*
X120610000Y-123425000D03*
X120610000Y-123925000D03*
X120610000Y-124425000D03*
%TD*%
%TO.C,R1*%
G36*
G01*
X130285000Y-116892500D02*
X130285000Y-117237500D01*
G75*
G02*
X130137500Y-117385000I-147500J0D01*
G01*
X129842500Y-117385000D01*
G75*
G02*
X129695000Y-117237500I0J147500D01*
G01*
X129695000Y-116892500D01*
G75*
G02*
X129842500Y-116745000I147500J0D01*
G01*
X130137500Y-116745000D01*
G75*
G02*
X130285000Y-116892500I0J-147500D01*
G01*
G37*
G36*
G01*
X131255000Y-116892500D02*
X131255000Y-117237500D01*
G75*
G02*
X131107500Y-117385000I-147500J0D01*
G01*
X130812500Y-117385000D01*
G75*
G02*
X130665000Y-117237500I0J147500D01*
G01*
X130665000Y-116892500D01*
G75*
G02*
X130812500Y-116745000I147500J0D01*
G01*
X131107500Y-116745000D01*
G75*
G02*
X131255000Y-116892500I0J-147500D01*
G01*
G37*
%TD*%
%TO.C,C20*%
G36*
G01*
X137557500Y-101005000D02*
X137212500Y-101005000D01*
G75*
G02*
X137065000Y-100857500I0J147500D01*
G01*
X137065000Y-100562500D01*
G75*
G02*
X137212500Y-100415000I147500J0D01*
G01*
X137557500Y-100415000D01*
G75*
G02*
X137705000Y-100562500I0J-147500D01*
G01*
X137705000Y-100857500D01*
G75*
G02*
X137557500Y-101005000I-147500J0D01*
G01*
G37*
G36*
G01*
X137557500Y-101975000D02*
X137212500Y-101975000D01*
G75*
G02*
X137065000Y-101827500I0J147500D01*
G01*
X137065000Y-101532500D01*
G75*
G02*
X137212500Y-101385000I147500J0D01*
G01*
X137557500Y-101385000D01*
G75*
G02*
X137705000Y-101532500I0J-147500D01*
G01*
X137705000Y-101827500D01*
G75*
G02*
X137557500Y-101975000I-147500J0D01*
G01*
G37*
%TD*%
%TO.C,C34*%
G36*
G01*
X122960000Y-118650000D02*
X121710000Y-118650000D01*
G75*
G02*
X121460000Y-118400000I0J250000D01*
G01*
X121460000Y-117650000D01*
G75*
G02*
X121710000Y-117400000I250000J0D01*
G01*
X122960000Y-117400000D01*
G75*
G02*
X123210000Y-117650000I0J-250000D01*
G01*
X123210000Y-118400000D01*
G75*
G02*
X122960000Y-118650000I-250000J0D01*
G01*
G37*
G36*
G01*
X122960000Y-121450000D02*
X121710000Y-121450000D01*
G75*
G02*
X121460000Y-121200000I0J250000D01*
G01*
X121460000Y-120450000D01*
G75*
G02*
X121710000Y-120200000I250000J0D01*
G01*
X122960000Y-120200000D01*
G75*
G02*
X123210000Y-120450000I0J-250000D01*
G01*
X123210000Y-121200000D01*
G75*
G02*
X122960000Y-121450000I-250000J0D01*
G01*
G37*
%TD*%
%TO.C,C33*%
G36*
G01*
X115075000Y-121477500D02*
X115075000Y-121952500D01*
G75*
G02*
X114837500Y-122190000I-237500J0D01*
G01*
X114262500Y-122190000D01*
G75*
G02*
X114025000Y-121952500I0J237500D01*
G01*
X114025000Y-121477500D01*
G75*
G02*
X114262500Y-121240000I237500J0D01*
G01*
X114837500Y-121240000D01*
G75*
G02*
X115075000Y-121477500I0J-237500D01*
G01*
G37*
G36*
G01*
X116825000Y-121477500D02*
X116825000Y-121952500D01*
G75*
G02*
X116587500Y-122190000I-237500J0D01*
G01*
X116012500Y-122190000D01*
G75*
G02*
X115775000Y-121952500I0J237500D01*
G01*
X115775000Y-121477500D01*
G75*
G02*
X116012500Y-121240000I237500J0D01*
G01*
X116587500Y-121240000D01*
G75*
G02*
X116825000Y-121477500I0J-237500D01*
G01*
G37*
%TD*%
%TO.C,C23*%
G36*
G01*
X120372500Y-119045000D02*
X120027500Y-119045000D01*
G75*
G02*
X119880000Y-118897500I0J147500D01*
G01*
X119880000Y-118602500D01*
G75*
G02*
X120027500Y-118455000I147500J0D01*
G01*
X120372500Y-118455000D01*
G75*
G02*
X120520000Y-118602500I0J-147500D01*
G01*
X120520000Y-118897500D01*
G75*
G02*
X120372500Y-119045000I-147500J0D01*
G01*
G37*
G36*
G01*
X120372500Y-120015000D02*
X120027500Y-120015000D01*
G75*
G02*
X119880000Y-119867500I0J147500D01*
G01*
X119880000Y-119572500D01*
G75*
G02*
X120027500Y-119425000I147500J0D01*
G01*
X120372500Y-119425000D01*
G75*
G02*
X120520000Y-119572500I0J-147500D01*
G01*
X120520000Y-119867500D01*
G75*
G02*
X120372500Y-120015000I-147500J0D01*
G01*
G37*
%TD*%
%TO.C,C25*%
G36*
G01*
X118740000Y-121522500D02*
X118740000Y-121177500D01*
G75*
G02*
X118887500Y-121030000I147500J0D01*
G01*
X119182500Y-121030000D01*
G75*
G02*
X119330000Y-121177500I0J-147500D01*
G01*
X119330000Y-121522500D01*
G75*
G02*
X119182500Y-121670000I-147500J0D01*
G01*
X118887500Y-121670000D01*
G75*
G02*
X118740000Y-121522500I0J147500D01*
G01*
G37*
G36*
G01*
X117770000Y-121522500D02*
X117770000Y-121177500D01*
G75*
G02*
X117917500Y-121030000I147500J0D01*
G01*
X118212500Y-121030000D01*
G75*
G02*
X118360000Y-121177500I0J-147500D01*
G01*
X118360000Y-121522500D01*
G75*
G02*
X118212500Y-121670000I-147500J0D01*
G01*
X117917500Y-121670000D01*
G75*
G02*
X117770000Y-121522500I0J147500D01*
G01*
G37*
%TD*%
%TO.C,C24*%
G36*
G01*
X121222500Y-119025000D02*
X120877500Y-119025000D01*
G75*
G02*
X120730000Y-118877500I0J147500D01*
G01*
X120730000Y-118582500D01*
G75*
G02*
X120877500Y-118435000I147500J0D01*
G01*
X121222500Y-118435000D01*
G75*
G02*
X121370000Y-118582500I0J-147500D01*
G01*
X121370000Y-118877500D01*
G75*
G02*
X121222500Y-119025000I-147500J0D01*
G01*
G37*
G36*
G01*
X121222500Y-119995000D02*
X120877500Y-119995000D01*
G75*
G02*
X120730000Y-119847500I0J147500D01*
G01*
X120730000Y-119552500D01*
G75*
G02*
X120877500Y-119405000I147500J0D01*
G01*
X121222500Y-119405000D01*
G75*
G02*
X121370000Y-119552500I0J-147500D01*
G01*
X121370000Y-119847500D01*
G75*
G02*
X121222500Y-119995000I-147500J0D01*
G01*
G37*
%TD*%
%TO.C,R16*%
G36*
G01*
X122360000Y-116727500D02*
X122360000Y-117072500D01*
G75*
G02*
X122212500Y-117220000I-147500J0D01*
G01*
X121917500Y-117220000D01*
G75*
G02*
X121770000Y-117072500I0J147500D01*
G01*
X121770000Y-116727500D01*
G75*
G02*
X121917500Y-116580000I147500J0D01*
G01*
X122212500Y-116580000D01*
G75*
G02*
X122360000Y-116727500I0J-147500D01*
G01*
G37*
G36*
G01*
X123330000Y-116727500D02*
X123330000Y-117072500D01*
G75*
G02*
X123182500Y-117220000I-147500J0D01*
G01*
X122887500Y-117220000D01*
G75*
G02*
X122740000Y-117072500I0J147500D01*
G01*
X122740000Y-116727500D01*
G75*
G02*
X122887500Y-116580000I147500J0D01*
G01*
X123182500Y-116580000D01*
G75*
G02*
X123330000Y-116727500I0J-147500D01*
G01*
G37*
%TD*%
D11*
%TO.C,U8*%
X115400000Y-124900000D03*
X114450000Y-122900000D03*
X116350000Y-122900000D03*
%TD*%
%TO.C,U10*%
G36*
G01*
X116800000Y-117725000D02*
X116700000Y-117725000D01*
G75*
G02*
X116650000Y-117675000I0J50000D01*
G01*
X116650000Y-117225000D01*
G75*
G02*
X116700000Y-117175000I50000J0D01*
G01*
X116800000Y-117175000D01*
G75*
G02*
X116850000Y-117225000I0J-50000D01*
G01*
X116850000Y-117675000D01*
G75*
G02*
X116800000Y-117725000I-50000J0D01*
G01*
G37*
G36*
G01*
X117200000Y-117725000D02*
X117100000Y-117725000D01*
G75*
G02*
X117050000Y-117675000I0J50000D01*
G01*
X117050000Y-117225000D01*
G75*
G02*
X117100000Y-117175000I50000J0D01*
G01*
X117200000Y-117175000D01*
G75*
G02*
X117250000Y-117225000I0J-50000D01*
G01*
X117250000Y-117675000D01*
G75*
G02*
X117200000Y-117725000I-50000J0D01*
G01*
G37*
G36*
G01*
X117600000Y-117725000D02*
X117500000Y-117725000D01*
G75*
G02*
X117450000Y-117675000I0J50000D01*
G01*
X117450000Y-117225000D01*
G75*
G02*
X117500000Y-117175000I50000J0D01*
G01*
X117600000Y-117175000D01*
G75*
G02*
X117650000Y-117225000I0J-50000D01*
G01*
X117650000Y-117675000D01*
G75*
G02*
X117600000Y-117725000I-50000J0D01*
G01*
G37*
G36*
G01*
X118000000Y-117725000D02*
X117900000Y-117725000D01*
G75*
G02*
X117850000Y-117675000I0J50000D01*
G01*
X117850000Y-117225000D01*
G75*
G02*
X117900000Y-117175000I50000J0D01*
G01*
X118000000Y-117175000D01*
G75*
G02*
X118050000Y-117225000I0J-50000D01*
G01*
X118050000Y-117675000D01*
G75*
G02*
X118000000Y-117725000I-50000J0D01*
G01*
G37*
G36*
G01*
X118400000Y-117725000D02*
X118300000Y-117725000D01*
G75*
G02*
X118250000Y-117675000I0J50000D01*
G01*
X118250000Y-117225000D01*
G75*
G02*
X118300000Y-117175000I50000J0D01*
G01*
X118400000Y-117175000D01*
G75*
G02*
X118450000Y-117225000I0J-50000D01*
G01*
X118450000Y-117675000D01*
G75*
G02*
X118400000Y-117725000I-50000J0D01*
G01*
G37*
G36*
G01*
X118800000Y-117725000D02*
X118700000Y-117725000D01*
G75*
G02*
X118650000Y-117675000I0J50000D01*
G01*
X118650000Y-117225000D01*
G75*
G02*
X118700000Y-117175000I50000J0D01*
G01*
X118800000Y-117175000D01*
G75*
G02*
X118850000Y-117225000I0J-50000D01*
G01*
X118850000Y-117675000D01*
G75*
G02*
X118800000Y-117725000I-50000J0D01*
G01*
G37*
G36*
G01*
X118975000Y-118000000D02*
X118975000Y-117900000D01*
G75*
G02*
X119025000Y-117850000I50000J0D01*
G01*
X119475000Y-117850000D01*
G75*
G02*
X119525000Y-117900000I0J-50000D01*
G01*
X119525000Y-118000000D01*
G75*
G02*
X119475000Y-118050000I-50000J0D01*
G01*
X119025000Y-118050000D01*
G75*
G02*
X118975000Y-118000000I0J50000D01*
G01*
G37*
G36*
G01*
X118975000Y-118400000D02*
X118975000Y-118300000D01*
G75*
G02*
X119025000Y-118250000I50000J0D01*
G01*
X119475000Y-118250000D01*
G75*
G02*
X119525000Y-118300000I0J-50000D01*
G01*
X119525000Y-118400000D01*
G75*
G02*
X119475000Y-118450000I-50000J0D01*
G01*
X119025000Y-118450000D01*
G75*
G02*
X118975000Y-118400000I0J50000D01*
G01*
G37*
G36*
G01*
X118975000Y-118800000D02*
X118975000Y-118700000D01*
G75*
G02*
X119025000Y-118650000I50000J0D01*
G01*
X119475000Y-118650000D01*
G75*
G02*
X119525000Y-118700000I0J-50000D01*
G01*
X119525000Y-118800000D01*
G75*
G02*
X119475000Y-118850000I-50000J0D01*
G01*
X119025000Y-118850000D01*
G75*
G02*
X118975000Y-118800000I0J50000D01*
G01*
G37*
G36*
G01*
X118975000Y-119200000D02*
X118975000Y-119100000D01*
G75*
G02*
X119025000Y-119050000I50000J0D01*
G01*
X119475000Y-119050000D01*
G75*
G02*
X119525000Y-119100000I0J-50000D01*
G01*
X119525000Y-119200000D01*
G75*
G02*
X119475000Y-119250000I-50000J0D01*
G01*
X119025000Y-119250000D01*
G75*
G02*
X118975000Y-119200000I0J50000D01*
G01*
G37*
G36*
G01*
X118975000Y-119600000D02*
X118975000Y-119500000D01*
G75*
G02*
X119025000Y-119450000I50000J0D01*
G01*
X119475000Y-119450000D01*
G75*
G02*
X119525000Y-119500000I0J-50000D01*
G01*
X119525000Y-119600000D01*
G75*
G02*
X119475000Y-119650000I-50000J0D01*
G01*
X119025000Y-119650000D01*
G75*
G02*
X118975000Y-119600000I0J50000D01*
G01*
G37*
G36*
G01*
X118975000Y-120000000D02*
X118975000Y-119900000D01*
G75*
G02*
X119025000Y-119850000I50000J0D01*
G01*
X119475000Y-119850000D01*
G75*
G02*
X119525000Y-119900000I0J-50000D01*
G01*
X119525000Y-120000000D01*
G75*
G02*
X119475000Y-120050000I-50000J0D01*
G01*
X119025000Y-120050000D01*
G75*
G02*
X118975000Y-120000000I0J50000D01*
G01*
G37*
G36*
G01*
X118800000Y-120725000D02*
X118700000Y-120725000D01*
G75*
G02*
X118650000Y-120675000I0J50000D01*
G01*
X118650000Y-120225000D01*
G75*
G02*
X118700000Y-120175000I50000J0D01*
G01*
X118800000Y-120175000D01*
G75*
G02*
X118850000Y-120225000I0J-50000D01*
G01*
X118850000Y-120675000D01*
G75*
G02*
X118800000Y-120725000I-50000J0D01*
G01*
G37*
G36*
G01*
X118400000Y-120725000D02*
X118300000Y-120725000D01*
G75*
G02*
X118250000Y-120675000I0J50000D01*
G01*
X118250000Y-120225000D01*
G75*
G02*
X118300000Y-120175000I50000J0D01*
G01*
X118400000Y-120175000D01*
G75*
G02*
X118450000Y-120225000I0J-50000D01*
G01*
X118450000Y-120675000D01*
G75*
G02*
X118400000Y-120725000I-50000J0D01*
G01*
G37*
G36*
G01*
X118000000Y-120725000D02*
X117900000Y-120725000D01*
G75*
G02*
X117850000Y-120675000I0J50000D01*
G01*
X117850000Y-120225000D01*
G75*
G02*
X117900000Y-120175000I50000J0D01*
G01*
X118000000Y-120175000D01*
G75*
G02*
X118050000Y-120225000I0J-50000D01*
G01*
X118050000Y-120675000D01*
G75*
G02*
X118000000Y-120725000I-50000J0D01*
G01*
G37*
G36*
G01*
X117600000Y-120725000D02*
X117500000Y-120725000D01*
G75*
G02*
X117450000Y-120675000I0J50000D01*
G01*
X117450000Y-120225000D01*
G75*
G02*
X117500000Y-120175000I50000J0D01*
G01*
X117600000Y-120175000D01*
G75*
G02*
X117650000Y-120225000I0J-50000D01*
G01*
X117650000Y-120675000D01*
G75*
G02*
X117600000Y-120725000I-50000J0D01*
G01*
G37*
G36*
G01*
X117200000Y-120725000D02*
X117100000Y-120725000D01*
G75*
G02*
X117050000Y-120675000I0J50000D01*
G01*
X117050000Y-120225000D01*
G75*
G02*
X117100000Y-120175000I50000J0D01*
G01*
X117200000Y-120175000D01*
G75*
G02*
X117250000Y-120225000I0J-50000D01*
G01*
X117250000Y-120675000D01*
G75*
G02*
X117200000Y-120725000I-50000J0D01*
G01*
G37*
G36*
G01*
X116800000Y-120725000D02*
X116700000Y-120725000D01*
G75*
G02*
X116650000Y-120675000I0J50000D01*
G01*
X116650000Y-120225000D01*
G75*
G02*
X116700000Y-120175000I50000J0D01*
G01*
X116800000Y-120175000D01*
G75*
G02*
X116850000Y-120225000I0J-50000D01*
G01*
X116850000Y-120675000D01*
G75*
G02*
X116800000Y-120725000I-50000J0D01*
G01*
G37*
G36*
G01*
X115975000Y-120000000D02*
X115975000Y-119900000D01*
G75*
G02*
X116025000Y-119850000I50000J0D01*
G01*
X116475000Y-119850000D01*
G75*
G02*
X116525000Y-119900000I0J-50000D01*
G01*
X116525000Y-120000000D01*
G75*
G02*
X116475000Y-120050000I-50000J0D01*
G01*
X116025000Y-120050000D01*
G75*
G02*
X115975000Y-120000000I0J50000D01*
G01*
G37*
G36*
G01*
X115975000Y-119600000D02*
X115975000Y-119500000D01*
G75*
G02*
X116025000Y-119450000I50000J0D01*
G01*
X116475000Y-119450000D01*
G75*
G02*
X116525000Y-119500000I0J-50000D01*
G01*
X116525000Y-119600000D01*
G75*
G02*
X116475000Y-119650000I-50000J0D01*
G01*
X116025000Y-119650000D01*
G75*
G02*
X115975000Y-119600000I0J50000D01*
G01*
G37*
G36*
G01*
X115975000Y-119200000D02*
X115975000Y-119100000D01*
G75*
G02*
X116025000Y-119050000I50000J0D01*
G01*
X116475000Y-119050000D01*
G75*
G02*
X116525000Y-119100000I0J-50000D01*
G01*
X116525000Y-119200000D01*
G75*
G02*
X116475000Y-119250000I-50000J0D01*
G01*
X116025000Y-119250000D01*
G75*
G02*
X115975000Y-119200000I0J50000D01*
G01*
G37*
G36*
G01*
X115975000Y-118800000D02*
X115975000Y-118700000D01*
G75*
G02*
X116025000Y-118650000I50000J0D01*
G01*
X116475000Y-118650000D01*
G75*
G02*
X116525000Y-118700000I0J-50000D01*
G01*
X116525000Y-118800000D01*
G75*
G02*
X116475000Y-118850000I-50000J0D01*
G01*
X116025000Y-118850000D01*
G75*
G02*
X115975000Y-118800000I0J50000D01*
G01*
G37*
G36*
G01*
X115975000Y-118400000D02*
X115975000Y-118300000D01*
G75*
G02*
X116025000Y-118250000I50000J0D01*
G01*
X116475000Y-118250000D01*
G75*
G02*
X116525000Y-118300000I0J-50000D01*
G01*
X116525000Y-118400000D01*
G75*
G02*
X116475000Y-118450000I-50000J0D01*
G01*
X116025000Y-118450000D01*
G75*
G02*
X115975000Y-118400000I0J50000D01*
G01*
G37*
G36*
G01*
X115975000Y-118000000D02*
X115975000Y-117900000D01*
G75*
G02*
X116025000Y-117850000I50000J0D01*
G01*
X116475000Y-117850000D01*
G75*
G02*
X116525000Y-117900000I0J-50000D01*
G01*
X116525000Y-118000000D01*
G75*
G02*
X116475000Y-118050000I-50000J0D01*
G01*
X116025000Y-118050000D01*
G75*
G02*
X115975000Y-118000000I0J50000D01*
G01*
G37*
%TD*%
%TO.C,C32*%
G36*
G01*
X114925000Y-125912500D02*
X114925000Y-126387500D01*
G75*
G02*
X114687500Y-126625000I-237500J0D01*
G01*
X114112500Y-126625000D01*
G75*
G02*
X113875000Y-126387500I0J237500D01*
G01*
X113875000Y-125912500D01*
G75*
G02*
X114112500Y-125675000I237500J0D01*
G01*
X114687500Y-125675000D01*
G75*
G02*
X114925000Y-125912500I0J-237500D01*
G01*
G37*
G36*
G01*
X116675000Y-125912500D02*
X116675000Y-126387500D01*
G75*
G02*
X116437500Y-126625000I-237500J0D01*
G01*
X115862500Y-126625000D01*
G75*
G02*
X115625000Y-126387500I0J237500D01*
G01*
X115625000Y-125912500D01*
G75*
G02*
X115862500Y-125675000I237500J0D01*
G01*
X116437500Y-125675000D01*
G75*
G02*
X116675000Y-125912500I0J-237500D01*
G01*
G37*
%TD*%
%TO.C,C32*%
G36*
G01*
X122456250Y-91375000D02*
X121943750Y-91375000D01*
G75*
G02*
X121725000Y-91156250I0J218750D01*
G01*
X121725000Y-90718750D01*
G75*
G02*
X121943750Y-90500000I218750J0D01*
G01*
X122456250Y-90500000D01*
G75*
G02*
X122675000Y-90718750I0J-218750D01*
G01*
X122675000Y-91156250D01*
G75*
G02*
X122456250Y-91375000I-218750J0D01*
G01*
G37*
G36*
G01*
X122456250Y-92950000D02*
X121943750Y-92950000D01*
G75*
G02*
X121725000Y-92731250I0J218750D01*
G01*
X121725000Y-92293750D01*
G75*
G02*
X121943750Y-92075000I218750J0D01*
G01*
X122456250Y-92075000D01*
G75*
G02*
X122675000Y-92293750I0J-218750D01*
G01*
X122675000Y-92731250D01*
G75*
G02*
X122456250Y-92950000I-218750J0D01*
G01*
G37*
%TD*%
%TO.C,C6*%
G36*
G01*
X139175001Y-100025000D02*
X138624999Y-100025000D01*
G75*
G02*
X138375000Y-99775001I0J249999D01*
G01*
X138375000Y-98974999D01*
G75*
G02*
X138624999Y-98725000I249999J0D01*
G01*
X139175001Y-98725000D01*
G75*
G02*
X139425000Y-98974999I0J-249999D01*
G01*
X139425000Y-99775001D01*
G75*
G02*
X139175001Y-100025000I-249999J0D01*
G01*
G37*
G36*
G01*
X139175001Y-101975000D02*
X138624999Y-101975000D01*
G75*
G02*
X138375000Y-101725001I0J249999D01*
G01*
X138375000Y-100924999D01*
G75*
G02*
X138624999Y-100675000I249999J0D01*
G01*
X139175001Y-100675000D01*
G75*
G02*
X139425000Y-100924999I0J-249999D01*
G01*
X139425000Y-101725001D01*
G75*
G02*
X139175001Y-101975000I-249999J0D01*
G01*
G37*
%TD*%
%TO.C,C5*%
G36*
G01*
X131699999Y-115000000D02*
X132250001Y-115000000D01*
G75*
G02*
X132500000Y-115249999I0J-249999D01*
G01*
X132500000Y-116050001D01*
G75*
G02*
X132250001Y-116300000I-249999J0D01*
G01*
X131699999Y-116300000D01*
G75*
G02*
X131450000Y-116050001I0J249999D01*
G01*
X131450000Y-115249999D01*
G75*
G02*
X131699999Y-115000000I249999J0D01*
G01*
G37*
G36*
G01*
X131699999Y-113050000D02*
X132250001Y-113050000D01*
G75*
G02*
X132500000Y-113299999I0J-249999D01*
G01*
X132500000Y-114100001D01*
G75*
G02*
X132250001Y-114350000I-249999J0D01*
G01*
X131699999Y-114350000D01*
G75*
G02*
X131450000Y-114100001I0J249999D01*
G01*
X131450000Y-113299999D01*
G75*
G02*
X131699999Y-113050000I249999J0D01*
G01*
G37*
%TD*%
%TO.C,C13*%
G36*
G01*
X133990000Y-113322500D02*
X133990000Y-112977500D01*
G75*
G02*
X134137500Y-112830000I147500J0D01*
G01*
X134432500Y-112830000D01*
G75*
G02*
X134580000Y-112977500I0J-147500D01*
G01*
X134580000Y-113322500D01*
G75*
G02*
X134432500Y-113470000I-147500J0D01*
G01*
X134137500Y-113470000D01*
G75*
G02*
X133990000Y-113322500I0J147500D01*
G01*
G37*
G36*
G01*
X133020000Y-113322500D02*
X133020000Y-112977500D01*
G75*
G02*
X133167500Y-112830000I147500J0D01*
G01*
X133462500Y-112830000D01*
G75*
G02*
X133610000Y-112977500I0J-147500D01*
G01*
X133610000Y-113322500D01*
G75*
G02*
X133462500Y-113470000I-147500J0D01*
G01*
X133167500Y-113470000D01*
G75*
G02*
X133020000Y-113322500I0J147500D01*
G01*
G37*
%TD*%
%TO.C,C14*%
G36*
G01*
X122422500Y-107660000D02*
X122077500Y-107660000D01*
G75*
G02*
X121930000Y-107512500I0J147500D01*
G01*
X121930000Y-107217500D01*
G75*
G02*
X122077500Y-107070000I147500J0D01*
G01*
X122422500Y-107070000D01*
G75*
G02*
X122570000Y-107217500I0J-147500D01*
G01*
X122570000Y-107512500D01*
G75*
G02*
X122422500Y-107660000I-147500J0D01*
G01*
G37*
G36*
G01*
X122422500Y-108630000D02*
X122077500Y-108630000D01*
G75*
G02*
X121930000Y-108482500I0J147500D01*
G01*
X121930000Y-108187500D01*
G75*
G02*
X122077500Y-108040000I147500J0D01*
G01*
X122422500Y-108040000D01*
G75*
G02*
X122570000Y-108187500I0J-147500D01*
G01*
X122570000Y-108482500D01*
G75*
G02*
X122422500Y-108630000I-147500J0D01*
G01*
G37*
%TD*%
%TO.C,C9*%
G36*
G01*
X125190000Y-99072500D02*
X125190000Y-98727500D01*
G75*
G02*
X125337500Y-98580000I147500J0D01*
G01*
X125632500Y-98580000D01*
G75*
G02*
X125780000Y-98727500I0J-147500D01*
G01*
X125780000Y-99072500D01*
G75*
G02*
X125632500Y-99220000I-147500J0D01*
G01*
X125337500Y-99220000D01*
G75*
G02*
X125190000Y-99072500I0J147500D01*
G01*
G37*
G36*
G01*
X124220000Y-99072500D02*
X124220000Y-98727500D01*
G75*
G02*
X124367500Y-98580000I147500J0D01*
G01*
X124662500Y-98580000D01*
G75*
G02*
X124810000Y-98727500I0J-147500D01*
G01*
X124810000Y-99072500D01*
G75*
G02*
X124662500Y-99220000I-147500J0D01*
G01*
X124367500Y-99220000D01*
G75*
G02*
X124220000Y-99072500I0J147500D01*
G01*
G37*
%TD*%
%TO.C,C8*%
G36*
G01*
X125060000Y-113227500D02*
X125060000Y-113572500D01*
G75*
G02*
X124912500Y-113720000I-147500J0D01*
G01*
X124617500Y-113720000D01*
G75*
G02*
X124470000Y-113572500I0J147500D01*
G01*
X124470000Y-113227500D01*
G75*
G02*
X124617500Y-113080000I147500J0D01*
G01*
X124912500Y-113080000D01*
G75*
G02*
X125060000Y-113227500I0J-147500D01*
G01*
G37*
G36*
G01*
X126030000Y-113227500D02*
X126030000Y-113572500D01*
G75*
G02*
X125882500Y-113720000I-147500J0D01*
G01*
X125587500Y-113720000D01*
G75*
G02*
X125440000Y-113572500I0J147500D01*
G01*
X125440000Y-113227500D01*
G75*
G02*
X125587500Y-113080000I147500J0D01*
G01*
X125882500Y-113080000D01*
G75*
G02*
X126030000Y-113227500I0J-147500D01*
G01*
G37*
%TD*%
%TO.C,C31*%
G36*
G01*
X117472500Y-125510000D02*
X117127500Y-125510000D01*
G75*
G02*
X116980000Y-125362500I0J147500D01*
G01*
X116980000Y-125067500D01*
G75*
G02*
X117127500Y-124920000I147500J0D01*
G01*
X117472500Y-124920000D01*
G75*
G02*
X117620000Y-125067500I0J-147500D01*
G01*
X117620000Y-125362500D01*
G75*
G02*
X117472500Y-125510000I-147500J0D01*
G01*
G37*
G36*
G01*
X117472500Y-126480000D02*
X117127500Y-126480000D01*
G75*
G02*
X116980000Y-126332500I0J147500D01*
G01*
X116980000Y-126037500D01*
G75*
G02*
X117127500Y-125890000I147500J0D01*
G01*
X117472500Y-125890000D01*
G75*
G02*
X117620000Y-126037500I0J-147500D01*
G01*
X117620000Y-126332500D01*
G75*
G02*
X117472500Y-126480000I-147500J0D01*
G01*
G37*
%TD*%
%TO.C,C27*%
G36*
G01*
X118472500Y-125510000D02*
X118127500Y-125510000D01*
G75*
G02*
X117980000Y-125362500I0J147500D01*
G01*
X117980000Y-125067500D01*
G75*
G02*
X118127500Y-124920000I147500J0D01*
G01*
X118472500Y-124920000D01*
G75*
G02*
X118620000Y-125067500I0J-147500D01*
G01*
X118620000Y-125362500D01*
G75*
G02*
X118472500Y-125510000I-147500J0D01*
G01*
G37*
G36*
G01*
X118472500Y-126480000D02*
X118127500Y-126480000D01*
G75*
G02*
X117980000Y-126332500I0J147500D01*
G01*
X117980000Y-126037500D01*
G75*
G02*
X118127500Y-125890000I147500J0D01*
G01*
X118472500Y-125890000D01*
G75*
G02*
X118620000Y-126037500I0J-147500D01*
G01*
X118620000Y-126332500D01*
G75*
G02*
X118472500Y-126480000I-147500J0D01*
G01*
G37*
%TD*%
D12*
%TO.C,U4*%
X135150000Y-124200000D03*
X133150000Y-125150000D03*
X133150000Y-123250000D03*
%TD*%
%TO.C,C30*%
G36*
G01*
X132287500Y-123750000D02*
X131812500Y-123750000D01*
G75*
G02*
X131575000Y-123512500I0J237500D01*
G01*
X131575000Y-122937500D01*
G75*
G02*
X131812500Y-122700000I237500J0D01*
G01*
X132287500Y-122700000D01*
G75*
G02*
X132525000Y-122937500I0J-237500D01*
G01*
X132525000Y-123512500D01*
G75*
G02*
X132287500Y-123750000I-237500J0D01*
G01*
G37*
G36*
G01*
X132287500Y-125500000D02*
X131812500Y-125500000D01*
G75*
G02*
X131575000Y-125262500I0J237500D01*
G01*
X131575000Y-124687500D01*
G75*
G02*
X131812500Y-124450000I237500J0D01*
G01*
X132287500Y-124450000D01*
G75*
G02*
X132525000Y-124687500I0J-237500D01*
G01*
X132525000Y-125262500D01*
G75*
G02*
X132287500Y-125500000I-237500J0D01*
G01*
G37*
%TD*%
%TO.C,C29*%
G36*
G01*
X136537500Y-123825000D02*
X136062500Y-123825000D01*
G75*
G02*
X135825000Y-123587500I0J237500D01*
G01*
X135825000Y-123012500D01*
G75*
G02*
X136062500Y-122775000I237500J0D01*
G01*
X136537500Y-122775000D01*
G75*
G02*
X136775000Y-123012500I0J-237500D01*
G01*
X136775000Y-123587500D01*
G75*
G02*
X136537500Y-123825000I-237500J0D01*
G01*
G37*
G36*
G01*
X136537500Y-125575000D02*
X136062500Y-125575000D01*
G75*
G02*
X135825000Y-125337500I0J237500D01*
G01*
X135825000Y-124762500D01*
G75*
G02*
X136062500Y-124525000I237500J0D01*
G01*
X136537500Y-124525000D01*
G75*
G02*
X136775000Y-124762500I0J-237500D01*
G01*
X136775000Y-125337500D01*
G75*
G02*
X136537500Y-125575000I-237500J0D01*
G01*
G37*
%TD*%
%TO.C,C28*%
G36*
G01*
X145435000Y-99543750D02*
X145435000Y-100056250D01*
G75*
G02*
X145216250Y-100275000I-218750J0D01*
G01*
X144778750Y-100275000D01*
G75*
G02*
X144560000Y-100056250I0J218750D01*
G01*
X144560000Y-99543750D01*
G75*
G02*
X144778750Y-99325000I218750J0D01*
G01*
X145216250Y-99325000D01*
G75*
G02*
X145435000Y-99543750I0J-218750D01*
G01*
G37*
G36*
G01*
X143860000Y-99543750D02*
X143860000Y-100056250D01*
G75*
G02*
X143641250Y-100275000I-218750J0D01*
G01*
X143203750Y-100275000D01*
G75*
G02*
X142985000Y-100056250I0J218750D01*
G01*
X142985000Y-99543750D01*
G75*
G02*
X143203750Y-99325000I218750J0D01*
G01*
X143641250Y-99325000D01*
G75*
G02*
X143860000Y-99543750I0J-218750D01*
G01*
G37*
%TD*%
%TO.C,C21*%
G36*
G01*
X135375000Y-119375000D02*
X134125000Y-119375000D01*
G75*
G02*
X133875000Y-119125000I0J250000D01*
G01*
X133875000Y-118375000D01*
G75*
G02*
X134125000Y-118125000I250000J0D01*
G01*
X135375000Y-118125000D01*
G75*
G02*
X135625000Y-118375000I0J-250000D01*
G01*
X135625000Y-119125000D01*
G75*
G02*
X135375000Y-119375000I-250000J0D01*
G01*
G37*
G36*
G01*
X135375000Y-122175000D02*
X134125000Y-122175000D01*
G75*
G02*
X133875000Y-121925000I0J250000D01*
G01*
X133875000Y-121175000D01*
G75*
G02*
X134125000Y-120925000I250000J0D01*
G01*
X135375000Y-120925000D01*
G75*
G02*
X135625000Y-121175000I0J-250000D01*
G01*
X135625000Y-121925000D01*
G75*
G02*
X135375000Y-122175000I-250000J0D01*
G01*
G37*
%TD*%
%TO.C,J15*%
G36*
G01*
X113750000Y-90250000D02*
X113750000Y-85250000D01*
G75*
G02*
X114000000Y-85000000I250000J0D01*
G01*
X114500000Y-85000000D01*
G75*
G02*
X114750000Y-85250000I0J-250000D01*
G01*
X114750000Y-90250000D01*
G75*
G02*
X114500000Y-90500000I-250000J0D01*
G01*
X114000000Y-90500000D01*
G75*
G02*
X113750000Y-90250000I0J250000D01*
G01*
G37*
G36*
G01*
X115750000Y-90250000D02*
X115750000Y-85250000D01*
G75*
G02*
X116000000Y-85000000I250000J0D01*
G01*
X116500000Y-85000000D01*
G75*
G02*
X116750000Y-85250000I0J-250000D01*
G01*
X116750000Y-90250000D01*
G75*
G02*
X116500000Y-90500000I-250000J0D01*
G01*
X116000000Y-90500000D01*
G75*
G02*
X115750000Y-90250000I0J250000D01*
G01*
G37*
G36*
G01*
X117750000Y-90250000D02*
X117750000Y-85250000D01*
G75*
G02*
X118000000Y-85000000I250000J0D01*
G01*
X118500000Y-85000000D01*
G75*
G02*
X118750000Y-85250000I0J-250000D01*
G01*
X118750000Y-90250000D01*
G75*
G02*
X118500000Y-90500000I-250000J0D01*
G01*
X118000000Y-90500000D01*
G75*
G02*
X117750000Y-90250000I0J250000D01*
G01*
G37*
G36*
G01*
X119750000Y-90250000D02*
X119750000Y-85250000D01*
G75*
G02*
X120000000Y-85000000I250000J0D01*
G01*
X120500000Y-85000000D01*
G75*
G02*
X120750000Y-85250000I0J-250000D01*
G01*
X120750000Y-90250000D01*
G75*
G02*
X120500000Y-90500000I-250000J0D01*
G01*
X120000000Y-90500000D01*
G75*
G02*
X119750000Y-90250000I0J250000D01*
G01*
G37*
G36*
G01*
X111050000Y-86750000D02*
X111050000Y-84250000D01*
G75*
G02*
X111300000Y-84000000I250000J0D01*
G01*
X112400000Y-84000000D01*
G75*
G02*
X112650000Y-84250000I0J-250000D01*
G01*
X112650000Y-86750000D01*
G75*
G02*
X112400000Y-87000000I-250000J0D01*
G01*
X111300000Y-87000000D01*
G75*
G02*
X111050000Y-86750000I0J250000D01*
G01*
G37*
G36*
G01*
X121850000Y-86750000D02*
X121850000Y-84250000D01*
G75*
G02*
X122100000Y-84000000I250000J0D01*
G01*
X123200000Y-84000000D01*
G75*
G02*
X123450000Y-84250000I0J-250000D01*
G01*
X123450000Y-86750000D01*
G75*
G02*
X123200000Y-87000000I-250000J0D01*
G01*
X122100000Y-87000000D01*
G75*
G02*
X121850000Y-86750000I0J250000D01*
G01*
G37*
%TD*%
%TO.C,J8*%
G36*
G01*
X112350000Y-118250000D02*
X107350000Y-118250000D01*
G75*
G02*
X107100000Y-118000000I0J250000D01*
G01*
X107100000Y-117500000D01*
G75*
G02*
X107350000Y-117250000I250000J0D01*
G01*
X112350000Y-117250000D01*
G75*
G02*
X112600000Y-117500000I0J-250000D01*
G01*
X112600000Y-118000000D01*
G75*
G02*
X112350000Y-118250000I-250000J0D01*
G01*
G37*
G36*
G01*
X112350000Y-116250000D02*
X107350000Y-116250000D01*
G75*
G02*
X107100000Y-116000000I0J250000D01*
G01*
X107100000Y-115500000D01*
G75*
G02*
X107350000Y-115250000I250000J0D01*
G01*
X112350000Y-115250000D01*
G75*
G02*
X112600000Y-115500000I0J-250000D01*
G01*
X112600000Y-116000000D01*
G75*
G02*
X112350000Y-116250000I-250000J0D01*
G01*
G37*
G36*
G01*
X112350000Y-114250000D02*
X107350000Y-114250000D01*
G75*
G02*
X107100000Y-114000000I0J250000D01*
G01*
X107100000Y-113500000D01*
G75*
G02*
X107350000Y-113250000I250000J0D01*
G01*
X112350000Y-113250000D01*
G75*
G02*
X112600000Y-113500000I0J-250000D01*
G01*
X112600000Y-114000000D01*
G75*
G02*
X112350000Y-114250000I-250000J0D01*
G01*
G37*
G36*
G01*
X112350000Y-112250000D02*
X107350000Y-112250000D01*
G75*
G02*
X107100000Y-112000000I0J250000D01*
G01*
X107100000Y-111500000D01*
G75*
G02*
X107350000Y-111250000I250000J0D01*
G01*
X112350000Y-111250000D01*
G75*
G02*
X112600000Y-111500000I0J-250000D01*
G01*
X112600000Y-112000000D01*
G75*
G02*
X112350000Y-112250000I-250000J0D01*
G01*
G37*
G36*
G01*
X108850000Y-120950000D02*
X106350000Y-120950000D01*
G75*
G02*
X106100000Y-120700000I0J250000D01*
G01*
X106100000Y-119600000D01*
G75*
G02*
X106350000Y-119350000I250000J0D01*
G01*
X108850000Y-119350000D01*
G75*
G02*
X109100000Y-119600000I0J-250000D01*
G01*
X109100000Y-120700000D01*
G75*
G02*
X108850000Y-120950000I-250000J0D01*
G01*
G37*
G36*
G01*
X108850000Y-110150000D02*
X106350000Y-110150000D01*
G75*
G02*
X106100000Y-109900000I0J250000D01*
G01*
X106100000Y-108800000D01*
G75*
G02*
X106350000Y-108550000I250000J0D01*
G01*
X108850000Y-108550000D01*
G75*
G02*
X109100000Y-108800000I0J-250000D01*
G01*
X109100000Y-109900000D01*
G75*
G02*
X108850000Y-110150000I-250000J0D01*
G01*
G37*
%TD*%
%TO.C,C26*%
G36*
G01*
X133406250Y-119950000D02*
X132893750Y-119950000D01*
G75*
G02*
X132675000Y-119731250I0J218750D01*
G01*
X132675000Y-119293750D01*
G75*
G02*
X132893750Y-119075000I218750J0D01*
G01*
X133406250Y-119075000D01*
G75*
G02*
X133625000Y-119293750I0J-218750D01*
G01*
X133625000Y-119731250D01*
G75*
G02*
X133406250Y-119950000I-218750J0D01*
G01*
G37*
G36*
G01*
X133406250Y-121525000D02*
X132893750Y-121525000D01*
G75*
G02*
X132675000Y-121306250I0J218750D01*
G01*
X132675000Y-120868750D01*
G75*
G02*
X132893750Y-120650000I218750J0D01*
G01*
X133406250Y-120650000D01*
G75*
G02*
X133625000Y-120868750I0J-218750D01*
G01*
X133625000Y-121306250D01*
G75*
G02*
X133406250Y-121525000I-218750J0D01*
G01*
G37*
%TD*%
%TO.C,C22*%
G36*
G01*
X119456250Y-123175000D02*
X118943750Y-123175000D01*
G75*
G02*
X118725000Y-122956250I0J218750D01*
G01*
X118725000Y-122518750D01*
G75*
G02*
X118943750Y-122300000I218750J0D01*
G01*
X119456250Y-122300000D01*
G75*
G02*
X119675000Y-122518750I0J-218750D01*
G01*
X119675000Y-122956250D01*
G75*
G02*
X119456250Y-123175000I-218750J0D01*
G01*
G37*
G36*
G01*
X119456250Y-124750000D02*
X118943750Y-124750000D01*
G75*
G02*
X118725000Y-124531250I0J218750D01*
G01*
X118725000Y-124093750D01*
G75*
G02*
X118943750Y-123875000I218750J0D01*
G01*
X119456250Y-123875000D01*
G75*
G02*
X119675000Y-124093750I0J-218750D01*
G01*
X119675000Y-124531250D01*
G75*
G02*
X119456250Y-124750000I-218750J0D01*
G01*
G37*
%TD*%
%TO.C,U5*%
G36*
G01*
X119125000Y-92150000D02*
X119125000Y-91850000D01*
G75*
G02*
X119275000Y-91700000I150000J0D01*
G01*
X120925000Y-91700000D01*
G75*
G02*
X121075000Y-91850000I0J-150000D01*
G01*
X121075000Y-92150000D01*
G75*
G02*
X120925000Y-92300000I-150000J0D01*
G01*
X119275000Y-92300000D01*
G75*
G02*
X119125000Y-92150000I0J150000D01*
G01*
G37*
G36*
G01*
X119125000Y-93420000D02*
X119125000Y-93120000D01*
G75*
G02*
X119275000Y-92970000I150000J0D01*
G01*
X120925000Y-92970000D01*
G75*
G02*
X121075000Y-93120000I0J-150000D01*
G01*
X121075000Y-93420000D01*
G75*
G02*
X120925000Y-93570000I-150000J0D01*
G01*
X119275000Y-93570000D01*
G75*
G02*
X119125000Y-93420000I0J150000D01*
G01*
G37*
G36*
G01*
X119125000Y-94690000D02*
X119125000Y-94390000D01*
G75*
G02*
X119275000Y-94240000I150000J0D01*
G01*
X120925000Y-94240000D01*
G75*
G02*
X121075000Y-94390000I0J-150000D01*
G01*
X121075000Y-94690000D01*
G75*
G02*
X120925000Y-94840000I-150000J0D01*
G01*
X119275000Y-94840000D01*
G75*
G02*
X119125000Y-94690000I0J150000D01*
G01*
G37*
G36*
G01*
X119125000Y-95960000D02*
X119125000Y-95660000D01*
G75*
G02*
X119275000Y-95510000I150000J0D01*
G01*
X120925000Y-95510000D01*
G75*
G02*
X121075000Y-95660000I0J-150000D01*
G01*
X121075000Y-95960000D01*
G75*
G02*
X120925000Y-96110000I-150000J0D01*
G01*
X119275000Y-96110000D01*
G75*
G02*
X119125000Y-95960000I0J150000D01*
G01*
G37*
G36*
G01*
X114175000Y-95960000D02*
X114175000Y-95660000D01*
G75*
G02*
X114325000Y-95510000I150000J0D01*
G01*
X115975000Y-95510000D01*
G75*
G02*
X116125000Y-95660000I0J-150000D01*
G01*
X116125000Y-95960000D01*
G75*
G02*
X115975000Y-96110000I-150000J0D01*
G01*
X114325000Y-96110000D01*
G75*
G02*
X114175000Y-95960000I0J150000D01*
G01*
G37*
G36*
G01*
X114175000Y-94690000D02*
X114175000Y-94390000D01*
G75*
G02*
X114325000Y-94240000I150000J0D01*
G01*
X115975000Y-94240000D01*
G75*
G02*
X116125000Y-94390000I0J-150000D01*
G01*
X116125000Y-94690000D01*
G75*
G02*
X115975000Y-94840000I-150000J0D01*
G01*
X114325000Y-94840000D01*
G75*
G02*
X114175000Y-94690000I0J150000D01*
G01*
G37*
G36*
G01*
X114175000Y-93420000D02*
X114175000Y-93120000D01*
G75*
G02*
X114325000Y-92970000I150000J0D01*
G01*
X115975000Y-92970000D01*
G75*
G02*
X116125000Y-93120000I0J-150000D01*
G01*
X116125000Y-93420000D01*
G75*
G02*
X115975000Y-93570000I-150000J0D01*
G01*
X114325000Y-93570000D01*
G75*
G02*
X114175000Y-93420000I0J150000D01*
G01*
G37*
G36*
G01*
X114175000Y-92150000D02*
X114175000Y-91850000D01*
G75*
G02*
X114325000Y-91700000I150000J0D01*
G01*
X115975000Y-91700000D01*
G75*
G02*
X116125000Y-91850000I0J-150000D01*
G01*
X116125000Y-92150000D01*
G75*
G02*
X115975000Y-92300000I-150000J0D01*
G01*
X114325000Y-92300000D01*
G75*
G02*
X114175000Y-92150000I0J150000D01*
G01*
G37*
%TD*%
%TO.C,C2*%
G36*
G01*
X132356250Y-119950000D02*
X131843750Y-119950000D01*
G75*
G02*
X131625000Y-119731250I0J218750D01*
G01*
X131625000Y-119293750D01*
G75*
G02*
X131843750Y-119075000I218750J0D01*
G01*
X132356250Y-119075000D01*
G75*
G02*
X132575000Y-119293750I0J-218750D01*
G01*
X132575000Y-119731250D01*
G75*
G02*
X132356250Y-119950000I-218750J0D01*
G01*
G37*
G36*
G01*
X132356250Y-121525000D02*
X131843750Y-121525000D01*
G75*
G02*
X131625000Y-121306250I0J218750D01*
G01*
X131625000Y-120868750D01*
G75*
G02*
X131843750Y-120650000I218750J0D01*
G01*
X132356250Y-120650000D01*
G75*
G02*
X132575000Y-120868750I0J-218750D01*
G01*
X132575000Y-121306250D01*
G75*
G02*
X132356250Y-121525000I-218750J0D01*
G01*
G37*
%TD*%
%TO.C,C1*%
G36*
G01*
X126906250Y-120200000D02*
X126393750Y-120200000D01*
G75*
G02*
X126175000Y-119981250I0J218750D01*
G01*
X126175000Y-119543750D01*
G75*
G02*
X126393750Y-119325000I218750J0D01*
G01*
X126906250Y-119325000D01*
G75*
G02*
X127125000Y-119543750I0J-218750D01*
G01*
X127125000Y-119981250D01*
G75*
G02*
X126906250Y-120200000I-218750J0D01*
G01*
G37*
G36*
G01*
X126906250Y-121775000D02*
X126393750Y-121775000D01*
G75*
G02*
X126175000Y-121556250I0J218750D01*
G01*
X126175000Y-121118750D01*
G75*
G02*
X126393750Y-120900000I218750J0D01*
G01*
X126906250Y-120900000D01*
G75*
G02*
X127125000Y-121118750I0J-218750D01*
G01*
X127125000Y-121556250D01*
G75*
G02*
X126906250Y-121775000I-218750J0D01*
G01*
G37*
%TD*%
%TO.C,C7*%
G36*
G01*
X117747500Y-105300000D02*
X117402500Y-105300000D01*
G75*
G02*
X117255000Y-105152500I0J147500D01*
G01*
X117255000Y-104857500D01*
G75*
G02*
X117402500Y-104710000I147500J0D01*
G01*
X117747500Y-104710000D01*
G75*
G02*
X117895000Y-104857500I0J-147500D01*
G01*
X117895000Y-105152500D01*
G75*
G02*
X117747500Y-105300000I-147500J0D01*
G01*
G37*
G36*
G01*
X117747500Y-106270000D02*
X117402500Y-106270000D01*
G75*
G02*
X117255000Y-106122500I0J147500D01*
G01*
X117255000Y-105827500D01*
G75*
G02*
X117402500Y-105680000I147500J0D01*
G01*
X117747500Y-105680000D01*
G75*
G02*
X117895000Y-105827500I0J-147500D01*
G01*
X117895000Y-106122500D01*
G75*
G02*
X117747500Y-106270000I-147500J0D01*
G01*
G37*
%TD*%
%TO.C,C4*%
G36*
G01*
X117402500Y-103450000D02*
X117747500Y-103450000D01*
G75*
G02*
X117895000Y-103597500I0J-147500D01*
G01*
X117895000Y-103892500D01*
G75*
G02*
X117747500Y-104040000I-147500J0D01*
G01*
X117402500Y-104040000D01*
G75*
G02*
X117255000Y-103892500I0J147500D01*
G01*
X117255000Y-103597500D01*
G75*
G02*
X117402500Y-103450000I147500J0D01*
G01*
G37*
G36*
G01*
X117402500Y-102480000D02*
X117747500Y-102480000D01*
G75*
G02*
X117895000Y-102627500I0J-147500D01*
G01*
X117895000Y-102922500D01*
G75*
G02*
X117747500Y-103070000I-147500J0D01*
G01*
X117402500Y-103070000D01*
G75*
G02*
X117255000Y-102922500I0J147500D01*
G01*
X117255000Y-102627500D01*
G75*
G02*
X117402500Y-102480000I147500J0D01*
G01*
G37*
%TD*%
%TO.C,Rc_sbus1*%
G36*
G01*
X132562500Y-95550000D02*
X133037500Y-95550000D01*
G75*
G02*
X133275000Y-95787500I0J-237500D01*
G01*
X133275000Y-96362500D01*
G75*
G02*
X133037500Y-96600000I-237500J0D01*
G01*
X132562500Y-96600000D01*
G75*
G02*
X132325000Y-96362500I0J237500D01*
G01*
X132325000Y-95787500D01*
G75*
G02*
X132562500Y-95550000I237500J0D01*
G01*
G37*
G36*
G01*
X132562500Y-93800000D02*
X133037500Y-93800000D01*
G75*
G02*
X133275000Y-94037500I0J-237500D01*
G01*
X133275000Y-94612500D01*
G75*
G02*
X133037500Y-94850000I-237500J0D01*
G01*
X132562500Y-94850000D01*
G75*
G02*
X132325000Y-94612500I0J237500D01*
G01*
X132325000Y-94037500D01*
G75*
G02*
X132562500Y-93800000I237500J0D01*
G01*
G37*
%TD*%
%TO.C,Rb_sbus1*%
G36*
G01*
X133962500Y-95550000D02*
X134437500Y-95550000D01*
G75*
G02*
X134675000Y-95787500I0J-237500D01*
G01*
X134675000Y-96362500D01*
G75*
G02*
X134437500Y-96600000I-237500J0D01*
G01*
X133962500Y-96600000D01*
G75*
G02*
X133725000Y-96362500I0J237500D01*
G01*
X133725000Y-95787500D01*
G75*
G02*
X133962500Y-95550000I237500J0D01*
G01*
G37*
G36*
G01*
X133962500Y-93800000D02*
X134437500Y-93800000D01*
G75*
G02*
X134675000Y-94037500I0J-237500D01*
G01*
X134675000Y-94612500D01*
G75*
G02*
X134437500Y-94850000I-237500J0D01*
G01*
X133962500Y-94850000D01*
G75*
G02*
X133725000Y-94612500I0J237500D01*
G01*
X133725000Y-94037500D01*
G75*
G02*
X133962500Y-93800000I237500J0D01*
G01*
G37*
%TD*%
%TO.C,R11*%
G36*
G01*
X123568750Y-95000000D02*
X124081250Y-95000000D01*
G75*
G02*
X124300000Y-95218750I0J-218750D01*
G01*
X124300000Y-95656250D01*
G75*
G02*
X124081250Y-95875000I-218750J0D01*
G01*
X123568750Y-95875000D01*
G75*
G02*
X123350000Y-95656250I0J218750D01*
G01*
X123350000Y-95218750D01*
G75*
G02*
X123568750Y-95000000I218750J0D01*
G01*
G37*
G36*
G01*
X123568750Y-93425000D02*
X124081250Y-93425000D01*
G75*
G02*
X124300000Y-93643750I0J-218750D01*
G01*
X124300000Y-94081250D01*
G75*
G02*
X124081250Y-94300000I-218750J0D01*
G01*
X123568750Y-94300000D01*
G75*
G02*
X123350000Y-94081250I0J218750D01*
G01*
X123350000Y-93643750D01*
G75*
G02*
X123568750Y-93425000I218750J0D01*
G01*
G37*
%TD*%
%TO.C,R10*%
G36*
G01*
X121943750Y-95025000D02*
X122456250Y-95025000D01*
G75*
G02*
X122675000Y-95243750I0J-218750D01*
G01*
X122675000Y-95681250D01*
G75*
G02*
X122456250Y-95900000I-218750J0D01*
G01*
X121943750Y-95900000D01*
G75*
G02*
X121725000Y-95681250I0J218750D01*
G01*
X121725000Y-95243750D01*
G75*
G02*
X121943750Y-95025000I218750J0D01*
G01*
G37*
G36*
G01*
X121943750Y-93450000D02*
X122456250Y-93450000D01*
G75*
G02*
X122675000Y-93668750I0J-218750D01*
G01*
X122675000Y-94106250D01*
G75*
G02*
X122456250Y-94325000I-218750J0D01*
G01*
X121943750Y-94325000D01*
G75*
G02*
X121725000Y-94106250I0J218750D01*
G01*
X121725000Y-93668750D01*
G75*
G02*
X121943750Y-93450000I218750J0D01*
G01*
G37*
%TD*%
%TO.C,C3*%
G36*
G01*
X128512500Y-124131250D02*
X128512500Y-123618750D01*
G75*
G02*
X128731250Y-123400000I218750J0D01*
G01*
X129168750Y-123400000D01*
G75*
G02*
X129387500Y-123618750I0J-218750D01*
G01*
X129387500Y-124131250D01*
G75*
G02*
X129168750Y-124350000I-218750J0D01*
G01*
X128731250Y-124350000D01*
G75*
G02*
X128512500Y-124131250I0J218750D01*
G01*
G37*
G36*
G01*
X126937500Y-124131250D02*
X126937500Y-123618750D01*
G75*
G02*
X127156250Y-123400000I218750J0D01*
G01*
X127593750Y-123400000D01*
G75*
G02*
X127812500Y-123618750I0J-218750D01*
G01*
X127812500Y-124131250D01*
G75*
G02*
X127593750Y-124350000I-218750J0D01*
G01*
X127156250Y-124350000D01*
G75*
G02*
X126937500Y-124131250I0J218750D01*
G01*
G37*
%TD*%
%TO.C,U3*%
G36*
G01*
X127675000Y-119400000D02*
X127675000Y-119300000D01*
G75*
G02*
X127725000Y-119250000I50000J0D01*
G01*
X128175000Y-119250000D01*
G75*
G02*
X128225000Y-119300000I0J-50000D01*
G01*
X128225000Y-119400000D01*
G75*
G02*
X128175000Y-119450000I-50000J0D01*
G01*
X127725000Y-119450000D01*
G75*
G02*
X127675000Y-119400000I0J50000D01*
G01*
G37*
G36*
G01*
X127675000Y-119800000D02*
X127675000Y-119700000D01*
G75*
G02*
X127725000Y-119650000I50000J0D01*
G01*
X128175000Y-119650000D01*
G75*
G02*
X128225000Y-119700000I0J-50000D01*
G01*
X128225000Y-119800000D01*
G75*
G02*
X128175000Y-119850000I-50000J0D01*
G01*
X127725000Y-119850000D01*
G75*
G02*
X127675000Y-119800000I0J50000D01*
G01*
G37*
G36*
G01*
X127675000Y-120200000D02*
X127675000Y-120100000D01*
G75*
G02*
X127725000Y-120050000I50000J0D01*
G01*
X128175000Y-120050000D01*
G75*
G02*
X128225000Y-120100000I0J-50000D01*
G01*
X128225000Y-120200000D01*
G75*
G02*
X128175000Y-120250000I-50000J0D01*
G01*
X127725000Y-120250000D01*
G75*
G02*
X127675000Y-120200000I0J50000D01*
G01*
G37*
G36*
G01*
X127675000Y-120600000D02*
X127675000Y-120500000D01*
G75*
G02*
X127725000Y-120450000I50000J0D01*
G01*
X128175000Y-120450000D01*
G75*
G02*
X128225000Y-120500000I0J-50000D01*
G01*
X128225000Y-120600000D01*
G75*
G02*
X128175000Y-120650000I-50000J0D01*
G01*
X127725000Y-120650000D01*
G75*
G02*
X127675000Y-120600000I0J50000D01*
G01*
G37*
G36*
G01*
X127675000Y-121000000D02*
X127675000Y-120900000D01*
G75*
G02*
X127725000Y-120850000I50000J0D01*
G01*
X128175000Y-120850000D01*
G75*
G02*
X128225000Y-120900000I0J-50000D01*
G01*
X128225000Y-121000000D01*
G75*
G02*
X128175000Y-121050000I-50000J0D01*
G01*
X127725000Y-121050000D01*
G75*
G02*
X127675000Y-121000000I0J50000D01*
G01*
G37*
G36*
G01*
X127675000Y-121400000D02*
X127675000Y-121300000D01*
G75*
G02*
X127725000Y-121250000I50000J0D01*
G01*
X128175000Y-121250000D01*
G75*
G02*
X128225000Y-121300000I0J-50000D01*
G01*
X128225000Y-121400000D01*
G75*
G02*
X128175000Y-121450000I-50000J0D01*
G01*
X127725000Y-121450000D01*
G75*
G02*
X127675000Y-121400000I0J50000D01*
G01*
G37*
G36*
G01*
X128500000Y-122125000D02*
X128400000Y-122125000D01*
G75*
G02*
X128350000Y-122075000I0J50000D01*
G01*
X128350000Y-121625000D01*
G75*
G02*
X128400000Y-121575000I50000J0D01*
G01*
X128500000Y-121575000D01*
G75*
G02*
X128550000Y-121625000I0J-50000D01*
G01*
X128550000Y-122075000D01*
G75*
G02*
X128500000Y-122125000I-50000J0D01*
G01*
G37*
G36*
G01*
X128900000Y-122125000D02*
X128800000Y-122125000D01*
G75*
G02*
X128750000Y-122075000I0J50000D01*
G01*
X128750000Y-121625000D01*
G75*
G02*
X128800000Y-121575000I50000J0D01*
G01*
X128900000Y-121575000D01*
G75*
G02*
X128950000Y-121625000I0J-50000D01*
G01*
X128950000Y-122075000D01*
G75*
G02*
X128900000Y-122125000I-50000J0D01*
G01*
G37*
G36*
G01*
X129300000Y-122125000D02*
X129200000Y-122125000D01*
G75*
G02*
X129150000Y-122075000I0J50000D01*
G01*
X129150000Y-121625000D01*
G75*
G02*
X129200000Y-121575000I50000J0D01*
G01*
X129300000Y-121575000D01*
G75*
G02*
X129350000Y-121625000I0J-50000D01*
G01*
X129350000Y-122075000D01*
G75*
G02*
X129300000Y-122125000I-50000J0D01*
G01*
G37*
G36*
G01*
X129700000Y-122125000D02*
X129600000Y-122125000D01*
G75*
G02*
X129550000Y-122075000I0J50000D01*
G01*
X129550000Y-121625000D01*
G75*
G02*
X129600000Y-121575000I50000J0D01*
G01*
X129700000Y-121575000D01*
G75*
G02*
X129750000Y-121625000I0J-50000D01*
G01*
X129750000Y-122075000D01*
G75*
G02*
X129700000Y-122125000I-50000J0D01*
G01*
G37*
G36*
G01*
X130100000Y-122125000D02*
X130000000Y-122125000D01*
G75*
G02*
X129950000Y-122075000I0J50000D01*
G01*
X129950000Y-121625000D01*
G75*
G02*
X130000000Y-121575000I50000J0D01*
G01*
X130100000Y-121575000D01*
G75*
G02*
X130150000Y-121625000I0J-50000D01*
G01*
X130150000Y-122075000D01*
G75*
G02*
X130100000Y-122125000I-50000J0D01*
G01*
G37*
G36*
G01*
X130500000Y-122125000D02*
X130400000Y-122125000D01*
G75*
G02*
X130350000Y-122075000I0J50000D01*
G01*
X130350000Y-121625000D01*
G75*
G02*
X130400000Y-121575000I50000J0D01*
G01*
X130500000Y-121575000D01*
G75*
G02*
X130550000Y-121625000I0J-50000D01*
G01*
X130550000Y-122075000D01*
G75*
G02*
X130500000Y-122125000I-50000J0D01*
G01*
G37*
G36*
G01*
X130675000Y-121400000D02*
X130675000Y-121300000D01*
G75*
G02*
X130725000Y-121250000I50000J0D01*
G01*
X131175000Y-121250000D01*
G75*
G02*
X131225000Y-121300000I0J-50000D01*
G01*
X131225000Y-121400000D01*
G75*
G02*
X131175000Y-121450000I-50000J0D01*
G01*
X130725000Y-121450000D01*
G75*
G02*
X130675000Y-121400000I0J50000D01*
G01*
G37*
G36*
G01*
X130675000Y-121000000D02*
X130675000Y-120900000D01*
G75*
G02*
X130725000Y-120850000I50000J0D01*
G01*
X131175000Y-120850000D01*
G75*
G02*
X131225000Y-120900000I0J-50000D01*
G01*
X131225000Y-121000000D01*
G75*
G02*
X131175000Y-121050000I-50000J0D01*
G01*
X130725000Y-121050000D01*
G75*
G02*
X130675000Y-121000000I0J50000D01*
G01*
G37*
G36*
G01*
X130675000Y-120600000D02*
X130675000Y-120500000D01*
G75*
G02*
X130725000Y-120450000I50000J0D01*
G01*
X131175000Y-120450000D01*
G75*
G02*
X131225000Y-120500000I0J-50000D01*
G01*
X131225000Y-120600000D01*
G75*
G02*
X131175000Y-120650000I-50000J0D01*
G01*
X130725000Y-120650000D01*
G75*
G02*
X130675000Y-120600000I0J50000D01*
G01*
G37*
G36*
G01*
X130675000Y-120200000D02*
X130675000Y-120100000D01*
G75*
G02*
X130725000Y-120050000I50000J0D01*
G01*
X131175000Y-120050000D01*
G75*
G02*
X131225000Y-120100000I0J-50000D01*
G01*
X131225000Y-120200000D01*
G75*
G02*
X131175000Y-120250000I-50000J0D01*
G01*
X130725000Y-120250000D01*
G75*
G02*
X130675000Y-120200000I0J50000D01*
G01*
G37*
G36*
G01*
X130675000Y-119800000D02*
X130675000Y-119700000D01*
G75*
G02*
X130725000Y-119650000I50000J0D01*
G01*
X131175000Y-119650000D01*
G75*
G02*
X131225000Y-119700000I0J-50000D01*
G01*
X131225000Y-119800000D01*
G75*
G02*
X131175000Y-119850000I-50000J0D01*
G01*
X130725000Y-119850000D01*
G75*
G02*
X130675000Y-119800000I0J50000D01*
G01*
G37*
G36*
G01*
X130675000Y-119400000D02*
X130675000Y-119300000D01*
G75*
G02*
X130725000Y-119250000I50000J0D01*
G01*
X131175000Y-119250000D01*
G75*
G02*
X131225000Y-119300000I0J-50000D01*
G01*
X131225000Y-119400000D01*
G75*
G02*
X131175000Y-119450000I-50000J0D01*
G01*
X130725000Y-119450000D01*
G75*
G02*
X130675000Y-119400000I0J50000D01*
G01*
G37*
G36*
G01*
X130500000Y-119125000D02*
X130400000Y-119125000D01*
G75*
G02*
X130350000Y-119075000I0J50000D01*
G01*
X130350000Y-118625000D01*
G75*
G02*
X130400000Y-118575000I50000J0D01*
G01*
X130500000Y-118575000D01*
G75*
G02*
X130550000Y-118625000I0J-50000D01*
G01*
X130550000Y-119075000D01*
G75*
G02*
X130500000Y-119125000I-50000J0D01*
G01*
G37*
G36*
G01*
X130100000Y-119125000D02*
X130000000Y-119125000D01*
G75*
G02*
X129950000Y-119075000I0J50000D01*
G01*
X129950000Y-118625000D01*
G75*
G02*
X130000000Y-118575000I50000J0D01*
G01*
X130100000Y-118575000D01*
G75*
G02*
X130150000Y-118625000I0J-50000D01*
G01*
X130150000Y-119075000D01*
G75*
G02*
X130100000Y-119125000I-50000J0D01*
G01*
G37*
G36*
G01*
X129700000Y-119125000D02*
X129600000Y-119125000D01*
G75*
G02*
X129550000Y-119075000I0J50000D01*
G01*
X129550000Y-118625000D01*
G75*
G02*
X129600000Y-118575000I50000J0D01*
G01*
X129700000Y-118575000D01*
G75*
G02*
X129750000Y-118625000I0J-50000D01*
G01*
X129750000Y-119075000D01*
G75*
G02*
X129700000Y-119125000I-50000J0D01*
G01*
G37*
G36*
G01*
X129300000Y-119125000D02*
X129200000Y-119125000D01*
G75*
G02*
X129150000Y-119075000I0J50000D01*
G01*
X129150000Y-118625000D01*
G75*
G02*
X129200000Y-118575000I50000J0D01*
G01*
X129300000Y-118575000D01*
G75*
G02*
X129350000Y-118625000I0J-50000D01*
G01*
X129350000Y-119075000D01*
G75*
G02*
X129300000Y-119125000I-50000J0D01*
G01*
G37*
G36*
G01*
X128900000Y-119125000D02*
X128800000Y-119125000D01*
G75*
G02*
X128750000Y-119075000I0J50000D01*
G01*
X128750000Y-118625000D01*
G75*
G02*
X128800000Y-118575000I50000J0D01*
G01*
X128900000Y-118575000D01*
G75*
G02*
X128950000Y-118625000I0J-50000D01*
G01*
X128950000Y-119075000D01*
G75*
G02*
X128900000Y-119125000I-50000J0D01*
G01*
G37*
G36*
G01*
X128500000Y-119125000D02*
X128400000Y-119125000D01*
G75*
G02*
X128350000Y-119075000I0J50000D01*
G01*
X128350000Y-118625000D01*
G75*
G02*
X128400000Y-118575000I50000J0D01*
G01*
X128500000Y-118575000D01*
G75*
G02*
X128550000Y-118625000I0J-50000D01*
G01*
X128550000Y-119075000D01*
G75*
G02*
X128500000Y-119125000I-50000J0D01*
G01*
G37*
%TD*%
D13*
%TO.C,Y1*%
X120725000Y-103375000D03*
X120725000Y-105575000D03*
X119025000Y-105575000D03*
X119025000Y-103375000D03*
%TD*%
D14*
%TO.C,U2*%
X145100000Y-98200000D03*
X145100000Y-97250000D03*
X145100000Y-96300000D03*
X142900000Y-96300000D03*
X142900000Y-98200000D03*
X142900000Y-97250000D03*
%TD*%
%TO.C,U1*%
G36*
G01*
X125700000Y-101025000D02*
X125700000Y-99625000D01*
G75*
G02*
X125775000Y-99550000I75000J0D01*
G01*
X125925000Y-99550000D01*
G75*
G02*
X126000000Y-99625000I0J-75000D01*
G01*
X126000000Y-101025000D01*
G75*
G02*
X125925000Y-101100000I-75000J0D01*
G01*
X125775000Y-101100000D01*
G75*
G02*
X125700000Y-101025000I0J75000D01*
G01*
G37*
G36*
G01*
X126200000Y-101025000D02*
X126200000Y-99625000D01*
G75*
G02*
X126275000Y-99550000I75000J0D01*
G01*
X126425000Y-99550000D01*
G75*
G02*
X126500000Y-99625000I0J-75000D01*
G01*
X126500000Y-101025000D01*
G75*
G02*
X126425000Y-101100000I-75000J0D01*
G01*
X126275000Y-101100000D01*
G75*
G02*
X126200000Y-101025000I0J75000D01*
G01*
G37*
G36*
G01*
X126700000Y-101025000D02*
X126700000Y-99625000D01*
G75*
G02*
X126775000Y-99550000I75000J0D01*
G01*
X126925000Y-99550000D01*
G75*
G02*
X127000000Y-99625000I0J-75000D01*
G01*
X127000000Y-101025000D01*
G75*
G02*
X126925000Y-101100000I-75000J0D01*
G01*
X126775000Y-101100000D01*
G75*
G02*
X126700000Y-101025000I0J75000D01*
G01*
G37*
G36*
G01*
X127200000Y-101025000D02*
X127200000Y-99625000D01*
G75*
G02*
X127275000Y-99550000I75000J0D01*
G01*
X127425000Y-99550000D01*
G75*
G02*
X127500000Y-99625000I0J-75000D01*
G01*
X127500000Y-101025000D01*
G75*
G02*
X127425000Y-101100000I-75000J0D01*
G01*
X127275000Y-101100000D01*
G75*
G02*
X127200000Y-101025000I0J75000D01*
G01*
G37*
G36*
G01*
X127700000Y-101025000D02*
X127700000Y-99625000D01*
G75*
G02*
X127775000Y-99550000I75000J0D01*
G01*
X127925000Y-99550000D01*
G75*
G02*
X128000000Y-99625000I0J-75000D01*
G01*
X128000000Y-101025000D01*
G75*
G02*
X127925000Y-101100000I-75000J0D01*
G01*
X127775000Y-101100000D01*
G75*
G02*
X127700000Y-101025000I0J75000D01*
G01*
G37*
G36*
G01*
X128200000Y-101025000D02*
X128200000Y-99625000D01*
G75*
G02*
X128275000Y-99550000I75000J0D01*
G01*
X128425000Y-99550000D01*
G75*
G02*
X128500000Y-99625000I0J-75000D01*
G01*
X128500000Y-101025000D01*
G75*
G02*
X128425000Y-101100000I-75000J0D01*
G01*
X128275000Y-101100000D01*
G75*
G02*
X128200000Y-101025000I0J75000D01*
G01*
G37*
G36*
G01*
X128700000Y-101025000D02*
X128700000Y-99625000D01*
G75*
G02*
X128775000Y-99550000I75000J0D01*
G01*
X128925000Y-99550000D01*
G75*
G02*
X129000000Y-99625000I0J-75000D01*
G01*
X129000000Y-101025000D01*
G75*
G02*
X128925000Y-101100000I-75000J0D01*
G01*
X128775000Y-101100000D01*
G75*
G02*
X128700000Y-101025000I0J75000D01*
G01*
G37*
G36*
G01*
X129200000Y-101025000D02*
X129200000Y-99625000D01*
G75*
G02*
X129275000Y-99550000I75000J0D01*
G01*
X129425000Y-99550000D01*
G75*
G02*
X129500000Y-99625000I0J-75000D01*
G01*
X129500000Y-101025000D01*
G75*
G02*
X129425000Y-101100000I-75000J0D01*
G01*
X129275000Y-101100000D01*
G75*
G02*
X129200000Y-101025000I0J75000D01*
G01*
G37*
G36*
G01*
X129700000Y-101025000D02*
X129700000Y-99625000D01*
G75*
G02*
X129775000Y-99550000I75000J0D01*
G01*
X129925000Y-99550000D01*
G75*
G02*
X130000000Y-99625000I0J-75000D01*
G01*
X130000000Y-101025000D01*
G75*
G02*
X129925000Y-101100000I-75000J0D01*
G01*
X129775000Y-101100000D01*
G75*
G02*
X129700000Y-101025000I0J75000D01*
G01*
G37*
G36*
G01*
X130200000Y-101025000D02*
X130200000Y-99625000D01*
G75*
G02*
X130275000Y-99550000I75000J0D01*
G01*
X130425000Y-99550000D01*
G75*
G02*
X130500000Y-99625000I0J-75000D01*
G01*
X130500000Y-101025000D01*
G75*
G02*
X130425000Y-101100000I-75000J0D01*
G01*
X130275000Y-101100000D01*
G75*
G02*
X130200000Y-101025000I0J75000D01*
G01*
G37*
G36*
G01*
X130700000Y-101025000D02*
X130700000Y-99625000D01*
G75*
G02*
X130775000Y-99550000I75000J0D01*
G01*
X130925000Y-99550000D01*
G75*
G02*
X131000000Y-99625000I0J-75000D01*
G01*
X131000000Y-101025000D01*
G75*
G02*
X130925000Y-101100000I-75000J0D01*
G01*
X130775000Y-101100000D01*
G75*
G02*
X130700000Y-101025000I0J75000D01*
G01*
G37*
G36*
G01*
X131200000Y-101025000D02*
X131200000Y-99625000D01*
G75*
G02*
X131275000Y-99550000I75000J0D01*
G01*
X131425000Y-99550000D01*
G75*
G02*
X131500000Y-99625000I0J-75000D01*
G01*
X131500000Y-101025000D01*
G75*
G02*
X131425000Y-101100000I-75000J0D01*
G01*
X131275000Y-101100000D01*
G75*
G02*
X131200000Y-101025000I0J75000D01*
G01*
G37*
G36*
G01*
X131700000Y-101025000D02*
X131700000Y-99625000D01*
G75*
G02*
X131775000Y-99550000I75000J0D01*
G01*
X131925000Y-99550000D01*
G75*
G02*
X132000000Y-99625000I0J-75000D01*
G01*
X132000000Y-101025000D01*
G75*
G02*
X131925000Y-101100000I-75000J0D01*
G01*
X131775000Y-101100000D01*
G75*
G02*
X131700000Y-101025000I0J75000D01*
G01*
G37*
G36*
G01*
X132200000Y-101025000D02*
X132200000Y-99625000D01*
G75*
G02*
X132275000Y-99550000I75000J0D01*
G01*
X132425000Y-99550000D01*
G75*
G02*
X132500000Y-99625000I0J-75000D01*
G01*
X132500000Y-101025000D01*
G75*
G02*
X132425000Y-101100000I-75000J0D01*
G01*
X132275000Y-101100000D01*
G75*
G02*
X132200000Y-101025000I0J75000D01*
G01*
G37*
G36*
G01*
X132700000Y-101025000D02*
X132700000Y-99625000D01*
G75*
G02*
X132775000Y-99550000I75000J0D01*
G01*
X132925000Y-99550000D01*
G75*
G02*
X133000000Y-99625000I0J-75000D01*
G01*
X133000000Y-101025000D01*
G75*
G02*
X132925000Y-101100000I-75000J0D01*
G01*
X132775000Y-101100000D01*
G75*
G02*
X132700000Y-101025000I0J75000D01*
G01*
G37*
G36*
G01*
X133200000Y-101025000D02*
X133200000Y-99625000D01*
G75*
G02*
X133275000Y-99550000I75000J0D01*
G01*
X133425000Y-99550000D01*
G75*
G02*
X133500000Y-99625000I0J-75000D01*
G01*
X133500000Y-101025000D01*
G75*
G02*
X133425000Y-101100000I-75000J0D01*
G01*
X133275000Y-101100000D01*
G75*
G02*
X133200000Y-101025000I0J75000D01*
G01*
G37*
G36*
G01*
X134500000Y-102325000D02*
X134500000Y-102175000D01*
G75*
G02*
X134575000Y-102100000I75000J0D01*
G01*
X135975000Y-102100000D01*
G75*
G02*
X136050000Y-102175000I0J-75000D01*
G01*
X136050000Y-102325000D01*
G75*
G02*
X135975000Y-102400000I-75000J0D01*
G01*
X134575000Y-102400000D01*
G75*
G02*
X134500000Y-102325000I0J75000D01*
G01*
G37*
G36*
G01*
X134500000Y-102825000D02*
X134500000Y-102675000D01*
G75*
G02*
X134575000Y-102600000I75000J0D01*
G01*
X135975000Y-102600000D01*
G75*
G02*
X136050000Y-102675000I0J-75000D01*
G01*
X136050000Y-102825000D01*
G75*
G02*
X135975000Y-102900000I-75000J0D01*
G01*
X134575000Y-102900000D01*
G75*
G02*
X134500000Y-102825000I0J75000D01*
G01*
G37*
G36*
G01*
X134500000Y-103325000D02*
X134500000Y-103175000D01*
G75*
G02*
X134575000Y-103100000I75000J0D01*
G01*
X135975000Y-103100000D01*
G75*
G02*
X136050000Y-103175000I0J-75000D01*
G01*
X136050000Y-103325000D01*
G75*
G02*
X135975000Y-103400000I-75000J0D01*
G01*
X134575000Y-103400000D01*
G75*
G02*
X134500000Y-103325000I0J75000D01*
G01*
G37*
G36*
G01*
X134500000Y-103825000D02*
X134500000Y-103675000D01*
G75*
G02*
X134575000Y-103600000I75000J0D01*
G01*
X135975000Y-103600000D01*
G75*
G02*
X136050000Y-103675000I0J-75000D01*
G01*
X136050000Y-103825000D01*
G75*
G02*
X135975000Y-103900000I-75000J0D01*
G01*
X134575000Y-103900000D01*
G75*
G02*
X134500000Y-103825000I0J75000D01*
G01*
G37*
G36*
G01*
X134500000Y-104325000D02*
X134500000Y-104175000D01*
G75*
G02*
X134575000Y-104100000I75000J0D01*
G01*
X135975000Y-104100000D01*
G75*
G02*
X136050000Y-104175000I0J-75000D01*
G01*
X136050000Y-104325000D01*
G75*
G02*
X135975000Y-104400000I-75000J0D01*
G01*
X134575000Y-104400000D01*
G75*
G02*
X134500000Y-104325000I0J75000D01*
G01*
G37*
G36*
G01*
X134500000Y-104825000D02*
X134500000Y-104675000D01*
G75*
G02*
X134575000Y-104600000I75000J0D01*
G01*
X135975000Y-104600000D01*
G75*
G02*
X136050000Y-104675000I0J-75000D01*
G01*
X136050000Y-104825000D01*
G75*
G02*
X135975000Y-104900000I-75000J0D01*
G01*
X134575000Y-104900000D01*
G75*
G02*
X134500000Y-104825000I0J75000D01*
G01*
G37*
G36*
G01*
X134500000Y-105325000D02*
X134500000Y-105175000D01*
G75*
G02*
X134575000Y-105100000I75000J0D01*
G01*
X135975000Y-105100000D01*
G75*
G02*
X136050000Y-105175000I0J-75000D01*
G01*
X136050000Y-105325000D01*
G75*
G02*
X135975000Y-105400000I-75000J0D01*
G01*
X134575000Y-105400000D01*
G75*
G02*
X134500000Y-105325000I0J75000D01*
G01*
G37*
G36*
G01*
X134500000Y-105825000D02*
X134500000Y-105675000D01*
G75*
G02*
X134575000Y-105600000I75000J0D01*
G01*
X135975000Y-105600000D01*
G75*
G02*
X136050000Y-105675000I0J-75000D01*
G01*
X136050000Y-105825000D01*
G75*
G02*
X135975000Y-105900000I-75000J0D01*
G01*
X134575000Y-105900000D01*
G75*
G02*
X134500000Y-105825000I0J75000D01*
G01*
G37*
G36*
G01*
X134500000Y-106325000D02*
X134500000Y-106175000D01*
G75*
G02*
X134575000Y-106100000I75000J0D01*
G01*
X135975000Y-106100000D01*
G75*
G02*
X136050000Y-106175000I0J-75000D01*
G01*
X136050000Y-106325000D01*
G75*
G02*
X135975000Y-106400000I-75000J0D01*
G01*
X134575000Y-106400000D01*
G75*
G02*
X134500000Y-106325000I0J75000D01*
G01*
G37*
G36*
G01*
X134500000Y-106825000D02*
X134500000Y-106675000D01*
G75*
G02*
X134575000Y-106600000I75000J0D01*
G01*
X135975000Y-106600000D01*
G75*
G02*
X136050000Y-106675000I0J-75000D01*
G01*
X136050000Y-106825000D01*
G75*
G02*
X135975000Y-106900000I-75000J0D01*
G01*
X134575000Y-106900000D01*
G75*
G02*
X134500000Y-106825000I0J75000D01*
G01*
G37*
G36*
G01*
X134500000Y-107325000D02*
X134500000Y-107175000D01*
G75*
G02*
X134575000Y-107100000I75000J0D01*
G01*
X135975000Y-107100000D01*
G75*
G02*
X136050000Y-107175000I0J-75000D01*
G01*
X136050000Y-107325000D01*
G75*
G02*
X135975000Y-107400000I-75000J0D01*
G01*
X134575000Y-107400000D01*
G75*
G02*
X134500000Y-107325000I0J75000D01*
G01*
G37*
G36*
G01*
X134500000Y-107825000D02*
X134500000Y-107675000D01*
G75*
G02*
X134575000Y-107600000I75000J0D01*
G01*
X135975000Y-107600000D01*
G75*
G02*
X136050000Y-107675000I0J-75000D01*
G01*
X136050000Y-107825000D01*
G75*
G02*
X135975000Y-107900000I-75000J0D01*
G01*
X134575000Y-107900000D01*
G75*
G02*
X134500000Y-107825000I0J75000D01*
G01*
G37*
G36*
G01*
X134500000Y-108325000D02*
X134500000Y-108175000D01*
G75*
G02*
X134575000Y-108100000I75000J0D01*
G01*
X135975000Y-108100000D01*
G75*
G02*
X136050000Y-108175000I0J-75000D01*
G01*
X136050000Y-108325000D01*
G75*
G02*
X135975000Y-108400000I-75000J0D01*
G01*
X134575000Y-108400000D01*
G75*
G02*
X134500000Y-108325000I0J75000D01*
G01*
G37*
G36*
G01*
X134500000Y-108825000D02*
X134500000Y-108675000D01*
G75*
G02*
X134575000Y-108600000I75000J0D01*
G01*
X135975000Y-108600000D01*
G75*
G02*
X136050000Y-108675000I0J-75000D01*
G01*
X136050000Y-108825000D01*
G75*
G02*
X135975000Y-108900000I-75000J0D01*
G01*
X134575000Y-108900000D01*
G75*
G02*
X134500000Y-108825000I0J75000D01*
G01*
G37*
G36*
G01*
X134500000Y-109325000D02*
X134500000Y-109175000D01*
G75*
G02*
X134575000Y-109100000I75000J0D01*
G01*
X135975000Y-109100000D01*
G75*
G02*
X136050000Y-109175000I0J-75000D01*
G01*
X136050000Y-109325000D01*
G75*
G02*
X135975000Y-109400000I-75000J0D01*
G01*
X134575000Y-109400000D01*
G75*
G02*
X134500000Y-109325000I0J75000D01*
G01*
G37*
G36*
G01*
X134500000Y-109825000D02*
X134500000Y-109675000D01*
G75*
G02*
X134575000Y-109600000I75000J0D01*
G01*
X135975000Y-109600000D01*
G75*
G02*
X136050000Y-109675000I0J-75000D01*
G01*
X136050000Y-109825000D01*
G75*
G02*
X135975000Y-109900000I-75000J0D01*
G01*
X134575000Y-109900000D01*
G75*
G02*
X134500000Y-109825000I0J75000D01*
G01*
G37*
G36*
G01*
X133200000Y-112375000D02*
X133200000Y-110975000D01*
G75*
G02*
X133275000Y-110900000I75000J0D01*
G01*
X133425000Y-110900000D01*
G75*
G02*
X133500000Y-110975000I0J-75000D01*
G01*
X133500000Y-112375000D01*
G75*
G02*
X133425000Y-112450000I-75000J0D01*
G01*
X133275000Y-112450000D01*
G75*
G02*
X133200000Y-112375000I0J75000D01*
G01*
G37*
G36*
G01*
X132700000Y-112375000D02*
X132700000Y-110975000D01*
G75*
G02*
X132775000Y-110900000I75000J0D01*
G01*
X132925000Y-110900000D01*
G75*
G02*
X133000000Y-110975000I0J-75000D01*
G01*
X133000000Y-112375000D01*
G75*
G02*
X132925000Y-112450000I-75000J0D01*
G01*
X132775000Y-112450000D01*
G75*
G02*
X132700000Y-112375000I0J75000D01*
G01*
G37*
G36*
G01*
X132200000Y-112375000D02*
X132200000Y-110975000D01*
G75*
G02*
X132275000Y-110900000I75000J0D01*
G01*
X132425000Y-110900000D01*
G75*
G02*
X132500000Y-110975000I0J-75000D01*
G01*
X132500000Y-112375000D01*
G75*
G02*
X132425000Y-112450000I-75000J0D01*
G01*
X132275000Y-112450000D01*
G75*
G02*
X132200000Y-112375000I0J75000D01*
G01*
G37*
G36*
G01*
X131700000Y-112375000D02*
X131700000Y-110975000D01*
G75*
G02*
X131775000Y-110900000I75000J0D01*
G01*
X131925000Y-110900000D01*
G75*
G02*
X132000000Y-110975000I0J-75000D01*
G01*
X132000000Y-112375000D01*
G75*
G02*
X131925000Y-112450000I-75000J0D01*
G01*
X131775000Y-112450000D01*
G75*
G02*
X131700000Y-112375000I0J75000D01*
G01*
G37*
G36*
G01*
X131200000Y-112375000D02*
X131200000Y-110975000D01*
G75*
G02*
X131275000Y-110900000I75000J0D01*
G01*
X131425000Y-110900000D01*
G75*
G02*
X131500000Y-110975000I0J-75000D01*
G01*
X131500000Y-112375000D01*
G75*
G02*
X131425000Y-112450000I-75000J0D01*
G01*
X131275000Y-112450000D01*
G75*
G02*
X131200000Y-112375000I0J75000D01*
G01*
G37*
G36*
G01*
X130700000Y-112375000D02*
X130700000Y-110975000D01*
G75*
G02*
X130775000Y-110900000I75000J0D01*
G01*
X130925000Y-110900000D01*
G75*
G02*
X131000000Y-110975000I0J-75000D01*
G01*
X131000000Y-112375000D01*
G75*
G02*
X130925000Y-112450000I-75000J0D01*
G01*
X130775000Y-112450000D01*
G75*
G02*
X130700000Y-112375000I0J75000D01*
G01*
G37*
G36*
G01*
X130200000Y-112375000D02*
X130200000Y-110975000D01*
G75*
G02*
X130275000Y-110900000I75000J0D01*
G01*
X130425000Y-110900000D01*
G75*
G02*
X130500000Y-110975000I0J-75000D01*
G01*
X130500000Y-112375000D01*
G75*
G02*
X130425000Y-112450000I-75000J0D01*
G01*
X130275000Y-112450000D01*
G75*
G02*
X130200000Y-112375000I0J75000D01*
G01*
G37*
G36*
G01*
X129700000Y-112375000D02*
X129700000Y-110975000D01*
G75*
G02*
X129775000Y-110900000I75000J0D01*
G01*
X129925000Y-110900000D01*
G75*
G02*
X130000000Y-110975000I0J-75000D01*
G01*
X130000000Y-112375000D01*
G75*
G02*
X129925000Y-112450000I-75000J0D01*
G01*
X129775000Y-112450000D01*
G75*
G02*
X129700000Y-112375000I0J75000D01*
G01*
G37*
G36*
G01*
X129200000Y-112375000D02*
X129200000Y-110975000D01*
G75*
G02*
X129275000Y-110900000I75000J0D01*
G01*
X129425000Y-110900000D01*
G75*
G02*
X129500000Y-110975000I0J-75000D01*
G01*
X129500000Y-112375000D01*
G75*
G02*
X129425000Y-112450000I-75000J0D01*
G01*
X129275000Y-112450000D01*
G75*
G02*
X129200000Y-112375000I0J75000D01*
G01*
G37*
G36*
G01*
X128700000Y-112375000D02*
X128700000Y-110975000D01*
G75*
G02*
X128775000Y-110900000I75000J0D01*
G01*
X128925000Y-110900000D01*
G75*
G02*
X129000000Y-110975000I0J-75000D01*
G01*
X129000000Y-112375000D01*
G75*
G02*
X128925000Y-112450000I-75000J0D01*
G01*
X128775000Y-112450000D01*
G75*
G02*
X128700000Y-112375000I0J75000D01*
G01*
G37*
G36*
G01*
X128200000Y-112375000D02*
X128200000Y-110975000D01*
G75*
G02*
X128275000Y-110900000I75000J0D01*
G01*
X128425000Y-110900000D01*
G75*
G02*
X128500000Y-110975000I0J-75000D01*
G01*
X128500000Y-112375000D01*
G75*
G02*
X128425000Y-112450000I-75000J0D01*
G01*
X128275000Y-112450000D01*
G75*
G02*
X128200000Y-112375000I0J75000D01*
G01*
G37*
G36*
G01*
X127700000Y-112375000D02*
X127700000Y-110975000D01*
G75*
G02*
X127775000Y-110900000I75000J0D01*
G01*
X127925000Y-110900000D01*
G75*
G02*
X128000000Y-110975000I0J-75000D01*
G01*
X128000000Y-112375000D01*
G75*
G02*
X127925000Y-112450000I-75000J0D01*
G01*
X127775000Y-112450000D01*
G75*
G02*
X127700000Y-112375000I0J75000D01*
G01*
G37*
G36*
G01*
X127200000Y-112375000D02*
X127200000Y-110975000D01*
G75*
G02*
X127275000Y-110900000I75000J0D01*
G01*
X127425000Y-110900000D01*
G75*
G02*
X127500000Y-110975000I0J-75000D01*
G01*
X127500000Y-112375000D01*
G75*
G02*
X127425000Y-112450000I-75000J0D01*
G01*
X127275000Y-112450000D01*
G75*
G02*
X127200000Y-112375000I0J75000D01*
G01*
G37*
G36*
G01*
X126700000Y-112375000D02*
X126700000Y-110975000D01*
G75*
G02*
X126775000Y-110900000I75000J0D01*
G01*
X126925000Y-110900000D01*
G75*
G02*
X127000000Y-110975000I0J-75000D01*
G01*
X127000000Y-112375000D01*
G75*
G02*
X126925000Y-112450000I-75000J0D01*
G01*
X126775000Y-112450000D01*
G75*
G02*
X126700000Y-112375000I0J75000D01*
G01*
G37*
G36*
G01*
X126200000Y-112375000D02*
X126200000Y-110975000D01*
G75*
G02*
X126275000Y-110900000I75000J0D01*
G01*
X126425000Y-110900000D01*
G75*
G02*
X126500000Y-110975000I0J-75000D01*
G01*
X126500000Y-112375000D01*
G75*
G02*
X126425000Y-112450000I-75000J0D01*
G01*
X126275000Y-112450000D01*
G75*
G02*
X126200000Y-112375000I0J75000D01*
G01*
G37*
G36*
G01*
X125700000Y-112375000D02*
X125700000Y-110975000D01*
G75*
G02*
X125775000Y-110900000I75000J0D01*
G01*
X125925000Y-110900000D01*
G75*
G02*
X126000000Y-110975000I0J-75000D01*
G01*
X126000000Y-112375000D01*
G75*
G02*
X125925000Y-112450000I-75000J0D01*
G01*
X125775000Y-112450000D01*
G75*
G02*
X125700000Y-112375000I0J75000D01*
G01*
G37*
G36*
G01*
X123150000Y-109825000D02*
X123150000Y-109675000D01*
G75*
G02*
X123225000Y-109600000I75000J0D01*
G01*
X124625000Y-109600000D01*
G75*
G02*
X124700000Y-109675000I0J-75000D01*
G01*
X124700000Y-109825000D01*
G75*
G02*
X124625000Y-109900000I-75000J0D01*
G01*
X123225000Y-109900000D01*
G75*
G02*
X123150000Y-109825000I0J75000D01*
G01*
G37*
G36*
G01*
X123150000Y-109325000D02*
X123150000Y-109175000D01*
G75*
G02*
X123225000Y-109100000I75000J0D01*
G01*
X124625000Y-109100000D01*
G75*
G02*
X124700000Y-109175000I0J-75000D01*
G01*
X124700000Y-109325000D01*
G75*
G02*
X124625000Y-109400000I-75000J0D01*
G01*
X123225000Y-109400000D01*
G75*
G02*
X123150000Y-109325000I0J75000D01*
G01*
G37*
G36*
G01*
X123150000Y-108825000D02*
X123150000Y-108675000D01*
G75*
G02*
X123225000Y-108600000I75000J0D01*
G01*
X124625000Y-108600000D01*
G75*
G02*
X124700000Y-108675000I0J-75000D01*
G01*
X124700000Y-108825000D01*
G75*
G02*
X124625000Y-108900000I-75000J0D01*
G01*
X123225000Y-108900000D01*
G75*
G02*
X123150000Y-108825000I0J75000D01*
G01*
G37*
G36*
G01*
X123150000Y-108325000D02*
X123150000Y-108175000D01*
G75*
G02*
X123225000Y-108100000I75000J0D01*
G01*
X124625000Y-108100000D01*
G75*
G02*
X124700000Y-108175000I0J-75000D01*
G01*
X124700000Y-108325000D01*
G75*
G02*
X124625000Y-108400000I-75000J0D01*
G01*
X123225000Y-108400000D01*
G75*
G02*
X123150000Y-108325000I0J75000D01*
G01*
G37*
G36*
G01*
X123150000Y-107825000D02*
X123150000Y-107675000D01*
G75*
G02*
X123225000Y-107600000I75000J0D01*
G01*
X124625000Y-107600000D01*
G75*
G02*
X124700000Y-107675000I0J-75000D01*
G01*
X124700000Y-107825000D01*
G75*
G02*
X124625000Y-107900000I-75000J0D01*
G01*
X123225000Y-107900000D01*
G75*
G02*
X123150000Y-107825000I0J75000D01*
G01*
G37*
G36*
G01*
X123150000Y-107325000D02*
X123150000Y-107175000D01*
G75*
G02*
X123225000Y-107100000I75000J0D01*
G01*
X124625000Y-107100000D01*
G75*
G02*
X124700000Y-107175000I0J-75000D01*
G01*
X124700000Y-107325000D01*
G75*
G02*
X124625000Y-107400000I-75000J0D01*
G01*
X123225000Y-107400000D01*
G75*
G02*
X123150000Y-107325000I0J75000D01*
G01*
G37*
G36*
G01*
X123150000Y-106825000D02*
X123150000Y-106675000D01*
G75*
G02*
X123225000Y-106600000I75000J0D01*
G01*
X124625000Y-106600000D01*
G75*
G02*
X124700000Y-106675000I0J-75000D01*
G01*
X124700000Y-106825000D01*
G75*
G02*
X124625000Y-106900000I-75000J0D01*
G01*
X123225000Y-106900000D01*
G75*
G02*
X123150000Y-106825000I0J75000D01*
G01*
G37*
G36*
G01*
X123150000Y-106325000D02*
X123150000Y-106175000D01*
G75*
G02*
X123225000Y-106100000I75000J0D01*
G01*
X124625000Y-106100000D01*
G75*
G02*
X124700000Y-106175000I0J-75000D01*
G01*
X124700000Y-106325000D01*
G75*
G02*
X124625000Y-106400000I-75000J0D01*
G01*
X123225000Y-106400000D01*
G75*
G02*
X123150000Y-106325000I0J75000D01*
G01*
G37*
G36*
G01*
X123150000Y-105825000D02*
X123150000Y-105675000D01*
G75*
G02*
X123225000Y-105600000I75000J0D01*
G01*
X124625000Y-105600000D01*
G75*
G02*
X124700000Y-105675000I0J-75000D01*
G01*
X124700000Y-105825000D01*
G75*
G02*
X124625000Y-105900000I-75000J0D01*
G01*
X123225000Y-105900000D01*
G75*
G02*
X123150000Y-105825000I0J75000D01*
G01*
G37*
G36*
G01*
X123150000Y-105325000D02*
X123150000Y-105175000D01*
G75*
G02*
X123225000Y-105100000I75000J0D01*
G01*
X124625000Y-105100000D01*
G75*
G02*
X124700000Y-105175000I0J-75000D01*
G01*
X124700000Y-105325000D01*
G75*
G02*
X124625000Y-105400000I-75000J0D01*
G01*
X123225000Y-105400000D01*
G75*
G02*
X123150000Y-105325000I0J75000D01*
G01*
G37*
G36*
G01*
X123150000Y-104825000D02*
X123150000Y-104675000D01*
G75*
G02*
X123225000Y-104600000I75000J0D01*
G01*
X124625000Y-104600000D01*
G75*
G02*
X124700000Y-104675000I0J-75000D01*
G01*
X124700000Y-104825000D01*
G75*
G02*
X124625000Y-104900000I-75000J0D01*
G01*
X123225000Y-104900000D01*
G75*
G02*
X123150000Y-104825000I0J75000D01*
G01*
G37*
G36*
G01*
X123150000Y-104325000D02*
X123150000Y-104175000D01*
G75*
G02*
X123225000Y-104100000I75000J0D01*
G01*
X124625000Y-104100000D01*
G75*
G02*
X124700000Y-104175000I0J-75000D01*
G01*
X124700000Y-104325000D01*
G75*
G02*
X124625000Y-104400000I-75000J0D01*
G01*
X123225000Y-104400000D01*
G75*
G02*
X123150000Y-104325000I0J75000D01*
G01*
G37*
G36*
G01*
X123150000Y-103825000D02*
X123150000Y-103675000D01*
G75*
G02*
X123225000Y-103600000I75000J0D01*
G01*
X124625000Y-103600000D01*
G75*
G02*
X124700000Y-103675000I0J-75000D01*
G01*
X124700000Y-103825000D01*
G75*
G02*
X124625000Y-103900000I-75000J0D01*
G01*
X123225000Y-103900000D01*
G75*
G02*
X123150000Y-103825000I0J75000D01*
G01*
G37*
G36*
G01*
X123150000Y-103325000D02*
X123150000Y-103175000D01*
G75*
G02*
X123225000Y-103100000I75000J0D01*
G01*
X124625000Y-103100000D01*
G75*
G02*
X124700000Y-103175000I0J-75000D01*
G01*
X124700000Y-103325000D01*
G75*
G02*
X124625000Y-103400000I-75000J0D01*
G01*
X123225000Y-103400000D01*
G75*
G02*
X123150000Y-103325000I0J75000D01*
G01*
G37*
G36*
G01*
X123150000Y-102825000D02*
X123150000Y-102675000D01*
G75*
G02*
X123225000Y-102600000I75000J0D01*
G01*
X124625000Y-102600000D01*
G75*
G02*
X124700000Y-102675000I0J-75000D01*
G01*
X124700000Y-102825000D01*
G75*
G02*
X124625000Y-102900000I-75000J0D01*
G01*
X123225000Y-102900000D01*
G75*
G02*
X123150000Y-102825000I0J75000D01*
G01*
G37*
G36*
G01*
X123150000Y-102325000D02*
X123150000Y-102175000D01*
G75*
G02*
X123225000Y-102100000I75000J0D01*
G01*
X124625000Y-102100000D01*
G75*
G02*
X124700000Y-102175000I0J-75000D01*
G01*
X124700000Y-102325000D01*
G75*
G02*
X124625000Y-102400000I-75000J0D01*
G01*
X123225000Y-102400000D01*
G75*
G02*
X123150000Y-102325000I0J75000D01*
G01*
G37*
%TD*%
D15*
%TO.C,SW1*%
X110200000Y-94820000D03*
X110200000Y-100580000D03*
X106200000Y-100580000D03*
X106200000Y-94820000D03*
%TD*%
%TO.C,Rc_sbus2*%
G36*
G01*
X131400000Y-92412500D02*
X131400000Y-92887500D01*
G75*
G02*
X131162500Y-93125000I-237500J0D01*
G01*
X130587500Y-93125000D01*
G75*
G02*
X130350000Y-92887500I0J237500D01*
G01*
X130350000Y-92412500D01*
G75*
G02*
X130587500Y-92175000I237500J0D01*
G01*
X131162500Y-92175000D01*
G75*
G02*
X131400000Y-92412500I0J-237500D01*
G01*
G37*
G36*
G01*
X133150000Y-92412500D02*
X133150000Y-92887500D01*
G75*
G02*
X132912500Y-93125000I-237500J0D01*
G01*
X132337500Y-93125000D01*
G75*
G02*
X132100000Y-92887500I0J237500D01*
G01*
X132100000Y-92412500D01*
G75*
G02*
X132337500Y-92175000I237500J0D01*
G01*
X132912500Y-92175000D01*
G75*
G02*
X133150000Y-92412500I0J-237500D01*
G01*
G37*
%TD*%
%TO.C,R9*%
G36*
G01*
X137475000Y-95687500D02*
X137475000Y-96162500D01*
G75*
G02*
X137237500Y-96400000I-237500J0D01*
G01*
X136662500Y-96400000D01*
G75*
G02*
X136425000Y-96162500I0J237500D01*
G01*
X136425000Y-95687500D01*
G75*
G02*
X136662500Y-95450000I237500J0D01*
G01*
X137237500Y-95450000D01*
G75*
G02*
X137475000Y-95687500I0J-237500D01*
G01*
G37*
G36*
G01*
X139225000Y-95687500D02*
X139225000Y-96162500D01*
G75*
G02*
X138987500Y-96400000I-237500J0D01*
G01*
X138412500Y-96400000D01*
G75*
G02*
X138175000Y-96162500I0J237500D01*
G01*
X138175000Y-95687500D01*
G75*
G02*
X138412500Y-95450000I237500J0D01*
G01*
X138987500Y-95450000D01*
G75*
G02*
X139225000Y-95687500I0J-237500D01*
G01*
G37*
%TD*%
%TO.C,R8*%
G36*
G01*
X118650000Y-98662500D02*
X118650000Y-99137500D01*
G75*
G02*
X118412500Y-99375000I-237500J0D01*
G01*
X117837500Y-99375000D01*
G75*
G02*
X117600000Y-99137500I0J237500D01*
G01*
X117600000Y-98662500D01*
G75*
G02*
X117837500Y-98425000I237500J0D01*
G01*
X118412500Y-98425000D01*
G75*
G02*
X118650000Y-98662500I0J-237500D01*
G01*
G37*
G36*
G01*
X120400000Y-98662500D02*
X120400000Y-99137500D01*
G75*
G02*
X120162500Y-99375000I-237500J0D01*
G01*
X119587500Y-99375000D01*
G75*
G02*
X119350000Y-99137500I0J237500D01*
G01*
X119350000Y-98662500D01*
G75*
G02*
X119587500Y-98425000I237500J0D01*
G01*
X120162500Y-98425000D01*
G75*
G02*
X120400000Y-98662500I0J-237500D01*
G01*
G37*
%TD*%
%TO.C,R7*%
G36*
G01*
X118650000Y-100162500D02*
X118650000Y-100637500D01*
G75*
G02*
X118412500Y-100875000I-237500J0D01*
G01*
X117837500Y-100875000D01*
G75*
G02*
X117600000Y-100637500I0J237500D01*
G01*
X117600000Y-100162500D01*
G75*
G02*
X117837500Y-99925000I237500J0D01*
G01*
X118412500Y-99925000D01*
G75*
G02*
X118650000Y-100162500I0J-237500D01*
G01*
G37*
G36*
G01*
X120400000Y-100162500D02*
X120400000Y-100637500D01*
G75*
G02*
X120162500Y-100875000I-237500J0D01*
G01*
X119587500Y-100875000D01*
G75*
G02*
X119350000Y-100637500I0J237500D01*
G01*
X119350000Y-100162500D01*
G75*
G02*
X119587500Y-99925000I237500J0D01*
G01*
X120162500Y-99925000D01*
G75*
G02*
X120400000Y-100162500I0J-237500D01*
G01*
G37*
%TD*%
%TO.C,R6*%
G36*
G01*
X118650000Y-97162500D02*
X118650000Y-97637500D01*
G75*
G02*
X118412500Y-97875000I-237500J0D01*
G01*
X117837500Y-97875000D01*
G75*
G02*
X117600000Y-97637500I0J237500D01*
G01*
X117600000Y-97162500D01*
G75*
G02*
X117837500Y-96925000I237500J0D01*
G01*
X118412500Y-96925000D01*
G75*
G02*
X118650000Y-97162500I0J-237500D01*
G01*
G37*
G36*
G01*
X120400000Y-97162500D02*
X120400000Y-97637500D01*
G75*
G02*
X120162500Y-97875000I-237500J0D01*
G01*
X119587500Y-97875000D01*
G75*
G02*
X119350000Y-97637500I0J237500D01*
G01*
X119350000Y-97162500D01*
G75*
G02*
X119587500Y-96925000I237500J0D01*
G01*
X120162500Y-96925000D01*
G75*
G02*
X120400000Y-97162500I0J-237500D01*
G01*
G37*
%TD*%
%TO.C,R5*%
G36*
G01*
X112843750Y-97050000D02*
X113356250Y-97050000D01*
G75*
G02*
X113575000Y-97268750I0J-218750D01*
G01*
X113575000Y-97706250D01*
G75*
G02*
X113356250Y-97925000I-218750J0D01*
G01*
X112843750Y-97925000D01*
G75*
G02*
X112625000Y-97706250I0J218750D01*
G01*
X112625000Y-97268750D01*
G75*
G02*
X112843750Y-97050000I218750J0D01*
G01*
G37*
G36*
G01*
X112843750Y-95475000D02*
X113356250Y-95475000D01*
G75*
G02*
X113575000Y-95693750I0J-218750D01*
G01*
X113575000Y-96131250D01*
G75*
G02*
X113356250Y-96350000I-218750J0D01*
G01*
X112843750Y-96350000D01*
G75*
G02*
X112625000Y-96131250I0J218750D01*
G01*
X112625000Y-95693750D01*
G75*
G02*
X112843750Y-95475000I218750J0D01*
G01*
G37*
%TD*%
%TO.C,R3*%
G36*
G01*
X110562500Y-106350000D02*
X111037500Y-106350000D01*
G75*
G02*
X111275000Y-106587500I0J-237500D01*
G01*
X111275000Y-107162500D01*
G75*
G02*
X111037500Y-107400000I-237500J0D01*
G01*
X110562500Y-107400000D01*
G75*
G02*
X110325000Y-107162500I0J237500D01*
G01*
X110325000Y-106587500D01*
G75*
G02*
X110562500Y-106350000I237500J0D01*
G01*
G37*
G36*
G01*
X110562500Y-104600000D02*
X111037500Y-104600000D01*
G75*
G02*
X111275000Y-104837500I0J-237500D01*
G01*
X111275000Y-105412500D01*
G75*
G02*
X111037500Y-105650000I-237500J0D01*
G01*
X110562500Y-105650000D01*
G75*
G02*
X110325000Y-105412500I0J237500D01*
G01*
X110325000Y-104837500D01*
G75*
G02*
X110562500Y-104600000I237500J0D01*
G01*
G37*
%TD*%
%TO.C,R2*%
G36*
G01*
X110275000Y-103837500D02*
X110275000Y-103362500D01*
G75*
G02*
X110512500Y-103125000I237500J0D01*
G01*
X111087500Y-103125000D01*
G75*
G02*
X111325000Y-103362500I0J-237500D01*
G01*
X111325000Y-103837500D01*
G75*
G02*
X111087500Y-104075000I-237500J0D01*
G01*
X110512500Y-104075000D01*
G75*
G02*
X110275000Y-103837500I0J237500D01*
G01*
G37*
G36*
G01*
X108525000Y-103837500D02*
X108525000Y-103362500D01*
G75*
G02*
X108762500Y-103125000I237500J0D01*
G01*
X109337500Y-103125000D01*
G75*
G02*
X109575000Y-103362500I0J-237500D01*
G01*
X109575000Y-103837500D01*
G75*
G02*
X109337500Y-104075000I-237500J0D01*
G01*
X108762500Y-104075000D01*
G75*
G02*
X108525000Y-103837500I0J237500D01*
G01*
G37*
%TD*%
D11*
%TO.C,Q1*%
X130200000Y-94200000D03*
X131150000Y-96200000D03*
X129250000Y-96200000D03*
%TD*%
D16*
%TO.C,J1*%
X149987500Y-95950000D03*
D17*
X147287500Y-97600000D03*
X147287500Y-98250000D03*
X147287500Y-95650000D03*
X147287500Y-96300000D03*
X147287500Y-96950000D03*
D16*
X149987500Y-97950000D03*
%TD*%
%TO.C,D5*%
G36*
G01*
X137450000Y-94262500D02*
X137450000Y-94737500D01*
G75*
G02*
X137212500Y-94975000I-237500J0D01*
G01*
X136637500Y-94975000D01*
G75*
G02*
X136400000Y-94737500I0J237500D01*
G01*
X136400000Y-94262500D01*
G75*
G02*
X136637500Y-94025000I237500J0D01*
G01*
X137212500Y-94025000D01*
G75*
G02*
X137450000Y-94262500I0J-237500D01*
G01*
G37*
G36*
G01*
X139200000Y-94262500D02*
X139200000Y-94737500D01*
G75*
G02*
X138962500Y-94975000I-237500J0D01*
G01*
X138387500Y-94975000D01*
G75*
G02*
X138150000Y-94737500I0J237500D01*
G01*
X138150000Y-94262500D01*
G75*
G02*
X138387500Y-94025000I237500J0D01*
G01*
X138962500Y-94025000D01*
G75*
G02*
X139200000Y-94262500I0J-237500D01*
G01*
G37*
%TD*%
%TO.C,D4*%
G36*
G01*
X116050000Y-99137500D02*
X116050000Y-98662500D01*
G75*
G02*
X116287500Y-98425000I237500J0D01*
G01*
X116862500Y-98425000D01*
G75*
G02*
X117100000Y-98662500I0J-237500D01*
G01*
X117100000Y-99137500D01*
G75*
G02*
X116862500Y-99375000I-237500J0D01*
G01*
X116287500Y-99375000D01*
G75*
G02*
X116050000Y-99137500I0J237500D01*
G01*
G37*
G36*
G01*
X114300000Y-99137500D02*
X114300000Y-98662500D01*
G75*
G02*
X114537500Y-98425000I237500J0D01*
G01*
X115112500Y-98425000D01*
G75*
G02*
X115350000Y-98662500I0J-237500D01*
G01*
X115350000Y-99137500D01*
G75*
G02*
X115112500Y-99375000I-237500J0D01*
G01*
X114537500Y-99375000D01*
G75*
G02*
X114300000Y-99137500I0J237500D01*
G01*
G37*
%TD*%
%TO.C,D3*%
G36*
G01*
X116050000Y-100637500D02*
X116050000Y-100162500D01*
G75*
G02*
X116287500Y-99925000I237500J0D01*
G01*
X116862500Y-99925000D01*
G75*
G02*
X117100000Y-100162500I0J-237500D01*
G01*
X117100000Y-100637500D01*
G75*
G02*
X116862500Y-100875000I-237500J0D01*
G01*
X116287500Y-100875000D01*
G75*
G02*
X116050000Y-100637500I0J237500D01*
G01*
G37*
G36*
G01*
X114300000Y-100637500D02*
X114300000Y-100162500D01*
G75*
G02*
X114537500Y-99925000I237500J0D01*
G01*
X115112500Y-99925000D01*
G75*
G02*
X115350000Y-100162500I0J-237500D01*
G01*
X115350000Y-100637500D01*
G75*
G02*
X115112500Y-100875000I-237500J0D01*
G01*
X114537500Y-100875000D01*
G75*
G02*
X114300000Y-100637500I0J237500D01*
G01*
G37*
%TD*%
%TO.C,D2*%
G36*
G01*
X116050000Y-97637500D02*
X116050000Y-97162500D01*
G75*
G02*
X116287500Y-96925000I237500J0D01*
G01*
X116862500Y-96925000D01*
G75*
G02*
X117100000Y-97162500I0J-237500D01*
G01*
X117100000Y-97637500D01*
G75*
G02*
X116862500Y-97875000I-237500J0D01*
G01*
X116287500Y-97875000D01*
G75*
G02*
X116050000Y-97637500I0J237500D01*
G01*
G37*
G36*
G01*
X114300000Y-97637500D02*
X114300000Y-97162500D01*
G75*
G02*
X114537500Y-96925000I237500J0D01*
G01*
X115112500Y-96925000D01*
G75*
G02*
X115350000Y-97162500I0J-237500D01*
G01*
X115350000Y-97637500D01*
G75*
G02*
X115112500Y-97875000I-237500J0D01*
G01*
X114537500Y-97875000D01*
G75*
G02*
X114300000Y-97637500I0J237500D01*
G01*
G37*
%TD*%
%TO.C,C11*%
G36*
G01*
X113356250Y-99350000D02*
X112843750Y-99350000D01*
G75*
G02*
X112625000Y-99131250I0J218750D01*
G01*
X112625000Y-98693750D01*
G75*
G02*
X112843750Y-98475000I218750J0D01*
G01*
X113356250Y-98475000D01*
G75*
G02*
X113575000Y-98693750I0J-218750D01*
G01*
X113575000Y-99131250D01*
G75*
G02*
X113356250Y-99350000I-218750J0D01*
G01*
G37*
G36*
G01*
X113356250Y-100925000D02*
X112843750Y-100925000D01*
G75*
G02*
X112625000Y-100706250I0J218750D01*
G01*
X112625000Y-100268750D01*
G75*
G02*
X112843750Y-100050000I218750J0D01*
G01*
X113356250Y-100050000D01*
G75*
G02*
X113575000Y-100268750I0J-218750D01*
G01*
X113575000Y-100706250D01*
G75*
G02*
X113356250Y-100925000I-218750J0D01*
G01*
G37*
%TD*%
M02*
