M48
; DRILL file {KiCad (5.1.6)-1} date 08/20/20 13:52:49
; FORMAT={-:-/ absolute / inch / decimal}
; #@! TF.CreationDate,2020-08-20T13:52:49+07:00
; #@! TF.GenerationSoftware,Kicad,Pcbnew,(5.1.6)-1
; #@! TF.FileFunction,Plated,1,2,PTH
FMAT,2
INCH
T1C0.0118
T2C0.0236
T3C0.0300
T4C0.0315
T5C0.0335
T6C0.0394
T7C0.1181
%
G90
G05
T1
X4.1693Y-3.5276
X4.1713Y-3.687
X4.1811Y-3.75
X4.2008Y-3.9636
X4.2028Y-4.8012
X4.2037Y-4.5159
X4.2067Y-4.8661
X4.2185Y-4.9173
X4.2283Y-3.7963
X4.2285Y-4.4313
X4.2323Y-3.8553
X4.2333Y-4.3967
X4.2362Y-4.8327
X4.2598Y-3.6348
X4.2598Y-4.6427
X4.2618Y-3.8272
X4.2638Y-3.752
X4.2638Y-3.939
X4.2648Y-4.0276
X4.2648Y-4.3967
X4.2648Y-4.7884
X4.2677Y-3.9783
X4.2776Y-4.8199
X4.2776Y-4.8593
X4.2776Y-4.8986
X4.2894Y-4.1762
X4.2904Y-4.6427
X4.3002Y-4.3967
X4.3051Y-3.5157
X4.312Y-4.2215
X4.3179Y-4.6427
X4.3238Y-4.3297
X4.3346Y-4.3967
X4.3356Y-4.2884
X4.3396Y-5.0768
X4.3455Y-4.6427
X4.3484Y-3.5797
X4.373Y-4.3967
X4.377Y-4.6427
X4.3797Y-4.8191
X4.3809Y-3.5089
X4.3809Y-4.6929
X4.3819Y-4.3287
X4.3839Y-4.9331
X4.3878Y-4.251
X4.3888Y-4.2884
X4.3907Y-3.8661
X4.3917Y-4.7362
X4.3927Y-3.5827
X4.4035Y-4.8602
X4.4055Y-4.6427
X4.4094Y-4.7717
X4.4144Y-4.3967
X4.4203Y-3.5217
X4.4311Y-3.4705
X4.437Y-3.7362
X4.437Y-4.7067
X4.437Y-5.0315
X4.439Y-4.3297
X4.4409Y-4.9311
X4.4419Y-4.252
X4.4429Y-4.9764
X4.4488Y-4.2904
X4.4547Y-3.3228
X4.4567Y-3.6102
X4.4665Y-4.5846
X4.4724Y-3.7205
X4.4724Y-4.7913
X4.4736Y-3.672
X4.4744Y-4.7441
X4.4764Y-4.9646
X4.4803Y-4.4035
X4.4843Y-4.0896
X4.4852Y-4.0413
X4.4852Y-4.1506
X4.4967Y-3.3423
X4.498Y-3.5482
X4.501Y-3.4518
X4.5012Y-4.5193
X4.503Y-4.6427
X4.5039Y-4.2904
X4.5108Y-4.7037
X4.5148Y-4.2559
X4.5167Y-4.3307
X4.5207Y-3.8346
X4.5305Y-4.4045
X4.5366Y-4.5185
X4.5374Y-4.6083
X4.5394Y-5.0236
X4.5413Y-4.0413
X4.5413Y-4.1506
X4.5423Y-4.2037
X4.5433Y-4.1083
X4.5492Y-4.2904
X4.5512Y-3.3248
X4.56Y-3.6142
X4.5659Y-3.6742
X4.5659Y-4.5807
X4.5699Y-4.4045
X4.5886Y-4.2559
X4.5906Y-4.1388
X4.5909Y-4.0933
X4.5915Y-4.0118
X4.5915Y-4.0413
X4.5925Y-4.3297
X4.5935Y-4.1998
X4.6024Y-4.4035
X4.6049Y-3.749
X4.6053Y-3.3228
X4.6191Y-4.9065
X4.622Y-4.8484
X4.626Y-3.5984
X4.6289Y-4.1093
X4.6305Y-4.0116
X4.6476Y-4.9065
X4.6516Y-4.2037
X4.6541Y-4.375
X4.6565Y-4.8484
X4.6644Y-4.2559
X4.6781Y-4.3445
X4.685Y-3.6693
X4.6909Y-4.2037
X4.6911Y-4.7778
X4.6919Y-3.5846
X4.6949Y-4.8947
X4.6969Y-4.5344
X4.7254Y-4.3321
X4.7303Y-4.2037
X4.7333Y-4.4646
X4.736Y-4.2776
X4.7362Y-4.5354
X4.7402Y-4.752
X4.7598Y-3.2785
X4.7618Y-4.436
X4.7638Y-4.2047
X4.7656Y-4.3238
X4.7657Y-4.6378
X4.7719Y-4.0203
X4.7776Y-4.5974
X4.7815Y-3.4626
X4.7815Y-3.5049
X4.7815Y-3.5413
X4.7815Y-4.5413
X4.7894Y-4.4656
X4.7972Y-4.1583
X4.7982Y-4.0778
X4.8049Y-4.4104
X4.8061Y-3.2766
X4.811Y-4.2677
X4.8128Y-4.3266
X4.815Y-4.2303
X4.8258Y-3.4636
X4.8317Y-4.4656
X4.8384Y-4.5238
X4.8404Y-4.9018
X4.8484Y-3.5945
X4.8573Y-3.2776
X4.8667Y-3.8734
X4.8691Y-4.9212
X4.873Y-3.8061
X4.874Y-3.6978
X4.875Y-4.4656
X4.8876Y-4.5238
X4.8878Y-4.7795
X4.8898Y-4.8809
X4.9037Y-4.5931
X4.9065Y-3.5108
X4.9075Y-3.3681
X4.9075Y-3.5581
X4.9085Y-3.6024
X4.9094Y-3.4341
X4.9094Y-4.8022
X4.9124Y-3.2795
X4.9144Y-3.3169
X4.9252Y-3.8642
X4.9252Y-4.8947
X4.9262Y-4.8415
X4.935Y-4.2421
X4.9469Y-3.7057
X4.9498Y-4.6122
X4.9624Y-3.8628
X4.9626Y-4.9035
X4.9665Y-4.1398
X4.9734Y-3.6781
X4.975Y-4.5624
X4.9864Y-4.5187
X4.9941Y-4.1624
X4.9943Y-4.7774
X4.9947Y-4.462
X5.0Y-4.6831
X5.0138Y-3.6781
X5.0138Y-3.7096
X5.0138Y-3.7411
X5.0138Y-3.7726
X5.0148Y-3.6398
X5.025Y-4.651
X5.0285Y-4.3455
X5.0295Y-3.8622
X5.0335Y-3.8996
X5.0443Y-4.0935
X5.0443Y-4.1329
X5.0443Y-4.1722
X5.0443Y-4.2116
X5.0443Y-4.251
X5.0492Y-4.5207
X5.051Y-4.9006
X5.0768Y-4.3455
X5.0778Y-4.4941
X5.0837Y-4.0935
X5.0837Y-4.1329
X5.0837Y-4.1722
X5.0837Y-4.2116
X5.0837Y-4.251
X5.0945Y-4.0394
X5.0965Y-3.876
X5.0998Y-3.6526
X5.1014Y-4.937
X5.1053Y-3.8346
X5.1102Y-4.065
X5.1156Y-3.3809
X5.1171Y-4.5531
X5.1183Y-4.3463
X5.1201Y-4.5118
X5.123Y-4.1329
X5.123Y-4.1722
X5.123Y-4.2116
X5.123Y-4.251
X5.1234Y-4.0947
X5.128Y-3.8012
X5.128Y-4.6417
X5.1329Y-4.9134
X5.1358Y-4.4557
X5.1516Y-3.8524
X5.162Y-4.3396
X5.1624Y-4.0935
X5.1624Y-4.1329
X5.1624Y-4.1722
X5.1624Y-4.2116
X5.1624Y-4.251
X5.1642Y-4.8969
X5.1683Y-4.6486
X5.1701Y-3.8268
X5.1732Y-3.5906
X5.1772Y-4.5561
X5.2018Y-4.0935
X5.2018Y-4.1329
X5.2018Y-4.1722
X5.2018Y-4.2116
X5.2018Y-4.251
X5.2047Y-4.0079
X5.2047Y-4.8563
X5.2067Y-4.6693
X5.2205Y-4.5768
X5.2283Y-3.8228
X5.2352Y-4.0354
X5.2441Y-4.3209
X5.2485Y-4.5458
X5.2486Y-4.4837
X5.2539Y-4.6693
X5.2579Y-4.5945
X5.2677Y-3.6693
X5.2869Y-4.3863
X5.2933Y-3.873
X5.2933Y-4.5433
X5.3014Y-4.514
X5.3066Y-4.406
X5.3095Y-4.4444
X5.312Y-4.6112
X5.3209Y-3.8455
X5.3396Y-3.9508
X5.3425Y-4.5945
X5.3465Y-3.8189
X5.3642Y-4.5374
X5.3654Y-3.8894
X5.3681Y-3.6201
X5.3858Y-3.6693
X5.3984Y-4.7232
X5.4016Y-4.7543
X5.402Y-4.7929
X5.4075Y-4.8681
X5.4075Y-4.9094
X5.4089Y-4.003
X5.4148Y-3.4852
X5.4183Y-4.3415
X5.4183Y-4.9557
X5.4203Y-4.374
X5.4226Y-4.4443
X5.4242Y-4.4134
X5.4291Y-4.0571
X5.4341Y-4.1337
X5.4455Y-3.5207
X5.4508Y-4.5472
X5.4528Y-4.8652
X5.4537Y-4.3524
X5.4553Y-4.1616
X5.4567Y-4.4409
X5.4587Y-4.3868
X5.4606Y-3.7205
X5.4685Y-3.9094
X5.4715Y-3.4006
X5.4734Y-3.439
X5.4809Y-4.1915
X5.4872Y-4.0413
X5.5049Y-3.8711
X5.5083Y-3.7244
X5.5098Y-3.9301
X5.5108Y-3.9911
X5.5157Y-3.6043
X5.5305Y-4.1053
X5.5325Y-4.9498
X5.5453Y-3.5679
X5.551Y-4.0825
X5.5768Y-5.0226
X5.5778Y-3.5453
X5.5884Y-3.9884
X5.5965Y-3.8986
X5.6083Y-3.3986
X5.6132Y-5.0226
X5.6159Y-4.5207
X5.6161Y-3.9419
X5.6171Y-4.2943
X5.6171Y-4.3346
X5.6191Y-4.5689
X5.6211Y-3.2707
X5.622Y-3.7441
X5.6222Y-4.3817
X5.626Y-3.8278
X5.626Y-4.6732
X5.626Y-4.7608
X5.628Y-4.1191
X5.6299Y-4.8189
X5.6299Y-4.8583
X5.6299Y-4.8986
X5.6299Y-4.9429
X5.6319Y-3.6969
X5.6496Y-5.0226
X5.6545Y-4.0551
X5.6654Y-4.1693
X5.6841Y-4.2854
X5.6841Y-4.3268
X5.6848Y-4.2278
X5.686Y-4.4222
X5.687Y-4.3907
X5.7087Y-3.7441
X5.7087Y-5.0207
X5.7116Y-4.9567
X5.7215Y-3.9961
X5.7313Y-3.6654
X5.7362Y-4.935
X5.7392Y-4.1043
X5.7402Y-3.7441
X5.7402Y-5.0197
X5.7549Y-3.3986
X5.7559Y-3.2904
X5.7559Y-3.3465
X5.7648Y-4.9163
X5.7717Y-4.1043
X5.7795Y-5.0138
X5.7874Y-3.8685
X5.7919Y-4.0163
X5.8051Y-3.6673
X5.8051Y-4.9902
X5.8268Y-4.9665
X5.8281Y-3.4077
X5.8366Y-3.9596
X5.8509Y-3.9926
X5.878Y-4.9311
T3
X5.4791Y-4.6189
X5.4791Y-4.7189
X5.4791Y-4.8189
X5.4791Y-4.9189
X5.5791Y-4.6189
X5.5791Y-4.7189
X5.5791Y-4.8189
X5.5791Y-4.9189
T4
X4.2067Y-4.0945
X4.2067Y-4.1945
T5
X5.7987Y-3.7185
X5.7987Y-3.9154
T6
X4.5945Y-5.0394
X4.6945Y-5.0394
X4.7945Y-5.0394
X4.8945Y-5.0394
X4.9945Y-5.0394
X5.0945Y-5.0394
X5.1945Y-5.0394
X5.2945Y-5.0394
X5.3945Y-5.0394
X5.4945Y-5.0394
X5.062Y-3.4301
X5.162Y-3.4301
X5.262Y-3.4301
X5.362Y-3.4301
X5.6132Y-3.488
X5.7132Y-3.488
X5.8132Y-3.488
X5.9132Y-3.488
X4.2071Y-3.4874
X4.2071Y-3.5874
X5.9469Y-4.1602
X5.9469Y-4.2602
X5.9469Y-4.3602
X5.9469Y-4.4602
X5.9469Y-4.5602
X5.9469Y-4.6602
X5.9469Y-4.7602
X5.9469Y-4.8602
X5.064Y-3.3219
X5.164Y-3.3219
X5.264Y-3.3219
X5.062Y-3.5364
X5.162Y-3.5364
X5.262Y-3.5364
X5.362Y-3.5364
X5.7362Y-4.1583
X5.7362Y-4.2583
X5.7362Y-4.3583
X5.7362Y-4.4583
X5.7362Y-4.5583
X5.7362Y-4.6583
X5.7362Y-4.7583
X5.7362Y-4.8583
X5.8425Y-4.1602
X5.8425Y-4.2602
X5.8425Y-4.3602
X5.8425Y-4.4602
X5.8425Y-4.5602
X5.8425Y-4.6602
X5.8425Y-4.7602
X5.8425Y-4.8602
X5.374Y-3.3209
X5.474Y-3.3209
X5.574Y-3.3209
X5.674Y-3.3209
X5.8469Y-4.0512
X5.9469Y-4.0512
X5.7104Y-3.5856
X5.8104Y-3.5856
X5.9104Y-3.5856
T7
X4.2402Y-5.0236
X4.2441Y-3.3465
X5.8898Y-5.0276
X5.8976Y-3.3386
T2
G00X5.8912Y-3.6791
M15
G01X5.9188Y-3.6791
M16
G05
G00X5.9188Y-3.9547
M15
G01X5.8912Y-3.9547
M16
G05
T0
M30
